G04 EAGLE Gerber RS-274X export*
G75*
%MOMM*%
%FSLAX34Y34*%
%LPD*%
%INCopper Layer 2*%
%IPPOS*%
%AMOC8*
5,1,8,0,0,1.08239X$1,22.5*%
G01*
%ADD10C,1.960000*%
%ADD11C,1.244600*%
%ADD12C,1.400000*%
%ADD13C,4.016000*%
%ADD14C,4.191000*%
%ADD15C,0.609600*%

G36*
X1266109Y2556D02*
X1266109Y2556D01*
X1266227Y2563D01*
X1266266Y2575D01*
X1266306Y2581D01*
X1266417Y2624D01*
X1266530Y2661D01*
X1266564Y2683D01*
X1266602Y2698D01*
X1266698Y2767D01*
X1266799Y2831D01*
X1266827Y2861D01*
X1266859Y2884D01*
X1266935Y2976D01*
X1267017Y3063D01*
X1267036Y3098D01*
X1267062Y3129D01*
X1267113Y3237D01*
X1267170Y3341D01*
X1267180Y3380D01*
X1267198Y3417D01*
X1267220Y3534D01*
X1267250Y3649D01*
X1267254Y3709D01*
X1267257Y3729D01*
X1267256Y3750D01*
X1267260Y3810D01*
X1267459Y1012190D01*
X1267444Y1012308D01*
X1267436Y1012427D01*
X1267424Y1012465D01*
X1267419Y1012505D01*
X1267375Y1012616D01*
X1267338Y1012729D01*
X1267317Y1012764D01*
X1267302Y1012801D01*
X1267232Y1012897D01*
X1267168Y1012998D01*
X1267139Y1013026D01*
X1267115Y1013058D01*
X1267023Y1013134D01*
X1266936Y1013216D01*
X1266901Y1013236D01*
X1266870Y1013261D01*
X1266762Y1013312D01*
X1266658Y1013370D01*
X1266619Y1013380D01*
X1266582Y1013397D01*
X1266465Y1013419D01*
X1266350Y1013449D01*
X1266290Y1013453D01*
X1266270Y1013457D01*
X1266250Y1013455D01*
X1266189Y1013459D01*
X3810Y1013459D01*
X3692Y1013444D01*
X3573Y1013437D01*
X3535Y1013424D01*
X3494Y1013419D01*
X3384Y1013376D01*
X3271Y1013339D01*
X3236Y1013317D01*
X3199Y1013302D01*
X3103Y1013233D01*
X3002Y1013169D01*
X2974Y1013139D01*
X2941Y1013116D01*
X2865Y1013024D01*
X2784Y1012937D01*
X2764Y1012902D01*
X2739Y1012871D01*
X2688Y1012763D01*
X2630Y1012659D01*
X2620Y1012619D01*
X2603Y1012583D01*
X2581Y1012466D01*
X2551Y1012351D01*
X2547Y1012291D01*
X2543Y1012271D01*
X2545Y1012250D01*
X2541Y1012190D01*
X2541Y3810D01*
X2556Y3692D01*
X2563Y3573D01*
X2576Y3535D01*
X2581Y3494D01*
X2624Y3384D01*
X2661Y3271D01*
X2683Y3236D01*
X2698Y3199D01*
X2767Y3103D01*
X2831Y3002D01*
X2861Y2974D01*
X2884Y2941D01*
X2976Y2865D01*
X3063Y2784D01*
X3098Y2764D01*
X3129Y2739D01*
X3237Y2688D01*
X3341Y2630D01*
X3381Y2620D01*
X3417Y2603D01*
X3534Y2581D01*
X3649Y2551D01*
X3709Y2547D01*
X3729Y2543D01*
X3750Y2545D01*
X3810Y2541D01*
X1265991Y2541D01*
X1266109Y2556D01*
G37*
%LPC*%
G36*
X1214526Y941704D02*
X1214526Y941704D01*
X1205891Y945281D01*
X1199281Y951891D01*
X1195704Y960526D01*
X1195704Y969874D01*
X1199281Y978509D01*
X1205891Y985119D01*
X1214526Y988696D01*
X1223874Y988696D01*
X1232509Y985119D01*
X1239119Y978509D01*
X1242696Y969874D01*
X1242696Y960526D01*
X1239119Y951891D01*
X1232509Y945281D01*
X1223874Y941704D01*
X1214526Y941704D01*
G37*
%LPD*%
%LPC*%
G36*
X58826Y941704D02*
X58826Y941704D01*
X50191Y945281D01*
X43581Y951891D01*
X40004Y960526D01*
X40004Y969874D01*
X43581Y978509D01*
X50191Y985119D01*
X58826Y988696D01*
X68174Y988696D01*
X76809Y985119D01*
X83419Y978509D01*
X86996Y969874D01*
X86996Y960526D01*
X83419Y951891D01*
X76809Y945281D01*
X68174Y941704D01*
X58826Y941704D01*
G37*
%LPD*%
%LPC*%
G36*
X1214526Y27304D02*
X1214526Y27304D01*
X1205891Y30881D01*
X1199281Y37491D01*
X1195704Y46126D01*
X1195704Y55474D01*
X1199281Y64109D01*
X1205891Y70719D01*
X1214526Y74296D01*
X1223874Y74296D01*
X1232509Y70719D01*
X1239119Y64109D01*
X1242696Y55474D01*
X1242696Y46126D01*
X1239119Y37491D01*
X1232509Y30881D01*
X1223874Y27304D01*
X1214526Y27304D01*
G37*
%LPD*%
%LPC*%
G36*
X46126Y27304D02*
X46126Y27304D01*
X37491Y30881D01*
X30881Y37491D01*
X27304Y46126D01*
X27304Y55474D01*
X30881Y64109D01*
X37491Y70719D01*
X46126Y74296D01*
X55474Y74296D01*
X64109Y70719D01*
X70719Y64109D01*
X74296Y55474D01*
X74296Y46126D01*
X70719Y37491D01*
X64109Y30881D01*
X55474Y27304D01*
X46126Y27304D01*
G37*
%LPD*%
%LPC*%
G36*
X1063570Y839709D02*
X1063570Y839709D01*
X1055256Y843153D01*
X1048893Y849516D01*
X1045449Y857830D01*
X1045449Y866830D01*
X1048893Y875144D01*
X1055256Y881507D01*
X1063570Y884951D01*
X1072570Y884951D01*
X1080884Y881507D01*
X1087247Y875144D01*
X1090691Y866830D01*
X1090691Y857830D01*
X1087247Y849516D01*
X1080884Y843153D01*
X1072570Y839709D01*
X1063570Y839709D01*
G37*
%LPD*%
%LPC*%
G36*
X231720Y839709D02*
X231720Y839709D01*
X223406Y843153D01*
X217043Y849516D01*
X213599Y857830D01*
X213599Y866830D01*
X217043Y875144D01*
X223406Y881507D01*
X231720Y884951D01*
X240720Y884951D01*
X249034Y881507D01*
X255397Y875144D01*
X258841Y866830D01*
X258841Y857830D01*
X255397Y849516D01*
X249034Y843153D01*
X240720Y839709D01*
X231720Y839709D01*
G37*
%LPD*%
%LPC*%
G36*
X1063570Y268209D02*
X1063570Y268209D01*
X1055256Y271653D01*
X1048893Y278016D01*
X1045449Y286330D01*
X1045449Y295330D01*
X1048893Y303644D01*
X1055256Y310007D01*
X1063570Y313451D01*
X1072570Y313451D01*
X1080884Y310007D01*
X1087247Y303644D01*
X1090691Y295330D01*
X1090691Y286330D01*
X1087247Y278016D01*
X1080884Y271653D01*
X1072570Y268209D01*
X1063570Y268209D01*
G37*
%LPD*%
%LPC*%
G36*
X231720Y268209D02*
X231720Y268209D01*
X223406Y271653D01*
X217043Y278016D01*
X213599Y286330D01*
X213599Y295330D01*
X217043Y303644D01*
X223406Y310007D01*
X231720Y313451D01*
X240720Y313451D01*
X249034Y310007D01*
X255397Y303644D01*
X258841Y295330D01*
X258841Y286330D01*
X255397Y278016D01*
X249034Y271653D01*
X240720Y268209D01*
X231720Y268209D01*
G37*
%LPD*%
%LPC*%
G36*
X428345Y165059D02*
X428345Y165059D01*
X423810Y166938D01*
X420338Y170410D01*
X418459Y174945D01*
X418459Y179855D01*
X420338Y184390D01*
X423810Y187862D01*
X428345Y189741D01*
X433255Y189741D01*
X437790Y187862D01*
X441262Y184390D01*
X443141Y179855D01*
X443141Y174945D01*
X441262Y170410D01*
X437790Y166938D01*
X433255Y165059D01*
X428345Y165059D01*
G37*
%LPD*%
%LPC*%
G36*
X303345Y165059D02*
X303345Y165059D01*
X298810Y166938D01*
X295338Y170410D01*
X293459Y174945D01*
X293459Y179855D01*
X295338Y184390D01*
X298810Y187862D01*
X303345Y189741D01*
X308255Y189741D01*
X312790Y187862D01*
X316262Y184390D01*
X318141Y179855D01*
X318141Y174945D01*
X316262Y170410D01*
X312790Y166938D01*
X308255Y165059D01*
X303345Y165059D01*
G37*
%LPD*%
%LPC*%
G36*
X1066172Y782939D02*
X1066172Y782939D01*
X1062666Y784392D01*
X1059982Y787076D01*
X1058529Y790582D01*
X1058529Y794378D01*
X1059982Y797884D01*
X1062666Y800568D01*
X1066172Y802021D01*
X1069968Y802021D01*
X1073474Y800568D01*
X1076158Y797884D01*
X1077611Y794378D01*
X1077611Y790582D01*
X1076158Y787076D01*
X1073474Y784392D01*
X1069968Y782939D01*
X1066172Y782939D01*
G37*
%LPD*%
%LPC*%
G36*
X234322Y782939D02*
X234322Y782939D01*
X230816Y784392D01*
X228132Y787076D01*
X226679Y790582D01*
X226679Y794378D01*
X228132Y797884D01*
X230816Y800568D01*
X234322Y802021D01*
X238118Y802021D01*
X241624Y800568D01*
X244308Y797884D01*
X245761Y794378D01*
X245761Y790582D01*
X244308Y787076D01*
X241624Y784392D01*
X238118Y782939D01*
X234322Y782939D01*
G37*
%LPD*%
%LPC*%
G36*
X1066172Y528939D02*
X1066172Y528939D01*
X1062666Y530392D01*
X1059982Y533076D01*
X1058529Y536582D01*
X1058529Y540378D01*
X1059982Y543884D01*
X1062666Y546568D01*
X1066172Y548021D01*
X1069968Y548021D01*
X1073474Y546568D01*
X1076158Y543884D01*
X1077611Y540378D01*
X1077611Y536582D01*
X1076158Y533076D01*
X1073474Y530392D01*
X1069968Y528939D01*
X1066172Y528939D01*
G37*
%LPD*%
%LPC*%
G36*
X1066172Y655939D02*
X1066172Y655939D01*
X1062666Y657392D01*
X1059982Y660076D01*
X1058529Y663582D01*
X1058529Y667378D01*
X1059982Y670884D01*
X1062666Y673568D01*
X1066172Y675021D01*
X1069968Y675021D01*
X1073474Y673568D01*
X1076158Y670884D01*
X1077611Y667378D01*
X1077611Y663582D01*
X1076158Y660076D01*
X1073474Y657392D01*
X1069968Y655939D01*
X1066172Y655939D01*
G37*
%LPD*%
%LPC*%
G36*
X234322Y655939D02*
X234322Y655939D01*
X230816Y657392D01*
X228132Y660076D01*
X226679Y663582D01*
X226679Y667378D01*
X228132Y670884D01*
X230816Y673568D01*
X234322Y675021D01*
X238118Y675021D01*
X241624Y673568D01*
X244308Y670884D01*
X245761Y667378D01*
X245761Y663582D01*
X244308Y660076D01*
X241624Y657392D01*
X238118Y655939D01*
X234322Y655939D01*
G37*
%LPD*%
%LPC*%
G36*
X1066172Y452739D02*
X1066172Y452739D01*
X1062666Y454192D01*
X1059982Y456876D01*
X1058529Y460382D01*
X1058529Y464178D01*
X1059982Y467684D01*
X1062666Y470368D01*
X1066172Y471821D01*
X1069968Y471821D01*
X1073474Y470368D01*
X1076158Y467684D01*
X1077611Y464178D01*
X1077611Y460382D01*
X1076158Y456876D01*
X1073474Y454192D01*
X1069968Y452739D01*
X1066172Y452739D01*
G37*
%LPD*%
%LPC*%
G36*
X1066172Y757539D02*
X1066172Y757539D01*
X1062666Y758992D01*
X1059982Y761676D01*
X1058529Y765182D01*
X1058529Y768978D01*
X1059982Y772484D01*
X1062666Y775168D01*
X1066172Y776621D01*
X1069968Y776621D01*
X1073474Y775168D01*
X1076158Y772484D01*
X1077611Y768978D01*
X1077611Y765182D01*
X1076158Y761676D01*
X1073474Y758992D01*
X1069968Y757539D01*
X1066172Y757539D01*
G37*
%LPD*%
%LPC*%
G36*
X234322Y757539D02*
X234322Y757539D01*
X230816Y758992D01*
X228132Y761676D01*
X226679Y765182D01*
X226679Y768978D01*
X228132Y772484D01*
X230816Y775168D01*
X234322Y776621D01*
X238118Y776621D01*
X241624Y775168D01*
X244308Y772484D01*
X245761Y768978D01*
X245761Y765182D01*
X244308Y761676D01*
X241624Y758992D01*
X238118Y757539D01*
X234322Y757539D01*
G37*
%LPD*%
%LPC*%
G36*
X234322Y478139D02*
X234322Y478139D01*
X230816Y479592D01*
X228132Y482276D01*
X226679Y485782D01*
X226679Y489578D01*
X228132Y493084D01*
X230816Y495768D01*
X234322Y497221D01*
X238118Y497221D01*
X241624Y495768D01*
X244308Y493084D01*
X245761Y489578D01*
X245761Y485782D01*
X244308Y482276D01*
X241624Y479592D01*
X238118Y478139D01*
X234322Y478139D01*
G37*
%LPD*%
%LPC*%
G36*
X1066172Y478139D02*
X1066172Y478139D01*
X1062666Y479592D01*
X1059982Y482276D01*
X1058529Y485782D01*
X1058529Y489578D01*
X1059982Y493084D01*
X1062666Y495768D01*
X1066172Y497221D01*
X1069968Y497221D01*
X1073474Y495768D01*
X1076158Y493084D01*
X1077611Y489578D01*
X1077611Y485782D01*
X1076158Y482276D01*
X1073474Y479592D01*
X1069968Y478139D01*
X1066172Y478139D01*
G37*
%LPD*%
%LPC*%
G36*
X234322Y503539D02*
X234322Y503539D01*
X230816Y504992D01*
X228132Y507676D01*
X226679Y511182D01*
X226679Y514978D01*
X228132Y518484D01*
X230816Y521168D01*
X234322Y522621D01*
X238118Y522621D01*
X241624Y521168D01*
X244308Y518484D01*
X245761Y514978D01*
X245761Y511182D01*
X244308Y507676D01*
X241624Y504992D01*
X238118Y503539D01*
X234322Y503539D01*
G37*
%LPD*%
%LPC*%
G36*
X1066172Y732139D02*
X1066172Y732139D01*
X1062666Y733592D01*
X1059982Y736276D01*
X1058529Y739782D01*
X1058529Y743578D01*
X1059982Y747084D01*
X1062666Y749768D01*
X1066172Y751221D01*
X1069968Y751221D01*
X1073474Y749768D01*
X1076158Y747084D01*
X1077611Y743578D01*
X1077611Y739782D01*
X1076158Y736276D01*
X1073474Y733592D01*
X1069968Y732139D01*
X1066172Y732139D01*
G37*
%LPD*%
%LPC*%
G36*
X234322Y732139D02*
X234322Y732139D01*
X230816Y733592D01*
X228132Y736276D01*
X226679Y739782D01*
X226679Y743578D01*
X228132Y747084D01*
X230816Y749768D01*
X234322Y751221D01*
X238118Y751221D01*
X241624Y749768D01*
X244308Y747084D01*
X245761Y743578D01*
X245761Y739782D01*
X244308Y736276D01*
X241624Y733592D01*
X238118Y732139D01*
X234322Y732139D01*
G37*
%LPD*%
%LPC*%
G36*
X1066172Y630539D02*
X1066172Y630539D01*
X1062666Y631992D01*
X1059982Y634676D01*
X1058529Y638182D01*
X1058529Y641978D01*
X1059982Y645484D01*
X1062666Y648168D01*
X1066172Y649621D01*
X1069968Y649621D01*
X1073474Y648168D01*
X1076158Y645484D01*
X1077611Y641978D01*
X1077611Y638182D01*
X1076158Y634676D01*
X1073474Y631992D01*
X1069968Y630539D01*
X1066172Y630539D01*
G37*
%LPD*%
%LPC*%
G36*
X234322Y630539D02*
X234322Y630539D01*
X230816Y631992D01*
X228132Y634676D01*
X226679Y638182D01*
X226679Y641978D01*
X228132Y645484D01*
X230816Y648168D01*
X234322Y649621D01*
X238118Y649621D01*
X241624Y648168D01*
X244308Y645484D01*
X245761Y641978D01*
X245761Y638182D01*
X244308Y634676D01*
X241624Y631992D01*
X238118Y630539D01*
X234322Y630539D01*
G37*
%LPD*%
%LPC*%
G36*
X1066172Y503539D02*
X1066172Y503539D01*
X1062666Y504992D01*
X1059982Y507676D01*
X1058529Y511182D01*
X1058529Y514978D01*
X1059982Y518484D01*
X1062666Y521168D01*
X1066172Y522621D01*
X1069968Y522621D01*
X1073474Y521168D01*
X1076158Y518484D01*
X1077611Y514978D01*
X1077611Y511182D01*
X1076158Y507676D01*
X1073474Y504992D01*
X1069968Y503539D01*
X1066172Y503539D01*
G37*
%LPD*%
%LPC*%
G36*
X234322Y528939D02*
X234322Y528939D01*
X230816Y530392D01*
X228132Y533076D01*
X226679Y536582D01*
X226679Y540378D01*
X228132Y543884D01*
X230816Y546568D01*
X234322Y548021D01*
X238118Y548021D01*
X241624Y546568D01*
X244308Y543884D01*
X245761Y540378D01*
X245761Y536582D01*
X244308Y533076D01*
X241624Y530392D01*
X238118Y528939D01*
X234322Y528939D01*
G37*
%LPD*%
%LPC*%
G36*
X1066172Y706739D02*
X1066172Y706739D01*
X1062666Y708192D01*
X1059982Y710876D01*
X1058529Y714382D01*
X1058529Y718178D01*
X1059982Y721684D01*
X1062666Y724368D01*
X1066172Y725821D01*
X1069968Y725821D01*
X1073474Y724368D01*
X1076158Y721684D01*
X1077611Y718178D01*
X1077611Y714382D01*
X1076158Y710876D01*
X1073474Y708192D01*
X1069968Y706739D01*
X1066172Y706739D01*
G37*
%LPD*%
%LPC*%
G36*
X234322Y706739D02*
X234322Y706739D01*
X230816Y708192D01*
X228132Y710876D01*
X226679Y714382D01*
X226679Y718178D01*
X228132Y721684D01*
X230816Y724368D01*
X234322Y725821D01*
X238118Y725821D01*
X241624Y724368D01*
X244308Y721684D01*
X245761Y718178D01*
X245761Y714382D01*
X244308Y710876D01*
X241624Y708192D01*
X238118Y706739D01*
X234322Y706739D01*
G37*
%LPD*%
%LPC*%
G36*
X1066172Y579739D02*
X1066172Y579739D01*
X1062666Y581192D01*
X1059982Y583876D01*
X1058529Y587382D01*
X1058529Y591178D01*
X1059982Y594684D01*
X1062666Y597368D01*
X1066172Y598821D01*
X1069968Y598821D01*
X1073474Y597368D01*
X1076158Y594684D01*
X1077611Y591178D01*
X1077611Y587382D01*
X1076158Y583876D01*
X1073474Y581192D01*
X1069968Y579739D01*
X1066172Y579739D01*
G37*
%LPD*%
%LPC*%
G36*
X234322Y579739D02*
X234322Y579739D01*
X230816Y581192D01*
X228132Y583876D01*
X226679Y587382D01*
X226679Y591178D01*
X228132Y594684D01*
X230816Y597368D01*
X234322Y598821D01*
X238118Y598821D01*
X241624Y597368D01*
X244308Y594684D01*
X245761Y591178D01*
X245761Y587382D01*
X244308Y583876D01*
X241624Y581192D01*
X238118Y579739D01*
X234322Y579739D01*
G37*
%LPD*%
%LPC*%
G36*
X1066172Y605139D02*
X1066172Y605139D01*
X1062666Y606592D01*
X1059982Y609276D01*
X1058529Y612782D01*
X1058529Y616578D01*
X1059982Y620084D01*
X1062666Y622768D01*
X1066172Y624221D01*
X1069968Y624221D01*
X1073474Y622768D01*
X1076158Y620084D01*
X1077611Y616578D01*
X1077611Y612782D01*
X1076158Y609276D01*
X1073474Y606592D01*
X1069968Y605139D01*
X1066172Y605139D01*
G37*
%LPD*%
%LPC*%
G36*
X234322Y605139D02*
X234322Y605139D01*
X230816Y606592D01*
X228132Y609276D01*
X226679Y612782D01*
X226679Y616578D01*
X228132Y620084D01*
X230816Y622768D01*
X234322Y624221D01*
X238118Y624221D01*
X241624Y622768D01*
X244308Y620084D01*
X245761Y616578D01*
X245761Y612782D01*
X244308Y609276D01*
X241624Y606592D01*
X238118Y605139D01*
X234322Y605139D01*
G37*
%LPD*%
%LPC*%
G36*
X1066172Y681339D02*
X1066172Y681339D01*
X1062666Y682792D01*
X1059982Y685476D01*
X1058529Y688982D01*
X1058529Y692778D01*
X1059982Y696284D01*
X1062666Y698968D01*
X1066172Y700421D01*
X1069968Y700421D01*
X1073474Y698968D01*
X1076158Y696284D01*
X1077611Y692778D01*
X1077611Y688982D01*
X1076158Y685476D01*
X1073474Y682792D01*
X1069968Y681339D01*
X1066172Y681339D01*
G37*
%LPD*%
%LPC*%
G36*
X234322Y681339D02*
X234322Y681339D01*
X230816Y682792D01*
X228132Y685476D01*
X226679Y688982D01*
X226679Y692778D01*
X228132Y696284D01*
X230816Y698968D01*
X234322Y700421D01*
X238118Y700421D01*
X241624Y698968D01*
X244308Y696284D01*
X245761Y692778D01*
X245761Y688982D01*
X244308Y685476D01*
X241624Y682792D01*
X238118Y681339D01*
X234322Y681339D01*
G37*
%LPD*%
%LPC*%
G36*
X1066172Y554339D02*
X1066172Y554339D01*
X1062666Y555792D01*
X1059982Y558476D01*
X1058529Y561982D01*
X1058529Y565778D01*
X1059982Y569284D01*
X1062666Y571968D01*
X1066172Y573421D01*
X1069968Y573421D01*
X1073474Y571968D01*
X1076158Y569284D01*
X1077611Y565778D01*
X1077611Y561982D01*
X1076158Y558476D01*
X1073474Y555792D01*
X1069968Y554339D01*
X1066172Y554339D01*
G37*
%LPD*%
%LPC*%
G36*
X234322Y808339D02*
X234322Y808339D01*
X230816Y809792D01*
X228132Y812476D01*
X226679Y815982D01*
X226679Y819778D01*
X228132Y823284D01*
X230816Y825968D01*
X234322Y827421D01*
X238118Y827421D01*
X241624Y825968D01*
X244308Y823284D01*
X245761Y819778D01*
X245761Y815982D01*
X244308Y812476D01*
X241624Y809792D01*
X238118Y808339D01*
X234322Y808339D01*
G37*
%LPD*%
%LPC*%
G36*
X234322Y452739D02*
X234322Y452739D01*
X230816Y454192D01*
X228132Y456876D01*
X226679Y460382D01*
X226679Y464178D01*
X228132Y467684D01*
X230816Y470368D01*
X234322Y471821D01*
X238118Y471821D01*
X241624Y470368D01*
X244308Y467684D01*
X245761Y464178D01*
X245761Y460382D01*
X244308Y456876D01*
X241624Y454192D01*
X238118Y452739D01*
X234322Y452739D01*
G37*
%LPD*%
%LPC*%
G36*
X234322Y401939D02*
X234322Y401939D01*
X230816Y403392D01*
X228132Y406076D01*
X226679Y409582D01*
X226679Y413378D01*
X228132Y416884D01*
X230816Y419568D01*
X234322Y421021D01*
X238118Y421021D01*
X241624Y419568D01*
X244308Y416884D01*
X245761Y413378D01*
X245761Y409582D01*
X244308Y406076D01*
X241624Y403392D01*
X238118Y401939D01*
X234322Y401939D01*
G37*
%LPD*%
%LPC*%
G36*
X1066172Y376539D02*
X1066172Y376539D01*
X1062666Y377992D01*
X1059982Y380676D01*
X1058529Y384182D01*
X1058529Y387978D01*
X1059982Y391484D01*
X1062666Y394168D01*
X1066172Y395621D01*
X1069968Y395621D01*
X1073474Y394168D01*
X1076158Y391484D01*
X1077611Y387978D01*
X1077611Y384182D01*
X1076158Y380676D01*
X1073474Y377992D01*
X1069968Y376539D01*
X1066172Y376539D01*
G37*
%LPD*%
%LPC*%
G36*
X234322Y376539D02*
X234322Y376539D01*
X230816Y377992D01*
X228132Y380676D01*
X226679Y384182D01*
X226679Y387978D01*
X228132Y391484D01*
X230816Y394168D01*
X234322Y395621D01*
X238118Y395621D01*
X241624Y394168D01*
X244308Y391484D01*
X245761Y387978D01*
X245761Y384182D01*
X244308Y380676D01*
X241624Y377992D01*
X238118Y376539D01*
X234322Y376539D01*
G37*
%LPD*%
%LPC*%
G36*
X1066172Y351139D02*
X1066172Y351139D01*
X1062666Y352592D01*
X1059982Y355276D01*
X1058529Y358782D01*
X1058529Y362578D01*
X1059982Y366084D01*
X1062666Y368768D01*
X1066172Y370221D01*
X1069968Y370221D01*
X1073474Y368768D01*
X1076158Y366084D01*
X1077611Y362578D01*
X1077611Y358782D01*
X1076158Y355276D01*
X1073474Y352592D01*
X1069968Y351139D01*
X1066172Y351139D01*
G37*
%LPD*%
%LPC*%
G36*
X234322Y554339D02*
X234322Y554339D01*
X230816Y555792D01*
X228132Y558476D01*
X226679Y561982D01*
X226679Y565778D01*
X228132Y569284D01*
X230816Y571968D01*
X234322Y573421D01*
X238118Y573421D01*
X241624Y571968D01*
X244308Y569284D01*
X245761Y565778D01*
X245761Y561982D01*
X244308Y558476D01*
X241624Y555792D01*
X238118Y554339D01*
X234322Y554339D01*
G37*
%LPD*%
%LPC*%
G36*
X1066172Y325739D02*
X1066172Y325739D01*
X1062666Y327192D01*
X1059982Y329876D01*
X1058529Y333382D01*
X1058529Y337178D01*
X1059982Y340684D01*
X1062666Y343368D01*
X1066172Y344821D01*
X1069968Y344821D01*
X1073474Y343368D01*
X1076158Y340684D01*
X1077611Y337178D01*
X1077611Y333382D01*
X1076158Y329876D01*
X1073474Y327192D01*
X1069968Y325739D01*
X1066172Y325739D01*
G37*
%LPD*%
%LPC*%
G36*
X234322Y325739D02*
X234322Y325739D01*
X230816Y327192D01*
X228132Y329876D01*
X226679Y333382D01*
X226679Y337178D01*
X228132Y340684D01*
X230816Y343368D01*
X234322Y344821D01*
X238118Y344821D01*
X241624Y343368D01*
X244308Y340684D01*
X245761Y337178D01*
X245761Y333382D01*
X244308Y329876D01*
X241624Y327192D01*
X238118Y325739D01*
X234322Y325739D01*
G37*
%LPD*%
%LPC*%
G36*
X1066172Y401939D02*
X1066172Y401939D01*
X1062666Y403392D01*
X1059982Y406076D01*
X1058529Y409582D01*
X1058529Y413378D01*
X1059982Y416884D01*
X1062666Y419568D01*
X1066172Y421021D01*
X1069968Y421021D01*
X1073474Y419568D01*
X1076158Y416884D01*
X1077611Y413378D01*
X1077611Y409582D01*
X1076158Y406076D01*
X1073474Y403392D01*
X1069968Y401939D01*
X1066172Y401939D01*
G37*
%LPD*%
%LPC*%
G36*
X234322Y427339D02*
X234322Y427339D01*
X230816Y428792D01*
X228132Y431476D01*
X226679Y434982D01*
X226679Y438778D01*
X228132Y442284D01*
X230816Y444968D01*
X234322Y446421D01*
X238118Y446421D01*
X241624Y444968D01*
X244308Y442284D01*
X245761Y438778D01*
X245761Y434982D01*
X244308Y431476D01*
X241624Y428792D01*
X238118Y427339D01*
X234322Y427339D01*
G37*
%LPD*%
%LPC*%
G36*
X1066172Y427339D02*
X1066172Y427339D01*
X1062666Y428792D01*
X1059982Y431476D01*
X1058529Y434982D01*
X1058529Y438778D01*
X1059982Y442284D01*
X1062666Y444968D01*
X1066172Y446421D01*
X1069968Y446421D01*
X1073474Y444968D01*
X1076158Y442284D01*
X1077611Y438778D01*
X1077611Y434982D01*
X1076158Y431476D01*
X1073474Y428792D01*
X1069968Y427339D01*
X1066172Y427339D01*
G37*
%LPD*%
%LPC*%
G36*
X234322Y351139D02*
X234322Y351139D01*
X230816Y352592D01*
X228132Y355276D01*
X226679Y358782D01*
X226679Y362578D01*
X228132Y366084D01*
X230816Y368768D01*
X234322Y370221D01*
X238118Y370221D01*
X241624Y368768D01*
X244308Y366084D01*
X245761Y362578D01*
X245761Y358782D01*
X244308Y355276D01*
X241624Y352592D01*
X238118Y351139D01*
X234322Y351139D01*
G37*
%LPD*%
%LPC*%
G36*
X572557Y706836D02*
X572557Y706836D01*
X569336Y708170D01*
X566870Y710636D01*
X565536Y713857D01*
X565536Y717343D01*
X566870Y720564D01*
X569336Y723030D01*
X572557Y724364D01*
X576043Y724364D01*
X579264Y723030D01*
X581730Y720564D01*
X583064Y717343D01*
X583064Y713857D01*
X581730Y710636D01*
X579264Y708170D01*
X576043Y706836D01*
X572557Y706836D01*
G37*
%LPD*%
%LPC*%
G36*
X547157Y706836D02*
X547157Y706836D01*
X543936Y708170D01*
X541470Y710636D01*
X540136Y713857D01*
X540136Y717343D01*
X541470Y720564D01*
X543936Y723030D01*
X547157Y724364D01*
X550643Y724364D01*
X553864Y723030D01*
X556330Y720564D01*
X557664Y717343D01*
X557664Y713857D01*
X556330Y710636D01*
X553864Y708170D01*
X550643Y706836D01*
X547157Y706836D01*
G37*
%LPD*%
%LPC*%
G36*
X826557Y706836D02*
X826557Y706836D01*
X823336Y708170D01*
X820870Y710636D01*
X819536Y713857D01*
X819536Y717343D01*
X820870Y720564D01*
X823336Y723030D01*
X826557Y724364D01*
X830043Y724364D01*
X833264Y723030D01*
X835730Y720564D01*
X837064Y717343D01*
X837064Y713857D01*
X835730Y710636D01*
X833264Y708170D01*
X830043Y706836D01*
X826557Y706836D01*
G37*
%LPD*%
%LPC*%
G36*
X801157Y706836D02*
X801157Y706836D01*
X797936Y708170D01*
X795470Y710636D01*
X794136Y713857D01*
X794136Y717343D01*
X795470Y720564D01*
X797936Y723030D01*
X801157Y724364D01*
X804643Y724364D01*
X807864Y723030D01*
X810330Y720564D01*
X811664Y717343D01*
X811664Y713857D01*
X810330Y710636D01*
X807864Y708170D01*
X804643Y706836D01*
X801157Y706836D01*
G37*
%LPD*%
%LPC*%
G36*
X826557Y681436D02*
X826557Y681436D01*
X823336Y682770D01*
X820870Y685236D01*
X819536Y688457D01*
X819536Y691943D01*
X820870Y695164D01*
X823336Y697630D01*
X826557Y698964D01*
X830043Y698964D01*
X833264Y697630D01*
X835730Y695164D01*
X837064Y691943D01*
X837064Y688457D01*
X835730Y685236D01*
X833264Y682770D01*
X830043Y681436D01*
X826557Y681436D01*
G37*
%LPD*%
%LPC*%
G36*
X801157Y681436D02*
X801157Y681436D01*
X797936Y682770D01*
X795470Y685236D01*
X794136Y688457D01*
X794136Y691943D01*
X795470Y695164D01*
X797936Y697630D01*
X801157Y698964D01*
X804643Y698964D01*
X807864Y697630D01*
X810330Y695164D01*
X811664Y691943D01*
X811664Y688457D01*
X810330Y685236D01*
X807864Y682770D01*
X804643Y681436D01*
X801157Y681436D01*
G37*
%LPD*%
%LPC*%
G36*
X572557Y681436D02*
X572557Y681436D01*
X569336Y682770D01*
X566870Y685236D01*
X565536Y688457D01*
X565536Y691943D01*
X566870Y695164D01*
X569336Y697630D01*
X572557Y698964D01*
X576043Y698964D01*
X579264Y697630D01*
X581730Y695164D01*
X583064Y691943D01*
X583064Y688457D01*
X581730Y685236D01*
X579264Y682770D01*
X576043Y681436D01*
X572557Y681436D01*
G37*
%LPD*%
%LPC*%
G36*
X547157Y681436D02*
X547157Y681436D01*
X543936Y682770D01*
X541470Y685236D01*
X540136Y688457D01*
X540136Y691943D01*
X541470Y695164D01*
X543936Y697630D01*
X547157Y698964D01*
X550643Y698964D01*
X553864Y697630D01*
X556330Y695164D01*
X557664Y691943D01*
X557664Y688457D01*
X556330Y685236D01*
X553864Y682770D01*
X550643Y681436D01*
X547157Y681436D01*
G37*
%LPD*%
%LPC*%
G36*
X826557Y656036D02*
X826557Y656036D01*
X823336Y657370D01*
X820870Y659836D01*
X819536Y663057D01*
X819536Y666543D01*
X820870Y669764D01*
X823336Y672230D01*
X826557Y673564D01*
X830043Y673564D01*
X833264Y672230D01*
X835730Y669764D01*
X837064Y666543D01*
X837064Y663057D01*
X835730Y659836D01*
X833264Y657370D01*
X830043Y656036D01*
X826557Y656036D01*
G37*
%LPD*%
%LPC*%
G36*
X801157Y656036D02*
X801157Y656036D01*
X797936Y657370D01*
X795470Y659836D01*
X794136Y663057D01*
X794136Y666543D01*
X795470Y669764D01*
X797936Y672230D01*
X801157Y673564D01*
X804643Y673564D01*
X807864Y672230D01*
X810330Y669764D01*
X811664Y666543D01*
X811664Y663057D01*
X810330Y659836D01*
X807864Y657370D01*
X804643Y656036D01*
X801157Y656036D01*
G37*
%LPD*%
%LPC*%
G36*
X572557Y656036D02*
X572557Y656036D01*
X569336Y657370D01*
X566870Y659836D01*
X565536Y663057D01*
X565536Y666543D01*
X566870Y669764D01*
X569336Y672230D01*
X572557Y673564D01*
X576043Y673564D01*
X579264Y672230D01*
X581730Y669764D01*
X583064Y666543D01*
X583064Y663057D01*
X581730Y659836D01*
X579264Y657370D01*
X576043Y656036D01*
X572557Y656036D01*
G37*
%LPD*%
%LPC*%
G36*
X547157Y656036D02*
X547157Y656036D01*
X543936Y657370D01*
X541470Y659836D01*
X540136Y663057D01*
X540136Y666543D01*
X541470Y669764D01*
X543936Y672230D01*
X547157Y673564D01*
X550643Y673564D01*
X553864Y672230D01*
X556330Y669764D01*
X557664Y666543D01*
X557664Y663057D01*
X556330Y659836D01*
X553864Y657370D01*
X550643Y656036D01*
X547157Y656036D01*
G37*
%LPD*%
%LPC*%
G36*
X572557Y630636D02*
X572557Y630636D01*
X569336Y631970D01*
X566870Y634436D01*
X565536Y637657D01*
X565536Y641143D01*
X566870Y644364D01*
X569336Y646830D01*
X572557Y648164D01*
X576043Y648164D01*
X579264Y646830D01*
X581730Y644364D01*
X583064Y641143D01*
X583064Y637657D01*
X581730Y634436D01*
X579264Y631970D01*
X576043Y630636D01*
X572557Y630636D01*
G37*
%LPD*%
%LPC*%
G36*
X547157Y630636D02*
X547157Y630636D01*
X543936Y631970D01*
X541470Y634436D01*
X540136Y637657D01*
X540136Y641143D01*
X541470Y644364D01*
X543936Y646830D01*
X547157Y648164D01*
X550643Y648164D01*
X553864Y646830D01*
X556330Y644364D01*
X557664Y641143D01*
X557664Y637657D01*
X556330Y634436D01*
X553864Y631970D01*
X550643Y630636D01*
X547157Y630636D01*
G37*
%LPD*%
%LPC*%
G36*
X826557Y630636D02*
X826557Y630636D01*
X823336Y631970D01*
X820870Y634436D01*
X819536Y637657D01*
X819536Y641143D01*
X820870Y644364D01*
X823336Y646830D01*
X826557Y648164D01*
X830043Y648164D01*
X833264Y646830D01*
X835730Y644364D01*
X837064Y641143D01*
X837064Y637657D01*
X835730Y634436D01*
X833264Y631970D01*
X830043Y630636D01*
X826557Y630636D01*
G37*
%LPD*%
%LPC*%
G36*
X801157Y630636D02*
X801157Y630636D01*
X797936Y631970D01*
X795470Y634436D01*
X794136Y637657D01*
X794136Y641143D01*
X795470Y644364D01*
X797936Y646830D01*
X801157Y648164D01*
X804643Y648164D01*
X807864Y646830D01*
X810330Y644364D01*
X811664Y641143D01*
X811664Y637657D01*
X810330Y634436D01*
X807864Y631970D01*
X804643Y630636D01*
X801157Y630636D01*
G37*
%LPD*%
%LPC*%
G36*
X826557Y605236D02*
X826557Y605236D01*
X823336Y606570D01*
X820870Y609036D01*
X819536Y612257D01*
X819536Y615743D01*
X820870Y618964D01*
X823336Y621430D01*
X826557Y622764D01*
X830043Y622764D01*
X833264Y621430D01*
X835730Y618964D01*
X837064Y615743D01*
X837064Y612257D01*
X835730Y609036D01*
X833264Y606570D01*
X830043Y605236D01*
X826557Y605236D01*
G37*
%LPD*%
%LPC*%
G36*
X547157Y605236D02*
X547157Y605236D01*
X543936Y606570D01*
X541470Y609036D01*
X540136Y612257D01*
X540136Y615743D01*
X541470Y618964D01*
X543936Y621430D01*
X547157Y622764D01*
X550643Y622764D01*
X553864Y621430D01*
X556330Y618964D01*
X557664Y615743D01*
X557664Y612257D01*
X556330Y609036D01*
X553864Y606570D01*
X550643Y605236D01*
X547157Y605236D01*
G37*
%LPD*%
%LPC*%
G36*
X826557Y579836D02*
X826557Y579836D01*
X823336Y581170D01*
X820870Y583636D01*
X819536Y586857D01*
X819536Y590343D01*
X820870Y593564D01*
X823336Y596030D01*
X826557Y597364D01*
X830043Y597364D01*
X833264Y596030D01*
X835730Y593564D01*
X837064Y590343D01*
X837064Y586857D01*
X835730Y583636D01*
X833264Y581170D01*
X830043Y579836D01*
X826557Y579836D01*
G37*
%LPD*%
%LPC*%
G36*
X801157Y579836D02*
X801157Y579836D01*
X797936Y581170D01*
X795470Y583636D01*
X794136Y586857D01*
X794136Y590343D01*
X795470Y593564D01*
X797936Y596030D01*
X801157Y597364D01*
X804643Y597364D01*
X807864Y596030D01*
X810330Y593564D01*
X811664Y590343D01*
X811664Y586857D01*
X810330Y583636D01*
X807864Y581170D01*
X804643Y579836D01*
X801157Y579836D01*
G37*
%LPD*%
%LPC*%
G36*
X572557Y579836D02*
X572557Y579836D01*
X569336Y581170D01*
X566870Y583636D01*
X565536Y586857D01*
X565536Y590343D01*
X566870Y593564D01*
X569336Y596030D01*
X572557Y597364D01*
X576043Y597364D01*
X579264Y596030D01*
X581730Y593564D01*
X583064Y590343D01*
X583064Y586857D01*
X581730Y583636D01*
X579264Y581170D01*
X576043Y579836D01*
X572557Y579836D01*
G37*
%LPD*%
%LPC*%
G36*
X547157Y579836D02*
X547157Y579836D01*
X543936Y581170D01*
X541470Y583636D01*
X540136Y586857D01*
X540136Y590343D01*
X541470Y593564D01*
X543936Y596030D01*
X547157Y597364D01*
X550643Y597364D01*
X553864Y596030D01*
X556330Y593564D01*
X557664Y590343D01*
X557664Y586857D01*
X556330Y583636D01*
X553864Y581170D01*
X550643Y579836D01*
X547157Y579836D01*
G37*
%LPD*%
%LPC*%
G36*
X572557Y554436D02*
X572557Y554436D01*
X569336Y555770D01*
X566870Y558236D01*
X565536Y561457D01*
X565536Y564943D01*
X566870Y568164D01*
X569336Y570630D01*
X572557Y571964D01*
X576043Y571964D01*
X579264Y570630D01*
X581730Y568164D01*
X583064Y564943D01*
X583064Y561457D01*
X581730Y558236D01*
X579264Y555770D01*
X576043Y554436D01*
X572557Y554436D01*
G37*
%LPD*%
%LPC*%
G36*
X547157Y554436D02*
X547157Y554436D01*
X543936Y555770D01*
X541470Y558236D01*
X540136Y561457D01*
X540136Y564943D01*
X541470Y568164D01*
X543936Y570630D01*
X547157Y571964D01*
X550643Y571964D01*
X553864Y570630D01*
X556330Y568164D01*
X557664Y564943D01*
X557664Y561457D01*
X556330Y558236D01*
X553864Y555770D01*
X550643Y554436D01*
X547157Y554436D01*
G37*
%LPD*%
%LPC*%
G36*
X826557Y554436D02*
X826557Y554436D01*
X823336Y555770D01*
X820870Y558236D01*
X819536Y561457D01*
X819536Y564943D01*
X820870Y568164D01*
X823336Y570630D01*
X826557Y571964D01*
X830043Y571964D01*
X833264Y570630D01*
X835730Y568164D01*
X837064Y564943D01*
X837064Y561457D01*
X835730Y558236D01*
X833264Y555770D01*
X830043Y554436D01*
X826557Y554436D01*
G37*
%LPD*%
%LPC*%
G36*
X801157Y554436D02*
X801157Y554436D01*
X797936Y555770D01*
X795470Y558236D01*
X794136Y561457D01*
X794136Y564943D01*
X795470Y568164D01*
X797936Y570630D01*
X801157Y571964D01*
X804643Y571964D01*
X807864Y570630D01*
X810330Y568164D01*
X811664Y564943D01*
X811664Y561457D01*
X810330Y558236D01*
X807864Y555770D01*
X804643Y554436D01*
X801157Y554436D01*
G37*
%LPD*%
%LPC*%
G36*
X801157Y757636D02*
X801157Y757636D01*
X797936Y758970D01*
X795470Y761436D01*
X794136Y764657D01*
X794136Y768143D01*
X795470Y771364D01*
X797936Y773830D01*
X801157Y775164D01*
X804643Y775164D01*
X807864Y773830D01*
X810330Y771364D01*
X811664Y768143D01*
X811664Y764657D01*
X810330Y761436D01*
X807864Y758970D01*
X804643Y757636D01*
X801157Y757636D01*
G37*
%LPD*%
%LPC*%
G36*
X826557Y529036D02*
X826557Y529036D01*
X823336Y530370D01*
X820870Y532836D01*
X819536Y536057D01*
X819536Y539543D01*
X820870Y542764D01*
X823336Y545230D01*
X826557Y546564D01*
X830043Y546564D01*
X833264Y545230D01*
X835730Y542764D01*
X837064Y539543D01*
X837064Y536057D01*
X835730Y532836D01*
X833264Y530370D01*
X830043Y529036D01*
X826557Y529036D01*
G37*
%LPD*%
%LPC*%
G36*
X572557Y529036D02*
X572557Y529036D01*
X569336Y530370D01*
X566870Y532836D01*
X565536Y536057D01*
X565536Y539543D01*
X566870Y542764D01*
X569336Y545230D01*
X572557Y546564D01*
X576043Y546564D01*
X579264Y545230D01*
X581730Y542764D01*
X583064Y539543D01*
X583064Y536057D01*
X581730Y532836D01*
X579264Y530370D01*
X576043Y529036D01*
X572557Y529036D01*
G37*
%LPD*%
%LPC*%
G36*
X547157Y529036D02*
X547157Y529036D01*
X543936Y530370D01*
X541470Y532836D01*
X540136Y536057D01*
X540136Y539543D01*
X541470Y542764D01*
X543936Y545230D01*
X547157Y546564D01*
X550643Y546564D01*
X553864Y545230D01*
X556330Y542764D01*
X557664Y539543D01*
X557664Y536057D01*
X556330Y532836D01*
X553864Y530370D01*
X550643Y529036D01*
X547157Y529036D01*
G37*
%LPD*%
%LPC*%
G36*
X572557Y503636D02*
X572557Y503636D01*
X569336Y504970D01*
X566870Y507436D01*
X565536Y510657D01*
X565536Y514143D01*
X566870Y517364D01*
X569336Y519830D01*
X572557Y521164D01*
X576043Y521164D01*
X579264Y519830D01*
X581730Y517364D01*
X583064Y514143D01*
X583064Y510657D01*
X581730Y507436D01*
X579264Y504970D01*
X576043Y503636D01*
X572557Y503636D01*
G37*
%LPD*%
%LPC*%
G36*
X547157Y503636D02*
X547157Y503636D01*
X543936Y504970D01*
X541470Y507436D01*
X540136Y510657D01*
X540136Y514143D01*
X541470Y517364D01*
X543936Y519830D01*
X547157Y521164D01*
X550643Y521164D01*
X553864Y519830D01*
X556330Y517364D01*
X557664Y514143D01*
X557664Y510657D01*
X556330Y507436D01*
X553864Y504970D01*
X550643Y503636D01*
X547157Y503636D01*
G37*
%LPD*%
%LPC*%
G36*
X826557Y503636D02*
X826557Y503636D01*
X823336Y504970D01*
X820870Y507436D01*
X819536Y510657D01*
X819536Y514143D01*
X820870Y517364D01*
X823336Y519830D01*
X826557Y521164D01*
X830043Y521164D01*
X833264Y519830D01*
X835730Y517364D01*
X837064Y514143D01*
X837064Y510657D01*
X835730Y507436D01*
X833264Y504970D01*
X830043Y503636D01*
X826557Y503636D01*
G37*
%LPD*%
%LPC*%
G36*
X801157Y503636D02*
X801157Y503636D01*
X797936Y504970D01*
X795470Y507436D01*
X794136Y510657D01*
X794136Y514143D01*
X795470Y517364D01*
X797936Y519830D01*
X801157Y521164D01*
X804643Y521164D01*
X807864Y519830D01*
X810330Y517364D01*
X811664Y514143D01*
X811664Y510657D01*
X810330Y507436D01*
X807864Y504970D01*
X804643Y503636D01*
X801157Y503636D01*
G37*
%LPD*%
%LPC*%
G36*
X826557Y478236D02*
X826557Y478236D01*
X823336Y479570D01*
X820870Y482036D01*
X819536Y485257D01*
X819536Y488743D01*
X820870Y491964D01*
X823336Y494430D01*
X826557Y495764D01*
X830043Y495764D01*
X833264Y494430D01*
X835730Y491964D01*
X837064Y488743D01*
X837064Y485257D01*
X835730Y482036D01*
X833264Y479570D01*
X830043Y478236D01*
X826557Y478236D01*
G37*
%LPD*%
%LPC*%
G36*
X801157Y478236D02*
X801157Y478236D01*
X797936Y479570D01*
X795470Y482036D01*
X794136Y485257D01*
X794136Y488743D01*
X795470Y491964D01*
X797936Y494430D01*
X801157Y495764D01*
X804643Y495764D01*
X807864Y494430D01*
X810330Y491964D01*
X811664Y488743D01*
X811664Y485257D01*
X810330Y482036D01*
X807864Y479570D01*
X804643Y478236D01*
X801157Y478236D01*
G37*
%LPD*%
%LPC*%
G36*
X547157Y478236D02*
X547157Y478236D01*
X543936Y479570D01*
X541470Y482036D01*
X540136Y485257D01*
X540136Y488743D01*
X541470Y491964D01*
X543936Y494430D01*
X547157Y495764D01*
X550643Y495764D01*
X553864Y494430D01*
X556330Y491964D01*
X557664Y488743D01*
X557664Y485257D01*
X556330Y482036D01*
X553864Y479570D01*
X550643Y478236D01*
X547157Y478236D01*
G37*
%LPD*%
%LPC*%
G36*
X826557Y452836D02*
X826557Y452836D01*
X823336Y454170D01*
X820870Y456636D01*
X819536Y459857D01*
X819536Y463343D01*
X820870Y466564D01*
X823336Y469030D01*
X826557Y470364D01*
X830043Y470364D01*
X833264Y469030D01*
X835730Y466564D01*
X837064Y463343D01*
X837064Y459857D01*
X835730Y456636D01*
X833264Y454170D01*
X830043Y452836D01*
X826557Y452836D01*
G37*
%LPD*%
%LPC*%
G36*
X801157Y452836D02*
X801157Y452836D01*
X797936Y454170D01*
X795470Y456636D01*
X794136Y459857D01*
X794136Y463343D01*
X795470Y466564D01*
X797936Y469030D01*
X801157Y470364D01*
X804643Y470364D01*
X807864Y469030D01*
X810330Y466564D01*
X811664Y463343D01*
X811664Y459857D01*
X810330Y456636D01*
X807864Y454170D01*
X804643Y452836D01*
X801157Y452836D01*
G37*
%LPD*%
%LPC*%
G36*
X572557Y452836D02*
X572557Y452836D01*
X569336Y454170D01*
X566870Y456636D01*
X565536Y459857D01*
X565536Y463343D01*
X566870Y466564D01*
X569336Y469030D01*
X572557Y470364D01*
X576043Y470364D01*
X579264Y469030D01*
X581730Y466564D01*
X583064Y463343D01*
X583064Y459857D01*
X581730Y456636D01*
X579264Y454170D01*
X576043Y452836D01*
X572557Y452836D01*
G37*
%LPD*%
%LPC*%
G36*
X547157Y452836D02*
X547157Y452836D01*
X543936Y454170D01*
X541470Y456636D01*
X540136Y459857D01*
X540136Y463343D01*
X541470Y466564D01*
X543936Y469030D01*
X547157Y470364D01*
X550643Y470364D01*
X553864Y469030D01*
X556330Y466564D01*
X557664Y463343D01*
X557664Y459857D01*
X556330Y456636D01*
X553864Y454170D01*
X550643Y452836D01*
X547157Y452836D01*
G37*
%LPD*%
%LPC*%
G36*
X826557Y427436D02*
X826557Y427436D01*
X823336Y428770D01*
X820870Y431236D01*
X819536Y434457D01*
X819536Y437943D01*
X820870Y441164D01*
X823336Y443630D01*
X826557Y444964D01*
X830043Y444964D01*
X833264Y443630D01*
X835730Y441164D01*
X837064Y437943D01*
X837064Y434457D01*
X835730Y431236D01*
X833264Y428770D01*
X830043Y427436D01*
X826557Y427436D01*
G37*
%LPD*%
%LPC*%
G36*
X801157Y427436D02*
X801157Y427436D01*
X797936Y428770D01*
X795470Y431236D01*
X794136Y434457D01*
X794136Y437943D01*
X795470Y441164D01*
X797936Y443630D01*
X801157Y444964D01*
X804643Y444964D01*
X807864Y443630D01*
X810330Y441164D01*
X811664Y437943D01*
X811664Y434457D01*
X810330Y431236D01*
X807864Y428770D01*
X804643Y427436D01*
X801157Y427436D01*
G37*
%LPD*%
%LPC*%
G36*
X572557Y427436D02*
X572557Y427436D01*
X569336Y428770D01*
X566870Y431236D01*
X565536Y434457D01*
X565536Y437943D01*
X566870Y441164D01*
X569336Y443630D01*
X572557Y444964D01*
X576043Y444964D01*
X579264Y443630D01*
X581730Y441164D01*
X583064Y437943D01*
X583064Y434457D01*
X581730Y431236D01*
X579264Y428770D01*
X576043Y427436D01*
X572557Y427436D01*
G37*
%LPD*%
%LPC*%
G36*
X547157Y427436D02*
X547157Y427436D01*
X543936Y428770D01*
X541470Y431236D01*
X540136Y434457D01*
X540136Y437943D01*
X541470Y441164D01*
X543936Y443630D01*
X547157Y444964D01*
X550643Y444964D01*
X553864Y443630D01*
X556330Y441164D01*
X557664Y437943D01*
X557664Y434457D01*
X556330Y431236D01*
X553864Y428770D01*
X550643Y427436D01*
X547157Y427436D01*
G37*
%LPD*%
%LPC*%
G36*
X572557Y402036D02*
X572557Y402036D01*
X569336Y403370D01*
X566870Y405836D01*
X565536Y409057D01*
X565536Y412543D01*
X566870Y415764D01*
X569336Y418230D01*
X572557Y419564D01*
X576043Y419564D01*
X579264Y418230D01*
X581730Y415764D01*
X583064Y412543D01*
X583064Y409057D01*
X581730Y405836D01*
X579264Y403370D01*
X576043Y402036D01*
X572557Y402036D01*
G37*
%LPD*%
%LPC*%
G36*
X547157Y402036D02*
X547157Y402036D01*
X543936Y403370D01*
X541470Y405836D01*
X540136Y409057D01*
X540136Y412543D01*
X541470Y415764D01*
X543936Y418230D01*
X547157Y419564D01*
X550643Y419564D01*
X553864Y418230D01*
X556330Y415764D01*
X557664Y412543D01*
X557664Y409057D01*
X556330Y405836D01*
X553864Y403370D01*
X550643Y402036D01*
X547157Y402036D01*
G37*
%LPD*%
%LPC*%
G36*
X572557Y783036D02*
X572557Y783036D01*
X569336Y784370D01*
X566870Y786836D01*
X565536Y790057D01*
X565536Y793543D01*
X566870Y796764D01*
X569336Y799230D01*
X572557Y800564D01*
X576043Y800564D01*
X579264Y799230D01*
X581730Y796764D01*
X583064Y793543D01*
X583064Y790057D01*
X581730Y786836D01*
X579264Y784370D01*
X576043Y783036D01*
X572557Y783036D01*
G37*
%LPD*%
%LPC*%
G36*
X801157Y402036D02*
X801157Y402036D01*
X797936Y403370D01*
X795470Y405836D01*
X794136Y409057D01*
X794136Y412543D01*
X795470Y415764D01*
X797936Y418230D01*
X801157Y419564D01*
X804643Y419564D01*
X807864Y418230D01*
X810330Y415764D01*
X811664Y412543D01*
X811664Y409057D01*
X810330Y405836D01*
X807864Y403370D01*
X804643Y402036D01*
X801157Y402036D01*
G37*
%LPD*%
%LPC*%
G36*
X547157Y783036D02*
X547157Y783036D01*
X543936Y784370D01*
X541470Y786836D01*
X540136Y790057D01*
X540136Y793543D01*
X541470Y796764D01*
X543936Y799230D01*
X547157Y800564D01*
X550643Y800564D01*
X553864Y799230D01*
X556330Y796764D01*
X557664Y793543D01*
X557664Y790057D01*
X556330Y786836D01*
X553864Y784370D01*
X550643Y783036D01*
X547157Y783036D01*
G37*
%LPD*%
%LPC*%
G36*
X826557Y783036D02*
X826557Y783036D01*
X823336Y784370D01*
X820870Y786836D01*
X819536Y790057D01*
X819536Y793543D01*
X820870Y796764D01*
X823336Y799230D01*
X826557Y800564D01*
X830043Y800564D01*
X833264Y799230D01*
X835730Y796764D01*
X837064Y793543D01*
X837064Y790057D01*
X835730Y786836D01*
X833264Y784370D01*
X830043Y783036D01*
X826557Y783036D01*
G37*
%LPD*%
%LPC*%
G36*
X826557Y376636D02*
X826557Y376636D01*
X823336Y377970D01*
X820870Y380436D01*
X819536Y383657D01*
X819536Y387143D01*
X820870Y390364D01*
X823336Y392830D01*
X826557Y394164D01*
X830043Y394164D01*
X833264Y392830D01*
X835730Y390364D01*
X837064Y387143D01*
X837064Y383657D01*
X835730Y380436D01*
X833264Y377970D01*
X830043Y376636D01*
X826557Y376636D01*
G37*
%LPD*%
%LPC*%
G36*
X801157Y376636D02*
X801157Y376636D01*
X797936Y377970D01*
X795470Y380436D01*
X794136Y383657D01*
X794136Y387143D01*
X795470Y390364D01*
X797936Y392830D01*
X801157Y394164D01*
X804643Y394164D01*
X807864Y392830D01*
X810330Y390364D01*
X811664Y387143D01*
X811664Y383657D01*
X810330Y380436D01*
X807864Y377970D01*
X804643Y376636D01*
X801157Y376636D01*
G37*
%LPD*%
%LPC*%
G36*
X572557Y376636D02*
X572557Y376636D01*
X569336Y377970D01*
X566870Y380436D01*
X565536Y383657D01*
X565536Y387143D01*
X566870Y390364D01*
X569336Y392830D01*
X572557Y394164D01*
X576043Y394164D01*
X579264Y392830D01*
X581730Y390364D01*
X583064Y387143D01*
X583064Y383657D01*
X581730Y380436D01*
X579264Y377970D01*
X576043Y376636D01*
X572557Y376636D01*
G37*
%LPD*%
%LPC*%
G36*
X547157Y376636D02*
X547157Y376636D01*
X543936Y377970D01*
X541470Y380436D01*
X540136Y383657D01*
X540136Y387143D01*
X541470Y390364D01*
X543936Y392830D01*
X547157Y394164D01*
X550643Y394164D01*
X553864Y392830D01*
X556330Y390364D01*
X557664Y387143D01*
X557664Y383657D01*
X556330Y380436D01*
X553864Y377970D01*
X550643Y376636D01*
X547157Y376636D01*
G37*
%LPD*%
%LPC*%
G36*
X801157Y783036D02*
X801157Y783036D01*
X797936Y784370D01*
X795470Y786836D01*
X794136Y790057D01*
X794136Y793543D01*
X795470Y796764D01*
X797936Y799230D01*
X801157Y800564D01*
X804643Y800564D01*
X807864Y799230D01*
X810330Y796764D01*
X811664Y793543D01*
X811664Y790057D01*
X810330Y786836D01*
X807864Y784370D01*
X804643Y783036D01*
X801157Y783036D01*
G37*
%LPD*%
%LPC*%
G36*
X826557Y757636D02*
X826557Y757636D01*
X823336Y758970D01*
X820870Y761436D01*
X819536Y764657D01*
X819536Y768143D01*
X820870Y771364D01*
X823336Y773830D01*
X826557Y775164D01*
X830043Y775164D01*
X833264Y773830D01*
X835730Y771364D01*
X837064Y768143D01*
X837064Y764657D01*
X835730Y761436D01*
X833264Y758970D01*
X830043Y757636D01*
X826557Y757636D01*
G37*
%LPD*%
%LPC*%
G36*
X826557Y351236D02*
X826557Y351236D01*
X823336Y352570D01*
X820870Y355036D01*
X819536Y358257D01*
X819536Y361743D01*
X820870Y364964D01*
X823336Y367430D01*
X826557Y368764D01*
X830043Y368764D01*
X833264Y367430D01*
X835730Y364964D01*
X837064Y361743D01*
X837064Y358257D01*
X835730Y355036D01*
X833264Y352570D01*
X830043Y351236D01*
X826557Y351236D01*
G37*
%LPD*%
%LPC*%
G36*
X801157Y351236D02*
X801157Y351236D01*
X797936Y352570D01*
X795470Y355036D01*
X794136Y358257D01*
X794136Y361743D01*
X795470Y364964D01*
X797936Y367430D01*
X801157Y368764D01*
X804643Y368764D01*
X807864Y367430D01*
X810330Y364964D01*
X811664Y361743D01*
X811664Y358257D01*
X810330Y355036D01*
X807864Y352570D01*
X804643Y351236D01*
X801157Y351236D01*
G37*
%LPD*%
%LPC*%
G36*
X572557Y351236D02*
X572557Y351236D01*
X569336Y352570D01*
X566870Y355036D01*
X565536Y358257D01*
X565536Y361743D01*
X566870Y364964D01*
X569336Y367430D01*
X572557Y368764D01*
X576043Y368764D01*
X579264Y367430D01*
X581730Y364964D01*
X583064Y361743D01*
X583064Y358257D01*
X581730Y355036D01*
X579264Y352570D01*
X576043Y351236D01*
X572557Y351236D01*
G37*
%LPD*%
%LPC*%
G36*
X547157Y351236D02*
X547157Y351236D01*
X543936Y352570D01*
X541470Y355036D01*
X540136Y358257D01*
X540136Y361743D01*
X541470Y364964D01*
X543936Y367430D01*
X547157Y368764D01*
X550643Y368764D01*
X553864Y367430D01*
X556330Y364964D01*
X557664Y361743D01*
X557664Y358257D01*
X556330Y355036D01*
X553864Y352570D01*
X550643Y351236D01*
X547157Y351236D01*
G37*
%LPD*%
%LPC*%
G36*
X572557Y757636D02*
X572557Y757636D01*
X569336Y758970D01*
X566870Y761436D01*
X565536Y764657D01*
X565536Y768143D01*
X566870Y771364D01*
X569336Y773830D01*
X572557Y775164D01*
X576043Y775164D01*
X579264Y773830D01*
X581730Y771364D01*
X583064Y768143D01*
X583064Y764657D01*
X581730Y761436D01*
X579264Y758970D01*
X576043Y757636D01*
X572557Y757636D01*
G37*
%LPD*%
%LPC*%
G36*
X547157Y757636D02*
X547157Y757636D01*
X543936Y758970D01*
X541470Y761436D01*
X540136Y764657D01*
X540136Y768143D01*
X541470Y771364D01*
X543936Y773830D01*
X547157Y775164D01*
X550643Y775164D01*
X553864Y773830D01*
X556330Y771364D01*
X557664Y768143D01*
X557664Y764657D01*
X556330Y761436D01*
X553864Y758970D01*
X550643Y757636D01*
X547157Y757636D01*
G37*
%LPD*%
%LPC*%
G36*
X826557Y732236D02*
X826557Y732236D01*
X823336Y733570D01*
X820870Y736036D01*
X819536Y739257D01*
X819536Y742743D01*
X820870Y745964D01*
X823336Y748430D01*
X826557Y749764D01*
X830043Y749764D01*
X833264Y748430D01*
X835730Y745964D01*
X837064Y742743D01*
X837064Y739257D01*
X835730Y736036D01*
X833264Y733570D01*
X830043Y732236D01*
X826557Y732236D01*
G37*
%LPD*%
%LPC*%
G36*
X801157Y732236D02*
X801157Y732236D01*
X797936Y733570D01*
X795470Y736036D01*
X794136Y739257D01*
X794136Y742743D01*
X795470Y745964D01*
X797936Y748430D01*
X801157Y749764D01*
X804643Y749764D01*
X807864Y748430D01*
X810330Y745964D01*
X811664Y742743D01*
X811664Y739257D01*
X810330Y736036D01*
X807864Y733570D01*
X804643Y732236D01*
X801157Y732236D01*
G37*
%LPD*%
%LPC*%
G36*
X572557Y478236D02*
X572557Y478236D01*
X569336Y479570D01*
X566870Y482036D01*
X565536Y485257D01*
X565536Y488743D01*
X566870Y491964D01*
X569336Y494430D01*
X572557Y495764D01*
X576043Y495764D01*
X579264Y494430D01*
X581730Y491964D01*
X583064Y488743D01*
X583064Y485257D01*
X581730Y482036D01*
X579264Y479570D01*
X576043Y478236D01*
X572557Y478236D01*
G37*
%LPD*%
%LPC*%
G36*
X572557Y732236D02*
X572557Y732236D01*
X569336Y733570D01*
X566870Y736036D01*
X565536Y739257D01*
X565536Y742743D01*
X566870Y745964D01*
X569336Y748430D01*
X572557Y749764D01*
X576043Y749764D01*
X579264Y748430D01*
X581730Y745964D01*
X583064Y742743D01*
X583064Y739257D01*
X581730Y736036D01*
X579264Y733570D01*
X576043Y732236D01*
X572557Y732236D01*
G37*
%LPD*%
%LPC*%
G36*
X976157Y156336D02*
X976157Y156336D01*
X972936Y157670D01*
X970470Y160136D01*
X969136Y163357D01*
X969136Y166843D01*
X970470Y170064D01*
X972936Y172530D01*
X976157Y173864D01*
X979643Y173864D01*
X982864Y172530D01*
X985330Y170064D01*
X986664Y166843D01*
X986664Y163357D01*
X985330Y160136D01*
X982864Y157670D01*
X979643Y156336D01*
X976157Y156336D01*
G37*
%LPD*%
%LPC*%
G36*
X976157Y130936D02*
X976157Y130936D01*
X972936Y132270D01*
X970470Y134736D01*
X969136Y137957D01*
X969136Y141443D01*
X970470Y144664D01*
X972936Y147130D01*
X976157Y148464D01*
X979643Y148464D01*
X982864Y147130D01*
X985330Y144664D01*
X986664Y141443D01*
X986664Y137957D01*
X985330Y134736D01*
X982864Y132270D01*
X979643Y130936D01*
X976157Y130936D01*
G37*
%LPD*%
%LPC*%
G36*
X547157Y732236D02*
X547157Y732236D01*
X543936Y733570D01*
X541470Y736036D01*
X540136Y739257D01*
X540136Y742743D01*
X541470Y745964D01*
X543936Y748430D01*
X547157Y749764D01*
X550643Y749764D01*
X553864Y748430D01*
X556330Y745964D01*
X557664Y742743D01*
X557664Y739257D01*
X556330Y736036D01*
X553864Y733570D01*
X550643Y732236D01*
X547157Y732236D01*
G37*
%LPD*%
%LPC*%
G36*
X826557Y402036D02*
X826557Y402036D01*
X823336Y403370D01*
X820870Y405836D01*
X819536Y409057D01*
X819536Y412543D01*
X820870Y415764D01*
X823336Y418230D01*
X826557Y419564D01*
X830043Y419564D01*
X833264Y418230D01*
X835730Y415764D01*
X837064Y412543D01*
X837064Y409057D01*
X835730Y405836D01*
X833264Y403370D01*
X830043Y402036D01*
X826557Y402036D01*
G37*
%LPD*%
%LPC*%
G36*
X538638Y191261D02*
X538638Y191261D01*
X536584Y192112D01*
X535012Y193684D01*
X534161Y195738D01*
X534161Y197962D01*
X535012Y200016D01*
X536584Y201588D01*
X538638Y202439D01*
X540862Y202439D01*
X542916Y201588D01*
X544488Y200016D01*
X545339Y197962D01*
X545339Y195738D01*
X544488Y193684D01*
X542916Y192112D01*
X540862Y191261D01*
X538638Y191261D01*
G37*
%LPD*%
%LPC*%
G36*
X308339Y129939D02*
X308339Y129939D01*
X308339Y139492D01*
X308690Y139437D01*
X310537Y138837D01*
X312268Y137955D01*
X313839Y136813D01*
X315213Y135439D01*
X316355Y133868D01*
X317237Y132137D01*
X317837Y130290D01*
X317892Y129939D01*
X308339Y129939D01*
G37*
%LPD*%
%LPC*%
G36*
X433339Y129939D02*
X433339Y129939D01*
X433339Y139492D01*
X433690Y139437D01*
X435537Y138837D01*
X437268Y137955D01*
X438839Y136813D01*
X440213Y135439D01*
X441355Y133868D01*
X442237Y132137D01*
X442837Y130290D01*
X442892Y129939D01*
X433339Y129939D01*
G37*
%LPD*%
%LPC*%
G36*
X293708Y129939D02*
X293708Y129939D01*
X293763Y130290D01*
X294363Y132137D01*
X295245Y133868D01*
X296387Y135439D01*
X297761Y136813D01*
X299332Y137955D01*
X301063Y138837D01*
X302910Y139437D01*
X303261Y139492D01*
X303261Y129939D01*
X293708Y129939D01*
G37*
%LPD*%
%LPC*%
G36*
X418708Y129939D02*
X418708Y129939D01*
X418763Y130290D01*
X419363Y132137D01*
X420245Y133868D01*
X421387Y135439D01*
X422761Y136813D01*
X424332Y137955D01*
X426063Y138837D01*
X427910Y139437D01*
X428261Y139492D01*
X428261Y129939D01*
X418708Y129939D01*
G37*
%LPD*%
%LPC*%
G36*
X433339Y124861D02*
X433339Y124861D01*
X442892Y124861D01*
X442837Y124510D01*
X442237Y122663D01*
X441355Y120932D01*
X440213Y119361D01*
X438839Y117987D01*
X437268Y116845D01*
X435537Y115963D01*
X433690Y115363D01*
X433339Y115308D01*
X433339Y124861D01*
G37*
%LPD*%
%LPC*%
G36*
X308339Y124861D02*
X308339Y124861D01*
X317892Y124861D01*
X317837Y124510D01*
X317237Y122663D01*
X316355Y120932D01*
X315213Y119361D01*
X313839Y117987D01*
X312268Y116845D01*
X310537Y115963D01*
X308690Y115363D01*
X308339Y115308D01*
X308339Y124861D01*
G37*
%LPD*%
%LPC*%
G36*
X427910Y115363D02*
X427910Y115363D01*
X426063Y115963D01*
X424332Y116845D01*
X422761Y117987D01*
X421387Y119361D01*
X420245Y120932D01*
X419363Y122663D01*
X418763Y124510D01*
X418708Y124861D01*
X428261Y124861D01*
X428261Y115308D01*
X427910Y115363D01*
G37*
%LPD*%
%LPC*%
G36*
X302910Y115363D02*
X302910Y115363D01*
X301063Y115963D01*
X299332Y116845D01*
X297761Y117987D01*
X296387Y119361D01*
X295245Y120932D01*
X294363Y122663D01*
X293763Y124510D01*
X293708Y124861D01*
X303261Y124861D01*
X303261Y115308D01*
X302910Y115363D01*
G37*
%LPD*%
%LPC*%
G36*
X1070569Y820379D02*
X1070569Y820379D01*
X1070569Y827100D01*
X1071732Y826722D01*
X1073071Y826040D01*
X1074285Y825157D01*
X1075347Y824095D01*
X1076230Y822881D01*
X1076912Y821542D01*
X1077290Y820379D01*
X1070569Y820379D01*
G37*
%LPD*%
%LPC*%
G36*
X1058850Y820379D02*
X1058850Y820379D01*
X1059228Y821542D01*
X1059910Y822881D01*
X1060793Y824095D01*
X1061855Y825157D01*
X1063069Y826040D01*
X1064408Y826722D01*
X1065571Y827100D01*
X1065571Y820379D01*
X1058850Y820379D01*
G37*
%LPD*%
%LPC*%
G36*
X1070569Y815381D02*
X1070569Y815381D01*
X1077290Y815381D01*
X1076912Y814218D01*
X1076230Y812879D01*
X1075347Y811665D01*
X1074285Y810603D01*
X1073071Y809720D01*
X1071732Y809038D01*
X1070569Y808660D01*
X1070569Y815381D01*
G37*
%LPD*%
%LPC*%
G36*
X1064408Y809038D02*
X1064408Y809038D01*
X1063069Y809720D01*
X1061855Y810603D01*
X1060793Y811665D01*
X1059910Y812879D01*
X1059228Y814218D01*
X1058850Y815381D01*
X1065571Y815381D01*
X1065571Y808660D01*
X1064408Y809038D01*
G37*
%LPD*%
%LPC*%
G36*
X805122Y616222D02*
X805122Y616222D01*
X805122Y622493D01*
X805456Y622427D01*
X807051Y621766D01*
X808487Y620807D01*
X809707Y619587D01*
X810666Y618151D01*
X811327Y616556D01*
X811393Y616222D01*
X805122Y616222D01*
G37*
%LPD*%
%LPC*%
G36*
X576522Y616222D02*
X576522Y616222D01*
X576522Y622493D01*
X576856Y622427D01*
X578451Y621766D01*
X579887Y620807D01*
X581107Y619587D01*
X582066Y618151D01*
X582727Y616556D01*
X582793Y616222D01*
X576522Y616222D01*
G37*
%LPD*%
%LPC*%
G36*
X805122Y540022D02*
X805122Y540022D01*
X805122Y546293D01*
X805456Y546227D01*
X807051Y545566D01*
X808487Y544607D01*
X809707Y543387D01*
X810666Y541951D01*
X811327Y540356D01*
X811393Y540022D01*
X805122Y540022D01*
G37*
%LPD*%
%LPC*%
G36*
X980122Y116522D02*
X980122Y116522D01*
X980122Y122793D01*
X980456Y122727D01*
X982051Y122066D01*
X983487Y121107D01*
X984707Y119887D01*
X985666Y118451D01*
X986327Y116856D01*
X986393Y116522D01*
X980122Y116522D01*
G37*
%LPD*%
%LPC*%
G36*
X805122Y611778D02*
X805122Y611778D01*
X811393Y611778D01*
X811327Y611444D01*
X810666Y609849D01*
X809707Y608413D01*
X808487Y607193D01*
X807051Y606234D01*
X805456Y605573D01*
X805122Y605507D01*
X805122Y611778D01*
G37*
%LPD*%
%LPC*%
G36*
X576522Y611778D02*
X576522Y611778D01*
X582793Y611778D01*
X582727Y611444D01*
X582066Y609849D01*
X581107Y608413D01*
X579887Y607193D01*
X578451Y606234D01*
X576856Y605573D01*
X576522Y605507D01*
X576522Y611778D01*
G37*
%LPD*%
%LPC*%
G36*
X794407Y616222D02*
X794407Y616222D01*
X794473Y616556D01*
X795134Y618151D01*
X796093Y619587D01*
X797313Y620807D01*
X798749Y621766D01*
X800344Y622427D01*
X800678Y622493D01*
X800678Y616222D01*
X794407Y616222D01*
G37*
%LPD*%
%LPC*%
G36*
X565807Y616222D02*
X565807Y616222D01*
X565873Y616556D01*
X566534Y618151D01*
X567493Y619587D01*
X568713Y620807D01*
X570149Y621766D01*
X571744Y622427D01*
X572078Y622493D01*
X572078Y616222D01*
X565807Y616222D01*
G37*
%LPD*%
%LPC*%
G36*
X794407Y540022D02*
X794407Y540022D01*
X794473Y540356D01*
X795134Y541951D01*
X796093Y543387D01*
X797313Y544607D01*
X798749Y545566D01*
X800344Y546227D01*
X800678Y546293D01*
X800678Y540022D01*
X794407Y540022D01*
G37*
%LPD*%
%LPC*%
G36*
X805122Y535578D02*
X805122Y535578D01*
X811393Y535578D01*
X811327Y535244D01*
X810666Y533649D01*
X809707Y532213D01*
X808487Y530993D01*
X807051Y530034D01*
X805456Y529373D01*
X805122Y529307D01*
X805122Y535578D01*
G37*
%LPD*%
%LPC*%
G36*
X969407Y116522D02*
X969407Y116522D01*
X969473Y116856D01*
X970134Y118451D01*
X971093Y119887D01*
X972313Y121107D01*
X973749Y122066D01*
X975344Y122727D01*
X975678Y122793D01*
X975678Y116522D01*
X969407Y116522D01*
G37*
%LPD*%
%LPC*%
G36*
X980122Y112078D02*
X980122Y112078D01*
X986393Y112078D01*
X986327Y111744D01*
X985666Y110149D01*
X984707Y108713D01*
X983487Y107493D01*
X982051Y106534D01*
X980456Y105873D01*
X980122Y105807D01*
X980122Y112078D01*
G37*
%LPD*%
%LPC*%
G36*
X800344Y529373D02*
X800344Y529373D01*
X798749Y530034D01*
X797313Y530993D01*
X796093Y532213D01*
X795134Y533649D01*
X794473Y535244D01*
X794407Y535578D01*
X800678Y535578D01*
X800678Y529307D01*
X800344Y529373D01*
G37*
%LPD*%
%LPC*%
G36*
X800344Y605573D02*
X800344Y605573D01*
X798749Y606234D01*
X797313Y607193D01*
X796093Y608413D01*
X795134Y609849D01*
X794473Y611444D01*
X794407Y611778D01*
X800678Y611778D01*
X800678Y605507D01*
X800344Y605573D01*
G37*
%LPD*%
%LPC*%
G36*
X571744Y605573D02*
X571744Y605573D01*
X570149Y606234D01*
X568713Y607193D01*
X567493Y608413D01*
X566534Y609849D01*
X565873Y611444D01*
X565807Y611778D01*
X572078Y611778D01*
X572078Y605507D01*
X571744Y605573D01*
G37*
%LPD*%
%LPC*%
G36*
X975344Y105873D02*
X975344Y105873D01*
X973749Y106534D01*
X972313Y107493D01*
X971093Y108713D01*
X970134Y110149D01*
X969473Y111744D01*
X969407Y112078D01*
X975678Y112078D01*
X975678Y105807D01*
X975344Y105873D01*
G37*
%LPD*%
%LPC*%
G36*
X430799Y127399D02*
X430799Y127399D01*
X430799Y127401D01*
X430801Y127401D01*
X430801Y127399D01*
X430799Y127399D01*
G37*
%LPD*%
%LPC*%
G36*
X305799Y127399D02*
X305799Y127399D01*
X305799Y127401D01*
X305801Y127401D01*
X305801Y127399D01*
X305799Y127399D01*
G37*
%LPD*%
D10*
X430800Y177400D03*
X430800Y127400D03*
X305800Y127400D03*
X305800Y177400D03*
D11*
X977900Y165100D03*
X977900Y139700D03*
X977900Y114300D03*
X828300Y791800D03*
X802900Y791800D03*
X828300Y766400D03*
X802900Y766400D03*
X828300Y741000D03*
X802900Y741000D03*
X828300Y715600D03*
X802900Y715600D03*
X828300Y690200D03*
X802900Y690200D03*
X828300Y664800D03*
X802900Y664800D03*
X828300Y639400D03*
X802900Y639400D03*
X828300Y614000D03*
X802900Y614000D03*
X828300Y588600D03*
X802900Y588600D03*
X828300Y563200D03*
X802900Y563200D03*
X828300Y537800D03*
X802900Y537800D03*
X828300Y512400D03*
X802900Y512400D03*
X828300Y487000D03*
X802900Y487000D03*
X828300Y461600D03*
X802900Y461600D03*
X828300Y436200D03*
X802900Y436200D03*
X828300Y410800D03*
X802900Y410800D03*
X828300Y385400D03*
X802900Y385400D03*
X828300Y360000D03*
X802900Y360000D03*
X574300Y791800D03*
X548900Y791800D03*
X574300Y766400D03*
X548900Y766400D03*
X574300Y741000D03*
X548900Y741000D03*
X574300Y715600D03*
X548900Y715600D03*
X574300Y690200D03*
X548900Y690200D03*
X574300Y664800D03*
X548900Y664800D03*
X574300Y639400D03*
X548900Y639400D03*
X574300Y614000D03*
X548900Y614000D03*
X574300Y588600D03*
X548900Y588600D03*
X574300Y563200D03*
X548900Y563200D03*
X574300Y537800D03*
X548900Y537800D03*
X574300Y512400D03*
X548900Y512400D03*
X574300Y487000D03*
X548900Y487000D03*
X574300Y461600D03*
X548900Y461600D03*
X574300Y436200D03*
X548900Y436200D03*
X574300Y410800D03*
X548900Y410800D03*
X574300Y385400D03*
X548900Y385400D03*
X574300Y360000D03*
X548900Y360000D03*
D12*
X236220Y817880D03*
X236220Y792480D03*
X236220Y767080D03*
X236220Y741680D03*
X236220Y716280D03*
X236220Y690880D03*
X236220Y665480D03*
X236220Y640080D03*
X236220Y614680D03*
X236220Y589280D03*
X236220Y563880D03*
X236220Y538480D03*
X236220Y513080D03*
X236220Y487680D03*
X236220Y462280D03*
X236220Y436880D03*
X236220Y411480D03*
X236220Y386080D03*
X236220Y360680D03*
X236220Y335280D03*
X1068070Y817880D03*
X1068070Y792480D03*
X1068070Y767080D03*
X1068070Y741680D03*
X1068070Y716280D03*
X1068070Y690880D03*
X1068070Y665480D03*
X1068070Y640080D03*
X1068070Y614680D03*
X1068070Y589280D03*
X1068070Y563880D03*
X1068070Y538480D03*
X1068070Y513080D03*
X1068070Y487680D03*
X1068070Y462280D03*
X1068070Y436880D03*
X1068070Y411480D03*
X1068070Y386080D03*
X1068070Y360680D03*
X1068070Y335280D03*
D13*
X1068070Y290830D03*
X1068070Y862330D03*
X236220Y290830D03*
X236220Y862330D03*
D14*
X50800Y50800D03*
X1219200Y50800D03*
X1219200Y965200D03*
X63500Y965200D03*
D15*
X469900Y127000D03*
X266700Y127000D03*
X844550Y50800D03*
X920750Y114300D03*
X539750Y196850D03*
M02*
