G04 EAGLE Gerber RS-274X export*
G75*
%MOMM*%
%FSLAX34Y34*%
%LPD*%
%INBottom Copper*%
%IPPOS*%
%AMOC8*
5,1,8,0,0,1.08239X$1,22.5*%
G01*
%ADD10C,1.960000*%
%ADD11R,1.651000X1.651000*%
%ADD12C,1.651000*%
%ADD13R,1.524000X1.524000*%
%ADD14P,1.649562X8X292.500000*%
%ADD15C,1.676400*%
%ADD16C,4.016000*%
%ADD17C,1.016000*%
%ADD18C,4.445000*%
%ADD19C,0.609600*%


D10*
X430800Y177400D03*
X430800Y127400D03*
X305800Y127400D03*
X305800Y177400D03*
D11*
X977900Y165100D03*
D12*
X977900Y139700D03*
X977900Y114300D03*
D13*
X828300Y791800D03*
D14*
X802900Y791800D03*
X828300Y766400D03*
X802900Y766400D03*
X828300Y741000D03*
X802900Y741000D03*
X828300Y715600D03*
X802900Y715600D03*
X828300Y690200D03*
X802900Y690200D03*
X828300Y664800D03*
X802900Y664800D03*
X828300Y639400D03*
X802900Y639400D03*
X828300Y614000D03*
X802900Y614000D03*
X828300Y588600D03*
X802900Y588600D03*
X828300Y563200D03*
X802900Y563200D03*
X828300Y537800D03*
X802900Y537800D03*
X828300Y512400D03*
X802900Y512400D03*
X828300Y487000D03*
X802900Y487000D03*
X828300Y461600D03*
X802900Y461600D03*
X828300Y436200D03*
X802900Y436200D03*
X828300Y410800D03*
X802900Y410800D03*
X828300Y385400D03*
X802900Y385400D03*
X828300Y360000D03*
X802900Y360000D03*
D13*
X574300Y791800D03*
D14*
X548900Y791800D03*
X574300Y766400D03*
X548900Y766400D03*
X574300Y741000D03*
X548900Y741000D03*
X574300Y715600D03*
X548900Y715600D03*
X574300Y690200D03*
X548900Y690200D03*
X574300Y664800D03*
X548900Y664800D03*
X574300Y639400D03*
X548900Y639400D03*
X574300Y614000D03*
X548900Y614000D03*
X574300Y588600D03*
X548900Y588600D03*
X574300Y563200D03*
X548900Y563200D03*
X574300Y537800D03*
X548900Y537800D03*
X574300Y512400D03*
X548900Y512400D03*
X574300Y487000D03*
X548900Y487000D03*
X574300Y461600D03*
X548900Y461600D03*
X574300Y436200D03*
X548900Y436200D03*
X574300Y410800D03*
X548900Y410800D03*
X574300Y385400D03*
X548900Y385400D03*
X574300Y360000D03*
X548900Y360000D03*
D15*
X236220Y817880D03*
X236220Y792480D03*
X236220Y767080D03*
X236220Y741680D03*
X236220Y716280D03*
X236220Y690880D03*
X236220Y665480D03*
X236220Y640080D03*
X236220Y614680D03*
X236220Y589280D03*
X236220Y563880D03*
X236220Y538480D03*
X236220Y513080D03*
X236220Y487680D03*
X236220Y462280D03*
X236220Y436880D03*
X236220Y411480D03*
X236220Y386080D03*
X236220Y360680D03*
X236220Y335280D03*
X1068070Y817880D03*
X1068070Y792480D03*
X1068070Y767080D03*
X1068070Y741680D03*
X1068070Y716280D03*
X1068070Y690880D03*
X1068070Y665480D03*
X1068070Y640080D03*
X1068070Y614680D03*
X1068070Y589280D03*
X1068070Y563880D03*
X1068070Y538480D03*
X1068070Y513080D03*
X1068070Y487680D03*
X1068070Y462280D03*
X1068070Y436880D03*
X1068070Y411480D03*
X1068070Y386080D03*
X1068070Y360680D03*
X1068070Y335280D03*
D16*
X1068070Y290830D03*
X1068070Y862330D03*
X236220Y290830D03*
X236220Y862330D03*
D17*
X50800Y114300D03*
X1219200Y114300D03*
X63500Y908050D03*
D18*
X50800Y50800D03*
X1219200Y50800D03*
X1219200Y965200D03*
X63500Y965200D03*
D19*
X469900Y127000D03*
X266700Y127000D03*
X844550Y50800D03*
X920750Y114300D03*
X539750Y196850D03*
M02*
