G04 EAGLE Gerber RS-274X export*
G75*
%MOMM*%
%FSLAX34Y34*%
%LPD*%
%INTop Copper*%
%IPPOS*%
%AMOC8*
5,1,8,0,0,1.08239X$1,22.5*%
G01*
%ADD10C,1.960000*%
%ADD11R,0.949959X1.031241*%
%ADD12R,1.651000X1.651000*%
%ADD13C,1.651000*%
%ADD14R,1.524000X1.524000*%
%ADD15P,1.649562X8X292.500000*%
%ADD16C,1.676400*%
%ADD17C,4.016000*%
%ADD18C,1.016000*%
%ADD19C,4.445000*%
%ADD20C,0.254000*%
%ADD21C,0.609600*%

G36*
X2556Y3692D02*
X2556Y3692D01*
X2563Y3573D01*
X2576Y3535D01*
X2581Y3494D01*
X2624Y3384D01*
X2661Y3271D01*
X2683Y3236D01*
X2698Y3199D01*
X2767Y3103D01*
X2831Y3002D01*
X2861Y2974D01*
X2884Y2941D01*
X2976Y2865D01*
X3063Y2784D01*
X3098Y2764D01*
X3129Y2739D01*
X3237Y2688D01*
X3341Y2630D01*
X3381Y2620D01*
X3417Y2603D01*
X3534Y2581D01*
X3649Y2551D01*
X3709Y2547D01*
X3729Y2543D01*
X3750Y2545D01*
X3810Y2541D01*
X1265991Y2541D01*
X1266109Y2556D01*
X1266227Y2563D01*
X1266266Y2575D01*
X1266306Y2581D01*
X1266417Y2624D01*
X1266530Y2661D01*
X1266564Y2683D01*
X1266602Y2698D01*
X1266698Y2767D01*
X1266799Y2831D01*
X1266827Y2861D01*
X1266859Y2884D01*
X1266935Y2976D01*
X1267017Y3063D01*
X1267036Y3098D01*
X1267062Y3129D01*
X1267113Y3237D01*
X1267170Y3341D01*
X1267180Y3380D01*
X1267198Y3417D01*
X1267220Y3534D01*
X1267250Y3649D01*
X1267254Y3709D01*
X1267257Y3729D01*
X1267256Y3750D01*
X1267260Y3810D01*
X1267359Y508000D01*
X1267459Y1012190D01*
X1267444Y1012308D01*
X1267436Y1012427D01*
X1267424Y1012465D01*
X1267419Y1012505D01*
X1267375Y1012616D01*
X1267338Y1012729D01*
X1267317Y1012764D01*
X1267302Y1012801D01*
X1267232Y1012897D01*
X1267168Y1012998D01*
X1267139Y1013026D01*
X1267115Y1013058D01*
X1267023Y1013134D01*
X1266936Y1013216D01*
X1266901Y1013236D01*
X1266870Y1013261D01*
X1266762Y1013312D01*
X1266658Y1013370D01*
X1266619Y1013380D01*
X1266582Y1013397D01*
X1266465Y1013419D01*
X1266350Y1013449D01*
X1266290Y1013453D01*
X1266270Y1013457D01*
X1266250Y1013455D01*
X1266189Y1013459D01*
X3810Y1013459D01*
X3692Y1013444D01*
X3573Y1013437D01*
X3535Y1013424D01*
X3494Y1013419D01*
X3384Y1013376D01*
X3271Y1013339D01*
X3236Y1013317D01*
X3199Y1013302D01*
X3103Y1013233D01*
X3002Y1013169D01*
X2974Y1013139D01*
X2941Y1013116D01*
X2865Y1013024D01*
X2784Y1012937D01*
X2764Y1012902D01*
X2739Y1012871D01*
X2688Y1012763D01*
X2630Y1012659D01*
X2620Y1012619D01*
X2603Y1012583D01*
X2581Y1012466D01*
X2551Y1012351D01*
X2547Y1012291D01*
X2543Y1012271D01*
X2545Y1012250D01*
X2541Y1012190D01*
X2541Y3810D01*
X2556Y3692D01*
G37*
%LPC*%
G36*
X101600Y925831D02*
X101600Y925831D01*
X101718Y925846D01*
X101837Y925853D01*
X101875Y925866D01*
X101916Y925871D01*
X102026Y925914D01*
X102139Y925951D01*
X102174Y925973D01*
X102211Y925988D01*
X102307Y926058D01*
X102408Y926121D01*
X102436Y926151D01*
X102469Y926174D01*
X102545Y926266D01*
X102626Y926353D01*
X102646Y926388D01*
X102671Y926419D01*
X102722Y926527D01*
X102780Y926631D01*
X102790Y926671D01*
X102807Y926707D01*
X102829Y926824D01*
X102859Y926939D01*
X102863Y927000D01*
X102867Y927020D01*
X102865Y927040D01*
X102869Y927100D01*
X102869Y989331D01*
X1179831Y989331D01*
X1179831Y927100D01*
X1179846Y926982D01*
X1179853Y926863D01*
X1179866Y926825D01*
X1179871Y926784D01*
X1179914Y926674D01*
X1179951Y926561D01*
X1179973Y926526D01*
X1179988Y926489D01*
X1180058Y926393D01*
X1180121Y926292D01*
X1180151Y926264D01*
X1180174Y926231D01*
X1180266Y926156D01*
X1180353Y926074D01*
X1180388Y926054D01*
X1180419Y926029D01*
X1180527Y925978D01*
X1180631Y925920D01*
X1180671Y925910D01*
X1180707Y925893D01*
X1180824Y925871D01*
X1180939Y925841D01*
X1181000Y925837D01*
X1181020Y925833D01*
X1181040Y925835D01*
X1181100Y925831D01*
X1243331Y925831D01*
X1243331Y90169D01*
X1181100Y90169D01*
X1180982Y90154D01*
X1180863Y90147D01*
X1180825Y90134D01*
X1180784Y90129D01*
X1180674Y90086D01*
X1180561Y90049D01*
X1180526Y90027D01*
X1180489Y90012D01*
X1180393Y89943D01*
X1180292Y89879D01*
X1180264Y89849D01*
X1180231Y89826D01*
X1180156Y89734D01*
X1180074Y89647D01*
X1180054Y89612D01*
X1180029Y89581D01*
X1179978Y89473D01*
X1179920Y89369D01*
X1179910Y89329D01*
X1179893Y89293D01*
X1179871Y89176D01*
X1179841Y89061D01*
X1179837Y89001D01*
X1179833Y88981D01*
X1179835Y88960D01*
X1179831Y88900D01*
X1179831Y26669D01*
X90169Y26669D01*
X90169Y88900D01*
X90154Y89018D01*
X90147Y89137D01*
X90134Y89175D01*
X90129Y89216D01*
X90086Y89326D01*
X90049Y89439D01*
X90027Y89474D01*
X90012Y89511D01*
X89943Y89607D01*
X89879Y89708D01*
X89849Y89736D01*
X89826Y89769D01*
X89734Y89845D01*
X89647Y89926D01*
X89612Y89946D01*
X89581Y89971D01*
X89473Y90022D01*
X89369Y90080D01*
X89329Y90090D01*
X89293Y90107D01*
X89176Y90129D01*
X89061Y90159D01*
X89001Y90163D01*
X88981Y90167D01*
X88960Y90165D01*
X88900Y90169D01*
X26669Y90169D01*
X26669Y925831D01*
X101600Y925831D01*
G37*
%LPD*%
%LPC*%
G36*
X66039Y967739D02*
X66039Y967739D01*
X66039Y989836D01*
X67655Y989654D01*
X70367Y989035D01*
X72992Y988117D01*
X75499Y986910D01*
X77854Y985430D01*
X80029Y983695D01*
X81995Y981729D01*
X83730Y979554D01*
X85210Y977199D01*
X86417Y974692D01*
X87335Y972067D01*
X87954Y969355D01*
X88136Y967739D01*
X66039Y967739D01*
G37*
%LPD*%
%LPC*%
G36*
X1221739Y967739D02*
X1221739Y967739D01*
X1221739Y989836D01*
X1223355Y989654D01*
X1226067Y989035D01*
X1228692Y988117D01*
X1231199Y986910D01*
X1233554Y985430D01*
X1235729Y983695D01*
X1237695Y981729D01*
X1239430Y979554D01*
X1240910Y977199D01*
X1242117Y974692D01*
X1243035Y972067D01*
X1243654Y969355D01*
X1243836Y967739D01*
X1221739Y967739D01*
G37*
%LPD*%
%LPC*%
G36*
X53339Y53339D02*
X53339Y53339D01*
X53339Y75436D01*
X54955Y75254D01*
X57667Y74635D01*
X60292Y73717D01*
X62799Y72510D01*
X65154Y71030D01*
X67329Y69295D01*
X69295Y67329D01*
X71030Y65154D01*
X72510Y62799D01*
X73717Y60292D01*
X74635Y57667D01*
X75254Y54955D01*
X75436Y53339D01*
X53339Y53339D01*
G37*
%LPD*%
%LPC*%
G36*
X1221739Y53339D02*
X1221739Y53339D01*
X1221739Y75436D01*
X1223355Y75254D01*
X1226067Y74635D01*
X1228692Y73717D01*
X1231199Y72510D01*
X1233554Y71030D01*
X1235729Y69295D01*
X1237695Y67329D01*
X1239430Y65154D01*
X1240910Y62799D01*
X1242117Y60292D01*
X1243035Y57667D01*
X1243654Y54955D01*
X1243836Y53339D01*
X1221739Y53339D01*
G37*
%LPD*%
%LPC*%
G36*
X38864Y967739D02*
X38864Y967739D01*
X39046Y969355D01*
X39665Y972067D01*
X40583Y974692D01*
X41790Y977199D01*
X43270Y979554D01*
X45005Y981729D01*
X46971Y983695D01*
X49146Y985430D01*
X51501Y986910D01*
X54008Y988117D01*
X56633Y989035D01*
X59345Y989654D01*
X60961Y989836D01*
X60961Y967739D01*
X38864Y967739D01*
G37*
%LPD*%
%LPC*%
G36*
X1194564Y967739D02*
X1194564Y967739D01*
X1194746Y969355D01*
X1195365Y972067D01*
X1196283Y974692D01*
X1197490Y977199D01*
X1198970Y979554D01*
X1200705Y981729D01*
X1202671Y983695D01*
X1204846Y985430D01*
X1207201Y986910D01*
X1209708Y988117D01*
X1212333Y989035D01*
X1215045Y989654D01*
X1216661Y989836D01*
X1216661Y967739D01*
X1194564Y967739D01*
G37*
%LPD*%
%LPC*%
G36*
X1221739Y962661D02*
X1221739Y962661D01*
X1243836Y962661D01*
X1243654Y961045D01*
X1243035Y958333D01*
X1242117Y955708D01*
X1240910Y953201D01*
X1239430Y950846D01*
X1237695Y948671D01*
X1235729Y946705D01*
X1233554Y944970D01*
X1231199Y943490D01*
X1228692Y942283D01*
X1226067Y941365D01*
X1223355Y940746D01*
X1221739Y940564D01*
X1221739Y962661D01*
G37*
%LPD*%
%LPC*%
G36*
X66039Y962661D02*
X66039Y962661D01*
X88136Y962661D01*
X87954Y961045D01*
X87335Y958333D01*
X86417Y955708D01*
X85210Y953201D01*
X83730Y950846D01*
X81995Y948671D01*
X80029Y946705D01*
X77854Y944970D01*
X75499Y943490D01*
X72992Y942283D01*
X70367Y941365D01*
X67655Y940746D01*
X66039Y940564D01*
X66039Y962661D01*
G37*
%LPD*%
%LPC*%
G36*
X26164Y53339D02*
X26164Y53339D01*
X26346Y54955D01*
X26965Y57667D01*
X27883Y60292D01*
X29090Y62799D01*
X30570Y65154D01*
X32305Y67329D01*
X34271Y69295D01*
X36446Y71030D01*
X38801Y72510D01*
X41308Y73717D01*
X43933Y74635D01*
X46645Y75254D01*
X48261Y75436D01*
X48261Y53339D01*
X26164Y53339D01*
G37*
%LPD*%
%LPC*%
G36*
X1194564Y53339D02*
X1194564Y53339D01*
X1194746Y54955D01*
X1195365Y57667D01*
X1196283Y60292D01*
X1197490Y62799D01*
X1198970Y65154D01*
X1200705Y67329D01*
X1202671Y69295D01*
X1204846Y71030D01*
X1207201Y72510D01*
X1209708Y73717D01*
X1212333Y74635D01*
X1215045Y75254D01*
X1216661Y75436D01*
X1216661Y53339D01*
X1194564Y53339D01*
G37*
%LPD*%
%LPC*%
G36*
X1221739Y48261D02*
X1221739Y48261D01*
X1243836Y48261D01*
X1243654Y46645D01*
X1243035Y43933D01*
X1242117Y41308D01*
X1240910Y38801D01*
X1239430Y36446D01*
X1237695Y34271D01*
X1235729Y32305D01*
X1233554Y30570D01*
X1231199Y29090D01*
X1228692Y27883D01*
X1226067Y26965D01*
X1223355Y26346D01*
X1221739Y26164D01*
X1221739Y48261D01*
G37*
%LPD*%
%LPC*%
G36*
X53339Y48261D02*
X53339Y48261D01*
X75436Y48261D01*
X75254Y46645D01*
X74635Y43933D01*
X73717Y41308D01*
X72510Y38801D01*
X71030Y36446D01*
X69295Y34271D01*
X67329Y32305D01*
X65154Y30570D01*
X62799Y29090D01*
X60292Y27883D01*
X57667Y26965D01*
X54955Y26346D01*
X53339Y26164D01*
X53339Y48261D01*
G37*
%LPD*%
%LPC*%
G36*
X1215045Y940746D02*
X1215045Y940746D01*
X1212333Y941365D01*
X1209708Y942283D01*
X1207201Y943490D01*
X1204846Y944970D01*
X1202671Y946705D01*
X1200705Y948671D01*
X1198970Y950846D01*
X1197490Y953201D01*
X1196283Y955708D01*
X1195365Y958333D01*
X1194746Y961045D01*
X1194564Y962661D01*
X1216661Y962661D01*
X1216661Y940564D01*
X1215045Y940746D01*
G37*
%LPD*%
%LPC*%
G36*
X59345Y940746D02*
X59345Y940746D01*
X56633Y941365D01*
X54008Y942283D01*
X51501Y943490D01*
X49146Y944970D01*
X46971Y946705D01*
X45005Y948671D01*
X43270Y950846D01*
X41790Y953201D01*
X40583Y955708D01*
X39665Y958333D01*
X39046Y961045D01*
X38864Y962661D01*
X60961Y962661D01*
X60961Y940564D01*
X59345Y940746D01*
G37*
%LPD*%
%LPC*%
G36*
X1215045Y26346D02*
X1215045Y26346D01*
X1212333Y26965D01*
X1209708Y27883D01*
X1207201Y29090D01*
X1204846Y30570D01*
X1202671Y32305D01*
X1200705Y34271D01*
X1198970Y36446D01*
X1197490Y38801D01*
X1196283Y41308D01*
X1195365Y43933D01*
X1194746Y46645D01*
X1194564Y48261D01*
X1216661Y48261D01*
X1216661Y26164D01*
X1215045Y26346D01*
G37*
%LPD*%
%LPC*%
G36*
X46645Y26346D02*
X46645Y26346D01*
X43933Y26965D01*
X41308Y27883D01*
X38801Y29090D01*
X36446Y30570D01*
X34271Y32305D01*
X32305Y34271D01*
X30570Y36446D01*
X29090Y38801D01*
X27883Y41308D01*
X26965Y43933D01*
X26346Y46645D01*
X26164Y48261D01*
X48261Y48261D01*
X48261Y26164D01*
X46645Y26346D01*
G37*
%LPD*%
%LPC*%
G36*
X1219199Y965199D02*
X1219199Y965199D01*
X1219199Y965201D01*
X1219201Y965201D01*
X1219201Y965199D01*
X1219199Y965199D01*
G37*
%LPD*%
%LPC*%
G36*
X63499Y965199D02*
X63499Y965199D01*
X63499Y965201D01*
X63501Y965201D01*
X63501Y965199D01*
X63499Y965199D01*
G37*
%LPD*%
%LPC*%
G36*
X1219199Y50799D02*
X1219199Y50799D01*
X1219199Y50801D01*
X1219201Y50801D01*
X1219201Y50799D01*
X1219199Y50799D01*
G37*
%LPD*%
%LPC*%
G36*
X50799Y50799D02*
X50799Y50799D01*
X50799Y50801D01*
X50801Y50801D01*
X50801Y50799D01*
X50799Y50799D01*
G37*
%LPD*%
D10*
X430800Y177400D03*
X430800Y127400D03*
X305800Y127400D03*
X305800Y177400D03*
D11*
X499999Y196850D03*
X516001Y196850D03*
D12*
X977900Y165100D03*
D13*
X977900Y139700D03*
X977900Y114300D03*
D14*
X828300Y791800D03*
D15*
X802900Y791800D03*
X828300Y766400D03*
X802900Y766400D03*
X828300Y741000D03*
X802900Y741000D03*
X828300Y715600D03*
X802900Y715600D03*
X828300Y690200D03*
X802900Y690200D03*
X828300Y664800D03*
X802900Y664800D03*
X828300Y639400D03*
X802900Y639400D03*
X828300Y614000D03*
X802900Y614000D03*
X828300Y588600D03*
X802900Y588600D03*
X828300Y563200D03*
X802900Y563200D03*
X828300Y537800D03*
X802900Y537800D03*
X828300Y512400D03*
X802900Y512400D03*
X828300Y487000D03*
X802900Y487000D03*
X828300Y461600D03*
X802900Y461600D03*
X828300Y436200D03*
X802900Y436200D03*
X828300Y410800D03*
X802900Y410800D03*
X828300Y385400D03*
X802900Y385400D03*
X828300Y360000D03*
X802900Y360000D03*
D14*
X574300Y791800D03*
D15*
X548900Y791800D03*
X574300Y766400D03*
X548900Y766400D03*
X574300Y741000D03*
X548900Y741000D03*
X574300Y715600D03*
X548900Y715600D03*
X574300Y690200D03*
X548900Y690200D03*
X574300Y664800D03*
X548900Y664800D03*
X574300Y639400D03*
X548900Y639400D03*
X574300Y614000D03*
X548900Y614000D03*
X574300Y588600D03*
X548900Y588600D03*
X574300Y563200D03*
X548900Y563200D03*
X574300Y537800D03*
X548900Y537800D03*
X574300Y512400D03*
X548900Y512400D03*
X574300Y487000D03*
X548900Y487000D03*
X574300Y461600D03*
X548900Y461600D03*
X574300Y436200D03*
X548900Y436200D03*
X574300Y410800D03*
X548900Y410800D03*
X574300Y385400D03*
X548900Y385400D03*
X574300Y360000D03*
X548900Y360000D03*
D16*
X236220Y817880D03*
X236220Y792480D03*
X236220Y767080D03*
X236220Y741680D03*
X236220Y716280D03*
X236220Y690880D03*
X236220Y665480D03*
X236220Y640080D03*
X236220Y614680D03*
X236220Y589280D03*
X236220Y563880D03*
X236220Y538480D03*
X236220Y513080D03*
X236220Y487680D03*
X236220Y462280D03*
X236220Y436880D03*
X236220Y411480D03*
X236220Y386080D03*
X236220Y360680D03*
X236220Y335280D03*
X1068070Y817880D03*
X1068070Y792480D03*
X1068070Y767080D03*
X1068070Y741680D03*
X1068070Y716280D03*
X1068070Y690880D03*
X1068070Y665480D03*
X1068070Y640080D03*
X1068070Y614680D03*
X1068070Y589280D03*
X1068070Y563880D03*
X1068070Y538480D03*
X1068070Y513080D03*
X1068070Y487680D03*
X1068070Y462280D03*
X1068070Y436880D03*
X1068070Y411480D03*
X1068070Y386080D03*
X1068070Y360680D03*
X1068070Y335280D03*
D17*
X1068070Y290830D03*
X1068070Y862330D03*
X236220Y290830D03*
X236220Y862330D03*
D18*
X63500Y908050D03*
X1219200Y114300D03*
X50800Y114300D03*
D19*
X50800Y50800D03*
X1219200Y50800D03*
X1219200Y965200D03*
X63500Y965200D03*
D11*
X893699Y50800D03*
X909701Y50800D03*
D20*
X469500Y127400D02*
X430800Y127400D01*
X469500Y127400D02*
X469900Y127000D01*
D21*
X469900Y127000D03*
D20*
X305800Y127400D02*
X267100Y127400D01*
X266700Y127000D01*
D21*
X266700Y127000D03*
D20*
X844550Y50800D02*
X893699Y50800D01*
D21*
X844550Y50800D03*
D20*
X920750Y114300D02*
X977900Y114300D01*
D21*
X920750Y114300D03*
D20*
X539750Y196850D02*
X516001Y196850D01*
D21*
X539750Y196850D03*
D20*
X802900Y340100D02*
X977900Y165100D01*
X802900Y340100D02*
X802900Y360000D01*
X499999Y196850D02*
X480549Y177400D01*
X430800Y177400D01*
X305800Y177400D01*
X499999Y196850D02*
X499999Y742899D01*
X548900Y791800D01*
X1073120Y753872D02*
X1080262Y746730D01*
X812136Y766400D02*
X802900Y766400D01*
X812136Y766400D02*
X823566Y777830D01*
X1068070Y648238D02*
X1068070Y640080D01*
X1073120Y753872D02*
X954278Y753872D01*
X1068070Y648238D02*
X1080262Y660430D01*
X930320Y777830D02*
X823566Y777830D01*
X930320Y777830D02*
X954278Y753872D01*
X1080262Y746730D02*
X1080262Y660430D01*
X798166Y653370D02*
X791470Y660066D01*
X802900Y731765D02*
X802900Y741000D01*
X802900Y731765D02*
X791470Y720335D01*
X845145Y665480D02*
X833035Y653370D01*
X845145Y665480D02*
X1068070Y665480D01*
X833035Y653370D02*
X798166Y653370D01*
X791470Y660066D02*
X791470Y720335D01*
X802900Y715600D02*
X817550Y730250D01*
X822886Y730250D02*
X823566Y729570D01*
X1055960Y729570D01*
X1068070Y741680D01*
X822886Y730250D02*
X817550Y730250D01*
X817550Y704850D02*
X802900Y690200D01*
X822886Y704850D02*
X823566Y704170D01*
X1055960Y704170D01*
X1068070Y716280D01*
X822886Y704850D02*
X817550Y704850D01*
X817550Y679450D02*
X802900Y664800D01*
X822886Y679450D02*
X823566Y678770D01*
X1055960Y678770D01*
X1068070Y690880D01*
X822886Y679450D02*
X817550Y679450D01*
X817550Y400050D02*
X802900Y385400D01*
X822886Y400050D02*
X823566Y399370D01*
X852760Y399370D01*
X1068070Y614680D01*
X822886Y400050D02*
X817550Y400050D01*
X909701Y50800D02*
X1219200Y50800D01*
M02*
