G04 EAGLE Gerber RS-274X export*
G75*
%MOMM*%
%FSLAX34Y34*%
%LPD*%
%INSilkscreen Top*%
%IPPOS*%
%AMOC8*
5,1,8,0,0,1.08239X$1,22.5*%
G01*
%ADD10C,0.203200*%
%ADD11C,0.254000*%
%ADD12C,0.101600*%
%ADD13C,0.127000*%
%ADD14C,0.076200*%
%ADD15C,0.406400*%


D10*
X534416Y947166D02*
X534416Y962914D01*
X538790Y962914D01*
X538921Y962912D01*
X539052Y962906D01*
X539182Y962896D01*
X539312Y962883D01*
X539442Y962865D01*
X539571Y962844D01*
X539699Y962818D01*
X539827Y962789D01*
X539954Y962756D01*
X540079Y962720D01*
X540204Y962679D01*
X540327Y962635D01*
X540449Y962587D01*
X540569Y962536D01*
X540688Y962481D01*
X540805Y962422D01*
X540920Y962360D01*
X541033Y962295D01*
X541145Y962226D01*
X541254Y962154D01*
X541361Y962079D01*
X541466Y962000D01*
X541568Y961919D01*
X541668Y961834D01*
X541765Y961746D01*
X541860Y961656D01*
X541952Y961563D01*
X542041Y961467D01*
X542127Y961368D01*
X542210Y961267D01*
X542290Y961164D01*
X542367Y961058D01*
X542440Y960950D01*
X542511Y960839D01*
X542578Y960727D01*
X542642Y960613D01*
X542702Y960497D01*
X542759Y960379D01*
X542812Y960259D01*
X542862Y960138D01*
X542908Y960015D01*
X542950Y959892D01*
X542988Y959767D01*
X543023Y959640D01*
X543054Y959513D01*
X543082Y959385D01*
X543105Y959257D01*
X543124Y959127D01*
X543140Y958997D01*
X543152Y958867D01*
X543160Y958736D01*
X543164Y958605D01*
X543164Y958475D01*
X543160Y958344D01*
X543152Y958213D01*
X543140Y958083D01*
X543124Y957953D01*
X543105Y957823D01*
X543082Y957695D01*
X543054Y957567D01*
X543023Y957440D01*
X542988Y957313D01*
X542950Y957188D01*
X542908Y957065D01*
X542862Y956942D01*
X542812Y956821D01*
X542759Y956701D01*
X542702Y956583D01*
X542642Y956467D01*
X542578Y956353D01*
X542511Y956241D01*
X542440Y956130D01*
X542367Y956022D01*
X542290Y955916D01*
X542210Y955813D01*
X542127Y955712D01*
X542041Y955613D01*
X541952Y955517D01*
X541860Y955424D01*
X541765Y955334D01*
X541668Y955246D01*
X541568Y955161D01*
X541466Y955080D01*
X541361Y955001D01*
X541254Y954926D01*
X541145Y954854D01*
X541033Y954785D01*
X540920Y954720D01*
X540805Y954658D01*
X540688Y954599D01*
X540569Y954544D01*
X540449Y954493D01*
X540327Y954445D01*
X540204Y954401D01*
X540079Y954360D01*
X539954Y954324D01*
X539827Y954291D01*
X539699Y954262D01*
X539571Y954236D01*
X539442Y954215D01*
X539312Y954197D01*
X539182Y954184D01*
X539052Y954174D01*
X538921Y954168D01*
X538790Y954166D01*
X538790Y954165D02*
X534416Y954165D01*
X539665Y954165D02*
X543165Y947166D01*
X552395Y947166D02*
X556769Y947166D01*
X552395Y947166D02*
X552294Y947168D01*
X552194Y947174D01*
X552094Y947183D01*
X551994Y947197D01*
X551895Y947214D01*
X551797Y947235D01*
X551699Y947260D01*
X551603Y947288D01*
X551508Y947321D01*
X551414Y947356D01*
X551321Y947396D01*
X551230Y947439D01*
X551141Y947485D01*
X551054Y947535D01*
X550968Y947588D01*
X550885Y947644D01*
X550804Y947703D01*
X550725Y947766D01*
X550649Y947831D01*
X550575Y947900D01*
X550504Y947971D01*
X550435Y948045D01*
X550370Y948121D01*
X550307Y948200D01*
X550248Y948281D01*
X550192Y948364D01*
X550139Y948450D01*
X550089Y948537D01*
X550043Y948626D01*
X550000Y948717D01*
X549960Y948810D01*
X549925Y948904D01*
X549892Y948999D01*
X549864Y949095D01*
X549839Y949193D01*
X549818Y949291D01*
X549801Y949390D01*
X549787Y949490D01*
X549778Y949590D01*
X549772Y949690D01*
X549770Y949791D01*
X549770Y954165D01*
X549769Y954165D02*
X549771Y954283D01*
X549777Y954401D01*
X549787Y954519D01*
X549801Y954636D01*
X549819Y954753D01*
X549841Y954870D01*
X549866Y954985D01*
X549896Y955099D01*
X549930Y955213D01*
X549967Y955325D01*
X550008Y955436D01*
X550053Y955545D01*
X550101Y955653D01*
X550153Y955759D01*
X550209Y955864D01*
X550268Y955966D01*
X550330Y956066D01*
X550396Y956164D01*
X550465Y956260D01*
X550538Y956354D01*
X550613Y956445D01*
X550692Y956533D01*
X550773Y956619D01*
X550858Y956702D01*
X550945Y956782D01*
X551034Y956859D01*
X551127Y956933D01*
X551221Y957003D01*
X551318Y957071D01*
X551418Y957135D01*
X551519Y957196D01*
X551622Y957253D01*
X551728Y957307D01*
X551835Y957358D01*
X551943Y957404D01*
X552053Y957447D01*
X552165Y957486D01*
X552278Y957522D01*
X552392Y957553D01*
X552507Y957581D01*
X552622Y957605D01*
X552739Y957625D01*
X552856Y957641D01*
X552974Y957653D01*
X553092Y957661D01*
X553210Y957665D01*
X553328Y957665D01*
X553446Y957661D01*
X553564Y957653D01*
X553682Y957641D01*
X553799Y957625D01*
X553916Y957605D01*
X554031Y957581D01*
X554146Y957553D01*
X554260Y957522D01*
X554373Y957486D01*
X554485Y957447D01*
X554595Y957404D01*
X554703Y957358D01*
X554810Y957307D01*
X554916Y957253D01*
X555019Y957196D01*
X555120Y957135D01*
X555220Y957071D01*
X555317Y957003D01*
X555411Y956933D01*
X555504Y956859D01*
X555593Y956782D01*
X555680Y956702D01*
X555765Y956619D01*
X555846Y956533D01*
X555925Y956445D01*
X556000Y956354D01*
X556073Y956260D01*
X556142Y956164D01*
X556208Y956066D01*
X556270Y955966D01*
X556329Y955864D01*
X556385Y955759D01*
X556437Y955653D01*
X556485Y955545D01*
X556530Y955436D01*
X556571Y955325D01*
X556608Y955213D01*
X556642Y955099D01*
X556672Y954985D01*
X556697Y954870D01*
X556719Y954753D01*
X556737Y954636D01*
X556751Y954519D01*
X556761Y954401D01*
X556767Y954283D01*
X556769Y954165D01*
X556769Y952415D01*
X549770Y952415D01*
X566291Y953290D02*
X570228Y953290D01*
X566291Y953290D02*
X566182Y953288D01*
X566073Y953282D01*
X565964Y953272D01*
X565855Y953259D01*
X565747Y953241D01*
X565640Y953220D01*
X565534Y953195D01*
X565428Y953166D01*
X565324Y953133D01*
X565221Y953097D01*
X565119Y953057D01*
X565019Y953013D01*
X564920Y952966D01*
X564824Y952915D01*
X564729Y952861D01*
X564636Y952804D01*
X564545Y952743D01*
X564456Y952679D01*
X564370Y952612D01*
X564286Y952542D01*
X564204Y952469D01*
X564126Y952393D01*
X564050Y952315D01*
X563977Y952233D01*
X563907Y952149D01*
X563840Y952063D01*
X563776Y951974D01*
X563715Y951883D01*
X563658Y951790D01*
X563604Y951695D01*
X563553Y951599D01*
X563506Y951500D01*
X563462Y951400D01*
X563422Y951298D01*
X563386Y951195D01*
X563353Y951091D01*
X563324Y950985D01*
X563299Y950879D01*
X563278Y950772D01*
X563260Y950664D01*
X563247Y950555D01*
X563237Y950446D01*
X563231Y950337D01*
X563229Y950228D01*
X563231Y950119D01*
X563237Y950010D01*
X563247Y949901D01*
X563260Y949792D01*
X563278Y949684D01*
X563299Y949577D01*
X563324Y949471D01*
X563353Y949365D01*
X563386Y949261D01*
X563422Y949158D01*
X563462Y949056D01*
X563506Y948956D01*
X563553Y948857D01*
X563604Y948761D01*
X563658Y948666D01*
X563715Y948573D01*
X563776Y948482D01*
X563840Y948393D01*
X563907Y948307D01*
X563977Y948223D01*
X564050Y948141D01*
X564126Y948063D01*
X564204Y947987D01*
X564286Y947914D01*
X564370Y947844D01*
X564456Y947777D01*
X564545Y947713D01*
X564636Y947652D01*
X564729Y947595D01*
X564824Y947541D01*
X564920Y947490D01*
X565019Y947443D01*
X565119Y947399D01*
X565221Y947359D01*
X565324Y947323D01*
X565428Y947290D01*
X565534Y947261D01*
X565640Y947236D01*
X565747Y947215D01*
X565855Y947197D01*
X565964Y947184D01*
X566073Y947174D01*
X566182Y947168D01*
X566291Y947166D01*
X570228Y947166D01*
X570228Y955040D01*
X570226Y955141D01*
X570220Y955241D01*
X570211Y955341D01*
X570197Y955441D01*
X570180Y955540D01*
X570159Y955638D01*
X570134Y955736D01*
X570106Y955832D01*
X570073Y955927D01*
X570038Y956021D01*
X569998Y956114D01*
X569955Y956205D01*
X569909Y956294D01*
X569859Y956381D01*
X569806Y956467D01*
X569750Y956550D01*
X569691Y956631D01*
X569628Y956710D01*
X569563Y956786D01*
X569494Y956860D01*
X569423Y956931D01*
X569349Y957000D01*
X569273Y957065D01*
X569194Y957128D01*
X569113Y957187D01*
X569030Y957243D01*
X568944Y957296D01*
X568857Y957346D01*
X568768Y957392D01*
X568677Y957435D01*
X568584Y957475D01*
X568490Y957510D01*
X568395Y957543D01*
X568299Y957571D01*
X568201Y957596D01*
X568103Y957617D01*
X568004Y957634D01*
X567904Y957648D01*
X567804Y957657D01*
X567704Y957663D01*
X567603Y957665D01*
X564104Y957665D01*
X584296Y962914D02*
X584296Y947166D01*
X579922Y947166D01*
X579821Y947168D01*
X579721Y947174D01*
X579621Y947183D01*
X579521Y947197D01*
X579422Y947214D01*
X579324Y947235D01*
X579226Y947260D01*
X579130Y947288D01*
X579035Y947321D01*
X578941Y947356D01*
X578848Y947396D01*
X578757Y947439D01*
X578668Y947485D01*
X578581Y947535D01*
X578495Y947588D01*
X578412Y947644D01*
X578331Y947703D01*
X578252Y947766D01*
X578176Y947831D01*
X578102Y947900D01*
X578031Y947971D01*
X577962Y948045D01*
X577897Y948121D01*
X577834Y948200D01*
X577775Y948281D01*
X577719Y948364D01*
X577666Y948450D01*
X577616Y948537D01*
X577570Y948626D01*
X577527Y948717D01*
X577487Y948810D01*
X577452Y948904D01*
X577419Y948999D01*
X577391Y949095D01*
X577366Y949193D01*
X577345Y949291D01*
X577328Y949390D01*
X577314Y949490D01*
X577305Y949590D01*
X577299Y949690D01*
X577297Y949791D01*
X577297Y955040D01*
X577296Y955040D02*
X577298Y955141D01*
X577304Y955241D01*
X577313Y955341D01*
X577327Y955441D01*
X577344Y955540D01*
X577365Y955638D01*
X577390Y955736D01*
X577418Y955832D01*
X577451Y955927D01*
X577486Y956021D01*
X577526Y956114D01*
X577569Y956205D01*
X577615Y956294D01*
X577665Y956381D01*
X577718Y956467D01*
X577774Y956550D01*
X577833Y956631D01*
X577896Y956710D01*
X577961Y956786D01*
X578030Y956860D01*
X578101Y956931D01*
X578175Y957000D01*
X578251Y957065D01*
X578330Y957128D01*
X578411Y957187D01*
X578494Y957243D01*
X578580Y957296D01*
X578667Y957346D01*
X578756Y957392D01*
X578847Y957435D01*
X578940Y957475D01*
X579034Y957511D01*
X579129Y957543D01*
X579225Y957571D01*
X579323Y957596D01*
X579421Y957617D01*
X579520Y957634D01*
X579620Y957648D01*
X579720Y957657D01*
X579820Y957663D01*
X579921Y957665D01*
X579922Y957665D02*
X584296Y957665D01*
X590932Y941917D02*
X592682Y941917D01*
X597931Y957665D01*
X590932Y957665D02*
X594432Y947166D01*
X603309Y947166D02*
X604184Y947166D01*
X603309Y947166D02*
X603309Y948041D01*
X604184Y948041D01*
X604184Y947166D01*
X602871Y943666D01*
X623443Y947166D02*
X623560Y947168D01*
X623677Y947174D01*
X623793Y947184D01*
X623909Y947197D01*
X624025Y947215D01*
X624140Y947236D01*
X624254Y947261D01*
X624368Y947290D01*
X624480Y947323D01*
X624591Y947360D01*
X624701Y947400D01*
X624809Y947444D01*
X624916Y947491D01*
X625022Y947542D01*
X625125Y947597D01*
X625227Y947655D01*
X625326Y947716D01*
X625424Y947780D01*
X625519Y947848D01*
X625612Y947919D01*
X625703Y947993D01*
X625791Y948070D01*
X625876Y948150D01*
X625959Y948233D01*
X626039Y948318D01*
X626116Y948406D01*
X626190Y948497D01*
X626261Y948590D01*
X626329Y948685D01*
X626393Y948783D01*
X626454Y948882D01*
X626512Y948984D01*
X626567Y949087D01*
X626618Y949193D01*
X626665Y949300D01*
X626709Y949408D01*
X626749Y949518D01*
X626786Y949629D01*
X626819Y949741D01*
X626848Y949855D01*
X626873Y949969D01*
X626894Y950084D01*
X626912Y950199D01*
X626925Y950316D01*
X626935Y950432D01*
X626941Y950549D01*
X626943Y950666D01*
X623443Y947166D02*
X623266Y947168D01*
X623089Y947174D01*
X622913Y947185D01*
X622736Y947200D01*
X622561Y947219D01*
X622385Y947242D01*
X622211Y947269D01*
X622036Y947301D01*
X621863Y947337D01*
X621691Y947377D01*
X621520Y947421D01*
X621349Y947469D01*
X621180Y947521D01*
X621013Y947577D01*
X620846Y947637D01*
X620681Y947701D01*
X620518Y947769D01*
X620356Y947841D01*
X620197Y947917D01*
X620039Y947996D01*
X619883Y948080D01*
X619729Y948167D01*
X619577Y948257D01*
X619427Y948352D01*
X619280Y948450D01*
X619135Y948551D01*
X618992Y948656D01*
X618852Y948764D01*
X618715Y948875D01*
X618580Y948990D01*
X618449Y949108D01*
X618320Y949229D01*
X618194Y949353D01*
X618630Y959414D02*
X618632Y959531D01*
X618638Y959648D01*
X618648Y959764D01*
X618661Y959881D01*
X618679Y959996D01*
X618700Y960111D01*
X618725Y960225D01*
X618754Y960339D01*
X618787Y960451D01*
X618824Y960562D01*
X618864Y960672D01*
X618908Y960780D01*
X618955Y960887D01*
X619006Y960993D01*
X619061Y961096D01*
X619119Y961198D01*
X619180Y961297D01*
X619244Y961395D01*
X619312Y961490D01*
X619383Y961583D01*
X619457Y961674D01*
X619534Y961762D01*
X619614Y961847D01*
X619697Y961930D01*
X619782Y962010D01*
X619870Y962087D01*
X619961Y962161D01*
X620054Y962232D01*
X620149Y962300D01*
X620247Y962364D01*
X620346Y962425D01*
X620448Y962483D01*
X620551Y962538D01*
X620657Y962589D01*
X620764Y962636D01*
X620872Y962680D01*
X620982Y962720D01*
X621093Y962757D01*
X621205Y962790D01*
X621319Y962819D01*
X621433Y962844D01*
X621548Y962865D01*
X621663Y962883D01*
X621780Y962896D01*
X621896Y962906D01*
X622013Y962912D01*
X622130Y962914D01*
X622286Y962912D01*
X622443Y962907D01*
X622599Y962897D01*
X622755Y962884D01*
X622910Y962867D01*
X623065Y962847D01*
X623220Y962823D01*
X623374Y962795D01*
X623527Y962764D01*
X623679Y962729D01*
X623831Y962690D01*
X623981Y962647D01*
X624131Y962602D01*
X624279Y962552D01*
X624426Y962499D01*
X624572Y962443D01*
X624717Y962383D01*
X624860Y962319D01*
X625001Y962253D01*
X625141Y962183D01*
X625279Y962109D01*
X625415Y962032D01*
X625550Y961953D01*
X625682Y961869D01*
X625813Y961783D01*
X625941Y961694D01*
X626067Y961602D01*
X620381Y956352D02*
X620282Y956412D01*
X620186Y956476D01*
X620092Y956542D01*
X620000Y956611D01*
X619910Y956684D01*
X619822Y956759D01*
X619738Y956837D01*
X619655Y956918D01*
X619576Y957001D01*
X619499Y957087D01*
X619425Y957175D01*
X619353Y957266D01*
X619285Y957359D01*
X619220Y957454D01*
X619158Y957552D01*
X619099Y957651D01*
X619044Y957752D01*
X618991Y957855D01*
X618943Y957959D01*
X618897Y958065D01*
X618855Y958172D01*
X618816Y958281D01*
X618781Y958391D01*
X618750Y958502D01*
X618722Y958614D01*
X618698Y958726D01*
X618678Y958840D01*
X618661Y958954D01*
X618648Y959069D01*
X618638Y959184D01*
X618633Y959299D01*
X618631Y959414D01*
X625192Y953728D02*
X625291Y953668D01*
X625387Y953604D01*
X625481Y953538D01*
X625573Y953469D01*
X625663Y953396D01*
X625751Y953321D01*
X625835Y953243D01*
X625918Y953162D01*
X625997Y953079D01*
X626074Y952993D01*
X626148Y952905D01*
X626220Y952814D01*
X626288Y952721D01*
X626353Y952626D01*
X626415Y952528D01*
X626474Y952429D01*
X626529Y952328D01*
X626582Y952225D01*
X626631Y952121D01*
X626676Y952015D01*
X626718Y951908D01*
X626757Y951799D01*
X626792Y951689D01*
X626823Y951578D01*
X626851Y951466D01*
X626875Y951354D01*
X626895Y951240D01*
X626912Y951126D01*
X626925Y951011D01*
X626935Y950896D01*
X626940Y950781D01*
X626942Y950666D01*
X625192Y953728D02*
X620381Y956352D01*
X635761Y947166D02*
X640135Y947166D01*
X635761Y947166D02*
X635660Y947168D01*
X635560Y947174D01*
X635460Y947183D01*
X635360Y947197D01*
X635261Y947214D01*
X635163Y947235D01*
X635065Y947260D01*
X634969Y947288D01*
X634874Y947321D01*
X634780Y947356D01*
X634687Y947396D01*
X634596Y947439D01*
X634507Y947485D01*
X634420Y947535D01*
X634334Y947588D01*
X634251Y947644D01*
X634170Y947703D01*
X634091Y947766D01*
X634015Y947831D01*
X633941Y947900D01*
X633870Y947971D01*
X633801Y948045D01*
X633736Y948121D01*
X633673Y948200D01*
X633614Y948281D01*
X633558Y948364D01*
X633505Y948450D01*
X633455Y948537D01*
X633409Y948626D01*
X633366Y948717D01*
X633326Y948810D01*
X633291Y948904D01*
X633258Y948999D01*
X633230Y949095D01*
X633205Y949193D01*
X633184Y949291D01*
X633167Y949390D01*
X633153Y949490D01*
X633144Y949590D01*
X633138Y949690D01*
X633136Y949791D01*
X633136Y954165D01*
X633138Y954283D01*
X633144Y954401D01*
X633154Y954519D01*
X633168Y954636D01*
X633186Y954753D01*
X633208Y954870D01*
X633233Y954985D01*
X633263Y955099D01*
X633297Y955213D01*
X633334Y955325D01*
X633375Y955436D01*
X633420Y955545D01*
X633468Y955653D01*
X633520Y955759D01*
X633576Y955864D01*
X633635Y955966D01*
X633697Y956066D01*
X633763Y956164D01*
X633832Y956260D01*
X633905Y956354D01*
X633980Y956445D01*
X634059Y956533D01*
X634140Y956619D01*
X634225Y956702D01*
X634312Y956782D01*
X634401Y956859D01*
X634494Y956933D01*
X634588Y957003D01*
X634685Y957071D01*
X634785Y957135D01*
X634886Y957196D01*
X634989Y957253D01*
X635095Y957307D01*
X635202Y957358D01*
X635310Y957404D01*
X635420Y957447D01*
X635532Y957486D01*
X635645Y957522D01*
X635759Y957553D01*
X635874Y957581D01*
X635989Y957605D01*
X636106Y957625D01*
X636223Y957641D01*
X636341Y957653D01*
X636459Y957661D01*
X636577Y957665D01*
X636695Y957665D01*
X636813Y957661D01*
X636931Y957653D01*
X637049Y957641D01*
X637166Y957625D01*
X637283Y957605D01*
X637398Y957581D01*
X637513Y957553D01*
X637627Y957522D01*
X637740Y957486D01*
X637852Y957447D01*
X637962Y957404D01*
X638070Y957358D01*
X638177Y957307D01*
X638283Y957253D01*
X638386Y957196D01*
X638487Y957135D01*
X638587Y957071D01*
X638684Y957003D01*
X638778Y956933D01*
X638871Y956859D01*
X638960Y956782D01*
X639047Y956702D01*
X639132Y956619D01*
X639213Y956533D01*
X639292Y956445D01*
X639367Y956354D01*
X639440Y956260D01*
X639509Y956164D01*
X639575Y956066D01*
X639637Y955966D01*
X639696Y955864D01*
X639752Y955759D01*
X639804Y955653D01*
X639852Y955545D01*
X639897Y955436D01*
X639938Y955325D01*
X639975Y955213D01*
X640009Y955099D01*
X640039Y954985D01*
X640064Y954870D01*
X640086Y954753D01*
X640104Y954636D01*
X640118Y954519D01*
X640128Y954401D01*
X640134Y954283D01*
X640136Y954165D01*
X640135Y954165D02*
X640135Y952415D01*
X633136Y952415D01*
X645334Y957665D02*
X650584Y957665D01*
X647084Y962914D02*
X647084Y949791D01*
X647086Y949690D01*
X647092Y949590D01*
X647101Y949490D01*
X647115Y949390D01*
X647132Y949291D01*
X647153Y949193D01*
X647178Y949095D01*
X647206Y948999D01*
X647239Y948904D01*
X647274Y948810D01*
X647314Y948717D01*
X647357Y948626D01*
X647403Y948537D01*
X647453Y948450D01*
X647506Y948364D01*
X647562Y948281D01*
X647621Y948200D01*
X647684Y948121D01*
X647749Y948045D01*
X647818Y947971D01*
X647889Y947900D01*
X647963Y947831D01*
X648039Y947766D01*
X648118Y947703D01*
X648199Y947644D01*
X648282Y947588D01*
X648368Y947535D01*
X648455Y947485D01*
X648544Y947439D01*
X648635Y947396D01*
X648728Y947356D01*
X648822Y947321D01*
X648917Y947288D01*
X649013Y947260D01*
X649111Y947235D01*
X649209Y947214D01*
X649308Y947197D01*
X649408Y947183D01*
X649508Y947174D01*
X649608Y947168D01*
X649709Y947166D01*
X650584Y947166D01*
X655934Y947166D02*
X656809Y947166D01*
X655934Y947166D02*
X655934Y948041D01*
X656809Y948041D01*
X656809Y947166D01*
X655496Y943666D01*
X671861Y947166D02*
X671861Y962914D01*
X680609Y947166D01*
X680609Y962914D01*
X690470Y947166D02*
X694845Y947166D01*
X690470Y947166D02*
X690369Y947168D01*
X690269Y947174D01*
X690169Y947183D01*
X690069Y947197D01*
X689970Y947214D01*
X689872Y947235D01*
X689774Y947260D01*
X689678Y947288D01*
X689583Y947321D01*
X689489Y947356D01*
X689396Y947396D01*
X689305Y947439D01*
X689216Y947485D01*
X689129Y947535D01*
X689043Y947588D01*
X688960Y947644D01*
X688879Y947703D01*
X688800Y947766D01*
X688724Y947831D01*
X688650Y947900D01*
X688579Y947971D01*
X688510Y948045D01*
X688445Y948121D01*
X688382Y948200D01*
X688323Y948281D01*
X688267Y948364D01*
X688214Y948450D01*
X688164Y948537D01*
X688118Y948626D01*
X688075Y948717D01*
X688035Y948810D01*
X688000Y948904D01*
X687967Y948999D01*
X687939Y949095D01*
X687914Y949193D01*
X687893Y949291D01*
X687876Y949390D01*
X687862Y949490D01*
X687853Y949590D01*
X687847Y949690D01*
X687845Y949791D01*
X687846Y949791D02*
X687846Y954165D01*
X687845Y954165D02*
X687847Y954283D01*
X687853Y954401D01*
X687863Y954519D01*
X687877Y954636D01*
X687895Y954753D01*
X687917Y954870D01*
X687942Y954985D01*
X687972Y955099D01*
X688006Y955213D01*
X688043Y955325D01*
X688084Y955436D01*
X688129Y955545D01*
X688177Y955653D01*
X688229Y955759D01*
X688285Y955864D01*
X688344Y955966D01*
X688406Y956066D01*
X688472Y956164D01*
X688541Y956260D01*
X688614Y956354D01*
X688689Y956445D01*
X688768Y956533D01*
X688849Y956619D01*
X688934Y956702D01*
X689021Y956782D01*
X689110Y956859D01*
X689203Y956933D01*
X689297Y957003D01*
X689394Y957071D01*
X689494Y957135D01*
X689595Y957196D01*
X689698Y957253D01*
X689804Y957307D01*
X689911Y957358D01*
X690019Y957404D01*
X690129Y957447D01*
X690241Y957486D01*
X690354Y957522D01*
X690468Y957553D01*
X690583Y957581D01*
X690698Y957605D01*
X690815Y957625D01*
X690932Y957641D01*
X691050Y957653D01*
X691168Y957661D01*
X691286Y957665D01*
X691404Y957665D01*
X691522Y957661D01*
X691640Y957653D01*
X691758Y957641D01*
X691875Y957625D01*
X691992Y957605D01*
X692107Y957581D01*
X692222Y957553D01*
X692336Y957522D01*
X692449Y957486D01*
X692561Y957447D01*
X692671Y957404D01*
X692779Y957358D01*
X692886Y957307D01*
X692992Y957253D01*
X693095Y957196D01*
X693196Y957135D01*
X693296Y957071D01*
X693393Y957003D01*
X693487Y956933D01*
X693580Y956859D01*
X693669Y956782D01*
X693756Y956702D01*
X693841Y956619D01*
X693922Y956533D01*
X694001Y956445D01*
X694076Y956354D01*
X694149Y956260D01*
X694218Y956164D01*
X694284Y956066D01*
X694346Y955966D01*
X694405Y955864D01*
X694461Y955759D01*
X694513Y955653D01*
X694561Y955545D01*
X694606Y955436D01*
X694647Y955325D01*
X694684Y955213D01*
X694718Y955099D01*
X694748Y954985D01*
X694773Y954870D01*
X694795Y954753D01*
X694813Y954636D01*
X694827Y954519D01*
X694837Y954401D01*
X694843Y954283D01*
X694845Y954165D01*
X694845Y952415D01*
X687846Y952415D01*
X702016Y947166D02*
X702016Y957665D01*
X707265Y957665D01*
X707265Y955915D01*
X719245Y962914D02*
X719245Y947166D01*
X714871Y947166D01*
X714770Y947168D01*
X714670Y947174D01*
X714570Y947183D01*
X714470Y947197D01*
X714371Y947214D01*
X714273Y947235D01*
X714175Y947260D01*
X714079Y947288D01*
X713984Y947321D01*
X713890Y947356D01*
X713797Y947396D01*
X713706Y947439D01*
X713617Y947485D01*
X713530Y947535D01*
X713444Y947588D01*
X713361Y947644D01*
X713280Y947703D01*
X713201Y947766D01*
X713125Y947831D01*
X713051Y947900D01*
X712980Y947971D01*
X712911Y948045D01*
X712846Y948121D01*
X712783Y948200D01*
X712724Y948281D01*
X712668Y948364D01*
X712615Y948450D01*
X712565Y948537D01*
X712519Y948626D01*
X712476Y948717D01*
X712436Y948810D01*
X712401Y948904D01*
X712368Y948999D01*
X712340Y949095D01*
X712315Y949193D01*
X712294Y949291D01*
X712277Y949390D01*
X712263Y949490D01*
X712254Y949590D01*
X712248Y949690D01*
X712246Y949791D01*
X712246Y955040D01*
X712248Y955141D01*
X712254Y955241D01*
X712263Y955341D01*
X712277Y955441D01*
X712294Y955540D01*
X712315Y955638D01*
X712340Y955736D01*
X712368Y955832D01*
X712401Y955927D01*
X712436Y956021D01*
X712476Y956114D01*
X712519Y956205D01*
X712565Y956294D01*
X712615Y956381D01*
X712668Y956467D01*
X712724Y956550D01*
X712783Y956631D01*
X712846Y956710D01*
X712911Y956786D01*
X712980Y956860D01*
X713051Y956931D01*
X713125Y957000D01*
X713201Y957065D01*
X713280Y957128D01*
X713361Y957187D01*
X713444Y957243D01*
X713530Y957296D01*
X713617Y957346D01*
X713706Y957392D01*
X713797Y957435D01*
X713890Y957475D01*
X713984Y957511D01*
X714079Y957543D01*
X714175Y957571D01*
X714273Y957596D01*
X714371Y957617D01*
X714470Y957634D01*
X714570Y957648D01*
X714670Y957657D01*
X714770Y957663D01*
X714871Y957665D01*
X719245Y957665D01*
X727715Y953290D02*
X732089Y951540D01*
X727715Y953290D02*
X727628Y953327D01*
X727543Y953367D01*
X727460Y953411D01*
X727379Y953458D01*
X727300Y953508D01*
X727223Y953562D01*
X727148Y953619D01*
X727075Y953679D01*
X727006Y953742D01*
X726938Y953807D01*
X726874Y953876D01*
X726812Y953947D01*
X726754Y954020D01*
X726699Y954096D01*
X726646Y954174D01*
X726597Y954254D01*
X726552Y954336D01*
X726510Y954420D01*
X726471Y954506D01*
X726436Y954593D01*
X726404Y954682D01*
X726377Y954771D01*
X726353Y954862D01*
X726332Y954954D01*
X726316Y955047D01*
X726304Y955140D01*
X726295Y955233D01*
X726290Y955327D01*
X726289Y955421D01*
X726292Y955515D01*
X726299Y955609D01*
X726310Y955702D01*
X726324Y955795D01*
X726343Y955887D01*
X726365Y955978D01*
X726391Y956068D01*
X726421Y956157D01*
X726454Y956245D01*
X726491Y956332D01*
X726531Y956416D01*
X726575Y956499D01*
X726623Y956580D01*
X726674Y956660D01*
X726728Y956736D01*
X726785Y956811D01*
X726845Y956883D01*
X726908Y956953D01*
X726974Y957020D01*
X727042Y957084D01*
X727114Y957145D01*
X727187Y957204D01*
X727263Y957259D01*
X727341Y957311D01*
X727422Y957359D01*
X727504Y957405D01*
X727588Y957447D01*
X727674Y957485D01*
X727761Y957520D01*
X727850Y957551D01*
X727940Y957578D01*
X728031Y957602D01*
X728122Y957622D01*
X728215Y957638D01*
X728308Y957650D01*
X728402Y957659D01*
X728495Y957663D01*
X728589Y957664D01*
X728590Y957665D02*
X728829Y957659D01*
X729067Y957647D01*
X729306Y957629D01*
X729543Y957605D01*
X729781Y957576D01*
X730017Y957541D01*
X730252Y957501D01*
X730487Y957455D01*
X730720Y957403D01*
X730952Y957345D01*
X731182Y957282D01*
X731411Y957214D01*
X731638Y957140D01*
X731864Y957060D01*
X732087Y956976D01*
X732308Y956886D01*
X732527Y956790D01*
X732089Y951540D02*
X732176Y951503D01*
X732261Y951463D01*
X732344Y951419D01*
X732425Y951372D01*
X732504Y951322D01*
X732581Y951268D01*
X732656Y951211D01*
X732729Y951151D01*
X732798Y951088D01*
X732866Y951023D01*
X732930Y950954D01*
X732992Y950883D01*
X733050Y950810D01*
X733105Y950734D01*
X733158Y950656D01*
X733207Y950576D01*
X733252Y950494D01*
X733294Y950410D01*
X733333Y950324D01*
X733368Y950237D01*
X733400Y950148D01*
X733427Y950059D01*
X733451Y949968D01*
X733472Y949876D01*
X733488Y949783D01*
X733500Y949690D01*
X733509Y949597D01*
X733514Y949503D01*
X733515Y949409D01*
X733512Y949315D01*
X733505Y949221D01*
X733494Y949128D01*
X733480Y949035D01*
X733461Y948943D01*
X733439Y948852D01*
X733413Y948762D01*
X733383Y948673D01*
X733350Y948585D01*
X733313Y948498D01*
X733273Y948414D01*
X733229Y948331D01*
X733181Y948250D01*
X733130Y948170D01*
X733076Y948094D01*
X733019Y948019D01*
X732959Y947947D01*
X732896Y947877D01*
X732830Y947810D01*
X732762Y947746D01*
X732690Y947685D01*
X732617Y947626D01*
X732541Y947571D01*
X732463Y947519D01*
X732382Y947471D01*
X732300Y947425D01*
X732216Y947383D01*
X732130Y947345D01*
X732043Y947310D01*
X731954Y947279D01*
X731864Y947252D01*
X731773Y947228D01*
X731682Y947208D01*
X731589Y947192D01*
X731496Y947180D01*
X731402Y947171D01*
X731309Y947167D01*
X731215Y947166D01*
X730864Y947175D01*
X730513Y947192D01*
X730163Y947218D01*
X729814Y947252D01*
X729466Y947294D01*
X729119Y947345D01*
X728773Y947403D01*
X728428Y947470D01*
X728085Y947545D01*
X727744Y947628D01*
X727405Y947719D01*
X727069Y947818D01*
X726734Y947925D01*
X726403Y948040D01*
X739802Y952415D02*
X739802Y962914D01*
X739364Y948041D02*
X739364Y947166D01*
X739364Y948041D02*
X740239Y948041D01*
X740239Y947166D01*
X739364Y947166D01*
X591603Y931164D02*
X591603Y915416D01*
X591603Y931164D02*
X595977Y931164D01*
X596108Y931162D01*
X596239Y931156D01*
X596369Y931146D01*
X596499Y931133D01*
X596629Y931115D01*
X596758Y931094D01*
X596886Y931068D01*
X597014Y931039D01*
X597141Y931006D01*
X597266Y930970D01*
X597391Y930929D01*
X597514Y930885D01*
X597636Y930837D01*
X597756Y930786D01*
X597875Y930731D01*
X597992Y930672D01*
X598107Y930610D01*
X598220Y930545D01*
X598332Y930476D01*
X598441Y930404D01*
X598548Y930329D01*
X598653Y930250D01*
X598755Y930169D01*
X598855Y930084D01*
X598952Y929996D01*
X599047Y929906D01*
X599139Y929813D01*
X599228Y929717D01*
X599314Y929618D01*
X599397Y929517D01*
X599477Y929414D01*
X599554Y929308D01*
X599627Y929200D01*
X599698Y929089D01*
X599765Y928977D01*
X599829Y928863D01*
X599889Y928747D01*
X599946Y928629D01*
X599999Y928509D01*
X600049Y928388D01*
X600095Y928265D01*
X600137Y928142D01*
X600175Y928017D01*
X600210Y927890D01*
X600241Y927763D01*
X600269Y927635D01*
X600292Y927507D01*
X600311Y927377D01*
X600327Y927247D01*
X600339Y927117D01*
X600347Y926986D01*
X600351Y926855D01*
X600351Y926725D01*
X600347Y926594D01*
X600339Y926463D01*
X600327Y926333D01*
X600311Y926203D01*
X600292Y926073D01*
X600269Y925945D01*
X600241Y925817D01*
X600210Y925690D01*
X600175Y925563D01*
X600137Y925438D01*
X600095Y925315D01*
X600049Y925192D01*
X599999Y925071D01*
X599946Y924951D01*
X599889Y924833D01*
X599829Y924717D01*
X599765Y924603D01*
X599698Y924491D01*
X599627Y924380D01*
X599554Y924272D01*
X599477Y924166D01*
X599397Y924063D01*
X599314Y923962D01*
X599228Y923863D01*
X599139Y923767D01*
X599047Y923674D01*
X598952Y923584D01*
X598855Y923496D01*
X598755Y923411D01*
X598653Y923330D01*
X598548Y923251D01*
X598441Y923176D01*
X598332Y923104D01*
X598220Y923035D01*
X598107Y922970D01*
X597992Y922908D01*
X597875Y922849D01*
X597756Y922794D01*
X597636Y922743D01*
X597514Y922695D01*
X597391Y922651D01*
X597266Y922610D01*
X597141Y922574D01*
X597014Y922541D01*
X596886Y922512D01*
X596758Y922486D01*
X596629Y922465D01*
X596499Y922447D01*
X596369Y922434D01*
X596239Y922424D01*
X596108Y922418D01*
X595977Y922416D01*
X595977Y922415D02*
X591603Y922415D01*
X596852Y922415D02*
X600352Y915416D01*
X609581Y915416D02*
X613956Y915416D01*
X609581Y915416D02*
X609480Y915418D01*
X609380Y915424D01*
X609280Y915433D01*
X609180Y915447D01*
X609081Y915464D01*
X608983Y915485D01*
X608885Y915510D01*
X608789Y915538D01*
X608694Y915571D01*
X608600Y915606D01*
X608507Y915646D01*
X608416Y915689D01*
X608327Y915735D01*
X608240Y915785D01*
X608154Y915838D01*
X608071Y915894D01*
X607990Y915953D01*
X607911Y916016D01*
X607835Y916081D01*
X607761Y916150D01*
X607690Y916221D01*
X607621Y916295D01*
X607556Y916371D01*
X607493Y916450D01*
X607434Y916531D01*
X607378Y916614D01*
X607325Y916700D01*
X607275Y916787D01*
X607229Y916876D01*
X607186Y916967D01*
X607146Y917060D01*
X607111Y917154D01*
X607078Y917249D01*
X607050Y917345D01*
X607025Y917443D01*
X607004Y917541D01*
X606987Y917640D01*
X606973Y917740D01*
X606964Y917840D01*
X606958Y917940D01*
X606956Y918041D01*
X606957Y918041D02*
X606957Y922415D01*
X606956Y922415D02*
X606958Y922533D01*
X606964Y922651D01*
X606974Y922769D01*
X606988Y922886D01*
X607006Y923003D01*
X607028Y923120D01*
X607053Y923235D01*
X607083Y923349D01*
X607117Y923463D01*
X607154Y923575D01*
X607195Y923686D01*
X607240Y923795D01*
X607288Y923903D01*
X607340Y924009D01*
X607396Y924114D01*
X607455Y924216D01*
X607517Y924316D01*
X607583Y924414D01*
X607652Y924510D01*
X607725Y924604D01*
X607800Y924695D01*
X607879Y924783D01*
X607960Y924869D01*
X608045Y924952D01*
X608132Y925032D01*
X608221Y925109D01*
X608314Y925183D01*
X608408Y925253D01*
X608505Y925321D01*
X608605Y925385D01*
X608706Y925446D01*
X608809Y925503D01*
X608915Y925557D01*
X609022Y925608D01*
X609130Y925654D01*
X609240Y925697D01*
X609352Y925736D01*
X609465Y925772D01*
X609579Y925803D01*
X609694Y925831D01*
X609809Y925855D01*
X609926Y925875D01*
X610043Y925891D01*
X610161Y925903D01*
X610279Y925911D01*
X610397Y925915D01*
X610515Y925915D01*
X610633Y925911D01*
X610751Y925903D01*
X610869Y925891D01*
X610986Y925875D01*
X611103Y925855D01*
X611218Y925831D01*
X611333Y925803D01*
X611447Y925772D01*
X611560Y925736D01*
X611672Y925697D01*
X611782Y925654D01*
X611890Y925608D01*
X611997Y925557D01*
X612103Y925503D01*
X612206Y925446D01*
X612307Y925385D01*
X612407Y925321D01*
X612504Y925253D01*
X612598Y925183D01*
X612691Y925109D01*
X612780Y925032D01*
X612867Y924952D01*
X612952Y924869D01*
X613033Y924783D01*
X613112Y924695D01*
X613187Y924604D01*
X613260Y924510D01*
X613329Y924414D01*
X613395Y924316D01*
X613457Y924216D01*
X613516Y924114D01*
X613572Y924009D01*
X613624Y923903D01*
X613672Y923795D01*
X613717Y923686D01*
X613758Y923575D01*
X613795Y923463D01*
X613829Y923349D01*
X613859Y923235D01*
X613884Y923120D01*
X613906Y923003D01*
X613924Y922886D01*
X613938Y922769D01*
X613948Y922651D01*
X613954Y922533D01*
X613956Y922415D01*
X613956Y920665D01*
X606957Y920665D01*
X619983Y925915D02*
X623482Y915416D01*
X626982Y925915D01*
X632423Y916291D02*
X632423Y915416D01*
X632423Y916291D02*
X633298Y916291D01*
X633298Y915416D01*
X632423Y915416D01*
X647765Y927664D02*
X652139Y931164D01*
X652139Y915416D01*
X647765Y915416D02*
X656514Y915416D01*
X662644Y915416D02*
X662644Y916291D01*
X663519Y916291D01*
X663519Y915416D01*
X662644Y915416D01*
X669648Y923290D02*
X669652Y923600D01*
X669663Y923909D01*
X669681Y924219D01*
X669707Y924527D01*
X669740Y924835D01*
X669781Y925143D01*
X669829Y925449D01*
X669884Y925754D01*
X669946Y926057D01*
X670016Y926359D01*
X670093Y926659D01*
X670177Y926957D01*
X670268Y927253D01*
X670366Y927547D01*
X670471Y927839D01*
X670583Y928128D01*
X670702Y928414D01*
X670828Y928697D01*
X670960Y928977D01*
X670961Y928977D02*
X670999Y929082D01*
X671041Y929185D01*
X671086Y929287D01*
X671134Y929388D01*
X671186Y929486D01*
X671242Y929583D01*
X671300Y929678D01*
X671362Y929771D01*
X671427Y929861D01*
X671496Y929949D01*
X671567Y930035D01*
X671641Y930119D01*
X671718Y930199D01*
X671797Y930278D01*
X671880Y930353D01*
X671965Y930425D01*
X672052Y930495D01*
X672142Y930561D01*
X672233Y930624D01*
X672327Y930684D01*
X672423Y930741D01*
X672521Y930795D01*
X672621Y930845D01*
X672722Y930891D01*
X672825Y930934D01*
X672930Y930974D01*
X673035Y931010D01*
X673142Y931042D01*
X673250Y931070D01*
X673359Y931095D01*
X673468Y931116D01*
X673578Y931133D01*
X673689Y931147D01*
X673800Y931156D01*
X673911Y931162D01*
X674023Y931164D01*
X674135Y931162D01*
X674246Y931156D01*
X674357Y931147D01*
X674468Y931133D01*
X674578Y931116D01*
X674688Y931095D01*
X674796Y931070D01*
X674904Y931042D01*
X675011Y931010D01*
X675116Y930974D01*
X675221Y930934D01*
X675324Y930891D01*
X675425Y930845D01*
X675525Y930795D01*
X675623Y930741D01*
X675719Y930684D01*
X675813Y930624D01*
X675904Y930561D01*
X675994Y930495D01*
X676081Y930425D01*
X676166Y930353D01*
X676249Y930278D01*
X676328Y930199D01*
X676405Y930119D01*
X676479Y930035D01*
X676550Y929949D01*
X676619Y929861D01*
X676684Y929771D01*
X676746Y929678D01*
X676804Y929583D01*
X676860Y929486D01*
X676912Y929388D01*
X676960Y929287D01*
X677005Y929185D01*
X677047Y929082D01*
X677085Y928977D01*
X677217Y928697D01*
X677343Y928413D01*
X677462Y928127D01*
X677574Y927838D01*
X677679Y927547D01*
X677777Y927253D01*
X677868Y926957D01*
X677952Y926659D01*
X678029Y926359D01*
X678099Y926057D01*
X678161Y925753D01*
X678216Y925449D01*
X678264Y925143D01*
X678305Y924835D01*
X678338Y924527D01*
X678364Y924219D01*
X678382Y923909D01*
X678393Y923600D01*
X678397Y923290D01*
X669648Y923290D02*
X669652Y922980D01*
X669663Y922671D01*
X669681Y922361D01*
X669707Y922053D01*
X669740Y921745D01*
X669781Y921437D01*
X669829Y921131D01*
X669884Y920826D01*
X669946Y920523D01*
X670016Y920221D01*
X670093Y919921D01*
X670177Y919623D01*
X670268Y919327D01*
X670366Y919033D01*
X670471Y918741D01*
X670583Y918452D01*
X670702Y918166D01*
X670828Y917883D01*
X670960Y917603D01*
X670961Y917603D02*
X670999Y917498D01*
X671041Y917395D01*
X671086Y917293D01*
X671134Y917192D01*
X671186Y917094D01*
X671242Y916997D01*
X671300Y916902D01*
X671362Y916809D01*
X671427Y916719D01*
X671496Y916631D01*
X671567Y916545D01*
X671641Y916461D01*
X671718Y916381D01*
X671797Y916302D01*
X671880Y916227D01*
X671965Y916155D01*
X672052Y916085D01*
X672142Y916019D01*
X672233Y915956D01*
X672327Y915896D01*
X672423Y915839D01*
X672521Y915785D01*
X672621Y915735D01*
X672722Y915689D01*
X672825Y915646D01*
X672930Y915606D01*
X673035Y915570D01*
X673142Y915538D01*
X673250Y915510D01*
X673359Y915485D01*
X673468Y915464D01*
X673578Y915447D01*
X673689Y915433D01*
X673800Y915424D01*
X673911Y915418D01*
X674023Y915416D01*
X677086Y917603D02*
X677218Y917883D01*
X677344Y918166D01*
X677463Y918452D01*
X677575Y918741D01*
X677680Y919033D01*
X677778Y919327D01*
X677869Y919623D01*
X677953Y919921D01*
X678030Y920221D01*
X678100Y920523D01*
X678162Y920826D01*
X678217Y921131D01*
X678265Y921437D01*
X678306Y921745D01*
X678339Y922053D01*
X678365Y922361D01*
X678383Y922671D01*
X678394Y922980D01*
X678398Y923290D01*
X677085Y917603D02*
X677047Y917498D01*
X677005Y917395D01*
X676960Y917293D01*
X676912Y917192D01*
X676860Y917094D01*
X676804Y916997D01*
X676746Y916902D01*
X676684Y916809D01*
X676619Y916719D01*
X676550Y916631D01*
X676479Y916545D01*
X676405Y916461D01*
X676328Y916381D01*
X676249Y916302D01*
X676166Y916227D01*
X676081Y916155D01*
X675994Y916085D01*
X675904Y916019D01*
X675813Y915956D01*
X675719Y915896D01*
X675623Y915839D01*
X675525Y915785D01*
X675425Y915735D01*
X675324Y915689D01*
X675221Y915646D01*
X675116Y915606D01*
X675011Y915570D01*
X674904Y915538D01*
X674796Y915510D01*
X674687Y915485D01*
X674578Y915464D01*
X674468Y915447D01*
X674357Y915433D01*
X674246Y915424D01*
X674135Y915418D01*
X674023Y915416D01*
X670523Y918916D02*
X677523Y927664D01*
X625191Y887166D02*
X625189Y887049D01*
X625183Y886932D01*
X625173Y886816D01*
X625160Y886699D01*
X625142Y886584D01*
X625121Y886469D01*
X625096Y886355D01*
X625067Y886241D01*
X625034Y886129D01*
X624997Y886018D01*
X624957Y885908D01*
X624913Y885800D01*
X624866Y885693D01*
X624815Y885587D01*
X624760Y885484D01*
X624702Y885382D01*
X624641Y885283D01*
X624577Y885185D01*
X624509Y885090D01*
X624438Y884997D01*
X624364Y884906D01*
X624287Y884818D01*
X624207Y884733D01*
X624124Y884650D01*
X624039Y884570D01*
X623951Y884493D01*
X623860Y884419D01*
X623767Y884348D01*
X623672Y884280D01*
X623574Y884216D01*
X623475Y884155D01*
X623373Y884097D01*
X623270Y884042D01*
X623164Y883991D01*
X623057Y883944D01*
X622949Y883900D01*
X622839Y883860D01*
X622728Y883823D01*
X622616Y883790D01*
X622502Y883761D01*
X622388Y883736D01*
X622273Y883715D01*
X622157Y883697D01*
X622041Y883684D01*
X621925Y883674D01*
X621808Y883668D01*
X621691Y883666D01*
X621514Y883668D01*
X621337Y883674D01*
X621161Y883685D01*
X620984Y883700D01*
X620809Y883719D01*
X620633Y883742D01*
X620459Y883769D01*
X620284Y883801D01*
X620111Y883837D01*
X619939Y883877D01*
X619768Y883921D01*
X619597Y883969D01*
X619428Y884021D01*
X619261Y884077D01*
X619094Y884137D01*
X618929Y884201D01*
X618766Y884269D01*
X618604Y884341D01*
X618445Y884417D01*
X618287Y884496D01*
X618131Y884580D01*
X617977Y884667D01*
X617825Y884757D01*
X617675Y884852D01*
X617528Y884950D01*
X617383Y885051D01*
X617240Y885156D01*
X617100Y885264D01*
X616963Y885375D01*
X616828Y885490D01*
X616697Y885608D01*
X616568Y885729D01*
X616442Y885853D01*
X616879Y895914D02*
X616881Y896031D01*
X616887Y896148D01*
X616897Y896264D01*
X616910Y896381D01*
X616928Y896496D01*
X616949Y896611D01*
X616974Y896725D01*
X617003Y896839D01*
X617036Y896951D01*
X617073Y897062D01*
X617113Y897172D01*
X617157Y897280D01*
X617204Y897387D01*
X617255Y897493D01*
X617310Y897596D01*
X617368Y897698D01*
X617429Y897797D01*
X617493Y897895D01*
X617561Y897990D01*
X617632Y898083D01*
X617706Y898174D01*
X617783Y898262D01*
X617863Y898347D01*
X617946Y898430D01*
X618031Y898510D01*
X618119Y898587D01*
X618210Y898661D01*
X618303Y898732D01*
X618398Y898800D01*
X618496Y898864D01*
X618595Y898925D01*
X618697Y898983D01*
X618800Y899038D01*
X618906Y899089D01*
X619013Y899136D01*
X619121Y899180D01*
X619231Y899220D01*
X619342Y899257D01*
X619454Y899290D01*
X619568Y899319D01*
X619682Y899344D01*
X619797Y899365D01*
X619912Y899383D01*
X620029Y899396D01*
X620145Y899406D01*
X620262Y899412D01*
X620379Y899414D01*
X620535Y899412D01*
X620692Y899407D01*
X620848Y899397D01*
X621004Y899384D01*
X621159Y899367D01*
X621314Y899347D01*
X621469Y899323D01*
X621623Y899295D01*
X621776Y899264D01*
X621928Y899229D01*
X622080Y899190D01*
X622230Y899147D01*
X622380Y899102D01*
X622528Y899052D01*
X622675Y898999D01*
X622821Y898943D01*
X622966Y898883D01*
X623109Y898819D01*
X623250Y898753D01*
X623390Y898683D01*
X623528Y898609D01*
X623664Y898532D01*
X623799Y898453D01*
X623931Y898369D01*
X624062Y898283D01*
X624190Y898194D01*
X624316Y898102D01*
X618630Y892852D02*
X618531Y892912D01*
X618435Y892976D01*
X618341Y893042D01*
X618249Y893111D01*
X618159Y893184D01*
X618071Y893259D01*
X617987Y893337D01*
X617904Y893418D01*
X617825Y893501D01*
X617748Y893587D01*
X617674Y893675D01*
X617602Y893766D01*
X617534Y893859D01*
X617469Y893954D01*
X617407Y894052D01*
X617348Y894151D01*
X617293Y894252D01*
X617240Y894355D01*
X617192Y894459D01*
X617146Y894565D01*
X617104Y894672D01*
X617065Y894781D01*
X617030Y894891D01*
X616999Y895002D01*
X616971Y895114D01*
X616947Y895226D01*
X616927Y895340D01*
X616910Y895454D01*
X616897Y895569D01*
X616887Y895684D01*
X616882Y895799D01*
X616880Y895914D01*
X623440Y890228D02*
X623539Y890168D01*
X623635Y890104D01*
X623729Y890038D01*
X623821Y889969D01*
X623911Y889896D01*
X623999Y889821D01*
X624083Y889743D01*
X624166Y889662D01*
X624245Y889579D01*
X624322Y889493D01*
X624396Y889405D01*
X624468Y889314D01*
X624536Y889221D01*
X624601Y889126D01*
X624663Y889028D01*
X624722Y888929D01*
X624777Y888828D01*
X624830Y888725D01*
X624879Y888621D01*
X624924Y888515D01*
X624966Y888408D01*
X625005Y888299D01*
X625040Y888189D01*
X625071Y888078D01*
X625099Y887966D01*
X625123Y887854D01*
X625143Y887740D01*
X625160Y887626D01*
X625173Y887511D01*
X625183Y887396D01*
X625188Y887281D01*
X625190Y887166D01*
X623441Y890228D02*
X618629Y892852D01*
X630800Y884541D02*
X630800Y883666D01*
X630800Y884541D02*
X631675Y884541D01*
X631675Y883666D01*
X630800Y883666D01*
X642179Y891977D02*
X636930Y899414D01*
X642179Y891977D02*
X647428Y899414D01*
X642179Y891977D02*
X642179Y883666D01*
X652683Y883666D02*
X652683Y884541D01*
X653558Y884541D01*
X653558Y883666D01*
X652683Y883666D01*
D11*
X428300Y102400D02*
X428297Y102158D01*
X428288Y101917D01*
X428274Y101676D01*
X428253Y101435D01*
X428227Y101195D01*
X428195Y100955D01*
X428157Y100716D01*
X428114Y100479D01*
X428064Y100242D01*
X428009Y100007D01*
X427949Y99773D01*
X427882Y99541D01*
X427811Y99310D01*
X427733Y99081D01*
X427650Y98854D01*
X427562Y98629D01*
X427468Y98406D01*
X427369Y98186D01*
X427264Y97968D01*
X427155Y97753D01*
X427040Y97540D01*
X426920Y97330D01*
X426795Y97124D01*
X426665Y96920D01*
X426530Y96719D01*
X426390Y96522D01*
X426246Y96328D01*
X426097Y96138D01*
X425943Y95952D01*
X425785Y95769D01*
X425623Y95590D01*
X425456Y95415D01*
X425285Y95244D01*
X425110Y95077D01*
X424931Y94915D01*
X424748Y94757D01*
X424562Y94603D01*
X424372Y94454D01*
X424178Y94310D01*
X423981Y94170D01*
X423780Y94035D01*
X423576Y93905D01*
X423370Y93780D01*
X423160Y93660D01*
X422947Y93545D01*
X422732Y93436D01*
X422514Y93331D01*
X422294Y93232D01*
X422071Y93138D01*
X421846Y93050D01*
X421619Y92967D01*
X421390Y92889D01*
X421159Y92818D01*
X420927Y92751D01*
X420693Y92691D01*
X420458Y92636D01*
X420221Y92586D01*
X419984Y92543D01*
X419745Y92505D01*
X419505Y92473D01*
X419265Y92447D01*
X419024Y92426D01*
X418783Y92412D01*
X418542Y92403D01*
X418300Y92400D01*
X318300Y92400D01*
X318058Y92403D01*
X317817Y92412D01*
X317576Y92426D01*
X317335Y92447D01*
X317095Y92473D01*
X316855Y92505D01*
X316616Y92543D01*
X316379Y92586D01*
X316142Y92636D01*
X315907Y92691D01*
X315673Y92751D01*
X315441Y92818D01*
X315210Y92889D01*
X314981Y92967D01*
X314754Y93050D01*
X314529Y93138D01*
X314306Y93232D01*
X314086Y93331D01*
X313868Y93436D01*
X313653Y93545D01*
X313440Y93660D01*
X313230Y93780D01*
X313024Y93905D01*
X312820Y94035D01*
X312619Y94170D01*
X312422Y94310D01*
X312228Y94454D01*
X312038Y94603D01*
X311852Y94757D01*
X311669Y94915D01*
X311490Y95077D01*
X311315Y95244D01*
X311144Y95415D01*
X310977Y95590D01*
X310815Y95769D01*
X310657Y95952D01*
X310503Y96138D01*
X310354Y96328D01*
X310210Y96522D01*
X310070Y96719D01*
X309935Y96920D01*
X309805Y97124D01*
X309680Y97330D01*
X309560Y97540D01*
X309445Y97753D01*
X309336Y97968D01*
X309231Y98186D01*
X309132Y98406D01*
X309038Y98629D01*
X308950Y98854D01*
X308867Y99081D01*
X308789Y99310D01*
X308718Y99541D01*
X308651Y99773D01*
X308591Y100007D01*
X308536Y100242D01*
X308486Y100479D01*
X308443Y100716D01*
X308405Y100955D01*
X308373Y101195D01*
X308347Y101435D01*
X308326Y101676D01*
X308312Y101917D01*
X308303Y102158D01*
X308300Y102400D01*
X308300Y202400D02*
X308303Y202642D01*
X308312Y202883D01*
X308326Y203124D01*
X308347Y203365D01*
X308373Y203605D01*
X308405Y203845D01*
X308443Y204084D01*
X308486Y204321D01*
X308536Y204558D01*
X308591Y204793D01*
X308651Y205027D01*
X308718Y205259D01*
X308789Y205490D01*
X308867Y205719D01*
X308950Y205946D01*
X309038Y206171D01*
X309132Y206394D01*
X309231Y206614D01*
X309336Y206832D01*
X309445Y207047D01*
X309560Y207260D01*
X309680Y207470D01*
X309805Y207676D01*
X309935Y207880D01*
X310070Y208081D01*
X310210Y208278D01*
X310354Y208472D01*
X310503Y208662D01*
X310657Y208848D01*
X310815Y209031D01*
X310977Y209210D01*
X311144Y209385D01*
X311315Y209556D01*
X311490Y209723D01*
X311669Y209885D01*
X311852Y210043D01*
X312038Y210197D01*
X312228Y210346D01*
X312422Y210490D01*
X312619Y210630D01*
X312820Y210765D01*
X313024Y210895D01*
X313230Y211020D01*
X313440Y211140D01*
X313653Y211255D01*
X313868Y211364D01*
X314086Y211469D01*
X314306Y211568D01*
X314529Y211662D01*
X314754Y211750D01*
X314981Y211833D01*
X315210Y211911D01*
X315441Y211982D01*
X315673Y212049D01*
X315907Y212109D01*
X316142Y212164D01*
X316379Y212214D01*
X316616Y212257D01*
X316855Y212295D01*
X317095Y212327D01*
X317335Y212353D01*
X317576Y212374D01*
X317817Y212388D01*
X318058Y212397D01*
X318300Y212400D01*
X418300Y212400D01*
X418542Y212397D01*
X418783Y212388D01*
X419024Y212374D01*
X419265Y212353D01*
X419505Y212327D01*
X419745Y212295D01*
X419984Y212257D01*
X420221Y212214D01*
X420458Y212164D01*
X420693Y212109D01*
X420927Y212049D01*
X421159Y211982D01*
X421390Y211911D01*
X421619Y211833D01*
X421846Y211750D01*
X422071Y211662D01*
X422294Y211568D01*
X422514Y211469D01*
X422732Y211364D01*
X422947Y211255D01*
X423160Y211140D01*
X423370Y211020D01*
X423576Y210895D01*
X423780Y210765D01*
X423981Y210630D01*
X424178Y210490D01*
X424372Y210346D01*
X424562Y210197D01*
X424748Y210043D01*
X424931Y209885D01*
X425110Y209723D01*
X425285Y209556D01*
X425456Y209385D01*
X425623Y209210D01*
X425785Y209031D01*
X425943Y208848D01*
X426097Y208662D01*
X426246Y208472D01*
X426390Y208278D01*
X426530Y208081D01*
X426665Y207880D01*
X426795Y207676D01*
X426920Y207470D01*
X427040Y207260D01*
X427155Y207047D01*
X427264Y206832D01*
X427369Y206614D01*
X427468Y206394D01*
X427562Y206171D01*
X427650Y205946D01*
X427733Y205719D01*
X427811Y205490D01*
X427882Y205259D01*
X427949Y205027D01*
X428009Y204793D01*
X428064Y204558D01*
X428114Y204321D01*
X428157Y204084D01*
X428195Y203845D01*
X428227Y203605D01*
X428253Y203365D01*
X428274Y203124D01*
X428288Y202883D01*
X428297Y202642D01*
X428300Y202400D01*
X332945Y152400D02*
X332956Y153268D01*
X332988Y154135D01*
X333041Y155001D01*
X333115Y155865D01*
X333211Y156728D01*
X333328Y157588D01*
X333466Y158444D01*
X333624Y159297D01*
X333804Y160146D01*
X334005Y160991D01*
X334226Y161830D01*
X334467Y162663D01*
X334729Y163490D01*
X335012Y164311D01*
X335314Y165124D01*
X335636Y165930D01*
X335978Y166727D01*
X336339Y167516D01*
X336720Y168296D01*
X337120Y169066D01*
X337538Y169826D01*
X337975Y170576D01*
X338430Y171315D01*
X338903Y172042D01*
X339394Y172758D01*
X339903Y173461D01*
X340428Y174152D01*
X340970Y174829D01*
X341529Y175493D01*
X342104Y176143D01*
X342694Y176779D01*
X343300Y177400D01*
X343921Y178006D01*
X344557Y178596D01*
X345207Y179171D01*
X345871Y179730D01*
X346548Y180272D01*
X347239Y180797D01*
X347942Y181306D01*
X348658Y181797D01*
X349385Y182270D01*
X350124Y182725D01*
X350874Y183162D01*
X351634Y183580D01*
X352404Y183980D01*
X353184Y184361D01*
X353973Y184722D01*
X354770Y185064D01*
X355576Y185386D01*
X356389Y185688D01*
X357210Y185971D01*
X358037Y186233D01*
X358870Y186474D01*
X359709Y186695D01*
X360554Y186896D01*
X361403Y187076D01*
X362256Y187234D01*
X363112Y187372D01*
X363972Y187489D01*
X364835Y187585D01*
X365699Y187659D01*
X366565Y187712D01*
X367432Y187744D01*
X368300Y187755D01*
X369168Y187744D01*
X370035Y187712D01*
X370901Y187659D01*
X371765Y187585D01*
X372628Y187489D01*
X373488Y187372D01*
X374344Y187234D01*
X375197Y187076D01*
X376046Y186896D01*
X376891Y186695D01*
X377730Y186474D01*
X378563Y186233D01*
X379390Y185971D01*
X380211Y185688D01*
X381024Y185386D01*
X381830Y185064D01*
X382627Y184722D01*
X383416Y184361D01*
X384196Y183980D01*
X384966Y183580D01*
X385726Y183162D01*
X386476Y182725D01*
X387215Y182270D01*
X387942Y181797D01*
X388658Y181306D01*
X389361Y180797D01*
X390052Y180272D01*
X390729Y179730D01*
X391393Y179171D01*
X392043Y178596D01*
X392679Y178006D01*
X393300Y177400D01*
X393906Y176779D01*
X394496Y176143D01*
X395071Y175493D01*
X395630Y174829D01*
X396172Y174152D01*
X396697Y173461D01*
X397206Y172758D01*
X397697Y172042D01*
X398170Y171315D01*
X398625Y170576D01*
X399062Y169826D01*
X399480Y169066D01*
X399880Y168296D01*
X400261Y167516D01*
X400622Y166727D01*
X400964Y165930D01*
X401286Y165124D01*
X401588Y164311D01*
X401871Y163490D01*
X402133Y162663D01*
X402374Y161830D01*
X402595Y160991D01*
X402796Y160146D01*
X402976Y159297D01*
X403134Y158444D01*
X403272Y157588D01*
X403389Y156728D01*
X403485Y155865D01*
X403559Y155001D01*
X403612Y154135D01*
X403644Y153268D01*
X403655Y152400D01*
X403644Y151532D01*
X403612Y150665D01*
X403559Y149799D01*
X403485Y148935D01*
X403389Y148072D01*
X403272Y147212D01*
X403134Y146356D01*
X402976Y145503D01*
X402796Y144654D01*
X402595Y143809D01*
X402374Y142970D01*
X402133Y142137D01*
X401871Y141310D01*
X401588Y140489D01*
X401286Y139676D01*
X400964Y138870D01*
X400622Y138073D01*
X400261Y137284D01*
X399880Y136504D01*
X399480Y135734D01*
X399062Y134974D01*
X398625Y134224D01*
X398170Y133485D01*
X397697Y132758D01*
X397206Y132042D01*
X396697Y131339D01*
X396172Y130648D01*
X395630Y129971D01*
X395071Y129307D01*
X394496Y128657D01*
X393906Y128021D01*
X393300Y127400D01*
X392679Y126794D01*
X392043Y126204D01*
X391393Y125629D01*
X390729Y125070D01*
X390052Y124528D01*
X389361Y124003D01*
X388658Y123494D01*
X387942Y123003D01*
X387215Y122530D01*
X386476Y122075D01*
X385726Y121638D01*
X384966Y121220D01*
X384196Y120820D01*
X383416Y120439D01*
X382627Y120078D01*
X381830Y119736D01*
X381024Y119414D01*
X380211Y119112D01*
X379390Y118829D01*
X378563Y118567D01*
X377730Y118326D01*
X376891Y118105D01*
X376046Y117904D01*
X375197Y117724D01*
X374344Y117566D01*
X373488Y117428D01*
X372628Y117311D01*
X371765Y117215D01*
X370901Y117141D01*
X370035Y117088D01*
X369168Y117056D01*
X368300Y117045D01*
X367432Y117056D01*
X366565Y117088D01*
X365699Y117141D01*
X364835Y117215D01*
X363972Y117311D01*
X363112Y117428D01*
X362256Y117566D01*
X361403Y117724D01*
X360554Y117904D01*
X359709Y118105D01*
X358870Y118326D01*
X358037Y118567D01*
X357210Y118829D01*
X356389Y119112D01*
X355576Y119414D01*
X354770Y119736D01*
X353973Y120078D01*
X353184Y120439D01*
X352404Y120820D01*
X351634Y121220D01*
X350874Y121638D01*
X350124Y122075D01*
X349385Y122530D01*
X348658Y123003D01*
X347942Y123494D01*
X347239Y124003D01*
X346548Y124528D01*
X345871Y125070D01*
X345207Y125629D01*
X344557Y126204D01*
X343921Y126794D01*
X343300Y127400D01*
X342694Y128021D01*
X342104Y128657D01*
X341529Y129307D01*
X340970Y129971D01*
X340428Y130648D01*
X339903Y131339D01*
X339394Y132042D01*
X338903Y132758D01*
X338430Y133485D01*
X337975Y134224D01*
X337538Y134974D01*
X337120Y135734D01*
X336720Y136504D01*
X336339Y137284D01*
X335978Y138073D01*
X335636Y138870D01*
X335314Y139676D01*
X335012Y140489D01*
X334729Y141310D01*
X334467Y142137D01*
X334226Y142970D01*
X334005Y143809D01*
X333804Y144654D01*
X333624Y145503D01*
X333466Y146356D01*
X333328Y147212D01*
X333211Y148072D01*
X333115Y148935D01*
X333041Y149799D01*
X332988Y150665D01*
X332956Y151532D01*
X332945Y152400D01*
X348300Y172400D02*
X388300Y172400D01*
X388300Y132400D01*
X348300Y132400D01*
X348300Y172400D01*
X308300Y189900D02*
X308300Y202400D01*
X308300Y164900D02*
X308300Y139900D01*
X308300Y114900D02*
X308300Y102400D01*
X428300Y189900D02*
X428300Y202400D01*
X428300Y164900D02*
X428300Y139900D01*
X428300Y114900D02*
X428300Y102400D01*
D12*
X321903Y216408D02*
X322002Y216410D01*
X322102Y216416D01*
X322201Y216425D01*
X322299Y216438D01*
X322397Y216455D01*
X322495Y216476D01*
X322591Y216501D01*
X322686Y216529D01*
X322780Y216561D01*
X322873Y216596D01*
X322965Y216635D01*
X323055Y216678D01*
X323143Y216723D01*
X323230Y216773D01*
X323314Y216825D01*
X323397Y216881D01*
X323477Y216939D01*
X323555Y217001D01*
X323630Y217066D01*
X323703Y217134D01*
X323773Y217204D01*
X323841Y217277D01*
X323906Y217352D01*
X323968Y217430D01*
X324026Y217510D01*
X324082Y217593D01*
X324134Y217677D01*
X324184Y217764D01*
X324229Y217852D01*
X324272Y217942D01*
X324311Y218034D01*
X324346Y218127D01*
X324378Y218221D01*
X324406Y218316D01*
X324431Y218412D01*
X324452Y218510D01*
X324469Y218608D01*
X324482Y218706D01*
X324491Y218805D01*
X324497Y218905D01*
X324499Y219004D01*
X321903Y216408D02*
X321759Y216410D01*
X321614Y216416D01*
X321470Y216425D01*
X321327Y216438D01*
X321183Y216455D01*
X321040Y216476D01*
X320898Y216501D01*
X320757Y216529D01*
X320616Y216561D01*
X320476Y216597D01*
X320337Y216636D01*
X320199Y216679D01*
X320063Y216726D01*
X319927Y216776D01*
X319793Y216830D01*
X319661Y216887D01*
X319530Y216948D01*
X319401Y217012D01*
X319273Y217080D01*
X319147Y217150D01*
X319023Y217225D01*
X318902Y217302D01*
X318782Y217383D01*
X318664Y217466D01*
X318549Y217553D01*
X318436Y217643D01*
X318325Y217736D01*
X318217Y217831D01*
X318111Y217930D01*
X318008Y218031D01*
X318333Y225496D02*
X318335Y225595D01*
X318341Y225695D01*
X318350Y225794D01*
X318363Y225892D01*
X318380Y225990D01*
X318401Y226088D01*
X318426Y226184D01*
X318454Y226279D01*
X318486Y226373D01*
X318521Y226466D01*
X318560Y226558D01*
X318603Y226648D01*
X318648Y226736D01*
X318698Y226823D01*
X318750Y226907D01*
X318806Y226990D01*
X318864Y227070D01*
X318926Y227148D01*
X318991Y227223D01*
X319059Y227296D01*
X319129Y227366D01*
X319202Y227434D01*
X319277Y227499D01*
X319355Y227561D01*
X319435Y227619D01*
X319518Y227675D01*
X319602Y227727D01*
X319689Y227777D01*
X319777Y227822D01*
X319867Y227865D01*
X319959Y227904D01*
X320052Y227939D01*
X320146Y227971D01*
X320241Y227999D01*
X320338Y228024D01*
X320435Y228045D01*
X320533Y228062D01*
X320631Y228075D01*
X320730Y228084D01*
X320830Y228090D01*
X320929Y228092D01*
X321065Y228090D01*
X321201Y228084D01*
X321337Y228075D01*
X321473Y228062D01*
X321608Y228044D01*
X321742Y228024D01*
X321876Y227999D01*
X322010Y227971D01*
X322142Y227938D01*
X322273Y227903D01*
X322404Y227863D01*
X322533Y227820D01*
X322661Y227774D01*
X322787Y227723D01*
X322913Y227670D01*
X323036Y227612D01*
X323158Y227552D01*
X323278Y227488D01*
X323397Y227420D01*
X323513Y227350D01*
X323627Y227276D01*
X323740Y227199D01*
X323850Y227118D01*
X319631Y223224D02*
X319545Y223277D01*
X319461Y223334D01*
X319379Y223393D01*
X319299Y223456D01*
X319222Y223522D01*
X319147Y223590D01*
X319075Y223662D01*
X319006Y223736D01*
X318940Y223813D01*
X318877Y223892D01*
X318817Y223974D01*
X318760Y224058D01*
X318706Y224144D01*
X318656Y224232D01*
X318609Y224322D01*
X318565Y224413D01*
X318526Y224507D01*
X318489Y224601D01*
X318457Y224697D01*
X318428Y224795D01*
X318403Y224893D01*
X318382Y224992D01*
X318364Y225092D01*
X318351Y225192D01*
X318341Y225293D01*
X318335Y225395D01*
X318333Y225496D01*
X323201Y221276D02*
X323287Y221223D01*
X323371Y221166D01*
X323453Y221107D01*
X323533Y221044D01*
X323610Y220978D01*
X323685Y220910D01*
X323757Y220838D01*
X323826Y220764D01*
X323892Y220687D01*
X323955Y220608D01*
X324015Y220526D01*
X324072Y220442D01*
X324126Y220356D01*
X324176Y220268D01*
X324223Y220178D01*
X324267Y220087D01*
X324306Y219993D01*
X324343Y219899D01*
X324375Y219803D01*
X324404Y219705D01*
X324429Y219607D01*
X324450Y219508D01*
X324468Y219408D01*
X324481Y219308D01*
X324491Y219207D01*
X324497Y219105D01*
X324499Y219004D01*
X323201Y221276D02*
X319631Y223224D01*
X328634Y228092D02*
X331230Y216408D01*
X333827Y224197D01*
X336423Y216408D01*
X339019Y228092D01*
X343535Y225496D02*
X346781Y228092D01*
X346781Y216408D01*
X350026Y216408D02*
X343535Y216408D01*
D13*
X508000Y201930D02*
X508000Y191770D01*
D14*
X495681Y209931D02*
X495681Y217297D01*
X497727Y217297D01*
X497816Y217295D01*
X497905Y217289D01*
X497994Y217279D01*
X498082Y217266D01*
X498170Y217249D01*
X498257Y217227D01*
X498342Y217202D01*
X498427Y217174D01*
X498510Y217141D01*
X498592Y217105D01*
X498672Y217066D01*
X498750Y217023D01*
X498826Y216977D01*
X498901Y216927D01*
X498973Y216874D01*
X499042Y216818D01*
X499109Y216759D01*
X499174Y216698D01*
X499235Y216633D01*
X499294Y216566D01*
X499350Y216497D01*
X499403Y216425D01*
X499453Y216350D01*
X499499Y216274D01*
X499542Y216196D01*
X499581Y216116D01*
X499617Y216034D01*
X499650Y215951D01*
X499678Y215866D01*
X499703Y215781D01*
X499725Y215694D01*
X499742Y215606D01*
X499755Y215518D01*
X499765Y215429D01*
X499771Y215340D01*
X499773Y215251D01*
X499771Y215162D01*
X499765Y215073D01*
X499755Y214984D01*
X499742Y214896D01*
X499725Y214808D01*
X499703Y214721D01*
X499678Y214636D01*
X499650Y214551D01*
X499617Y214468D01*
X499581Y214386D01*
X499542Y214306D01*
X499499Y214228D01*
X499453Y214152D01*
X499403Y214077D01*
X499350Y214005D01*
X499294Y213936D01*
X499235Y213869D01*
X499174Y213804D01*
X499109Y213743D01*
X499042Y213684D01*
X498973Y213628D01*
X498901Y213575D01*
X498826Y213525D01*
X498750Y213479D01*
X498672Y213436D01*
X498592Y213397D01*
X498510Y213361D01*
X498427Y213328D01*
X498342Y213300D01*
X498257Y213275D01*
X498170Y213253D01*
X498082Y213236D01*
X497994Y213223D01*
X497905Y213213D01*
X497816Y213207D01*
X497727Y213205D01*
X495681Y213205D01*
X498136Y213205D02*
X499773Y209931D01*
X502945Y215660D02*
X504991Y217297D01*
X504991Y209931D01*
X502945Y209931D02*
X507037Y209931D01*
D13*
X965200Y177800D02*
X990600Y177800D01*
X990600Y101600D01*
X965200Y101600D01*
X965200Y177800D01*
X952500Y146050D02*
X952500Y133350D01*
X946150Y139700D02*
X958850Y139700D01*
X958850Y114300D02*
X946150Y114300D01*
X946150Y161925D02*
X949325Y161925D01*
X949325Y168275D01*
X955675Y168275D01*
X955675Y161925D01*
X958850Y161925D01*
D12*
X959358Y186634D02*
X959358Y191770D01*
X959358Y186634D02*
X959360Y186547D01*
X959366Y186459D01*
X959375Y186372D01*
X959389Y186286D01*
X959406Y186200D01*
X959427Y186116D01*
X959452Y186032D01*
X959481Y185949D01*
X959513Y185868D01*
X959548Y185788D01*
X959587Y185710D01*
X959630Y185633D01*
X959676Y185559D01*
X959725Y185487D01*
X959777Y185417D01*
X959833Y185349D01*
X959891Y185284D01*
X959952Y185221D01*
X960016Y185162D01*
X960083Y185105D01*
X960151Y185051D01*
X960223Y185000D01*
X960296Y184953D01*
X960371Y184908D01*
X960449Y184867D01*
X960528Y184830D01*
X960608Y184796D01*
X960690Y184766D01*
X960773Y184739D01*
X960858Y184716D01*
X960943Y184697D01*
X961029Y184682D01*
X961116Y184670D01*
X961203Y184662D01*
X961290Y184658D01*
X961378Y184658D01*
X961465Y184662D01*
X961552Y184670D01*
X961639Y184682D01*
X961725Y184697D01*
X961810Y184716D01*
X961895Y184739D01*
X961978Y184766D01*
X962060Y184796D01*
X962140Y184830D01*
X962219Y184867D01*
X962297Y184908D01*
X962372Y184953D01*
X962445Y185000D01*
X962517Y185051D01*
X962585Y185105D01*
X962652Y185162D01*
X962716Y185221D01*
X962777Y185284D01*
X962835Y185349D01*
X962891Y185417D01*
X962943Y185487D01*
X962992Y185559D01*
X963038Y185633D01*
X963081Y185710D01*
X963120Y185788D01*
X963155Y185868D01*
X963187Y185949D01*
X963216Y186032D01*
X963241Y186116D01*
X963262Y186200D01*
X963279Y186286D01*
X963293Y186372D01*
X963302Y186459D01*
X963308Y186547D01*
X963310Y186634D01*
X963309Y186634D02*
X963309Y191770D01*
X969090Y191770D02*
X969172Y191768D01*
X969254Y191762D01*
X969336Y191753D01*
X969417Y191740D01*
X969497Y191723D01*
X969577Y191702D01*
X969655Y191678D01*
X969732Y191650D01*
X969808Y191619D01*
X969883Y191584D01*
X969955Y191545D01*
X970026Y191504D01*
X970095Y191459D01*
X970161Y191411D01*
X970226Y191360D01*
X970288Y191306D01*
X970347Y191249D01*
X970404Y191190D01*
X970458Y191128D01*
X970509Y191063D01*
X970557Y190997D01*
X970602Y190928D01*
X970643Y190857D01*
X970682Y190785D01*
X970717Y190710D01*
X970748Y190634D01*
X970776Y190557D01*
X970800Y190479D01*
X970821Y190399D01*
X970838Y190319D01*
X970851Y190238D01*
X970860Y190156D01*
X970866Y190074D01*
X970868Y189992D01*
X969090Y191770D02*
X968997Y191768D01*
X968905Y191762D01*
X968813Y191753D01*
X968721Y191740D01*
X968630Y191723D01*
X968540Y191703D01*
X968450Y191679D01*
X968362Y191651D01*
X968274Y191619D01*
X968189Y191585D01*
X968104Y191546D01*
X968022Y191505D01*
X967941Y191460D01*
X967861Y191411D01*
X967784Y191360D01*
X967709Y191306D01*
X967637Y191248D01*
X967567Y191188D01*
X967499Y191124D01*
X967434Y191059D01*
X967371Y190990D01*
X967312Y190919D01*
X967255Y190846D01*
X967201Y190770D01*
X967151Y190693D01*
X967103Y190613D01*
X967059Y190532D01*
X967019Y190448D01*
X966981Y190364D01*
X966947Y190277D01*
X966917Y190190D01*
X970275Y188609D02*
X970336Y188670D01*
X970394Y188733D01*
X970449Y188799D01*
X970502Y188867D01*
X970551Y188938D01*
X970596Y189010D01*
X970639Y189085D01*
X970678Y189161D01*
X970714Y189240D01*
X970746Y189319D01*
X970774Y189400D01*
X970799Y189483D01*
X970820Y189566D01*
X970837Y189650D01*
X970851Y189735D01*
X970860Y189820D01*
X970866Y189906D01*
X970868Y189992D01*
X970275Y188609D02*
X966917Y184658D01*
X970868Y184658D01*
D11*
X1046070Y290830D02*
X1046077Y291370D01*
X1046096Y291909D01*
X1046130Y292448D01*
X1046176Y292986D01*
X1046235Y293523D01*
X1046308Y294058D01*
X1046394Y294591D01*
X1046493Y295122D01*
X1046605Y295650D01*
X1046729Y296176D01*
X1046867Y296698D01*
X1047017Y297216D01*
X1047180Y297731D01*
X1047356Y298242D01*
X1047544Y298748D01*
X1047745Y299249D01*
X1047957Y299745D01*
X1048182Y300236D01*
X1048419Y300721D01*
X1048668Y301201D01*
X1048928Y301674D01*
X1049200Y302140D01*
X1049483Y302600D01*
X1049778Y303053D01*
X1050083Y303498D01*
X1050399Y303935D01*
X1050726Y304365D01*
X1051064Y304787D01*
X1051411Y305200D01*
X1051769Y305604D01*
X1052137Y306000D01*
X1052514Y306386D01*
X1052900Y306763D01*
X1053296Y307131D01*
X1053700Y307489D01*
X1054113Y307836D01*
X1054535Y308174D01*
X1054965Y308501D01*
X1055402Y308817D01*
X1055847Y309122D01*
X1056300Y309417D01*
X1056760Y309700D01*
X1057226Y309972D01*
X1057699Y310232D01*
X1058179Y310481D01*
X1058664Y310718D01*
X1059155Y310943D01*
X1059651Y311155D01*
X1060152Y311356D01*
X1060658Y311544D01*
X1061169Y311720D01*
X1061684Y311883D01*
X1062202Y312033D01*
X1062724Y312171D01*
X1063250Y312295D01*
X1063778Y312407D01*
X1064309Y312506D01*
X1064842Y312592D01*
X1065377Y312665D01*
X1065914Y312724D01*
X1066452Y312770D01*
X1066991Y312804D01*
X1067530Y312823D01*
X1068070Y312830D01*
X1068610Y312823D01*
X1069149Y312804D01*
X1069688Y312770D01*
X1070226Y312724D01*
X1070763Y312665D01*
X1071298Y312592D01*
X1071831Y312506D01*
X1072362Y312407D01*
X1072890Y312295D01*
X1073416Y312171D01*
X1073938Y312033D01*
X1074456Y311883D01*
X1074971Y311720D01*
X1075482Y311544D01*
X1075988Y311356D01*
X1076489Y311155D01*
X1076985Y310943D01*
X1077476Y310718D01*
X1077961Y310481D01*
X1078441Y310232D01*
X1078914Y309972D01*
X1079380Y309700D01*
X1079840Y309417D01*
X1080293Y309122D01*
X1080738Y308817D01*
X1081175Y308501D01*
X1081605Y308174D01*
X1082027Y307836D01*
X1082440Y307489D01*
X1082844Y307131D01*
X1083240Y306763D01*
X1083626Y306386D01*
X1084003Y306000D01*
X1084371Y305604D01*
X1084729Y305200D01*
X1085076Y304787D01*
X1085414Y304365D01*
X1085741Y303935D01*
X1086057Y303498D01*
X1086362Y303053D01*
X1086657Y302600D01*
X1086940Y302140D01*
X1087212Y301674D01*
X1087472Y301201D01*
X1087721Y300721D01*
X1087958Y300236D01*
X1088183Y299745D01*
X1088395Y299249D01*
X1088596Y298748D01*
X1088784Y298242D01*
X1088960Y297731D01*
X1089123Y297216D01*
X1089273Y296698D01*
X1089411Y296176D01*
X1089535Y295650D01*
X1089647Y295122D01*
X1089746Y294591D01*
X1089832Y294058D01*
X1089905Y293523D01*
X1089964Y292986D01*
X1090010Y292448D01*
X1090044Y291909D01*
X1090063Y291370D01*
X1090070Y290830D01*
X1090063Y290290D01*
X1090044Y289751D01*
X1090010Y289212D01*
X1089964Y288674D01*
X1089905Y288137D01*
X1089832Y287602D01*
X1089746Y287069D01*
X1089647Y286538D01*
X1089535Y286010D01*
X1089411Y285484D01*
X1089273Y284962D01*
X1089123Y284444D01*
X1088960Y283929D01*
X1088784Y283418D01*
X1088596Y282912D01*
X1088395Y282411D01*
X1088183Y281915D01*
X1087958Y281424D01*
X1087721Y280939D01*
X1087472Y280459D01*
X1087212Y279986D01*
X1086940Y279520D01*
X1086657Y279060D01*
X1086362Y278607D01*
X1086057Y278162D01*
X1085741Y277725D01*
X1085414Y277295D01*
X1085076Y276873D01*
X1084729Y276460D01*
X1084371Y276056D01*
X1084003Y275660D01*
X1083626Y275274D01*
X1083240Y274897D01*
X1082844Y274529D01*
X1082440Y274171D01*
X1082027Y273824D01*
X1081605Y273486D01*
X1081175Y273159D01*
X1080738Y272843D01*
X1080293Y272538D01*
X1079840Y272243D01*
X1079380Y271960D01*
X1078914Y271688D01*
X1078441Y271428D01*
X1077961Y271179D01*
X1077476Y270942D01*
X1076985Y270717D01*
X1076489Y270505D01*
X1075988Y270304D01*
X1075482Y270116D01*
X1074971Y269940D01*
X1074456Y269777D01*
X1073938Y269627D01*
X1073416Y269489D01*
X1072890Y269365D01*
X1072362Y269253D01*
X1071831Y269154D01*
X1071298Y269068D01*
X1070763Y268995D01*
X1070226Y268936D01*
X1069688Y268890D01*
X1069149Y268856D01*
X1068610Y268837D01*
X1068070Y268830D01*
X1067530Y268837D01*
X1066991Y268856D01*
X1066452Y268890D01*
X1065914Y268936D01*
X1065377Y268995D01*
X1064842Y269068D01*
X1064309Y269154D01*
X1063778Y269253D01*
X1063250Y269365D01*
X1062724Y269489D01*
X1062202Y269627D01*
X1061684Y269777D01*
X1061169Y269940D01*
X1060658Y270116D01*
X1060152Y270304D01*
X1059651Y270505D01*
X1059155Y270717D01*
X1058664Y270942D01*
X1058179Y271179D01*
X1057699Y271428D01*
X1057226Y271688D01*
X1056760Y271960D01*
X1056300Y272243D01*
X1055847Y272538D01*
X1055402Y272843D01*
X1054965Y273159D01*
X1054535Y273486D01*
X1054113Y273824D01*
X1053700Y274171D01*
X1053296Y274529D01*
X1052900Y274897D01*
X1052514Y275274D01*
X1052137Y275660D01*
X1051769Y276056D01*
X1051411Y276460D01*
X1051064Y276873D01*
X1050726Y277295D01*
X1050399Y277725D01*
X1050083Y278162D01*
X1049778Y278607D01*
X1049483Y279060D01*
X1049200Y279520D01*
X1048928Y279986D01*
X1048668Y280459D01*
X1048419Y280939D01*
X1048182Y281424D01*
X1047957Y281915D01*
X1047745Y282411D01*
X1047544Y282912D01*
X1047356Y283418D01*
X1047180Y283929D01*
X1047017Y284444D01*
X1046867Y284962D01*
X1046729Y285484D01*
X1046605Y286010D01*
X1046493Y286538D01*
X1046394Y287069D01*
X1046308Y287602D01*
X1046235Y288137D01*
X1046176Y288674D01*
X1046130Y289212D01*
X1046096Y289751D01*
X1046077Y290290D01*
X1046070Y290830D01*
X1046070Y862330D02*
X1046077Y862870D01*
X1046096Y863409D01*
X1046130Y863948D01*
X1046176Y864486D01*
X1046235Y865023D01*
X1046308Y865558D01*
X1046394Y866091D01*
X1046493Y866622D01*
X1046605Y867150D01*
X1046729Y867676D01*
X1046867Y868198D01*
X1047017Y868716D01*
X1047180Y869231D01*
X1047356Y869742D01*
X1047544Y870248D01*
X1047745Y870749D01*
X1047957Y871245D01*
X1048182Y871736D01*
X1048419Y872221D01*
X1048668Y872701D01*
X1048928Y873174D01*
X1049200Y873640D01*
X1049483Y874100D01*
X1049778Y874553D01*
X1050083Y874998D01*
X1050399Y875435D01*
X1050726Y875865D01*
X1051064Y876287D01*
X1051411Y876700D01*
X1051769Y877104D01*
X1052137Y877500D01*
X1052514Y877886D01*
X1052900Y878263D01*
X1053296Y878631D01*
X1053700Y878989D01*
X1054113Y879336D01*
X1054535Y879674D01*
X1054965Y880001D01*
X1055402Y880317D01*
X1055847Y880622D01*
X1056300Y880917D01*
X1056760Y881200D01*
X1057226Y881472D01*
X1057699Y881732D01*
X1058179Y881981D01*
X1058664Y882218D01*
X1059155Y882443D01*
X1059651Y882655D01*
X1060152Y882856D01*
X1060658Y883044D01*
X1061169Y883220D01*
X1061684Y883383D01*
X1062202Y883533D01*
X1062724Y883671D01*
X1063250Y883795D01*
X1063778Y883907D01*
X1064309Y884006D01*
X1064842Y884092D01*
X1065377Y884165D01*
X1065914Y884224D01*
X1066452Y884270D01*
X1066991Y884304D01*
X1067530Y884323D01*
X1068070Y884330D01*
X1068610Y884323D01*
X1069149Y884304D01*
X1069688Y884270D01*
X1070226Y884224D01*
X1070763Y884165D01*
X1071298Y884092D01*
X1071831Y884006D01*
X1072362Y883907D01*
X1072890Y883795D01*
X1073416Y883671D01*
X1073938Y883533D01*
X1074456Y883383D01*
X1074971Y883220D01*
X1075482Y883044D01*
X1075988Y882856D01*
X1076489Y882655D01*
X1076985Y882443D01*
X1077476Y882218D01*
X1077961Y881981D01*
X1078441Y881732D01*
X1078914Y881472D01*
X1079380Y881200D01*
X1079840Y880917D01*
X1080293Y880622D01*
X1080738Y880317D01*
X1081175Y880001D01*
X1081605Y879674D01*
X1082027Y879336D01*
X1082440Y878989D01*
X1082844Y878631D01*
X1083240Y878263D01*
X1083626Y877886D01*
X1084003Y877500D01*
X1084371Y877104D01*
X1084729Y876700D01*
X1085076Y876287D01*
X1085414Y875865D01*
X1085741Y875435D01*
X1086057Y874998D01*
X1086362Y874553D01*
X1086657Y874100D01*
X1086940Y873640D01*
X1087212Y873174D01*
X1087472Y872701D01*
X1087721Y872221D01*
X1087958Y871736D01*
X1088183Y871245D01*
X1088395Y870749D01*
X1088596Y870248D01*
X1088784Y869742D01*
X1088960Y869231D01*
X1089123Y868716D01*
X1089273Y868198D01*
X1089411Y867676D01*
X1089535Y867150D01*
X1089647Y866622D01*
X1089746Y866091D01*
X1089832Y865558D01*
X1089905Y865023D01*
X1089964Y864486D01*
X1090010Y863948D01*
X1090044Y863409D01*
X1090063Y862870D01*
X1090070Y862330D01*
X1090063Y861790D01*
X1090044Y861251D01*
X1090010Y860712D01*
X1089964Y860174D01*
X1089905Y859637D01*
X1089832Y859102D01*
X1089746Y858569D01*
X1089647Y858038D01*
X1089535Y857510D01*
X1089411Y856984D01*
X1089273Y856462D01*
X1089123Y855944D01*
X1088960Y855429D01*
X1088784Y854918D01*
X1088596Y854412D01*
X1088395Y853911D01*
X1088183Y853415D01*
X1087958Y852924D01*
X1087721Y852439D01*
X1087472Y851959D01*
X1087212Y851486D01*
X1086940Y851020D01*
X1086657Y850560D01*
X1086362Y850107D01*
X1086057Y849662D01*
X1085741Y849225D01*
X1085414Y848795D01*
X1085076Y848373D01*
X1084729Y847960D01*
X1084371Y847556D01*
X1084003Y847160D01*
X1083626Y846774D01*
X1083240Y846397D01*
X1082844Y846029D01*
X1082440Y845671D01*
X1082027Y845324D01*
X1081605Y844986D01*
X1081175Y844659D01*
X1080738Y844343D01*
X1080293Y844038D01*
X1079840Y843743D01*
X1079380Y843460D01*
X1078914Y843188D01*
X1078441Y842928D01*
X1077961Y842679D01*
X1077476Y842442D01*
X1076985Y842217D01*
X1076489Y842005D01*
X1075988Y841804D01*
X1075482Y841616D01*
X1074971Y841440D01*
X1074456Y841277D01*
X1073938Y841127D01*
X1073416Y840989D01*
X1072890Y840865D01*
X1072362Y840753D01*
X1071831Y840654D01*
X1071298Y840568D01*
X1070763Y840495D01*
X1070226Y840436D01*
X1069688Y840390D01*
X1069149Y840356D01*
X1068610Y840337D01*
X1068070Y840330D01*
X1067530Y840337D01*
X1066991Y840356D01*
X1066452Y840390D01*
X1065914Y840436D01*
X1065377Y840495D01*
X1064842Y840568D01*
X1064309Y840654D01*
X1063778Y840753D01*
X1063250Y840865D01*
X1062724Y840989D01*
X1062202Y841127D01*
X1061684Y841277D01*
X1061169Y841440D01*
X1060658Y841616D01*
X1060152Y841804D01*
X1059651Y842005D01*
X1059155Y842217D01*
X1058664Y842442D01*
X1058179Y842679D01*
X1057699Y842928D01*
X1057226Y843188D01*
X1056760Y843460D01*
X1056300Y843743D01*
X1055847Y844038D01*
X1055402Y844343D01*
X1054965Y844659D01*
X1054535Y844986D01*
X1054113Y845324D01*
X1053700Y845671D01*
X1053296Y846029D01*
X1052900Y846397D01*
X1052514Y846774D01*
X1052137Y847160D01*
X1051769Y847556D01*
X1051411Y847960D01*
X1051064Y848373D01*
X1050726Y848795D01*
X1050399Y849225D01*
X1050083Y849662D01*
X1049778Y850107D01*
X1049483Y850560D01*
X1049200Y851020D01*
X1048928Y851486D01*
X1048668Y851959D01*
X1048419Y852439D01*
X1048182Y852924D01*
X1047957Y853415D01*
X1047745Y853911D01*
X1047544Y854412D01*
X1047356Y854918D01*
X1047180Y855429D01*
X1047017Y855944D01*
X1046867Y856462D01*
X1046729Y856984D01*
X1046605Y857510D01*
X1046493Y858038D01*
X1046394Y858569D01*
X1046308Y859102D01*
X1046235Y859637D01*
X1046176Y860174D01*
X1046130Y860712D01*
X1046096Y861251D01*
X1046077Y861790D01*
X1046070Y862330D01*
X214220Y290830D02*
X214227Y291370D01*
X214246Y291909D01*
X214280Y292448D01*
X214326Y292986D01*
X214385Y293523D01*
X214458Y294058D01*
X214544Y294591D01*
X214643Y295122D01*
X214755Y295650D01*
X214879Y296176D01*
X215017Y296698D01*
X215167Y297216D01*
X215330Y297731D01*
X215506Y298242D01*
X215694Y298748D01*
X215895Y299249D01*
X216107Y299745D01*
X216332Y300236D01*
X216569Y300721D01*
X216818Y301201D01*
X217078Y301674D01*
X217350Y302140D01*
X217633Y302600D01*
X217928Y303053D01*
X218233Y303498D01*
X218549Y303935D01*
X218876Y304365D01*
X219214Y304787D01*
X219561Y305200D01*
X219919Y305604D01*
X220287Y306000D01*
X220664Y306386D01*
X221050Y306763D01*
X221446Y307131D01*
X221850Y307489D01*
X222263Y307836D01*
X222685Y308174D01*
X223115Y308501D01*
X223552Y308817D01*
X223997Y309122D01*
X224450Y309417D01*
X224910Y309700D01*
X225376Y309972D01*
X225849Y310232D01*
X226329Y310481D01*
X226814Y310718D01*
X227305Y310943D01*
X227801Y311155D01*
X228302Y311356D01*
X228808Y311544D01*
X229319Y311720D01*
X229834Y311883D01*
X230352Y312033D01*
X230874Y312171D01*
X231400Y312295D01*
X231928Y312407D01*
X232459Y312506D01*
X232992Y312592D01*
X233527Y312665D01*
X234064Y312724D01*
X234602Y312770D01*
X235141Y312804D01*
X235680Y312823D01*
X236220Y312830D01*
X236760Y312823D01*
X237299Y312804D01*
X237838Y312770D01*
X238376Y312724D01*
X238913Y312665D01*
X239448Y312592D01*
X239981Y312506D01*
X240512Y312407D01*
X241040Y312295D01*
X241566Y312171D01*
X242088Y312033D01*
X242606Y311883D01*
X243121Y311720D01*
X243632Y311544D01*
X244138Y311356D01*
X244639Y311155D01*
X245135Y310943D01*
X245626Y310718D01*
X246111Y310481D01*
X246591Y310232D01*
X247064Y309972D01*
X247530Y309700D01*
X247990Y309417D01*
X248443Y309122D01*
X248888Y308817D01*
X249325Y308501D01*
X249755Y308174D01*
X250177Y307836D01*
X250590Y307489D01*
X250994Y307131D01*
X251390Y306763D01*
X251776Y306386D01*
X252153Y306000D01*
X252521Y305604D01*
X252879Y305200D01*
X253226Y304787D01*
X253564Y304365D01*
X253891Y303935D01*
X254207Y303498D01*
X254512Y303053D01*
X254807Y302600D01*
X255090Y302140D01*
X255362Y301674D01*
X255622Y301201D01*
X255871Y300721D01*
X256108Y300236D01*
X256333Y299745D01*
X256545Y299249D01*
X256746Y298748D01*
X256934Y298242D01*
X257110Y297731D01*
X257273Y297216D01*
X257423Y296698D01*
X257561Y296176D01*
X257685Y295650D01*
X257797Y295122D01*
X257896Y294591D01*
X257982Y294058D01*
X258055Y293523D01*
X258114Y292986D01*
X258160Y292448D01*
X258194Y291909D01*
X258213Y291370D01*
X258220Y290830D01*
X258213Y290290D01*
X258194Y289751D01*
X258160Y289212D01*
X258114Y288674D01*
X258055Y288137D01*
X257982Y287602D01*
X257896Y287069D01*
X257797Y286538D01*
X257685Y286010D01*
X257561Y285484D01*
X257423Y284962D01*
X257273Y284444D01*
X257110Y283929D01*
X256934Y283418D01*
X256746Y282912D01*
X256545Y282411D01*
X256333Y281915D01*
X256108Y281424D01*
X255871Y280939D01*
X255622Y280459D01*
X255362Y279986D01*
X255090Y279520D01*
X254807Y279060D01*
X254512Y278607D01*
X254207Y278162D01*
X253891Y277725D01*
X253564Y277295D01*
X253226Y276873D01*
X252879Y276460D01*
X252521Y276056D01*
X252153Y275660D01*
X251776Y275274D01*
X251390Y274897D01*
X250994Y274529D01*
X250590Y274171D01*
X250177Y273824D01*
X249755Y273486D01*
X249325Y273159D01*
X248888Y272843D01*
X248443Y272538D01*
X247990Y272243D01*
X247530Y271960D01*
X247064Y271688D01*
X246591Y271428D01*
X246111Y271179D01*
X245626Y270942D01*
X245135Y270717D01*
X244639Y270505D01*
X244138Y270304D01*
X243632Y270116D01*
X243121Y269940D01*
X242606Y269777D01*
X242088Y269627D01*
X241566Y269489D01*
X241040Y269365D01*
X240512Y269253D01*
X239981Y269154D01*
X239448Y269068D01*
X238913Y268995D01*
X238376Y268936D01*
X237838Y268890D01*
X237299Y268856D01*
X236760Y268837D01*
X236220Y268830D01*
X235680Y268837D01*
X235141Y268856D01*
X234602Y268890D01*
X234064Y268936D01*
X233527Y268995D01*
X232992Y269068D01*
X232459Y269154D01*
X231928Y269253D01*
X231400Y269365D01*
X230874Y269489D01*
X230352Y269627D01*
X229834Y269777D01*
X229319Y269940D01*
X228808Y270116D01*
X228302Y270304D01*
X227801Y270505D01*
X227305Y270717D01*
X226814Y270942D01*
X226329Y271179D01*
X225849Y271428D01*
X225376Y271688D01*
X224910Y271960D01*
X224450Y272243D01*
X223997Y272538D01*
X223552Y272843D01*
X223115Y273159D01*
X222685Y273486D01*
X222263Y273824D01*
X221850Y274171D01*
X221446Y274529D01*
X221050Y274897D01*
X220664Y275274D01*
X220287Y275660D01*
X219919Y276056D01*
X219561Y276460D01*
X219214Y276873D01*
X218876Y277295D01*
X218549Y277725D01*
X218233Y278162D01*
X217928Y278607D01*
X217633Y279060D01*
X217350Y279520D01*
X217078Y279986D01*
X216818Y280459D01*
X216569Y280939D01*
X216332Y281424D01*
X216107Y281915D01*
X215895Y282411D01*
X215694Y282912D01*
X215506Y283418D01*
X215330Y283929D01*
X215167Y284444D01*
X215017Y284962D01*
X214879Y285484D01*
X214755Y286010D01*
X214643Y286538D01*
X214544Y287069D01*
X214458Y287602D01*
X214385Y288137D01*
X214326Y288674D01*
X214280Y289212D01*
X214246Y289751D01*
X214227Y290290D01*
X214220Y290830D01*
X214220Y862330D02*
X214227Y862870D01*
X214246Y863409D01*
X214280Y863948D01*
X214326Y864486D01*
X214385Y865023D01*
X214458Y865558D01*
X214544Y866091D01*
X214643Y866622D01*
X214755Y867150D01*
X214879Y867676D01*
X215017Y868198D01*
X215167Y868716D01*
X215330Y869231D01*
X215506Y869742D01*
X215694Y870248D01*
X215895Y870749D01*
X216107Y871245D01*
X216332Y871736D01*
X216569Y872221D01*
X216818Y872701D01*
X217078Y873174D01*
X217350Y873640D01*
X217633Y874100D01*
X217928Y874553D01*
X218233Y874998D01*
X218549Y875435D01*
X218876Y875865D01*
X219214Y876287D01*
X219561Y876700D01*
X219919Y877104D01*
X220287Y877500D01*
X220664Y877886D01*
X221050Y878263D01*
X221446Y878631D01*
X221850Y878989D01*
X222263Y879336D01*
X222685Y879674D01*
X223115Y880001D01*
X223552Y880317D01*
X223997Y880622D01*
X224450Y880917D01*
X224910Y881200D01*
X225376Y881472D01*
X225849Y881732D01*
X226329Y881981D01*
X226814Y882218D01*
X227305Y882443D01*
X227801Y882655D01*
X228302Y882856D01*
X228808Y883044D01*
X229319Y883220D01*
X229834Y883383D01*
X230352Y883533D01*
X230874Y883671D01*
X231400Y883795D01*
X231928Y883907D01*
X232459Y884006D01*
X232992Y884092D01*
X233527Y884165D01*
X234064Y884224D01*
X234602Y884270D01*
X235141Y884304D01*
X235680Y884323D01*
X236220Y884330D01*
X236760Y884323D01*
X237299Y884304D01*
X237838Y884270D01*
X238376Y884224D01*
X238913Y884165D01*
X239448Y884092D01*
X239981Y884006D01*
X240512Y883907D01*
X241040Y883795D01*
X241566Y883671D01*
X242088Y883533D01*
X242606Y883383D01*
X243121Y883220D01*
X243632Y883044D01*
X244138Y882856D01*
X244639Y882655D01*
X245135Y882443D01*
X245626Y882218D01*
X246111Y881981D01*
X246591Y881732D01*
X247064Y881472D01*
X247530Y881200D01*
X247990Y880917D01*
X248443Y880622D01*
X248888Y880317D01*
X249325Y880001D01*
X249755Y879674D01*
X250177Y879336D01*
X250590Y878989D01*
X250994Y878631D01*
X251390Y878263D01*
X251776Y877886D01*
X252153Y877500D01*
X252521Y877104D01*
X252879Y876700D01*
X253226Y876287D01*
X253564Y875865D01*
X253891Y875435D01*
X254207Y874998D01*
X254512Y874553D01*
X254807Y874100D01*
X255090Y873640D01*
X255362Y873174D01*
X255622Y872701D01*
X255871Y872221D01*
X256108Y871736D01*
X256333Y871245D01*
X256545Y870749D01*
X256746Y870248D01*
X256934Y869742D01*
X257110Y869231D01*
X257273Y868716D01*
X257423Y868198D01*
X257561Y867676D01*
X257685Y867150D01*
X257797Y866622D01*
X257896Y866091D01*
X257982Y865558D01*
X258055Y865023D01*
X258114Y864486D01*
X258160Y863948D01*
X258194Y863409D01*
X258213Y862870D01*
X258220Y862330D01*
X258213Y861790D01*
X258194Y861251D01*
X258160Y860712D01*
X258114Y860174D01*
X258055Y859637D01*
X257982Y859102D01*
X257896Y858569D01*
X257797Y858038D01*
X257685Y857510D01*
X257561Y856984D01*
X257423Y856462D01*
X257273Y855944D01*
X257110Y855429D01*
X256934Y854918D01*
X256746Y854412D01*
X256545Y853911D01*
X256333Y853415D01*
X256108Y852924D01*
X255871Y852439D01*
X255622Y851959D01*
X255362Y851486D01*
X255090Y851020D01*
X254807Y850560D01*
X254512Y850107D01*
X254207Y849662D01*
X253891Y849225D01*
X253564Y848795D01*
X253226Y848373D01*
X252879Y847960D01*
X252521Y847556D01*
X252153Y847160D01*
X251776Y846774D01*
X251390Y846397D01*
X250994Y846029D01*
X250590Y845671D01*
X250177Y845324D01*
X249755Y844986D01*
X249325Y844659D01*
X248888Y844343D01*
X248443Y844038D01*
X247990Y843743D01*
X247530Y843460D01*
X247064Y843188D01*
X246591Y842928D01*
X246111Y842679D01*
X245626Y842442D01*
X245135Y842217D01*
X244639Y842005D01*
X244138Y841804D01*
X243632Y841616D01*
X243121Y841440D01*
X242606Y841277D01*
X242088Y841127D01*
X241566Y840989D01*
X241040Y840865D01*
X240512Y840753D01*
X239981Y840654D01*
X239448Y840568D01*
X238913Y840495D01*
X238376Y840436D01*
X237838Y840390D01*
X237299Y840356D01*
X236760Y840337D01*
X236220Y840330D01*
X235680Y840337D01*
X235141Y840356D01*
X234602Y840390D01*
X234064Y840436D01*
X233527Y840495D01*
X232992Y840568D01*
X232459Y840654D01*
X231928Y840753D01*
X231400Y840865D01*
X230874Y840989D01*
X230352Y841127D01*
X229834Y841277D01*
X229319Y841440D01*
X228808Y841616D01*
X228302Y841804D01*
X227801Y842005D01*
X227305Y842217D01*
X226814Y842442D01*
X226329Y842679D01*
X225849Y842928D01*
X225376Y843188D01*
X224910Y843460D01*
X224450Y843743D01*
X223997Y844038D01*
X223552Y844343D01*
X223115Y844659D01*
X222685Y844986D01*
X222263Y845324D01*
X221850Y845671D01*
X221446Y846029D01*
X221050Y846397D01*
X220664Y846774D01*
X220287Y847160D01*
X219919Y847556D01*
X219561Y847960D01*
X219214Y848373D01*
X218876Y848795D01*
X218549Y849225D01*
X218233Y849662D01*
X217928Y850107D01*
X217633Y850560D01*
X217350Y851020D01*
X217078Y851486D01*
X216818Y851959D01*
X216569Y852439D01*
X216332Y852924D01*
X216107Y853415D01*
X215895Y853911D01*
X215694Y854412D01*
X215506Y854918D01*
X215330Y855429D01*
X215167Y855944D01*
X215017Y856462D01*
X214879Y856984D01*
X214755Y857510D01*
X214643Y858038D01*
X214544Y858569D01*
X214458Y859102D01*
X214385Y859637D01*
X214326Y860174D01*
X214280Y860712D01*
X214246Y861251D01*
X214227Y861790D01*
X214220Y862330D01*
X1068070Y264160D02*
X1068684Y264167D01*
X1069297Y264190D01*
X1069910Y264227D01*
X1070521Y264279D01*
X1071132Y264345D01*
X1071740Y264427D01*
X1072346Y264523D01*
X1072950Y264633D01*
X1073551Y264758D01*
X1074149Y264898D01*
X1074743Y265052D01*
X1075333Y265221D01*
X1075919Y265403D01*
X1076500Y265600D01*
X1077077Y265811D01*
X1077648Y266035D01*
X1078214Y266273D01*
X1078774Y266525D01*
X1079327Y266791D01*
X1079874Y267069D01*
X1080414Y267361D01*
X1080947Y267666D01*
X1081472Y267984D01*
X1081990Y268314D01*
X1082499Y268656D01*
X1083000Y269011D01*
X1083492Y269378D01*
X1083975Y269756D01*
X1084449Y270146D01*
X1084913Y270548D01*
X1085368Y270960D01*
X1085812Y271384D01*
X1086246Y271818D01*
X1086670Y272262D01*
X1087082Y272717D01*
X1087484Y273181D01*
X1087874Y273655D01*
X1088252Y274138D01*
X1088619Y274630D01*
X1088974Y275131D01*
X1089316Y275640D01*
X1089646Y276158D01*
X1089964Y276683D01*
X1090269Y277216D01*
X1090561Y277756D01*
X1090839Y278303D01*
X1091105Y278856D01*
X1091357Y279416D01*
X1091595Y279982D01*
X1091819Y280553D01*
X1092030Y281130D01*
X1092227Y281711D01*
X1092409Y282297D01*
X1092578Y282887D01*
X1092732Y283481D01*
X1092872Y284079D01*
X1092997Y284680D01*
X1093107Y285284D01*
X1093203Y285890D01*
X1093285Y286498D01*
X1093351Y287109D01*
X1093403Y287720D01*
X1093440Y288333D01*
X1093463Y288946D01*
X1093470Y289560D01*
X1093470Y863600D01*
X1093463Y864214D01*
X1093440Y864827D01*
X1093403Y865440D01*
X1093351Y866051D01*
X1093285Y866662D01*
X1093203Y867270D01*
X1093107Y867876D01*
X1092997Y868480D01*
X1092872Y869081D01*
X1092732Y869679D01*
X1092578Y870273D01*
X1092409Y870863D01*
X1092227Y871449D01*
X1092030Y872030D01*
X1091819Y872607D01*
X1091595Y873178D01*
X1091357Y873744D01*
X1091105Y874304D01*
X1090839Y874857D01*
X1090561Y875404D01*
X1090269Y875944D01*
X1089964Y876477D01*
X1089646Y877002D01*
X1089316Y877520D01*
X1088974Y878029D01*
X1088619Y878530D01*
X1088252Y879022D01*
X1087874Y879505D01*
X1087484Y879979D01*
X1087082Y880443D01*
X1086670Y880898D01*
X1086246Y881342D01*
X1085812Y881776D01*
X1085368Y882200D01*
X1084913Y882612D01*
X1084449Y883014D01*
X1083975Y883404D01*
X1083492Y883782D01*
X1083000Y884149D01*
X1082499Y884504D01*
X1081990Y884846D01*
X1081472Y885176D01*
X1080947Y885494D01*
X1080414Y885799D01*
X1079874Y886091D01*
X1079327Y886369D01*
X1078774Y886635D01*
X1078214Y886887D01*
X1077648Y887125D01*
X1077077Y887349D01*
X1076500Y887560D01*
X1075919Y887757D01*
X1075333Y887939D01*
X1074743Y888108D01*
X1074149Y888262D01*
X1073551Y888402D01*
X1072950Y888527D01*
X1072346Y888637D01*
X1071740Y888733D01*
X1071132Y888815D01*
X1070521Y888881D01*
X1069910Y888933D01*
X1069297Y888970D01*
X1068684Y888993D01*
X1068070Y889000D01*
X1067456Y888993D01*
X1066843Y888970D01*
X1066230Y888933D01*
X1065619Y888881D01*
X1065008Y888815D01*
X1064400Y888733D01*
X1063794Y888637D01*
X1063190Y888527D01*
X1062589Y888402D01*
X1061991Y888262D01*
X1061397Y888108D01*
X1060807Y887939D01*
X1060221Y887757D01*
X1059640Y887560D01*
X1059063Y887349D01*
X1058492Y887125D01*
X1057926Y886887D01*
X1057366Y886635D01*
X1056813Y886369D01*
X1056266Y886091D01*
X1055726Y885799D01*
X1055193Y885494D01*
X1054668Y885176D01*
X1054150Y884846D01*
X1053641Y884504D01*
X1053140Y884149D01*
X1052648Y883782D01*
X1052165Y883404D01*
X1051691Y883014D01*
X1051227Y882612D01*
X1050772Y882200D01*
X1050328Y881776D01*
X1049894Y881342D01*
X1049470Y880898D01*
X1049058Y880443D01*
X1048656Y879979D01*
X1048266Y879505D01*
X1047888Y879022D01*
X1047521Y878530D01*
X1047166Y878029D01*
X1046824Y877520D01*
X1046494Y877002D01*
X1046176Y876477D01*
X1045871Y875944D01*
X1045579Y875404D01*
X1045301Y874857D01*
X1045035Y874304D01*
X1044783Y873744D01*
X1044545Y873178D01*
X1044321Y872607D01*
X1044110Y872030D01*
X1043913Y871449D01*
X1043731Y870863D01*
X1043562Y870273D01*
X1043408Y869679D01*
X1043268Y869081D01*
X1043143Y868480D01*
X1043033Y867876D01*
X1042937Y867270D01*
X1042855Y866662D01*
X1042789Y866051D01*
X1042737Y865440D01*
X1042700Y864827D01*
X1042677Y864214D01*
X1042670Y863600D01*
X1042670Y847090D01*
X261620Y847090D01*
X261620Y863600D01*
X261613Y864214D01*
X261590Y864827D01*
X261553Y865440D01*
X261501Y866051D01*
X261435Y866662D01*
X261353Y867270D01*
X261257Y867876D01*
X261147Y868480D01*
X261022Y869081D01*
X260882Y869679D01*
X260728Y870273D01*
X260559Y870863D01*
X260377Y871449D01*
X260180Y872030D01*
X259969Y872607D01*
X259745Y873178D01*
X259507Y873744D01*
X259255Y874304D01*
X258989Y874857D01*
X258711Y875404D01*
X258419Y875944D01*
X258114Y876477D01*
X257796Y877002D01*
X257466Y877520D01*
X257124Y878029D01*
X256769Y878530D01*
X256402Y879022D01*
X256024Y879505D01*
X255634Y879979D01*
X255232Y880443D01*
X254820Y880898D01*
X254396Y881342D01*
X253962Y881776D01*
X253518Y882200D01*
X253063Y882612D01*
X252599Y883014D01*
X252125Y883404D01*
X251642Y883782D01*
X251150Y884149D01*
X250649Y884504D01*
X250140Y884846D01*
X249622Y885176D01*
X249097Y885494D01*
X248564Y885799D01*
X248024Y886091D01*
X247477Y886369D01*
X246924Y886635D01*
X246364Y886887D01*
X245798Y887125D01*
X245227Y887349D01*
X244650Y887560D01*
X244069Y887757D01*
X243483Y887939D01*
X242893Y888108D01*
X242299Y888262D01*
X241701Y888402D01*
X241100Y888527D01*
X240496Y888637D01*
X239890Y888733D01*
X239282Y888815D01*
X238671Y888881D01*
X238060Y888933D01*
X237447Y888970D01*
X236834Y888993D01*
X236220Y889000D01*
X235606Y888993D01*
X234993Y888970D01*
X234380Y888933D01*
X233769Y888881D01*
X233158Y888815D01*
X232550Y888733D01*
X231944Y888637D01*
X231340Y888527D01*
X230739Y888402D01*
X230141Y888262D01*
X229547Y888108D01*
X228957Y887939D01*
X228371Y887757D01*
X227790Y887560D01*
X227213Y887349D01*
X226642Y887125D01*
X226076Y886887D01*
X225516Y886635D01*
X224963Y886369D01*
X224416Y886091D01*
X223876Y885799D01*
X223343Y885494D01*
X222818Y885176D01*
X222300Y884846D01*
X221791Y884504D01*
X221290Y884149D01*
X220798Y883782D01*
X220315Y883404D01*
X219841Y883014D01*
X219377Y882612D01*
X218922Y882200D01*
X218478Y881776D01*
X218044Y881342D01*
X217620Y880898D01*
X217208Y880443D01*
X216806Y879979D01*
X216416Y879505D01*
X216038Y879022D01*
X215671Y878530D01*
X215316Y878029D01*
X214974Y877520D01*
X214644Y877002D01*
X214326Y876477D01*
X214021Y875944D01*
X213729Y875404D01*
X213451Y874857D01*
X213185Y874304D01*
X212933Y873744D01*
X212695Y873178D01*
X212471Y872607D01*
X212260Y872030D01*
X212063Y871449D01*
X211881Y870863D01*
X211712Y870273D01*
X211558Y869679D01*
X211418Y869081D01*
X211293Y868480D01*
X211183Y867876D01*
X211087Y867270D01*
X211005Y866662D01*
X210939Y866051D01*
X210887Y865440D01*
X210850Y864827D01*
X210827Y864214D01*
X210820Y863600D01*
X210820Y289560D01*
X210827Y288946D01*
X210850Y288333D01*
X210887Y287720D01*
X210939Y287109D01*
X211005Y286498D01*
X211087Y285890D01*
X211183Y285284D01*
X211293Y284680D01*
X211418Y284079D01*
X211558Y283481D01*
X211712Y282887D01*
X211881Y282297D01*
X212063Y281711D01*
X212260Y281130D01*
X212471Y280553D01*
X212695Y279982D01*
X212933Y279416D01*
X213185Y278856D01*
X213451Y278303D01*
X213729Y277756D01*
X214021Y277216D01*
X214326Y276683D01*
X214644Y276158D01*
X214974Y275640D01*
X215316Y275131D01*
X215671Y274630D01*
X216038Y274138D01*
X216416Y273655D01*
X216806Y273181D01*
X217208Y272717D01*
X217620Y272262D01*
X218044Y271818D01*
X218478Y271384D01*
X218922Y270960D01*
X219377Y270548D01*
X219841Y270146D01*
X220315Y269756D01*
X220798Y269378D01*
X221290Y269011D01*
X221791Y268656D01*
X222300Y268314D01*
X222818Y267984D01*
X223343Y267666D01*
X223876Y267361D01*
X224416Y267069D01*
X224963Y266791D01*
X225516Y266525D01*
X226076Y266273D01*
X226642Y266035D01*
X227213Y265811D01*
X227790Y265600D01*
X228371Y265403D01*
X228957Y265221D01*
X229547Y265052D01*
X230141Y264898D01*
X230739Y264758D01*
X231340Y264633D01*
X231944Y264523D01*
X232550Y264427D01*
X233158Y264345D01*
X233769Y264279D01*
X234380Y264227D01*
X234993Y264190D01*
X235606Y264167D01*
X236220Y264160D01*
X236834Y264167D01*
X237447Y264190D01*
X238060Y264227D01*
X238671Y264279D01*
X239282Y264345D01*
X239890Y264427D01*
X240496Y264523D01*
X241100Y264633D01*
X241701Y264758D01*
X242299Y264898D01*
X242893Y265052D01*
X243483Y265221D01*
X244069Y265403D01*
X244650Y265600D01*
X245227Y265811D01*
X245798Y266035D01*
X246364Y266273D01*
X246924Y266525D01*
X247477Y266791D01*
X248024Y267069D01*
X248564Y267361D01*
X249097Y267666D01*
X249622Y267984D01*
X250140Y268314D01*
X250649Y268656D01*
X251150Y269011D01*
X251642Y269378D01*
X252125Y269756D01*
X252599Y270146D01*
X253063Y270548D01*
X253518Y270960D01*
X253962Y271384D01*
X254396Y271818D01*
X254820Y272262D01*
X255232Y272717D01*
X255634Y273181D01*
X256024Y273655D01*
X256402Y274138D01*
X256769Y274630D01*
X257124Y275131D01*
X257466Y275640D01*
X257796Y276158D01*
X258114Y276683D01*
X258419Y277216D01*
X258711Y277756D01*
X258989Y278303D01*
X259255Y278856D01*
X259507Y279416D01*
X259745Y279982D01*
X259969Y280553D01*
X260180Y281130D01*
X260377Y281711D01*
X260559Y282297D01*
X260728Y282887D01*
X260882Y283481D01*
X261022Y284079D01*
X261147Y284680D01*
X261257Y285284D01*
X261353Y285890D01*
X261435Y286498D01*
X261501Y287109D01*
X261553Y287720D01*
X261590Y288333D01*
X261613Y288946D01*
X261620Y289560D01*
X261620Y306070D01*
X1042670Y306070D01*
X1042670Y289560D01*
X1042677Y288946D01*
X1042700Y288333D01*
X1042737Y287720D01*
X1042789Y287109D01*
X1042855Y286498D01*
X1042937Y285890D01*
X1043033Y285284D01*
X1043143Y284680D01*
X1043268Y284079D01*
X1043408Y283481D01*
X1043562Y282887D01*
X1043731Y282297D01*
X1043913Y281711D01*
X1044110Y281130D01*
X1044321Y280553D01*
X1044545Y279982D01*
X1044783Y279416D01*
X1045035Y278856D01*
X1045301Y278303D01*
X1045579Y277756D01*
X1045871Y277216D01*
X1046176Y276683D01*
X1046494Y276158D01*
X1046824Y275640D01*
X1047166Y275131D01*
X1047521Y274630D01*
X1047888Y274138D01*
X1048266Y273655D01*
X1048656Y273181D01*
X1049058Y272717D01*
X1049470Y272262D01*
X1049894Y271818D01*
X1050328Y271384D01*
X1050772Y270960D01*
X1051227Y270548D01*
X1051691Y270146D01*
X1052165Y269756D01*
X1052648Y269378D01*
X1053140Y269011D01*
X1053641Y268656D01*
X1054150Y268314D01*
X1054668Y267984D01*
X1055193Y267666D01*
X1055726Y267361D01*
X1056266Y267069D01*
X1056813Y266791D01*
X1057366Y266525D01*
X1057926Y266273D01*
X1058492Y266035D01*
X1059063Y265811D01*
X1059640Y265600D01*
X1060221Y265403D01*
X1060807Y265221D01*
X1061397Y265052D01*
X1061991Y264898D01*
X1062589Y264758D01*
X1063190Y264633D01*
X1063794Y264523D01*
X1064400Y264427D01*
X1065008Y264345D01*
X1065619Y264279D01*
X1066230Y264227D01*
X1066843Y264190D01*
X1067456Y264167D01*
X1068070Y264160D01*
X872490Y426720D02*
X819150Y426720D01*
X872490Y426720D02*
X872490Y726440D01*
X819150Y726440D01*
X819150Y426720D01*
D15*
X632968Y449411D02*
X632965Y449662D01*
X632956Y449913D01*
X632941Y450163D01*
X632920Y450413D01*
X632892Y450663D01*
X632859Y450912D01*
X632820Y451160D01*
X632775Y451406D01*
X632723Y451652D01*
X632666Y451897D01*
X632603Y452139D01*
X632534Y452381D01*
X632460Y452620D01*
X632379Y452858D01*
X632293Y453094D01*
X632201Y453328D01*
X632104Y453559D01*
X632001Y453788D01*
X631892Y454014D01*
X631778Y454238D01*
X631659Y454458D01*
X631534Y454676D01*
X631405Y454891D01*
X631270Y455103D01*
X631130Y455311D01*
X630984Y455516D01*
X630834Y455717D01*
X630680Y455915D01*
X630520Y456108D01*
X630356Y456298D01*
X630187Y456484D01*
X630014Y456666D01*
X629837Y456843D01*
X629655Y457016D01*
X629469Y457185D01*
X629279Y457349D01*
X629086Y457509D01*
X628888Y457663D01*
X628687Y457813D01*
X628482Y457959D01*
X628274Y458099D01*
X628062Y458234D01*
X627847Y458363D01*
X627629Y458488D01*
X627409Y458607D01*
X627185Y458721D01*
X626959Y458830D01*
X626730Y458933D01*
X626499Y459030D01*
X626265Y459122D01*
X626029Y459208D01*
X625791Y459289D01*
X625552Y459363D01*
X625310Y459432D01*
X625068Y459495D01*
X624823Y459552D01*
X624577Y459604D01*
X624331Y459649D01*
X624083Y459688D01*
X623834Y459721D01*
X623584Y459749D01*
X623334Y459770D01*
X623084Y459785D01*
X622833Y459794D01*
X622582Y459797D01*
X632968Y449411D02*
X632962Y448886D01*
X632943Y448361D01*
X632912Y447838D01*
X632868Y447314D01*
X632811Y446793D01*
X632742Y446272D01*
X632661Y445754D01*
X632567Y445237D01*
X632461Y444723D01*
X632343Y444211D01*
X632212Y443703D01*
X632070Y443198D01*
X631915Y442696D01*
X631749Y442198D01*
X631570Y441705D01*
X631380Y441215D01*
X631178Y440731D01*
X630964Y440251D01*
X630740Y439777D01*
X630504Y439308D01*
X630256Y438845D01*
X629998Y438388D01*
X629729Y437937D01*
X629449Y437493D01*
X629159Y437056D01*
X628858Y436626D01*
X628547Y436203D01*
X628226Y435788D01*
X627895Y435380D01*
X627554Y434980D01*
X627204Y434589D01*
X626845Y434206D01*
X626477Y433832D01*
X596618Y435130D02*
X596367Y435133D01*
X596116Y435142D01*
X595866Y435157D01*
X595616Y435178D01*
X595366Y435206D01*
X595117Y435239D01*
X594869Y435278D01*
X594623Y435323D01*
X594377Y435375D01*
X594132Y435432D01*
X593890Y435495D01*
X593648Y435564D01*
X593409Y435638D01*
X593171Y435719D01*
X592935Y435805D01*
X592701Y435897D01*
X592470Y435994D01*
X592241Y436097D01*
X592015Y436206D01*
X591791Y436320D01*
X591571Y436439D01*
X591353Y436564D01*
X591138Y436693D01*
X590926Y436828D01*
X590718Y436968D01*
X590513Y437114D01*
X590312Y437264D01*
X590114Y437418D01*
X589921Y437578D01*
X589731Y437742D01*
X589545Y437911D01*
X589363Y438084D01*
X589186Y438261D01*
X589013Y438443D01*
X588844Y438629D01*
X588680Y438819D01*
X588520Y439012D01*
X588366Y439210D01*
X588216Y439411D01*
X588070Y439616D01*
X587930Y439824D01*
X587795Y440036D01*
X587666Y440251D01*
X587541Y440469D01*
X587422Y440689D01*
X587308Y440913D01*
X587199Y441139D01*
X587096Y441368D01*
X586999Y441599D01*
X586907Y441833D01*
X586821Y442069D01*
X586740Y442307D01*
X586666Y442546D01*
X586597Y442788D01*
X586534Y443030D01*
X586477Y443275D01*
X586425Y443521D01*
X586380Y443767D01*
X586341Y444015D01*
X586308Y444264D01*
X586280Y444514D01*
X586259Y444764D01*
X586244Y445014D01*
X586235Y445265D01*
X586232Y445516D01*
X586238Y445980D01*
X586254Y446444D01*
X586282Y446907D01*
X586320Y447370D01*
X586370Y447831D01*
X586431Y448291D01*
X586502Y448750D01*
X586585Y449206D01*
X586678Y449661D01*
X586782Y450113D01*
X586897Y450563D01*
X587023Y451010D01*
X587159Y451453D01*
X587306Y451894D01*
X587463Y452330D01*
X587631Y452763D01*
X587809Y453192D01*
X587997Y453616D01*
X588195Y454036D01*
X588403Y454451D01*
X588621Y454860D01*
X588848Y455265D01*
X589085Y455664D01*
X589332Y456057D01*
X589588Y456444D01*
X589853Y456825D01*
X590127Y457200D01*
X605705Y440323D02*
X605574Y440105D01*
X605436Y439890D01*
X605294Y439679D01*
X605147Y439471D01*
X604994Y439267D01*
X604837Y439067D01*
X604675Y438870D01*
X604508Y438678D01*
X604337Y438489D01*
X604161Y438305D01*
X603981Y438125D01*
X603797Y437950D01*
X603608Y437779D01*
X603415Y437612D01*
X603218Y437450D01*
X603018Y437293D01*
X602814Y437141D01*
X602606Y436994D01*
X602394Y436852D01*
X602179Y436715D01*
X601961Y436584D01*
X601740Y436457D01*
X601516Y436336D01*
X601289Y436221D01*
X601060Y436111D01*
X600827Y436006D01*
X600592Y435907D01*
X600355Y435814D01*
X600116Y435727D01*
X599875Y435645D01*
X599632Y435570D01*
X599387Y435500D01*
X599140Y435436D01*
X598892Y435378D01*
X598643Y435326D01*
X598392Y435280D01*
X598141Y435241D01*
X597888Y435207D01*
X597635Y435179D01*
X597381Y435158D01*
X597127Y435142D01*
X596873Y435133D01*
X596618Y435130D01*
X613494Y454603D02*
X613626Y454821D01*
X613764Y455036D01*
X613906Y455247D01*
X614053Y455455D01*
X614206Y455659D01*
X614363Y455859D01*
X614525Y456056D01*
X614692Y456248D01*
X614863Y456437D01*
X615039Y456621D01*
X615219Y456801D01*
X615403Y456976D01*
X615592Y457147D01*
X615785Y457314D01*
X615982Y457476D01*
X616182Y457633D01*
X616386Y457785D01*
X616594Y457932D01*
X616806Y458074D01*
X617021Y458211D01*
X617239Y458342D01*
X617460Y458469D01*
X617684Y458590D01*
X617911Y458705D01*
X618140Y458815D01*
X618373Y458920D01*
X618607Y459019D01*
X618845Y459112D01*
X619084Y459199D01*
X619325Y459281D01*
X619568Y459356D01*
X619813Y459426D01*
X620060Y459490D01*
X620308Y459548D01*
X620557Y459600D01*
X620808Y459646D01*
X621059Y459685D01*
X621312Y459719D01*
X621565Y459747D01*
X621819Y459768D01*
X622073Y459784D01*
X622327Y459793D01*
X622582Y459796D01*
X613495Y454604D02*
X605705Y440323D01*
X586232Y471838D02*
X632968Y471838D01*
X586232Y471838D02*
X586232Y484820D01*
X586236Y485136D01*
X586247Y485452D01*
X586267Y485768D01*
X586294Y486083D01*
X586328Y486397D01*
X586370Y486710D01*
X586420Y487022D01*
X586478Y487333D01*
X586543Y487643D01*
X586615Y487950D01*
X586695Y488256D01*
X586782Y488560D01*
X586877Y488862D01*
X586979Y489161D01*
X587089Y489458D01*
X587205Y489751D01*
X587329Y490042D01*
X587459Y490330D01*
X587597Y490615D01*
X587742Y490896D01*
X587893Y491174D01*
X588051Y491447D01*
X588216Y491717D01*
X588387Y491983D01*
X588565Y492245D01*
X588749Y492502D01*
X588939Y492754D01*
X589135Y493002D01*
X589337Y493245D01*
X589545Y493483D01*
X589759Y493716D01*
X589979Y493944D01*
X590204Y494166D01*
X590434Y494382D01*
X590669Y494593D01*
X590910Y494799D01*
X591155Y494998D01*
X591405Y495191D01*
X591660Y495378D01*
X591920Y495559D01*
X592183Y495733D01*
X592451Y495901D01*
X592723Y496063D01*
X592999Y496217D01*
X593278Y496365D01*
X593561Y496507D01*
X593847Y496641D01*
X594137Y496768D01*
X594429Y496888D01*
X594724Y497001D01*
X595022Y497107D01*
X595323Y497205D01*
X595626Y497296D01*
X595930Y497380D01*
X596237Y497456D01*
X596546Y497525D01*
X596856Y497586D01*
X597168Y497640D01*
X597480Y497686D01*
X597794Y497724D01*
X598109Y497755D01*
X598424Y497778D01*
X598740Y497793D01*
X599056Y497801D01*
X599372Y497801D01*
X599688Y497793D01*
X600004Y497778D01*
X600319Y497755D01*
X600634Y497724D01*
X600948Y497686D01*
X601260Y497640D01*
X601572Y497586D01*
X601882Y497525D01*
X602191Y497456D01*
X602498Y497380D01*
X602802Y497296D01*
X603105Y497205D01*
X603406Y497107D01*
X603704Y497001D01*
X603999Y496888D01*
X604291Y496768D01*
X604581Y496641D01*
X604867Y496507D01*
X605150Y496365D01*
X605429Y496217D01*
X605705Y496063D01*
X605977Y495901D01*
X606245Y495733D01*
X606508Y495559D01*
X606768Y495378D01*
X607023Y495191D01*
X607273Y494998D01*
X607518Y494799D01*
X607759Y494593D01*
X607994Y494382D01*
X608224Y494166D01*
X608449Y493944D01*
X608669Y493716D01*
X608883Y493483D01*
X609091Y493245D01*
X609293Y493002D01*
X609489Y492754D01*
X609679Y492502D01*
X609863Y492245D01*
X610041Y491983D01*
X610212Y491717D01*
X610377Y491447D01*
X610535Y491174D01*
X610686Y490896D01*
X610831Y490615D01*
X610969Y490330D01*
X611099Y490042D01*
X611223Y489751D01*
X611339Y489458D01*
X611449Y489161D01*
X611551Y488862D01*
X611646Y488560D01*
X611733Y488256D01*
X611813Y487950D01*
X611885Y487643D01*
X611950Y487333D01*
X612008Y487022D01*
X612058Y486710D01*
X612100Y486397D01*
X612134Y486083D01*
X612161Y485768D01*
X612181Y485452D01*
X612192Y485136D01*
X612196Y484820D01*
X612196Y471838D01*
X632968Y514124D02*
X586232Y514124D01*
X632968Y508931D02*
X632968Y519317D01*
X586232Y519317D02*
X586232Y508931D01*
X632968Y566251D02*
X632965Y566502D01*
X632956Y566753D01*
X632941Y567003D01*
X632920Y567253D01*
X632892Y567503D01*
X632859Y567752D01*
X632820Y568000D01*
X632775Y568246D01*
X632723Y568492D01*
X632666Y568737D01*
X632603Y568979D01*
X632534Y569221D01*
X632460Y569460D01*
X632379Y569698D01*
X632293Y569934D01*
X632201Y570168D01*
X632104Y570399D01*
X632001Y570628D01*
X631892Y570854D01*
X631778Y571078D01*
X631659Y571298D01*
X631534Y571516D01*
X631405Y571731D01*
X631270Y571943D01*
X631130Y572151D01*
X630984Y572356D01*
X630834Y572557D01*
X630680Y572755D01*
X630520Y572948D01*
X630356Y573138D01*
X630187Y573324D01*
X630014Y573506D01*
X629837Y573683D01*
X629655Y573856D01*
X629469Y574025D01*
X629279Y574189D01*
X629086Y574349D01*
X628888Y574503D01*
X628687Y574653D01*
X628482Y574799D01*
X628274Y574939D01*
X628062Y575074D01*
X627847Y575203D01*
X627629Y575328D01*
X627409Y575447D01*
X627185Y575561D01*
X626959Y575670D01*
X626730Y575773D01*
X626499Y575870D01*
X626265Y575962D01*
X626029Y576048D01*
X625791Y576129D01*
X625552Y576203D01*
X625310Y576272D01*
X625068Y576335D01*
X624823Y576392D01*
X624577Y576444D01*
X624331Y576489D01*
X624083Y576528D01*
X623834Y576561D01*
X623584Y576589D01*
X623334Y576610D01*
X623084Y576625D01*
X622833Y576634D01*
X622582Y576637D01*
X632968Y566251D02*
X632962Y565726D01*
X632943Y565201D01*
X632912Y564678D01*
X632868Y564154D01*
X632811Y563633D01*
X632742Y563112D01*
X632661Y562594D01*
X632567Y562077D01*
X632461Y561563D01*
X632343Y561051D01*
X632212Y560543D01*
X632070Y560038D01*
X631915Y559536D01*
X631749Y559038D01*
X631570Y558545D01*
X631380Y558055D01*
X631178Y557571D01*
X630964Y557091D01*
X630740Y556617D01*
X630504Y556148D01*
X630256Y555685D01*
X629998Y555228D01*
X629729Y554777D01*
X629449Y554333D01*
X629159Y553896D01*
X628858Y553466D01*
X628547Y553043D01*
X628226Y552628D01*
X627895Y552220D01*
X627554Y551820D01*
X627204Y551429D01*
X626845Y551046D01*
X626477Y550672D01*
X596618Y551970D02*
X596367Y551973D01*
X596116Y551982D01*
X595866Y551997D01*
X595616Y552018D01*
X595366Y552046D01*
X595117Y552079D01*
X594869Y552118D01*
X594623Y552163D01*
X594377Y552215D01*
X594132Y552272D01*
X593890Y552335D01*
X593648Y552404D01*
X593409Y552478D01*
X593171Y552559D01*
X592935Y552645D01*
X592701Y552737D01*
X592470Y552834D01*
X592241Y552937D01*
X592015Y553046D01*
X591791Y553160D01*
X591571Y553279D01*
X591353Y553404D01*
X591138Y553533D01*
X590926Y553668D01*
X590718Y553808D01*
X590513Y553954D01*
X590312Y554104D01*
X590114Y554258D01*
X589921Y554418D01*
X589731Y554582D01*
X589545Y554751D01*
X589363Y554924D01*
X589186Y555101D01*
X589013Y555283D01*
X588844Y555469D01*
X588680Y555659D01*
X588520Y555852D01*
X588366Y556050D01*
X588216Y556251D01*
X588070Y556456D01*
X587930Y556664D01*
X587795Y556876D01*
X587666Y557091D01*
X587541Y557309D01*
X587422Y557529D01*
X587308Y557753D01*
X587199Y557979D01*
X587096Y558208D01*
X586999Y558439D01*
X586907Y558673D01*
X586821Y558909D01*
X586740Y559147D01*
X586666Y559386D01*
X586597Y559628D01*
X586534Y559870D01*
X586477Y560115D01*
X586425Y560361D01*
X586380Y560607D01*
X586341Y560855D01*
X586308Y561104D01*
X586280Y561354D01*
X586259Y561604D01*
X586244Y561854D01*
X586235Y562105D01*
X586232Y562356D01*
X586238Y562820D01*
X586254Y563284D01*
X586282Y563747D01*
X586320Y564210D01*
X586370Y564671D01*
X586431Y565131D01*
X586502Y565590D01*
X586585Y566046D01*
X586678Y566501D01*
X586782Y566953D01*
X586897Y567403D01*
X587023Y567850D01*
X587159Y568293D01*
X587306Y568734D01*
X587463Y569170D01*
X587631Y569603D01*
X587809Y570032D01*
X587997Y570456D01*
X588195Y570876D01*
X588403Y571291D01*
X588621Y571700D01*
X588848Y572105D01*
X589085Y572504D01*
X589332Y572897D01*
X589588Y573284D01*
X589853Y573665D01*
X590127Y574040D01*
X605705Y557163D02*
X605574Y556945D01*
X605436Y556730D01*
X605294Y556519D01*
X605147Y556311D01*
X604994Y556107D01*
X604837Y555907D01*
X604675Y555710D01*
X604508Y555518D01*
X604337Y555329D01*
X604161Y555145D01*
X603981Y554965D01*
X603797Y554790D01*
X603608Y554619D01*
X603415Y554452D01*
X603218Y554290D01*
X603018Y554133D01*
X602814Y553981D01*
X602606Y553834D01*
X602394Y553692D01*
X602179Y553555D01*
X601961Y553424D01*
X601740Y553297D01*
X601516Y553176D01*
X601289Y553061D01*
X601060Y552951D01*
X600827Y552846D01*
X600592Y552747D01*
X600355Y552654D01*
X600116Y552567D01*
X599875Y552485D01*
X599632Y552410D01*
X599387Y552340D01*
X599140Y552276D01*
X598892Y552218D01*
X598643Y552166D01*
X598392Y552120D01*
X598141Y552081D01*
X597888Y552047D01*
X597635Y552019D01*
X597381Y551998D01*
X597127Y551982D01*
X596873Y551973D01*
X596618Y551970D01*
X613494Y571443D02*
X613626Y571661D01*
X613764Y571876D01*
X613906Y572087D01*
X614053Y572295D01*
X614206Y572499D01*
X614363Y572699D01*
X614525Y572896D01*
X614692Y573088D01*
X614863Y573277D01*
X615039Y573461D01*
X615219Y573641D01*
X615403Y573816D01*
X615592Y573987D01*
X615785Y574154D01*
X615982Y574316D01*
X616182Y574473D01*
X616386Y574625D01*
X616594Y574772D01*
X616806Y574914D01*
X617021Y575051D01*
X617239Y575182D01*
X617460Y575309D01*
X617684Y575430D01*
X617911Y575545D01*
X618140Y575655D01*
X618373Y575760D01*
X618607Y575859D01*
X618845Y575952D01*
X619084Y576039D01*
X619325Y576121D01*
X619568Y576196D01*
X619813Y576266D01*
X620060Y576330D01*
X620308Y576388D01*
X620557Y576440D01*
X620808Y576486D01*
X621059Y576525D01*
X621312Y576559D01*
X621565Y576587D01*
X621819Y576608D01*
X622073Y576624D01*
X622327Y576633D01*
X622582Y576636D01*
X613495Y571444D02*
X605705Y557163D01*
X632968Y595336D02*
X632968Y605722D01*
X632968Y595336D02*
X632966Y595148D01*
X632959Y594960D01*
X632948Y594772D01*
X632932Y594584D01*
X632911Y594397D01*
X632886Y594211D01*
X632857Y594025D01*
X632823Y593840D01*
X632784Y593655D01*
X632742Y593472D01*
X632694Y593290D01*
X632643Y593109D01*
X632587Y592929D01*
X632526Y592751D01*
X632462Y592574D01*
X632393Y592399D01*
X632320Y592225D01*
X632243Y592054D01*
X632161Y591884D01*
X632076Y591716D01*
X631986Y591551D01*
X631893Y591387D01*
X631796Y591226D01*
X631694Y591068D01*
X631589Y590911D01*
X631480Y590758D01*
X631368Y590607D01*
X631252Y590459D01*
X631132Y590313D01*
X631009Y590171D01*
X630883Y590032D01*
X630753Y589895D01*
X630620Y589762D01*
X630483Y589632D01*
X630344Y589506D01*
X630202Y589383D01*
X630056Y589263D01*
X629908Y589147D01*
X629757Y589035D01*
X629604Y588926D01*
X629447Y588821D01*
X629289Y588719D01*
X629128Y588622D01*
X628964Y588529D01*
X628799Y588439D01*
X628631Y588354D01*
X628461Y588272D01*
X628290Y588195D01*
X628116Y588122D01*
X627941Y588053D01*
X627764Y587989D01*
X627586Y587928D01*
X627406Y587872D01*
X627225Y587821D01*
X627043Y587773D01*
X626860Y587731D01*
X626675Y587692D01*
X626490Y587658D01*
X626304Y587629D01*
X626118Y587604D01*
X625931Y587583D01*
X625743Y587567D01*
X625555Y587556D01*
X625367Y587549D01*
X625179Y587547D01*
X609600Y587547D01*
X609412Y587549D01*
X609224Y587556D01*
X609036Y587567D01*
X608848Y587583D01*
X608661Y587604D01*
X608475Y587629D01*
X608289Y587658D01*
X608104Y587692D01*
X607919Y587731D01*
X607736Y587773D01*
X607554Y587821D01*
X607373Y587872D01*
X607193Y587928D01*
X607015Y587989D01*
X606838Y588053D01*
X606663Y588122D01*
X606489Y588195D01*
X606318Y588272D01*
X606148Y588354D01*
X605980Y588439D01*
X605815Y588529D01*
X605651Y588622D01*
X605490Y588719D01*
X605332Y588821D01*
X605175Y588926D01*
X605022Y589035D01*
X604871Y589147D01*
X604723Y589263D01*
X604577Y589383D01*
X604435Y589506D01*
X604296Y589632D01*
X604159Y589762D01*
X604026Y589895D01*
X603896Y590032D01*
X603770Y590171D01*
X603647Y590313D01*
X603527Y590459D01*
X603411Y590607D01*
X603299Y590758D01*
X603190Y590911D01*
X603085Y591068D01*
X602983Y591226D01*
X602886Y591387D01*
X602793Y591551D01*
X602703Y591716D01*
X602618Y591884D01*
X602536Y592054D01*
X602459Y592225D01*
X602386Y592399D01*
X602317Y592574D01*
X602253Y592751D01*
X602192Y592929D01*
X602136Y593109D01*
X602085Y593290D01*
X602037Y593472D01*
X601995Y593655D01*
X601956Y593840D01*
X601922Y594025D01*
X601893Y594211D01*
X601868Y594397D01*
X601847Y594584D01*
X601831Y594772D01*
X601820Y594960D01*
X601813Y595148D01*
X601811Y595336D01*
X601811Y605722D01*
X601811Y617993D02*
X632968Y617993D01*
X601811Y617993D02*
X601811Y633572D01*
X607004Y633572D01*
X632968Y651228D02*
X632968Y664210D01*
X632968Y651228D02*
X632966Y651040D01*
X632959Y650852D01*
X632948Y650664D01*
X632932Y650476D01*
X632911Y650289D01*
X632886Y650103D01*
X632857Y649917D01*
X632823Y649732D01*
X632784Y649547D01*
X632742Y649364D01*
X632694Y649182D01*
X632643Y649001D01*
X632587Y648821D01*
X632526Y648643D01*
X632462Y648466D01*
X632393Y648291D01*
X632320Y648117D01*
X632243Y647946D01*
X632161Y647776D01*
X632076Y647608D01*
X631986Y647443D01*
X631893Y647279D01*
X631796Y647118D01*
X631694Y646960D01*
X631589Y646803D01*
X631480Y646650D01*
X631368Y646499D01*
X631252Y646351D01*
X631132Y646205D01*
X631009Y646063D01*
X630883Y645924D01*
X630753Y645787D01*
X630620Y645654D01*
X630483Y645524D01*
X630344Y645398D01*
X630202Y645275D01*
X630056Y645155D01*
X629908Y645039D01*
X629757Y644927D01*
X629604Y644818D01*
X629447Y644713D01*
X629289Y644611D01*
X629128Y644514D01*
X628964Y644421D01*
X628799Y644331D01*
X628631Y644246D01*
X628461Y644164D01*
X628290Y644087D01*
X628116Y644014D01*
X627941Y643945D01*
X627764Y643881D01*
X627586Y643820D01*
X627406Y643764D01*
X627225Y643713D01*
X627043Y643665D01*
X626860Y643623D01*
X626675Y643584D01*
X626490Y643550D01*
X626304Y643521D01*
X626118Y643496D01*
X625931Y643475D01*
X625743Y643459D01*
X625555Y643448D01*
X625367Y643441D01*
X625179Y643439D01*
X625179Y643438D02*
X612196Y643438D01*
X611943Y643441D01*
X611690Y643450D01*
X611438Y643466D01*
X611186Y643487D01*
X610934Y643515D01*
X610684Y643549D01*
X610434Y643589D01*
X610185Y643634D01*
X609938Y643686D01*
X609692Y643744D01*
X609447Y643808D01*
X609204Y643878D01*
X608963Y643954D01*
X608723Y644036D01*
X608486Y644123D01*
X608251Y644217D01*
X608018Y644315D01*
X607788Y644420D01*
X607560Y644530D01*
X607335Y644646D01*
X607113Y644767D01*
X606894Y644893D01*
X606678Y645025D01*
X606465Y645162D01*
X606256Y645304D01*
X606050Y645451D01*
X605848Y645604D01*
X605650Y645761D01*
X605456Y645922D01*
X605265Y646089D01*
X605079Y646260D01*
X604897Y646435D01*
X604719Y646615D01*
X604546Y646800D01*
X604377Y646988D01*
X604213Y647180D01*
X604053Y647377D01*
X603899Y647577D01*
X603749Y647781D01*
X603605Y647988D01*
X603465Y648199D01*
X603331Y648414D01*
X603201Y648631D01*
X603078Y648852D01*
X602959Y649075D01*
X602846Y649301D01*
X602739Y649530D01*
X602637Y649762D01*
X602541Y649996D01*
X602451Y650232D01*
X602366Y650471D01*
X602288Y650711D01*
X602215Y650953D01*
X602148Y651197D01*
X602087Y651442D01*
X602032Y651689D01*
X601983Y651938D01*
X601940Y652187D01*
X601903Y652437D01*
X601872Y652688D01*
X601848Y652940D01*
X601829Y653192D01*
X601817Y653445D01*
X601811Y653698D01*
X601811Y653950D01*
X601817Y654203D01*
X601829Y654456D01*
X601848Y654708D01*
X601872Y654960D01*
X601903Y655211D01*
X601940Y655461D01*
X601983Y655710D01*
X602032Y655959D01*
X602087Y656206D01*
X602148Y656451D01*
X602215Y656695D01*
X602288Y656937D01*
X602366Y657177D01*
X602451Y657416D01*
X602541Y657652D01*
X602637Y657886D01*
X602739Y658118D01*
X602846Y658347D01*
X602959Y658573D01*
X603078Y658796D01*
X603201Y659017D01*
X603331Y659234D01*
X603465Y659449D01*
X603605Y659660D01*
X603749Y659867D01*
X603899Y660071D01*
X604053Y660271D01*
X604213Y660468D01*
X604377Y660660D01*
X604546Y660848D01*
X604719Y661033D01*
X604897Y661213D01*
X605079Y661388D01*
X605265Y661559D01*
X605456Y661726D01*
X605650Y661887D01*
X605848Y662044D01*
X606050Y662197D01*
X606256Y662344D01*
X606465Y662486D01*
X606678Y662623D01*
X606894Y662755D01*
X607113Y662881D01*
X607335Y663002D01*
X607560Y663118D01*
X607788Y663228D01*
X608018Y663333D01*
X608251Y663431D01*
X608486Y663525D01*
X608723Y663612D01*
X608963Y663694D01*
X609204Y663770D01*
X609447Y663840D01*
X609692Y663904D01*
X609938Y663962D01*
X610185Y664014D01*
X610434Y664059D01*
X610684Y664099D01*
X610934Y664133D01*
X611186Y664161D01*
X611438Y664182D01*
X611690Y664198D01*
X611943Y664207D01*
X612196Y664210D01*
X617389Y664210D01*
X617389Y643438D01*
X632968Y684248D02*
X632968Y697230D01*
X632968Y684248D02*
X632966Y684060D01*
X632959Y683872D01*
X632948Y683684D01*
X632932Y683496D01*
X632911Y683309D01*
X632886Y683123D01*
X632857Y682937D01*
X632823Y682752D01*
X632784Y682567D01*
X632742Y682384D01*
X632694Y682202D01*
X632643Y682021D01*
X632587Y681841D01*
X632526Y681663D01*
X632462Y681486D01*
X632393Y681311D01*
X632320Y681137D01*
X632243Y680966D01*
X632161Y680796D01*
X632076Y680628D01*
X631986Y680463D01*
X631893Y680299D01*
X631796Y680138D01*
X631694Y679980D01*
X631589Y679823D01*
X631480Y679670D01*
X631368Y679519D01*
X631252Y679371D01*
X631132Y679225D01*
X631009Y679083D01*
X630883Y678944D01*
X630753Y678807D01*
X630620Y678674D01*
X630483Y678544D01*
X630344Y678418D01*
X630202Y678295D01*
X630056Y678175D01*
X629908Y678059D01*
X629757Y677947D01*
X629604Y677838D01*
X629447Y677733D01*
X629289Y677631D01*
X629128Y677534D01*
X628964Y677441D01*
X628799Y677351D01*
X628631Y677266D01*
X628461Y677184D01*
X628290Y677107D01*
X628116Y677034D01*
X627941Y676965D01*
X627764Y676901D01*
X627586Y676840D01*
X627406Y676784D01*
X627225Y676733D01*
X627043Y676685D01*
X626860Y676643D01*
X626675Y676604D01*
X626490Y676570D01*
X626304Y676541D01*
X626118Y676516D01*
X625931Y676495D01*
X625743Y676479D01*
X625555Y676468D01*
X625367Y676461D01*
X625179Y676459D01*
X625179Y676458D02*
X612196Y676458D01*
X611943Y676461D01*
X611690Y676470D01*
X611438Y676486D01*
X611186Y676507D01*
X610934Y676535D01*
X610684Y676569D01*
X610434Y676609D01*
X610185Y676654D01*
X609938Y676706D01*
X609692Y676764D01*
X609447Y676828D01*
X609204Y676898D01*
X608963Y676974D01*
X608723Y677056D01*
X608486Y677143D01*
X608251Y677237D01*
X608018Y677335D01*
X607788Y677440D01*
X607560Y677550D01*
X607335Y677666D01*
X607113Y677787D01*
X606894Y677913D01*
X606678Y678045D01*
X606465Y678182D01*
X606256Y678324D01*
X606050Y678471D01*
X605848Y678624D01*
X605650Y678781D01*
X605456Y678942D01*
X605265Y679109D01*
X605079Y679280D01*
X604897Y679455D01*
X604719Y679635D01*
X604546Y679820D01*
X604377Y680008D01*
X604213Y680200D01*
X604053Y680397D01*
X603899Y680597D01*
X603749Y680801D01*
X603605Y681008D01*
X603465Y681219D01*
X603331Y681434D01*
X603201Y681651D01*
X603078Y681872D01*
X602959Y682095D01*
X602846Y682321D01*
X602739Y682550D01*
X602637Y682782D01*
X602541Y683016D01*
X602451Y683252D01*
X602366Y683491D01*
X602288Y683731D01*
X602215Y683973D01*
X602148Y684217D01*
X602087Y684462D01*
X602032Y684709D01*
X601983Y684958D01*
X601940Y685207D01*
X601903Y685457D01*
X601872Y685708D01*
X601848Y685960D01*
X601829Y686212D01*
X601817Y686465D01*
X601811Y686718D01*
X601811Y686970D01*
X601817Y687223D01*
X601829Y687476D01*
X601848Y687728D01*
X601872Y687980D01*
X601903Y688231D01*
X601940Y688481D01*
X601983Y688730D01*
X602032Y688979D01*
X602087Y689226D01*
X602148Y689471D01*
X602215Y689715D01*
X602288Y689957D01*
X602366Y690197D01*
X602451Y690436D01*
X602541Y690672D01*
X602637Y690906D01*
X602739Y691138D01*
X602846Y691367D01*
X602959Y691593D01*
X603078Y691816D01*
X603201Y692037D01*
X603331Y692254D01*
X603465Y692469D01*
X603605Y692680D01*
X603749Y692887D01*
X603899Y693091D01*
X604053Y693291D01*
X604213Y693488D01*
X604377Y693680D01*
X604546Y693868D01*
X604719Y694053D01*
X604897Y694233D01*
X605079Y694408D01*
X605265Y694579D01*
X605456Y694746D01*
X605650Y694907D01*
X605848Y695064D01*
X606050Y695217D01*
X606256Y695364D01*
X606465Y695506D01*
X606678Y695643D01*
X606894Y695775D01*
X607113Y695901D01*
X607335Y696022D01*
X607560Y696138D01*
X607788Y696248D01*
X608018Y696353D01*
X608251Y696451D01*
X608486Y696545D01*
X608723Y696632D01*
X608963Y696714D01*
X609204Y696790D01*
X609447Y696860D01*
X609692Y696924D01*
X609938Y696982D01*
X610185Y697034D01*
X610434Y697079D01*
X610684Y697119D01*
X610934Y697153D01*
X611186Y697181D01*
X611438Y697202D01*
X611690Y697218D01*
X611943Y697227D01*
X612196Y697230D01*
X617389Y697230D01*
X617389Y676458D01*
X601811Y710748D02*
X632968Y710748D01*
X601811Y710748D02*
X601811Y723731D01*
X601813Y723919D01*
X601820Y724107D01*
X601831Y724295D01*
X601847Y724483D01*
X601868Y724670D01*
X601893Y724856D01*
X601922Y725042D01*
X601956Y725227D01*
X601995Y725412D01*
X602037Y725595D01*
X602085Y725777D01*
X602136Y725958D01*
X602192Y726138D01*
X602253Y726316D01*
X602317Y726493D01*
X602386Y726668D01*
X602459Y726842D01*
X602536Y727013D01*
X602618Y727183D01*
X602703Y727351D01*
X602793Y727516D01*
X602886Y727680D01*
X602983Y727841D01*
X603085Y727999D01*
X603190Y728156D01*
X603299Y728309D01*
X603411Y728460D01*
X603527Y728608D01*
X603647Y728754D01*
X603770Y728896D01*
X603896Y729035D01*
X604026Y729172D01*
X604159Y729305D01*
X604296Y729435D01*
X604435Y729561D01*
X604577Y729684D01*
X604723Y729804D01*
X604871Y729920D01*
X605022Y730032D01*
X605175Y730141D01*
X605332Y730246D01*
X605490Y730348D01*
X605651Y730445D01*
X605815Y730538D01*
X605980Y730628D01*
X606148Y730713D01*
X606318Y730795D01*
X606489Y730872D01*
X606663Y730945D01*
X606838Y731014D01*
X607015Y731078D01*
X607193Y731139D01*
X607373Y731195D01*
X607554Y731246D01*
X607736Y731294D01*
X607919Y731336D01*
X608104Y731375D01*
X608289Y731409D01*
X608475Y731438D01*
X608661Y731463D01*
X608848Y731484D01*
X609036Y731500D01*
X609224Y731511D01*
X609412Y731518D01*
X609600Y731520D01*
X632968Y731520D01*
D10*
X182993Y521716D02*
X166116Y521716D01*
X182993Y521716D02*
X183152Y521718D01*
X183311Y521724D01*
X183471Y521734D01*
X183629Y521747D01*
X183788Y521765D01*
X183945Y521786D01*
X184103Y521812D01*
X184259Y521841D01*
X184415Y521874D01*
X184570Y521911D01*
X184724Y521951D01*
X184877Y521996D01*
X185029Y522044D01*
X185180Y522095D01*
X185329Y522151D01*
X185477Y522210D01*
X185623Y522273D01*
X185768Y522339D01*
X185911Y522409D01*
X186053Y522482D01*
X186192Y522559D01*
X186330Y522639D01*
X186466Y522723D01*
X186599Y522810D01*
X186731Y522900D01*
X186860Y522993D01*
X186986Y523090D01*
X187111Y523189D01*
X187233Y523292D01*
X187352Y523397D01*
X187469Y523506D01*
X187583Y523617D01*
X187694Y523731D01*
X187803Y523848D01*
X187908Y523967D01*
X188011Y524089D01*
X188110Y524214D01*
X188207Y524340D01*
X188300Y524469D01*
X188390Y524601D01*
X188477Y524734D01*
X188561Y524870D01*
X188641Y525008D01*
X188718Y525147D01*
X188791Y525289D01*
X188861Y525432D01*
X188927Y525577D01*
X188990Y525723D01*
X189049Y525871D01*
X189105Y526020D01*
X189156Y526171D01*
X189204Y526323D01*
X189249Y526476D01*
X189289Y526630D01*
X189326Y526785D01*
X189359Y526941D01*
X189388Y527097D01*
X189414Y527255D01*
X189435Y527412D01*
X189453Y527571D01*
X189466Y527729D01*
X189476Y527889D01*
X189482Y528048D01*
X189484Y528207D01*
X189482Y528366D01*
X189476Y528525D01*
X189466Y528685D01*
X189453Y528843D01*
X189435Y529002D01*
X189414Y529159D01*
X189388Y529317D01*
X189359Y529473D01*
X189326Y529629D01*
X189289Y529784D01*
X189249Y529938D01*
X189204Y530091D01*
X189156Y530243D01*
X189105Y530394D01*
X189049Y530543D01*
X188990Y530691D01*
X188927Y530837D01*
X188861Y530982D01*
X188791Y531125D01*
X188718Y531267D01*
X188641Y531406D01*
X188561Y531544D01*
X188477Y531680D01*
X188390Y531813D01*
X188300Y531945D01*
X188207Y532074D01*
X188110Y532200D01*
X188011Y532325D01*
X187908Y532447D01*
X187803Y532566D01*
X187694Y532683D01*
X187583Y532797D01*
X187469Y532908D01*
X187352Y533017D01*
X187233Y533122D01*
X187111Y533225D01*
X186986Y533324D01*
X186860Y533421D01*
X186731Y533514D01*
X186599Y533604D01*
X186466Y533691D01*
X186330Y533775D01*
X186192Y533855D01*
X186053Y533932D01*
X185911Y534005D01*
X185768Y534075D01*
X185623Y534141D01*
X185477Y534204D01*
X185329Y534263D01*
X185180Y534319D01*
X185029Y534370D01*
X184877Y534418D01*
X184724Y534463D01*
X184570Y534503D01*
X184415Y534540D01*
X184259Y534573D01*
X184103Y534602D01*
X183945Y534628D01*
X183788Y534649D01*
X183629Y534667D01*
X183471Y534680D01*
X183311Y534690D01*
X183152Y534696D01*
X182993Y534698D01*
X166116Y534698D01*
X166116Y548390D02*
X189484Y548390D01*
X177800Y548390D02*
X175853Y545144D01*
X175852Y545145D02*
X175787Y545040D01*
X175719Y544937D01*
X175647Y544837D01*
X175572Y544738D01*
X175494Y544643D01*
X175413Y544550D01*
X175329Y544459D01*
X175242Y544371D01*
X175153Y544286D01*
X175060Y544204D01*
X174966Y544125D01*
X174868Y544049D01*
X174769Y543976D01*
X174667Y543906D01*
X174563Y543839D01*
X174457Y543776D01*
X174349Y543716D01*
X174239Y543660D01*
X174127Y543607D01*
X174014Y543558D01*
X173899Y543513D01*
X173783Y543471D01*
X173665Y543433D01*
X173547Y543398D01*
X173427Y543368D01*
X173306Y543341D01*
X173185Y543318D01*
X173063Y543299D01*
X172940Y543284D01*
X172817Y543273D01*
X172694Y543266D01*
X172571Y543262D01*
X172447Y543263D01*
X172324Y543267D01*
X172200Y543276D01*
X172078Y543288D01*
X171955Y543304D01*
X171833Y543325D01*
X171712Y543349D01*
X171592Y543376D01*
X171472Y543408D01*
X171354Y543444D01*
X171237Y543483D01*
X171121Y543526D01*
X171007Y543572D01*
X170894Y543623D01*
X170783Y543676D01*
X170673Y543734D01*
X170566Y543794D01*
X170460Y543859D01*
X170357Y543926D01*
X170256Y543997D01*
X170157Y544071D01*
X170060Y544148D01*
X169966Y544228D01*
X169875Y544311D01*
X169786Y544397D01*
X169700Y544485D01*
X169617Y544577D01*
X169537Y544671D01*
X169460Y544767D01*
X169386Y544866D01*
X169315Y544967D01*
X169247Y545071D01*
X169183Y545176D01*
X169122Y545284D01*
X169065Y545393D01*
X169011Y545504D01*
X168961Y545617D01*
X168914Y545731D01*
X168871Y545847D01*
X168832Y545964D01*
X168796Y546082D01*
X168764Y546202D01*
X168736Y546322D01*
X168712Y546443D01*
X168671Y546686D01*
X168635Y546931D01*
X168606Y547176D01*
X168582Y547422D01*
X168564Y547669D01*
X168552Y547916D01*
X168546Y548163D01*
X168546Y548410D01*
X168552Y548657D01*
X168563Y548904D01*
X168581Y549151D01*
X168605Y549397D01*
X168634Y549642D01*
X168670Y549887D01*
X168711Y550131D01*
X168758Y550374D01*
X168811Y550615D01*
X168870Y550855D01*
X168934Y551094D01*
X169004Y551331D01*
X169080Y551566D01*
X169162Y551800D01*
X169249Y552031D01*
X169342Y552260D01*
X169440Y552487D01*
X169543Y552711D01*
X169652Y552933D01*
X169767Y553153D01*
X169886Y553369D01*
X170011Y553583D01*
X177800Y548390D02*
X179747Y551635D01*
X179748Y551635D02*
X179813Y551740D01*
X179881Y551843D01*
X179953Y551943D01*
X180028Y552042D01*
X180106Y552137D01*
X180187Y552230D01*
X180271Y552321D01*
X180358Y552409D01*
X180447Y552494D01*
X180540Y552576D01*
X180634Y552655D01*
X180732Y552731D01*
X180831Y552804D01*
X180933Y552874D01*
X181037Y552941D01*
X181143Y553004D01*
X181251Y553064D01*
X181361Y553120D01*
X181473Y553173D01*
X181586Y553222D01*
X181701Y553267D01*
X181817Y553309D01*
X181935Y553347D01*
X182054Y553382D01*
X182173Y553412D01*
X182294Y553439D01*
X182415Y553462D01*
X182537Y553481D01*
X182660Y553496D01*
X182783Y553507D01*
X182906Y553514D01*
X183029Y553518D01*
X183153Y553517D01*
X183276Y553513D01*
X183400Y553504D01*
X183522Y553492D01*
X183645Y553476D01*
X183767Y553455D01*
X183888Y553431D01*
X184008Y553404D01*
X184128Y553372D01*
X184246Y553336D01*
X184363Y553297D01*
X184479Y553254D01*
X184593Y553208D01*
X184706Y553157D01*
X184817Y553104D01*
X184927Y553046D01*
X185034Y552986D01*
X185140Y552921D01*
X185243Y552854D01*
X185344Y552783D01*
X185443Y552709D01*
X185540Y552632D01*
X185634Y552552D01*
X185725Y552469D01*
X185814Y552383D01*
X185900Y552295D01*
X185983Y552203D01*
X186063Y552109D01*
X186140Y552013D01*
X186214Y551914D01*
X186285Y551813D01*
X186353Y551709D01*
X186417Y551604D01*
X186478Y551496D01*
X186535Y551387D01*
X186589Y551276D01*
X186639Y551163D01*
X186686Y551049D01*
X186729Y550933D01*
X186768Y550816D01*
X186804Y550698D01*
X186836Y550578D01*
X186864Y550458D01*
X186888Y550337D01*
X186888Y550338D02*
X186929Y550094D01*
X186965Y549849D01*
X186994Y549604D01*
X187018Y549358D01*
X187036Y549111D01*
X187048Y548864D01*
X187054Y548617D01*
X187054Y548370D01*
X187048Y548123D01*
X187037Y547876D01*
X187019Y547629D01*
X186995Y547383D01*
X186966Y547138D01*
X186930Y546893D01*
X186889Y546649D01*
X186842Y546406D01*
X186789Y546165D01*
X186730Y545925D01*
X186666Y545686D01*
X186596Y545449D01*
X186520Y545214D01*
X186438Y544981D01*
X186351Y544749D01*
X186258Y544520D01*
X186160Y544293D01*
X186057Y544069D01*
X185948Y543847D01*
X185833Y543627D01*
X185714Y543411D01*
X185589Y543197D01*
X166116Y568526D02*
X166118Y568676D01*
X166124Y568827D01*
X166133Y568977D01*
X166147Y569127D01*
X166164Y569276D01*
X166186Y569425D01*
X166211Y569573D01*
X166240Y569721D01*
X166272Y569868D01*
X166309Y570014D01*
X166349Y570159D01*
X166393Y570303D01*
X166440Y570445D01*
X166492Y570587D01*
X166546Y570727D01*
X166605Y570865D01*
X166667Y571003D01*
X166732Y571138D01*
X166801Y571272D01*
X166874Y571403D01*
X166950Y571533D01*
X167029Y571661D01*
X167111Y571787D01*
X167197Y571911D01*
X167285Y572032D01*
X167377Y572152D01*
X167472Y572268D01*
X167570Y572383D01*
X167671Y572494D01*
X167774Y572603D01*
X167881Y572710D01*
X167990Y572813D01*
X168101Y572914D01*
X168216Y573012D01*
X168332Y573107D01*
X168452Y573199D01*
X168573Y573287D01*
X168697Y573373D01*
X168823Y573455D01*
X168951Y573534D01*
X169081Y573610D01*
X169212Y573683D01*
X169346Y573752D01*
X169481Y573817D01*
X169619Y573879D01*
X169757Y573938D01*
X169897Y573992D01*
X170039Y574044D01*
X170181Y574091D01*
X170325Y574135D01*
X170470Y574175D01*
X170616Y574212D01*
X170763Y574244D01*
X170911Y574273D01*
X171059Y574298D01*
X171208Y574320D01*
X171357Y574337D01*
X171507Y574351D01*
X171657Y574360D01*
X171808Y574366D01*
X171958Y574368D01*
X166116Y568526D02*
X166118Y568345D01*
X166125Y568163D01*
X166136Y567982D01*
X166151Y567801D01*
X166171Y567621D01*
X166195Y567441D01*
X166223Y567262D01*
X166256Y567083D01*
X166293Y566905D01*
X166334Y566729D01*
X166380Y566553D01*
X166430Y566378D01*
X166484Y566205D01*
X166542Y566033D01*
X166604Y565863D01*
X166671Y565694D01*
X166741Y565527D01*
X166816Y565361D01*
X166894Y565197D01*
X166977Y565036D01*
X167063Y564876D01*
X167153Y564719D01*
X167247Y564563D01*
X167345Y564410D01*
X167446Y564260D01*
X167551Y564112D01*
X167660Y563966D01*
X167772Y563823D01*
X167887Y563683D01*
X168006Y563546D01*
X168128Y563412D01*
X168254Y563281D01*
X168382Y563152D01*
X168513Y563027D01*
X168648Y562905D01*
X168785Y562787D01*
X168925Y562671D01*
X169068Y562560D01*
X169214Y562451D01*
X169362Y562346D01*
X169513Y562245D01*
X169666Y562148D01*
X169821Y562054D01*
X169979Y561964D01*
X170139Y561878D01*
X170301Y561795D01*
X170464Y561717D01*
X170630Y561643D01*
X170797Y561573D01*
X170966Y561506D01*
X171137Y561444D01*
X171309Y561386D01*
X176502Y572421D02*
X176394Y572531D01*
X176284Y572638D01*
X176171Y572743D01*
X176056Y572845D01*
X175938Y572944D01*
X175818Y573040D01*
X175695Y573134D01*
X175571Y573224D01*
X175444Y573311D01*
X175315Y573395D01*
X175183Y573476D01*
X175050Y573553D01*
X174915Y573627D01*
X174779Y573698D01*
X174640Y573766D01*
X174500Y573830D01*
X174359Y573891D01*
X174216Y573948D01*
X174072Y574001D01*
X173926Y574051D01*
X173779Y574098D01*
X173631Y574141D01*
X173482Y574180D01*
X173333Y574216D01*
X173182Y574247D01*
X173031Y574276D01*
X172879Y574300D01*
X172726Y574321D01*
X172573Y574338D01*
X172420Y574351D01*
X172266Y574360D01*
X172112Y574366D01*
X171958Y574368D01*
X176502Y572421D02*
X189484Y561386D01*
X189484Y574368D01*
D13*
X901700Y55880D02*
X901700Y45720D01*
D14*
X902081Y45847D02*
X902081Y38481D01*
X902081Y45847D02*
X904127Y45847D01*
X904216Y45845D01*
X904305Y45839D01*
X904394Y45829D01*
X904482Y45816D01*
X904570Y45799D01*
X904657Y45777D01*
X904742Y45752D01*
X904827Y45724D01*
X904910Y45691D01*
X904992Y45655D01*
X905072Y45616D01*
X905150Y45573D01*
X905226Y45527D01*
X905301Y45477D01*
X905373Y45424D01*
X905442Y45368D01*
X905509Y45309D01*
X905574Y45248D01*
X905635Y45183D01*
X905694Y45116D01*
X905750Y45047D01*
X905803Y44975D01*
X905853Y44900D01*
X905899Y44824D01*
X905942Y44746D01*
X905981Y44666D01*
X906017Y44584D01*
X906050Y44501D01*
X906078Y44416D01*
X906103Y44331D01*
X906125Y44244D01*
X906142Y44156D01*
X906155Y44068D01*
X906165Y43979D01*
X906171Y43890D01*
X906173Y43801D01*
X906171Y43712D01*
X906165Y43623D01*
X906155Y43534D01*
X906142Y43446D01*
X906125Y43358D01*
X906103Y43271D01*
X906078Y43186D01*
X906050Y43101D01*
X906017Y43018D01*
X905981Y42936D01*
X905942Y42856D01*
X905899Y42778D01*
X905853Y42702D01*
X905803Y42627D01*
X905750Y42555D01*
X905694Y42486D01*
X905635Y42419D01*
X905574Y42354D01*
X905509Y42293D01*
X905442Y42234D01*
X905373Y42178D01*
X905301Y42125D01*
X905226Y42075D01*
X905150Y42029D01*
X905072Y41986D01*
X904992Y41947D01*
X904910Y41911D01*
X904827Y41878D01*
X904742Y41850D01*
X904657Y41825D01*
X904570Y41803D01*
X904482Y41786D01*
X904394Y41773D01*
X904305Y41763D01*
X904216Y41757D01*
X904127Y41755D01*
X902081Y41755D01*
X904536Y41755D02*
X906173Y38481D01*
X913438Y44006D02*
X913436Y44091D01*
X913430Y44176D01*
X913420Y44260D01*
X913407Y44344D01*
X913389Y44428D01*
X913368Y44510D01*
X913343Y44591D01*
X913314Y44671D01*
X913281Y44750D01*
X913245Y44827D01*
X913205Y44902D01*
X913162Y44976D01*
X913116Y45047D01*
X913066Y45116D01*
X913013Y45183D01*
X912957Y45247D01*
X912898Y45308D01*
X912837Y45367D01*
X912773Y45423D01*
X912706Y45476D01*
X912637Y45526D01*
X912566Y45572D01*
X912492Y45615D01*
X912417Y45655D01*
X912340Y45691D01*
X912261Y45724D01*
X912181Y45753D01*
X912100Y45778D01*
X912018Y45799D01*
X911934Y45817D01*
X911850Y45830D01*
X911766Y45840D01*
X911681Y45846D01*
X911596Y45848D01*
X911596Y45847D02*
X911500Y45845D01*
X911404Y45839D01*
X911309Y45829D01*
X911214Y45816D01*
X911119Y45798D01*
X911026Y45777D01*
X910933Y45752D01*
X910842Y45723D01*
X910751Y45691D01*
X910662Y45655D01*
X910575Y45615D01*
X910489Y45572D01*
X910405Y45526D01*
X910323Y45476D01*
X910243Y45422D01*
X910166Y45366D01*
X910091Y45306D01*
X910018Y45244D01*
X909948Y45178D01*
X909880Y45110D01*
X909815Y45039D01*
X909754Y44966D01*
X909695Y44890D01*
X909639Y44811D01*
X909587Y44731D01*
X909538Y44648D01*
X909492Y44564D01*
X909450Y44478D01*
X909412Y44390D01*
X909377Y44301D01*
X909345Y44210D01*
X912823Y42574D02*
X912883Y42633D01*
X912940Y42695D01*
X912995Y42759D01*
X913046Y42826D01*
X913095Y42895D01*
X913141Y42965D01*
X913184Y43038D01*
X913224Y43112D01*
X913260Y43188D01*
X913293Y43266D01*
X913323Y43345D01*
X913350Y43425D01*
X913373Y43506D01*
X913392Y43588D01*
X913408Y43670D01*
X913421Y43754D01*
X913430Y43838D01*
X913435Y43922D01*
X913437Y44006D01*
X912823Y42573D02*
X909345Y38481D01*
X913437Y38481D01*
M02*
