G04 EAGLE Gerber RS-274X export*
G75*
%MOMM*%
%FSLAX34Y34*%
%LPD*%
%INSilkscreen Bottom*%
%IPPOS*%
%AMOC8*
5,1,8,0,0,1.08239X$1,22.5*%
G01*
%ADD10R,0.508000X0.508000*%
%ADD11C,0.254000*%
%ADD12C,0.152400*%


D10*
X828300Y791800D03*
X802900Y791800D03*
X802900Y766400D03*
X828300Y766400D03*
X802900Y741000D03*
X828300Y741000D03*
X802900Y715600D03*
X802900Y690200D03*
X802900Y664800D03*
X828300Y715600D03*
X828300Y690200D03*
X828300Y664800D03*
X802900Y639400D03*
X828300Y639400D03*
X802900Y614000D03*
X828300Y614000D03*
X802900Y588600D03*
X828300Y588600D03*
X802900Y563200D03*
X828300Y563200D03*
X802900Y537800D03*
X828300Y537800D03*
X802900Y512400D03*
X828300Y512400D03*
X802900Y487000D03*
X828300Y487000D03*
X802900Y461600D03*
X828300Y461600D03*
X802900Y436200D03*
X828300Y436200D03*
X802900Y410800D03*
X828300Y410800D03*
X802900Y385400D03*
X828300Y385400D03*
X802900Y360000D03*
X828300Y360000D03*
X574300Y791800D03*
X548900Y791800D03*
X548900Y766400D03*
X574300Y766400D03*
X548900Y741000D03*
X574300Y741000D03*
X548900Y715600D03*
X548900Y690200D03*
X548900Y664800D03*
X574300Y715600D03*
X574300Y690200D03*
X574300Y664800D03*
X548900Y639400D03*
X574300Y639400D03*
X548900Y614000D03*
X574300Y614000D03*
X548900Y588600D03*
X574300Y588600D03*
X548900Y563200D03*
X574300Y563200D03*
X548900Y537800D03*
X574300Y537800D03*
X548900Y512400D03*
X574300Y512400D03*
X548900Y487000D03*
X574300Y487000D03*
X548900Y461600D03*
X574300Y461600D03*
X548900Y436200D03*
X574300Y436200D03*
X548900Y410800D03*
X574300Y410800D03*
X548900Y385400D03*
X574300Y385400D03*
X548900Y360000D03*
X574300Y360000D03*
D11*
X513600Y400900D02*
X513600Y750900D01*
X513629Y753316D01*
X513717Y755731D01*
X513863Y758143D01*
X514067Y760551D01*
X514329Y762954D01*
X514649Y765349D01*
X515027Y767736D01*
X515463Y770113D01*
X515956Y772478D01*
X516506Y774832D01*
X517112Y777171D01*
X517775Y779495D01*
X518494Y781802D01*
X519269Y784091D01*
X520098Y786360D01*
X520983Y788609D01*
X521921Y790836D01*
X522913Y793040D01*
X523957Y795219D01*
X525054Y797372D01*
X526203Y799498D01*
X527403Y801596D01*
X528653Y803664D01*
X529953Y805701D01*
X531302Y807706D01*
X532698Y809679D01*
X534142Y811616D01*
X535633Y813519D01*
X537168Y815384D01*
X538749Y817212D01*
X540373Y819002D01*
X542040Y820751D01*
X543749Y822460D01*
X545498Y824127D01*
X547288Y825751D01*
X549116Y827332D01*
X550981Y828867D01*
X552884Y830358D01*
X554821Y831802D01*
X556794Y833198D01*
X558799Y834547D01*
X560836Y835847D01*
X562904Y837097D01*
X565002Y838297D01*
X567128Y839446D01*
X569281Y840543D01*
X571460Y841587D01*
X573664Y842579D01*
X575891Y843517D01*
X578140Y844402D01*
X580409Y845231D01*
X582698Y846006D01*
X585005Y846725D01*
X587329Y847388D01*
X589668Y847994D01*
X592022Y848544D01*
X594387Y849037D01*
X596764Y849473D01*
X599151Y849851D01*
X601546Y850171D01*
X603949Y850433D01*
X606357Y850637D01*
X608769Y850783D01*
X611184Y850871D01*
X613600Y850900D01*
X763600Y850900D01*
X766016Y850871D01*
X768431Y850783D01*
X770843Y850637D01*
X773251Y850433D01*
X775654Y850171D01*
X778049Y849851D01*
X780436Y849473D01*
X782813Y849037D01*
X785178Y848544D01*
X787532Y847994D01*
X789871Y847388D01*
X792195Y846725D01*
X794502Y846006D01*
X796791Y845231D01*
X799060Y844402D01*
X801309Y843517D01*
X803536Y842579D01*
X805740Y841587D01*
X807919Y840543D01*
X810072Y839446D01*
X812198Y838297D01*
X814296Y837097D01*
X816364Y835847D01*
X818401Y834547D01*
X820406Y833198D01*
X822379Y831802D01*
X824316Y830358D01*
X826219Y828867D01*
X828084Y827332D01*
X829912Y825751D01*
X831702Y824127D01*
X833451Y822460D01*
X835160Y820751D01*
X836827Y819002D01*
X838451Y817212D01*
X840032Y815384D01*
X841567Y813519D01*
X843058Y811616D01*
X844502Y809679D01*
X845898Y807706D01*
X847247Y805701D01*
X848547Y803664D01*
X849797Y801596D01*
X850997Y799498D01*
X852146Y797372D01*
X853243Y795219D01*
X854287Y793040D01*
X855279Y790836D01*
X856217Y788609D01*
X857102Y786360D01*
X857931Y784091D01*
X858706Y781802D01*
X859425Y779495D01*
X860088Y777171D01*
X860694Y774832D01*
X861244Y772478D01*
X861737Y770113D01*
X862173Y767736D01*
X862551Y765349D01*
X862871Y762954D01*
X863133Y760551D01*
X863337Y758143D01*
X863483Y755731D01*
X863571Y753316D01*
X863600Y750900D01*
X863600Y400900D01*
X863571Y398484D01*
X863483Y396069D01*
X863337Y393657D01*
X863133Y391249D01*
X862871Y388846D01*
X862551Y386451D01*
X862173Y384064D01*
X861737Y381687D01*
X861244Y379322D01*
X860694Y376968D01*
X860088Y374629D01*
X859425Y372305D01*
X858706Y369998D01*
X857931Y367709D01*
X857102Y365440D01*
X856217Y363191D01*
X855279Y360964D01*
X854287Y358760D01*
X853243Y356581D01*
X852146Y354428D01*
X850997Y352302D01*
X849797Y350204D01*
X848547Y348136D01*
X847247Y346099D01*
X845898Y344094D01*
X844502Y342121D01*
X843058Y340184D01*
X841567Y338281D01*
X840032Y336416D01*
X838451Y334588D01*
X836827Y332798D01*
X835160Y331049D01*
X833451Y329340D01*
X831702Y327673D01*
X829912Y326049D01*
X828084Y324468D01*
X826219Y322933D01*
X824316Y321442D01*
X822379Y319998D01*
X820406Y318602D01*
X818401Y317253D01*
X816364Y315953D01*
X814296Y314703D01*
X812198Y313503D01*
X810072Y312354D01*
X807919Y311257D01*
X805740Y310213D01*
X803536Y309221D01*
X801309Y308283D01*
X799060Y307398D01*
X796791Y306569D01*
X794502Y305794D01*
X792195Y305075D01*
X789871Y304412D01*
X787532Y303806D01*
X785178Y303256D01*
X782813Y302763D01*
X780436Y302327D01*
X778049Y301949D01*
X775654Y301629D01*
X773251Y301367D01*
X770843Y301163D01*
X768431Y301017D01*
X766016Y300929D01*
X763600Y300900D01*
X613600Y300900D01*
X611184Y300929D01*
X608769Y301017D01*
X606357Y301163D01*
X603949Y301367D01*
X601546Y301629D01*
X599151Y301949D01*
X596764Y302327D01*
X594387Y302763D01*
X592022Y303256D01*
X589668Y303806D01*
X587329Y304412D01*
X585005Y305075D01*
X582698Y305794D01*
X580409Y306569D01*
X578140Y307398D01*
X575891Y308283D01*
X573664Y309221D01*
X571460Y310213D01*
X569281Y311257D01*
X567128Y312354D01*
X565002Y313503D01*
X562904Y314703D01*
X560836Y315953D01*
X558799Y317253D01*
X556794Y318602D01*
X554821Y319998D01*
X552884Y321442D01*
X550981Y322933D01*
X549116Y324468D01*
X547288Y326049D01*
X545498Y327673D01*
X543749Y329340D01*
X542040Y331049D01*
X540373Y332798D01*
X538749Y334588D01*
X537168Y336416D01*
X535633Y338281D01*
X534142Y340184D01*
X532698Y342121D01*
X531302Y344094D01*
X529953Y346099D01*
X528653Y348136D01*
X527403Y350204D01*
X526203Y352302D01*
X525054Y354428D01*
X523957Y356581D01*
X522913Y358760D01*
X521921Y360964D01*
X520983Y363191D01*
X520098Y365440D01*
X519269Y367709D01*
X518494Y369998D01*
X517775Y372305D01*
X517112Y374629D01*
X516506Y376968D01*
X515956Y379322D01*
X515463Y381687D01*
X515027Y384064D01*
X514649Y386451D01*
X514329Y388846D01*
X514067Y391249D01*
X513863Y393657D01*
X513717Y396069D01*
X513629Y398484D01*
X513600Y400900D01*
D12*
X686562Y516806D02*
X697738Y516806D01*
X697738Y519910D01*
X697736Y520021D01*
X697730Y520131D01*
X697720Y520242D01*
X697706Y520352D01*
X697689Y520461D01*
X697667Y520570D01*
X697642Y520678D01*
X697612Y520784D01*
X697579Y520890D01*
X697542Y520995D01*
X697502Y521098D01*
X697457Y521199D01*
X697410Y521299D01*
X697358Y521398D01*
X697303Y521494D01*
X697245Y521588D01*
X697184Y521680D01*
X697119Y521770D01*
X697051Y521858D01*
X696980Y521943D01*
X696906Y522025D01*
X696829Y522105D01*
X696749Y522182D01*
X696667Y522256D01*
X696582Y522327D01*
X696494Y522395D01*
X696404Y522460D01*
X696312Y522521D01*
X696218Y522579D01*
X696122Y522634D01*
X696023Y522686D01*
X695923Y522733D01*
X695822Y522778D01*
X695719Y522818D01*
X695614Y522855D01*
X695508Y522888D01*
X695402Y522918D01*
X695294Y522943D01*
X695185Y522965D01*
X695076Y522982D01*
X694966Y522996D01*
X694855Y523006D01*
X694745Y523012D01*
X694634Y523014D01*
X694523Y523012D01*
X694413Y523006D01*
X694302Y522996D01*
X694192Y522982D01*
X694083Y522965D01*
X693974Y522943D01*
X693866Y522918D01*
X693760Y522888D01*
X693654Y522855D01*
X693549Y522818D01*
X693446Y522778D01*
X693345Y522733D01*
X693245Y522686D01*
X693146Y522634D01*
X693050Y522579D01*
X692956Y522521D01*
X692864Y522460D01*
X692774Y522395D01*
X692686Y522327D01*
X692601Y522256D01*
X692519Y522182D01*
X692439Y522105D01*
X692362Y522025D01*
X692288Y521943D01*
X692217Y521858D01*
X692149Y521770D01*
X692084Y521680D01*
X692023Y521588D01*
X691965Y521494D01*
X691910Y521398D01*
X691858Y521299D01*
X691811Y521199D01*
X691766Y521098D01*
X691726Y520995D01*
X691689Y520890D01*
X691656Y520784D01*
X691626Y520678D01*
X691601Y520570D01*
X691579Y520461D01*
X691562Y520352D01*
X691548Y520242D01*
X691538Y520131D01*
X691532Y520021D01*
X691530Y519910D01*
X691529Y519910D02*
X691529Y516806D01*
X691529Y527502D02*
X689046Y527502D01*
X691529Y527501D02*
X691628Y527503D01*
X691726Y527509D01*
X691825Y527519D01*
X691922Y527532D01*
X692020Y527550D01*
X692116Y527571D01*
X692212Y527597D01*
X692306Y527626D01*
X692399Y527658D01*
X692491Y527695D01*
X692581Y527735D01*
X692670Y527779D01*
X692757Y527826D01*
X692842Y527876D01*
X692924Y527930D01*
X693005Y527987D01*
X693083Y528047D01*
X693159Y528111D01*
X693232Y528177D01*
X693303Y528246D01*
X693371Y528318D01*
X693435Y528393D01*
X693497Y528470D01*
X693556Y528549D01*
X693611Y528631D01*
X693664Y528715D01*
X693712Y528800D01*
X693758Y528888D01*
X693800Y528978D01*
X693838Y529069D01*
X693872Y529161D01*
X693903Y529255D01*
X693930Y529350D01*
X693954Y529446D01*
X693973Y529543D01*
X693989Y529640D01*
X694001Y529738D01*
X694009Y529837D01*
X694013Y529936D01*
X694013Y530034D01*
X694009Y530133D01*
X694001Y530232D01*
X693989Y530330D01*
X693973Y530427D01*
X693954Y530524D01*
X693930Y530620D01*
X693903Y530715D01*
X693872Y530809D01*
X693838Y530901D01*
X693800Y530992D01*
X693758Y531082D01*
X693712Y531170D01*
X693664Y531255D01*
X693611Y531339D01*
X693556Y531421D01*
X693497Y531500D01*
X693435Y531577D01*
X693371Y531652D01*
X693303Y531724D01*
X693232Y531793D01*
X693159Y531859D01*
X693083Y531923D01*
X693005Y531983D01*
X692924Y532040D01*
X692842Y532094D01*
X692757Y532144D01*
X692670Y532191D01*
X692581Y532235D01*
X692491Y532275D01*
X692399Y532312D01*
X692306Y532344D01*
X692212Y532373D01*
X692116Y532399D01*
X692020Y532420D01*
X691922Y532438D01*
X691825Y532451D01*
X691726Y532461D01*
X691628Y532467D01*
X691529Y532469D01*
X689046Y532469D01*
X688947Y532467D01*
X688849Y532461D01*
X688750Y532451D01*
X688653Y532438D01*
X688555Y532420D01*
X688459Y532399D01*
X688363Y532373D01*
X688269Y532344D01*
X688176Y532312D01*
X688084Y532275D01*
X687994Y532235D01*
X687905Y532191D01*
X687818Y532144D01*
X687733Y532094D01*
X687651Y532040D01*
X687570Y531983D01*
X687492Y531923D01*
X687416Y531859D01*
X687343Y531793D01*
X687272Y531724D01*
X687204Y531652D01*
X687140Y531577D01*
X687078Y531500D01*
X687019Y531421D01*
X686964Y531339D01*
X686911Y531255D01*
X686863Y531170D01*
X686817Y531082D01*
X686775Y530992D01*
X686737Y530901D01*
X686703Y530809D01*
X686672Y530715D01*
X686645Y530620D01*
X686621Y530524D01*
X686602Y530427D01*
X686586Y530330D01*
X686574Y530232D01*
X686566Y530133D01*
X686562Y530034D01*
X686562Y529936D01*
X686566Y529837D01*
X686574Y529738D01*
X686586Y529640D01*
X686602Y529543D01*
X686621Y529446D01*
X686645Y529350D01*
X686672Y529255D01*
X686703Y529161D01*
X686737Y529069D01*
X686775Y528978D01*
X686817Y528888D01*
X686863Y528800D01*
X686911Y528715D01*
X686964Y528631D01*
X687019Y528549D01*
X687078Y528470D01*
X687140Y528393D01*
X687204Y528318D01*
X687272Y528246D01*
X687343Y528177D01*
X687416Y528111D01*
X687492Y528047D01*
X687570Y527987D01*
X687651Y527930D01*
X687733Y527876D01*
X687818Y527826D01*
X687905Y527779D01*
X687994Y527735D01*
X688084Y527695D01*
X688176Y527658D01*
X688269Y527626D01*
X688363Y527597D01*
X688459Y527571D01*
X688555Y527550D01*
X688653Y527532D01*
X688750Y527519D01*
X688849Y527509D01*
X688947Y527503D01*
X689046Y527501D01*
X686562Y539287D02*
X686562Y541770D01*
X686562Y539287D02*
X686564Y539203D01*
X686569Y539120D01*
X686579Y539037D01*
X686592Y538954D01*
X686609Y538872D01*
X686629Y538791D01*
X686653Y538711D01*
X686681Y538632D01*
X686712Y538555D01*
X686746Y538479D01*
X686784Y538404D01*
X686826Y538331D01*
X686870Y538261D01*
X686918Y538192D01*
X686968Y538125D01*
X687022Y538061D01*
X687078Y538000D01*
X687138Y537940D01*
X687199Y537884D01*
X687263Y537830D01*
X687330Y537780D01*
X687399Y537732D01*
X687469Y537688D01*
X687542Y537646D01*
X687617Y537608D01*
X687693Y537574D01*
X687770Y537543D01*
X687849Y537515D01*
X687929Y537491D01*
X688010Y537471D01*
X688092Y537454D01*
X688175Y537441D01*
X688258Y537431D01*
X688341Y537426D01*
X688425Y537424D01*
X692150Y537424D01*
X692234Y537426D01*
X692317Y537432D01*
X692400Y537441D01*
X692483Y537454D01*
X692565Y537471D01*
X692646Y537491D01*
X692726Y537515D01*
X692805Y537543D01*
X692882Y537574D01*
X692958Y537608D01*
X693033Y537646D01*
X693106Y537688D01*
X693176Y537732D01*
X693245Y537780D01*
X693312Y537830D01*
X693376Y537884D01*
X693437Y537940D01*
X693497Y538000D01*
X693553Y538061D01*
X693607Y538125D01*
X693657Y538192D01*
X693705Y538261D01*
X693749Y538331D01*
X693791Y538404D01*
X693829Y538479D01*
X693863Y538555D01*
X693894Y538632D01*
X693922Y538711D01*
X693946Y538791D01*
X693966Y538872D01*
X693983Y538954D01*
X693996Y539037D01*
X694006Y539120D01*
X694011Y539203D01*
X694013Y539287D01*
X694013Y541770D01*
X697738Y546721D02*
X686562Y546721D01*
X690287Y546721D02*
X694013Y551688D01*
X691840Y548894D02*
X686562Y551688D01*
X686562Y557939D02*
X686562Y561044D01*
X686562Y557939D02*
X686564Y557855D01*
X686569Y557772D01*
X686579Y557689D01*
X686592Y557606D01*
X686609Y557524D01*
X686629Y557443D01*
X686653Y557363D01*
X686681Y557284D01*
X686712Y557207D01*
X686746Y557131D01*
X686784Y557056D01*
X686826Y556983D01*
X686870Y556913D01*
X686918Y556844D01*
X686968Y556777D01*
X687022Y556713D01*
X687078Y556652D01*
X687138Y556592D01*
X687199Y556536D01*
X687263Y556482D01*
X687330Y556432D01*
X687399Y556384D01*
X687469Y556340D01*
X687542Y556298D01*
X687617Y556260D01*
X687693Y556226D01*
X687770Y556195D01*
X687849Y556167D01*
X687929Y556143D01*
X688010Y556123D01*
X688092Y556106D01*
X688175Y556093D01*
X688258Y556083D01*
X688341Y556078D01*
X688425Y556076D01*
X688425Y556077D02*
X691529Y556077D01*
X691529Y556076D02*
X691628Y556078D01*
X691726Y556084D01*
X691825Y556094D01*
X691922Y556107D01*
X692020Y556125D01*
X692116Y556146D01*
X692212Y556172D01*
X692306Y556201D01*
X692399Y556233D01*
X692491Y556270D01*
X692581Y556310D01*
X692670Y556354D01*
X692757Y556401D01*
X692842Y556451D01*
X692924Y556505D01*
X693005Y556562D01*
X693083Y556622D01*
X693159Y556686D01*
X693232Y556752D01*
X693303Y556821D01*
X693371Y556893D01*
X693435Y556968D01*
X693497Y557045D01*
X693556Y557124D01*
X693611Y557206D01*
X693664Y557290D01*
X693712Y557375D01*
X693758Y557463D01*
X693800Y557553D01*
X693838Y557644D01*
X693872Y557736D01*
X693903Y557830D01*
X693930Y557925D01*
X693954Y558021D01*
X693973Y558118D01*
X693989Y558215D01*
X694001Y558313D01*
X694009Y558412D01*
X694013Y558511D01*
X694013Y558609D01*
X694009Y558708D01*
X694001Y558807D01*
X693989Y558905D01*
X693973Y559002D01*
X693954Y559099D01*
X693930Y559195D01*
X693903Y559290D01*
X693872Y559384D01*
X693838Y559476D01*
X693800Y559567D01*
X693758Y559657D01*
X693712Y559745D01*
X693664Y559830D01*
X693611Y559914D01*
X693556Y559996D01*
X693497Y560075D01*
X693435Y560152D01*
X693371Y560227D01*
X693303Y560299D01*
X693232Y560368D01*
X693159Y560434D01*
X693083Y560498D01*
X693005Y560558D01*
X692924Y560615D01*
X692842Y560669D01*
X692757Y560719D01*
X692670Y560766D01*
X692581Y560810D01*
X692491Y560850D01*
X692399Y560887D01*
X692306Y560919D01*
X692212Y560948D01*
X692116Y560974D01*
X692020Y560995D01*
X691922Y561013D01*
X691825Y561026D01*
X691726Y561036D01*
X691628Y561042D01*
X691529Y561044D01*
X690287Y561044D01*
X690287Y556077D01*
X694013Y564964D02*
X694013Y568689D01*
X697738Y566206D02*
X688425Y566206D01*
X688425Y566205D02*
X688341Y566207D01*
X688258Y566212D01*
X688175Y566222D01*
X688092Y566235D01*
X688010Y566252D01*
X687929Y566272D01*
X687849Y566296D01*
X687770Y566324D01*
X687693Y566355D01*
X687617Y566389D01*
X687542Y566427D01*
X687469Y566469D01*
X687399Y566513D01*
X687330Y566561D01*
X687263Y566611D01*
X687199Y566665D01*
X687138Y566721D01*
X687078Y566781D01*
X687022Y566842D01*
X686968Y566906D01*
X686918Y566973D01*
X686870Y567042D01*
X686826Y567112D01*
X686784Y567185D01*
X686746Y567260D01*
X686712Y567336D01*
X686681Y567413D01*
X686653Y567492D01*
X686629Y567572D01*
X686609Y567653D01*
X686592Y567735D01*
X686579Y567818D01*
X686569Y567901D01*
X686564Y567984D01*
X686562Y568068D01*
X686562Y568689D01*
X692771Y573955D02*
X692771Y577060D01*
X692770Y577060D02*
X692768Y577171D01*
X692762Y577281D01*
X692752Y577392D01*
X692738Y577502D01*
X692721Y577611D01*
X692699Y577720D01*
X692674Y577828D01*
X692644Y577934D01*
X692611Y578040D01*
X692574Y578145D01*
X692534Y578248D01*
X692489Y578349D01*
X692442Y578449D01*
X692390Y578548D01*
X692335Y578644D01*
X692277Y578738D01*
X692216Y578830D01*
X692151Y578920D01*
X692083Y579008D01*
X692012Y579093D01*
X691938Y579175D01*
X691861Y579255D01*
X691781Y579332D01*
X691699Y579406D01*
X691614Y579477D01*
X691526Y579545D01*
X691436Y579610D01*
X691344Y579671D01*
X691250Y579729D01*
X691154Y579784D01*
X691055Y579836D01*
X690955Y579883D01*
X690854Y579928D01*
X690751Y579968D01*
X690646Y580005D01*
X690540Y580038D01*
X690434Y580068D01*
X690326Y580093D01*
X690217Y580115D01*
X690108Y580132D01*
X689998Y580146D01*
X689887Y580156D01*
X689777Y580162D01*
X689666Y580164D01*
X689555Y580162D01*
X689445Y580156D01*
X689334Y580146D01*
X689224Y580132D01*
X689115Y580115D01*
X689006Y580093D01*
X688898Y580068D01*
X688792Y580038D01*
X688686Y580005D01*
X688581Y579968D01*
X688478Y579928D01*
X688377Y579883D01*
X688277Y579836D01*
X688178Y579784D01*
X688082Y579729D01*
X687988Y579671D01*
X687896Y579610D01*
X687806Y579545D01*
X687718Y579477D01*
X687633Y579406D01*
X687551Y579332D01*
X687471Y579255D01*
X687394Y579175D01*
X687320Y579093D01*
X687249Y579008D01*
X687181Y578920D01*
X687116Y578830D01*
X687055Y578738D01*
X686997Y578644D01*
X686942Y578548D01*
X686890Y578449D01*
X686843Y578349D01*
X686798Y578248D01*
X686758Y578145D01*
X686721Y578040D01*
X686688Y577934D01*
X686658Y577828D01*
X686633Y577720D01*
X686611Y577611D01*
X686594Y577502D01*
X686580Y577392D01*
X686570Y577281D01*
X686564Y577171D01*
X686562Y577060D01*
X686562Y573955D01*
X697738Y573955D01*
X697738Y577060D01*
X697736Y577159D01*
X697730Y577257D01*
X697720Y577356D01*
X697707Y577453D01*
X697689Y577551D01*
X697668Y577647D01*
X697642Y577743D01*
X697613Y577837D01*
X697581Y577930D01*
X697544Y578022D01*
X697504Y578112D01*
X697460Y578201D01*
X697413Y578288D01*
X697363Y578373D01*
X697309Y578455D01*
X697252Y578536D01*
X697192Y578614D01*
X697128Y578690D01*
X697062Y578763D01*
X696993Y578834D01*
X696921Y578902D01*
X696846Y578966D01*
X696769Y579028D01*
X696690Y579087D01*
X696608Y579142D01*
X696524Y579195D01*
X696439Y579243D01*
X696351Y579289D01*
X696261Y579331D01*
X696170Y579369D01*
X696078Y579403D01*
X695984Y579434D01*
X695889Y579461D01*
X695793Y579485D01*
X695696Y579504D01*
X695599Y579520D01*
X695501Y579532D01*
X695402Y579540D01*
X695303Y579544D01*
X695205Y579544D01*
X695106Y579540D01*
X695007Y579532D01*
X694909Y579520D01*
X694812Y579504D01*
X694715Y579485D01*
X694619Y579461D01*
X694524Y579434D01*
X694430Y579403D01*
X694338Y579369D01*
X694247Y579331D01*
X694157Y579289D01*
X694069Y579243D01*
X693984Y579195D01*
X693900Y579142D01*
X693818Y579087D01*
X693739Y579028D01*
X693662Y578966D01*
X693587Y578902D01*
X693515Y578834D01*
X693446Y578763D01*
X693380Y578690D01*
X693316Y578614D01*
X693256Y578536D01*
X693199Y578455D01*
X693145Y578373D01*
X693095Y578288D01*
X693048Y578201D01*
X693004Y578112D01*
X692964Y578022D01*
X692927Y577930D01*
X692895Y577837D01*
X692866Y577743D01*
X692840Y577647D01*
X692819Y577551D01*
X692801Y577453D01*
X692788Y577356D01*
X692778Y577257D01*
X692772Y577159D01*
X692770Y577060D01*
X686562Y586514D02*
X686562Y589619D01*
X686562Y586514D02*
X686564Y586430D01*
X686569Y586347D01*
X686579Y586264D01*
X686592Y586181D01*
X686609Y586099D01*
X686629Y586018D01*
X686653Y585938D01*
X686681Y585859D01*
X686712Y585782D01*
X686746Y585706D01*
X686784Y585631D01*
X686826Y585558D01*
X686870Y585488D01*
X686918Y585419D01*
X686968Y585352D01*
X687022Y585288D01*
X687078Y585227D01*
X687138Y585167D01*
X687199Y585111D01*
X687263Y585057D01*
X687330Y585007D01*
X687399Y584959D01*
X687469Y584915D01*
X687542Y584873D01*
X687617Y584835D01*
X687693Y584801D01*
X687770Y584770D01*
X687849Y584742D01*
X687929Y584718D01*
X688010Y584698D01*
X688092Y584681D01*
X688175Y584668D01*
X688258Y584658D01*
X688341Y584653D01*
X688425Y584651D01*
X688425Y584652D02*
X691529Y584652D01*
X691529Y584651D02*
X691628Y584653D01*
X691726Y584659D01*
X691825Y584669D01*
X691922Y584682D01*
X692020Y584700D01*
X692116Y584721D01*
X692212Y584747D01*
X692306Y584776D01*
X692399Y584808D01*
X692491Y584845D01*
X692581Y584885D01*
X692670Y584929D01*
X692757Y584976D01*
X692842Y585026D01*
X692924Y585080D01*
X693005Y585137D01*
X693083Y585197D01*
X693159Y585261D01*
X693232Y585327D01*
X693303Y585396D01*
X693371Y585468D01*
X693435Y585543D01*
X693497Y585620D01*
X693556Y585699D01*
X693611Y585781D01*
X693664Y585865D01*
X693712Y585950D01*
X693758Y586038D01*
X693800Y586128D01*
X693838Y586219D01*
X693872Y586311D01*
X693903Y586405D01*
X693930Y586500D01*
X693954Y586596D01*
X693973Y586693D01*
X693989Y586790D01*
X694001Y586888D01*
X694009Y586987D01*
X694013Y587086D01*
X694013Y587184D01*
X694009Y587283D01*
X694001Y587382D01*
X693989Y587480D01*
X693973Y587577D01*
X693954Y587674D01*
X693930Y587770D01*
X693903Y587865D01*
X693872Y587959D01*
X693838Y588051D01*
X693800Y588142D01*
X693758Y588232D01*
X693712Y588320D01*
X693664Y588405D01*
X693611Y588489D01*
X693556Y588571D01*
X693497Y588650D01*
X693435Y588727D01*
X693371Y588802D01*
X693303Y588874D01*
X693232Y588943D01*
X693159Y589009D01*
X693083Y589073D01*
X693005Y589133D01*
X692924Y589190D01*
X692842Y589244D01*
X692757Y589294D01*
X692670Y589341D01*
X692581Y589385D01*
X692491Y589425D01*
X692399Y589462D01*
X692306Y589494D01*
X692212Y589523D01*
X692116Y589549D01*
X692020Y589570D01*
X691922Y589588D01*
X691825Y589601D01*
X691726Y589611D01*
X691628Y589617D01*
X691529Y589619D01*
X690287Y589619D01*
X690287Y584652D01*
X690908Y596657D02*
X690908Y599451D01*
X690908Y596657D02*
X690906Y596565D01*
X690900Y596473D01*
X690890Y596381D01*
X690877Y596290D01*
X690859Y596199D01*
X690838Y596109D01*
X690813Y596021D01*
X690784Y595933D01*
X690751Y595847D01*
X690715Y595762D01*
X690675Y595679D01*
X690632Y595597D01*
X690585Y595518D01*
X690535Y595440D01*
X690482Y595365D01*
X690426Y595292D01*
X690366Y595221D01*
X690304Y595153D01*
X690239Y595088D01*
X690171Y595026D01*
X690100Y594966D01*
X690027Y594910D01*
X689952Y594857D01*
X689874Y594807D01*
X689795Y594760D01*
X689713Y594717D01*
X689630Y594677D01*
X689545Y594641D01*
X689459Y594608D01*
X689371Y594579D01*
X689283Y594554D01*
X689193Y594533D01*
X689102Y594515D01*
X689011Y594502D01*
X688919Y594492D01*
X688827Y594486D01*
X688735Y594484D01*
X688643Y594486D01*
X688551Y594492D01*
X688459Y594502D01*
X688368Y594515D01*
X688277Y594533D01*
X688187Y594554D01*
X688099Y594579D01*
X688011Y594608D01*
X687925Y594641D01*
X687840Y594677D01*
X687757Y594717D01*
X687675Y594760D01*
X687596Y594807D01*
X687518Y594857D01*
X687443Y594910D01*
X687370Y594966D01*
X687299Y595026D01*
X687231Y595088D01*
X687166Y595153D01*
X687104Y595221D01*
X687044Y595292D01*
X686988Y595365D01*
X686935Y595440D01*
X686885Y595518D01*
X686838Y595597D01*
X686795Y595679D01*
X686755Y595762D01*
X686719Y595847D01*
X686686Y595933D01*
X686657Y596021D01*
X686632Y596109D01*
X686611Y596199D01*
X686593Y596290D01*
X686580Y596381D01*
X686570Y596473D01*
X686564Y596565D01*
X686562Y596657D01*
X686562Y599451D01*
X692150Y599451D01*
X692234Y599449D01*
X692317Y599444D01*
X692400Y599434D01*
X692483Y599421D01*
X692565Y599404D01*
X692646Y599384D01*
X692726Y599360D01*
X692805Y599332D01*
X692882Y599301D01*
X692958Y599267D01*
X693033Y599229D01*
X693106Y599187D01*
X693176Y599143D01*
X693245Y599095D01*
X693312Y599045D01*
X693376Y598991D01*
X693437Y598935D01*
X693497Y598875D01*
X693553Y598814D01*
X693607Y598750D01*
X693657Y598683D01*
X693705Y598614D01*
X693749Y598544D01*
X693791Y598471D01*
X693829Y598396D01*
X693863Y598320D01*
X693894Y598243D01*
X693922Y598164D01*
X693946Y598084D01*
X693966Y598003D01*
X693983Y597921D01*
X693996Y597838D01*
X694006Y597755D01*
X694011Y597672D01*
X694013Y597588D01*
X694013Y595105D01*
X686562Y606633D02*
X686562Y609738D01*
X686562Y606633D02*
X686564Y606549D01*
X686569Y606466D01*
X686579Y606383D01*
X686592Y606300D01*
X686609Y606218D01*
X686629Y606137D01*
X686653Y606057D01*
X686681Y605978D01*
X686712Y605901D01*
X686746Y605825D01*
X686784Y605750D01*
X686826Y605677D01*
X686870Y605607D01*
X686918Y605538D01*
X686968Y605471D01*
X687022Y605407D01*
X687078Y605346D01*
X687138Y605286D01*
X687199Y605230D01*
X687263Y605176D01*
X687330Y605126D01*
X687399Y605078D01*
X687469Y605034D01*
X687542Y604992D01*
X687617Y604954D01*
X687693Y604920D01*
X687770Y604889D01*
X687849Y604861D01*
X687929Y604837D01*
X688010Y604817D01*
X688092Y604800D01*
X688175Y604787D01*
X688258Y604777D01*
X688341Y604772D01*
X688425Y604770D01*
X688425Y604771D02*
X692150Y604771D01*
X692150Y604770D02*
X692234Y604772D01*
X692317Y604778D01*
X692400Y604787D01*
X692483Y604800D01*
X692565Y604817D01*
X692646Y604837D01*
X692726Y604861D01*
X692805Y604889D01*
X692882Y604920D01*
X692958Y604954D01*
X693033Y604992D01*
X693106Y605034D01*
X693176Y605078D01*
X693245Y605126D01*
X693312Y605176D01*
X693376Y605230D01*
X693437Y605286D01*
X693497Y605346D01*
X693553Y605407D01*
X693607Y605471D01*
X693657Y605538D01*
X693705Y605607D01*
X693749Y605677D01*
X693791Y605750D01*
X693829Y605825D01*
X693863Y605901D01*
X693894Y605978D01*
X693922Y606057D01*
X693946Y606137D01*
X693966Y606218D01*
X693983Y606300D01*
X693996Y606383D01*
X694006Y606466D01*
X694011Y606549D01*
X694013Y606633D01*
X694013Y609738D01*
X684699Y609738D01*
X684613Y609736D01*
X684527Y609730D01*
X684442Y609720D01*
X684357Y609706D01*
X684272Y609689D01*
X684189Y609667D01*
X684107Y609641D01*
X684026Y609612D01*
X683947Y609579D01*
X683869Y609543D01*
X683792Y609503D01*
X683718Y609459D01*
X683646Y609412D01*
X683576Y609362D01*
X683509Y609308D01*
X683444Y609252D01*
X683382Y609192D01*
X683322Y609130D01*
X683266Y609065D01*
X683212Y608998D01*
X683162Y608928D01*
X683115Y608856D01*
X683071Y608782D01*
X683031Y608705D01*
X682995Y608628D01*
X682962Y608548D01*
X682933Y608467D01*
X682907Y608385D01*
X682885Y608302D01*
X682868Y608217D01*
X682854Y608132D01*
X682844Y608047D01*
X682838Y607961D01*
X682836Y607875D01*
X682837Y607875D02*
X682837Y605392D01*
X688425Y615223D02*
X697738Y615223D01*
X688425Y615223D02*
X688341Y615225D01*
X688258Y615230D01*
X688175Y615240D01*
X688092Y615253D01*
X688010Y615270D01*
X687929Y615290D01*
X687849Y615314D01*
X687770Y615342D01*
X687693Y615373D01*
X687617Y615407D01*
X687542Y615445D01*
X687469Y615487D01*
X687399Y615531D01*
X687330Y615579D01*
X687263Y615629D01*
X687199Y615683D01*
X687138Y615739D01*
X687078Y615799D01*
X687022Y615860D01*
X686968Y615924D01*
X686918Y615991D01*
X686870Y616060D01*
X686826Y616130D01*
X686784Y616203D01*
X686746Y616278D01*
X686712Y616354D01*
X686681Y616431D01*
X686653Y616510D01*
X686629Y616590D01*
X686609Y616671D01*
X686592Y616753D01*
X686579Y616836D01*
X686569Y616919D01*
X686564Y617002D01*
X686562Y617086D01*
X686562Y623090D02*
X686562Y626194D01*
X686562Y623090D02*
X686564Y623006D01*
X686569Y622923D01*
X686579Y622840D01*
X686592Y622757D01*
X686609Y622675D01*
X686629Y622594D01*
X686653Y622514D01*
X686681Y622435D01*
X686712Y622358D01*
X686746Y622282D01*
X686784Y622207D01*
X686826Y622134D01*
X686870Y622064D01*
X686918Y621995D01*
X686968Y621928D01*
X687022Y621864D01*
X687078Y621803D01*
X687138Y621743D01*
X687199Y621687D01*
X687263Y621633D01*
X687330Y621583D01*
X687399Y621535D01*
X687469Y621491D01*
X687542Y621449D01*
X687617Y621411D01*
X687693Y621377D01*
X687770Y621346D01*
X687849Y621318D01*
X687929Y621294D01*
X688010Y621274D01*
X688092Y621257D01*
X688175Y621244D01*
X688258Y621234D01*
X688341Y621229D01*
X688425Y621227D01*
X691529Y621227D01*
X691628Y621229D01*
X691726Y621235D01*
X691825Y621245D01*
X691922Y621258D01*
X692020Y621276D01*
X692116Y621297D01*
X692212Y621323D01*
X692306Y621352D01*
X692399Y621384D01*
X692491Y621421D01*
X692581Y621461D01*
X692670Y621505D01*
X692757Y621552D01*
X692842Y621602D01*
X692924Y621656D01*
X693005Y621713D01*
X693083Y621773D01*
X693159Y621837D01*
X693232Y621903D01*
X693303Y621972D01*
X693371Y622044D01*
X693435Y622119D01*
X693497Y622196D01*
X693556Y622275D01*
X693611Y622357D01*
X693664Y622441D01*
X693712Y622526D01*
X693758Y622614D01*
X693800Y622704D01*
X693838Y622795D01*
X693872Y622887D01*
X693903Y622981D01*
X693930Y623076D01*
X693954Y623172D01*
X693973Y623269D01*
X693989Y623366D01*
X694001Y623464D01*
X694009Y623563D01*
X694013Y623662D01*
X694013Y623760D01*
X694009Y623859D01*
X694001Y623958D01*
X693989Y624056D01*
X693973Y624153D01*
X693954Y624250D01*
X693930Y624346D01*
X693903Y624441D01*
X693872Y624535D01*
X693838Y624627D01*
X693800Y624718D01*
X693758Y624808D01*
X693712Y624896D01*
X693664Y624981D01*
X693611Y625065D01*
X693556Y625147D01*
X693497Y625226D01*
X693435Y625303D01*
X693371Y625378D01*
X693303Y625450D01*
X693232Y625519D01*
X693159Y625585D01*
X693083Y625649D01*
X693005Y625709D01*
X692924Y625766D01*
X692842Y625820D01*
X692757Y625870D01*
X692670Y625917D01*
X692581Y625961D01*
X692491Y626001D01*
X692399Y626038D01*
X692306Y626070D01*
X692212Y626099D01*
X692116Y626125D01*
X692020Y626146D01*
X691922Y626164D01*
X691825Y626177D01*
X691726Y626187D01*
X691628Y626193D01*
X691529Y626195D01*
X691529Y626194D02*
X690287Y626194D01*
X690287Y621227D01*
X570738Y804277D02*
X559562Y804277D01*
X570738Y804277D02*
X570738Y807381D01*
X570736Y807492D01*
X570730Y807602D01*
X570720Y807713D01*
X570706Y807823D01*
X570689Y807932D01*
X570667Y808041D01*
X570642Y808149D01*
X570612Y808255D01*
X570579Y808361D01*
X570542Y808466D01*
X570502Y808569D01*
X570457Y808670D01*
X570410Y808770D01*
X570358Y808869D01*
X570303Y808965D01*
X570245Y809059D01*
X570184Y809151D01*
X570119Y809241D01*
X570051Y809329D01*
X569980Y809414D01*
X569906Y809496D01*
X569829Y809576D01*
X569749Y809653D01*
X569667Y809727D01*
X569582Y809798D01*
X569494Y809866D01*
X569404Y809931D01*
X569312Y809992D01*
X569218Y810050D01*
X569122Y810105D01*
X569023Y810157D01*
X568923Y810204D01*
X568822Y810249D01*
X568719Y810289D01*
X568614Y810326D01*
X568508Y810359D01*
X568402Y810389D01*
X568294Y810414D01*
X568185Y810436D01*
X568076Y810453D01*
X567966Y810467D01*
X567855Y810477D01*
X567745Y810483D01*
X567634Y810485D01*
X567523Y810483D01*
X567413Y810477D01*
X567302Y810467D01*
X567192Y810453D01*
X567083Y810436D01*
X566974Y810414D01*
X566866Y810389D01*
X566760Y810359D01*
X566654Y810326D01*
X566549Y810289D01*
X566446Y810249D01*
X566345Y810204D01*
X566245Y810157D01*
X566146Y810105D01*
X566050Y810050D01*
X565956Y809992D01*
X565864Y809931D01*
X565774Y809866D01*
X565686Y809798D01*
X565601Y809727D01*
X565519Y809653D01*
X565439Y809576D01*
X565362Y809496D01*
X565288Y809414D01*
X565217Y809329D01*
X565149Y809241D01*
X565084Y809151D01*
X565023Y809059D01*
X564965Y808965D01*
X564910Y808869D01*
X564858Y808770D01*
X564811Y808670D01*
X564766Y808569D01*
X564726Y808466D01*
X564689Y808361D01*
X564656Y808255D01*
X564626Y808149D01*
X564601Y808041D01*
X564579Y807932D01*
X564562Y807823D01*
X564548Y807713D01*
X564538Y807602D01*
X564532Y807492D01*
X564530Y807381D01*
X564529Y807381D02*
X564529Y804277D01*
X570738Y818529D02*
X570736Y818633D01*
X570730Y818738D01*
X570720Y818842D01*
X570707Y818945D01*
X570689Y819048D01*
X570668Y819151D01*
X570643Y819252D01*
X570614Y819353D01*
X570581Y819452D01*
X570545Y819550D01*
X570505Y819646D01*
X570461Y819741D01*
X570414Y819835D01*
X570364Y819926D01*
X570310Y820015D01*
X570253Y820103D01*
X570192Y820188D01*
X570128Y820271D01*
X570062Y820351D01*
X569992Y820429D01*
X569920Y820505D01*
X569844Y820577D01*
X569766Y820647D01*
X569686Y820713D01*
X569603Y820777D01*
X569518Y820838D01*
X569430Y820895D01*
X569341Y820949D01*
X569250Y820999D01*
X569156Y821046D01*
X569061Y821090D01*
X568965Y821130D01*
X568867Y821166D01*
X568768Y821199D01*
X568667Y821228D01*
X568566Y821253D01*
X568463Y821274D01*
X568360Y821292D01*
X568257Y821305D01*
X568153Y821315D01*
X568048Y821321D01*
X567944Y821323D01*
X570739Y818529D02*
X570737Y818410D01*
X570731Y818292D01*
X570721Y818173D01*
X570708Y818055D01*
X570690Y817938D01*
X570668Y817821D01*
X570643Y817705D01*
X570614Y817590D01*
X570581Y817475D01*
X570544Y817362D01*
X570504Y817251D01*
X570460Y817140D01*
X570412Y817032D01*
X570361Y816925D01*
X570306Y816819D01*
X570247Y816716D01*
X570186Y816614D01*
X570121Y816515D01*
X570052Y816417D01*
X569981Y816323D01*
X569906Y816230D01*
X569829Y816140D01*
X569748Y816053D01*
X569665Y815968D01*
X569579Y815886D01*
X569490Y815807D01*
X569399Y815731D01*
X569305Y815658D01*
X569209Y815589D01*
X569110Y815522D01*
X569010Y815459D01*
X568907Y815399D01*
X568803Y815342D01*
X568696Y815290D01*
X568588Y815240D01*
X568479Y815194D01*
X568367Y815152D01*
X568255Y815114D01*
X565771Y820392D02*
X565845Y820467D01*
X565922Y820539D01*
X566001Y820609D01*
X566083Y820676D01*
X566167Y820740D01*
X566253Y820801D01*
X566341Y820859D01*
X566432Y820914D01*
X566524Y820966D01*
X566618Y821014D01*
X566713Y821059D01*
X566811Y821101D01*
X566909Y821139D01*
X567009Y821174D01*
X567110Y821205D01*
X567212Y821232D01*
X567315Y821256D01*
X567418Y821277D01*
X567523Y821293D01*
X567628Y821306D01*
X567733Y821316D01*
X567838Y821321D01*
X567944Y821323D01*
X565771Y820392D02*
X559562Y815114D01*
X559562Y821323D01*
X800862Y804277D02*
X812038Y804277D01*
X812038Y807381D01*
X812036Y807492D01*
X812030Y807602D01*
X812020Y807713D01*
X812006Y807823D01*
X811989Y807932D01*
X811967Y808041D01*
X811942Y808149D01*
X811912Y808255D01*
X811879Y808361D01*
X811842Y808466D01*
X811802Y808569D01*
X811757Y808670D01*
X811710Y808770D01*
X811658Y808869D01*
X811603Y808965D01*
X811545Y809059D01*
X811484Y809151D01*
X811419Y809241D01*
X811351Y809329D01*
X811280Y809414D01*
X811206Y809496D01*
X811129Y809576D01*
X811049Y809653D01*
X810967Y809727D01*
X810882Y809798D01*
X810794Y809866D01*
X810704Y809931D01*
X810612Y809992D01*
X810518Y810050D01*
X810422Y810105D01*
X810323Y810157D01*
X810223Y810204D01*
X810122Y810249D01*
X810019Y810289D01*
X809914Y810326D01*
X809808Y810359D01*
X809702Y810389D01*
X809594Y810414D01*
X809485Y810436D01*
X809376Y810453D01*
X809266Y810467D01*
X809155Y810477D01*
X809045Y810483D01*
X808934Y810485D01*
X808823Y810483D01*
X808713Y810477D01*
X808602Y810467D01*
X808492Y810453D01*
X808383Y810436D01*
X808274Y810414D01*
X808166Y810389D01*
X808060Y810359D01*
X807954Y810326D01*
X807849Y810289D01*
X807746Y810249D01*
X807645Y810204D01*
X807545Y810157D01*
X807446Y810105D01*
X807350Y810050D01*
X807256Y809992D01*
X807164Y809931D01*
X807074Y809866D01*
X806986Y809798D01*
X806901Y809727D01*
X806819Y809653D01*
X806739Y809576D01*
X806662Y809496D01*
X806588Y809414D01*
X806517Y809329D01*
X806449Y809241D01*
X806384Y809151D01*
X806323Y809059D01*
X806265Y808965D01*
X806210Y808869D01*
X806158Y808770D01*
X806111Y808670D01*
X806066Y808569D01*
X806026Y808466D01*
X805989Y808361D01*
X805956Y808255D01*
X805926Y808149D01*
X805901Y808041D01*
X805879Y807932D01*
X805862Y807823D01*
X805848Y807713D01*
X805838Y807602D01*
X805832Y807492D01*
X805830Y807381D01*
X805829Y807381D02*
X805829Y804277D01*
X809554Y815114D02*
X812038Y818219D01*
X800862Y818219D01*
X800862Y821323D02*
X800862Y815114D01*
X722849Y826262D02*
X722849Y833713D01*
X717261Y833713D01*
X717175Y833711D01*
X717089Y833705D01*
X717004Y833695D01*
X716919Y833681D01*
X716834Y833664D01*
X716751Y833642D01*
X716669Y833616D01*
X716588Y833587D01*
X716509Y833554D01*
X716431Y833518D01*
X716354Y833478D01*
X716280Y833434D01*
X716208Y833387D01*
X716138Y833337D01*
X716071Y833283D01*
X716006Y833227D01*
X715944Y833167D01*
X715884Y833105D01*
X715828Y833040D01*
X715774Y832973D01*
X715724Y832903D01*
X715677Y832831D01*
X715633Y832757D01*
X715593Y832680D01*
X715557Y832603D01*
X715524Y832523D01*
X715495Y832442D01*
X715469Y832360D01*
X715447Y832277D01*
X715430Y832192D01*
X715416Y832107D01*
X715406Y832022D01*
X715400Y831936D01*
X715398Y831850D01*
X715398Y826262D01*
X719123Y826262D02*
X719123Y833713D01*
X709979Y833713D02*
X709979Y826262D01*
X710290Y836817D02*
X710290Y837438D01*
X709669Y837438D01*
X709669Y836817D01*
X710290Y836817D01*
X703345Y826262D02*
X700861Y826262D01*
X703345Y826262D02*
X703429Y826264D01*
X703512Y826270D01*
X703595Y826279D01*
X703678Y826292D01*
X703760Y826309D01*
X703841Y826329D01*
X703921Y826353D01*
X704000Y826381D01*
X704077Y826412D01*
X704153Y826446D01*
X704228Y826484D01*
X704301Y826526D01*
X704371Y826570D01*
X704440Y826618D01*
X704507Y826668D01*
X704571Y826722D01*
X704632Y826778D01*
X704692Y826838D01*
X704748Y826899D01*
X704802Y826963D01*
X704852Y827030D01*
X704900Y827099D01*
X704944Y827169D01*
X704986Y827242D01*
X705024Y827317D01*
X705058Y827393D01*
X705089Y827470D01*
X705117Y827549D01*
X705141Y827629D01*
X705161Y827710D01*
X705178Y827792D01*
X705191Y827875D01*
X705201Y827958D01*
X705206Y828041D01*
X705208Y828125D01*
X705207Y828125D02*
X705207Y831850D01*
X705208Y831850D02*
X705206Y831934D01*
X705201Y832017D01*
X705191Y832100D01*
X705178Y832183D01*
X705161Y832265D01*
X705141Y832346D01*
X705117Y832426D01*
X705089Y832505D01*
X705058Y832582D01*
X705024Y832658D01*
X704986Y832733D01*
X704944Y832806D01*
X704900Y832876D01*
X704852Y832945D01*
X704802Y833012D01*
X704748Y833076D01*
X704692Y833137D01*
X704632Y833197D01*
X704571Y833253D01*
X704507Y833307D01*
X704440Y833357D01*
X704371Y833405D01*
X704301Y833449D01*
X704228Y833491D01*
X704153Y833529D01*
X704077Y833563D01*
X704000Y833594D01*
X703921Y833622D01*
X703841Y833646D01*
X703760Y833666D01*
X703678Y833683D01*
X703595Y833696D01*
X703512Y833706D01*
X703429Y833711D01*
X703345Y833713D01*
X700861Y833713D01*
X695997Y833713D02*
X695997Y826262D01*
X695997Y833713D02*
X692272Y833713D01*
X692272Y832471D01*
X688460Y831229D02*
X688460Y828746D01*
X688460Y831229D02*
X688458Y831328D01*
X688452Y831426D01*
X688442Y831525D01*
X688429Y831622D01*
X688411Y831720D01*
X688390Y831816D01*
X688364Y831912D01*
X688335Y832006D01*
X688303Y832099D01*
X688266Y832191D01*
X688226Y832281D01*
X688182Y832370D01*
X688135Y832457D01*
X688085Y832542D01*
X688031Y832624D01*
X687974Y832705D01*
X687914Y832783D01*
X687850Y832859D01*
X687784Y832932D01*
X687715Y833003D01*
X687643Y833071D01*
X687568Y833135D01*
X687491Y833197D01*
X687412Y833256D01*
X687330Y833311D01*
X687246Y833364D01*
X687161Y833412D01*
X687073Y833458D01*
X686983Y833500D01*
X686892Y833538D01*
X686800Y833572D01*
X686706Y833603D01*
X686611Y833630D01*
X686515Y833654D01*
X686418Y833673D01*
X686321Y833689D01*
X686223Y833701D01*
X686124Y833709D01*
X686025Y833713D01*
X685927Y833713D01*
X685828Y833709D01*
X685729Y833701D01*
X685631Y833689D01*
X685534Y833673D01*
X685437Y833654D01*
X685341Y833630D01*
X685246Y833603D01*
X685152Y833572D01*
X685060Y833538D01*
X684969Y833500D01*
X684879Y833458D01*
X684791Y833412D01*
X684706Y833364D01*
X684622Y833311D01*
X684540Y833256D01*
X684461Y833197D01*
X684384Y833135D01*
X684309Y833071D01*
X684237Y833003D01*
X684168Y832932D01*
X684102Y832859D01*
X684038Y832783D01*
X683978Y832705D01*
X683921Y832624D01*
X683867Y832542D01*
X683817Y832457D01*
X683770Y832370D01*
X683726Y832281D01*
X683686Y832191D01*
X683649Y832099D01*
X683617Y832006D01*
X683588Y831912D01*
X683562Y831816D01*
X683541Y831720D01*
X683523Y831622D01*
X683510Y831525D01*
X683500Y831426D01*
X683494Y831328D01*
X683492Y831229D01*
X683493Y831229D02*
X683493Y828746D01*
X683492Y828746D02*
X683494Y828647D01*
X683500Y828549D01*
X683510Y828450D01*
X683523Y828353D01*
X683541Y828255D01*
X683562Y828159D01*
X683588Y828063D01*
X683617Y827969D01*
X683649Y827876D01*
X683686Y827784D01*
X683726Y827694D01*
X683770Y827605D01*
X683817Y827518D01*
X683867Y827433D01*
X683921Y827351D01*
X683978Y827270D01*
X684038Y827192D01*
X684102Y827116D01*
X684168Y827043D01*
X684237Y826972D01*
X684309Y826904D01*
X684384Y826840D01*
X684461Y826778D01*
X684540Y826719D01*
X684622Y826664D01*
X684706Y826611D01*
X684791Y826563D01*
X684879Y826517D01*
X684969Y826475D01*
X685060Y826437D01*
X685152Y826403D01*
X685246Y826372D01*
X685341Y826345D01*
X685437Y826321D01*
X685534Y826302D01*
X685631Y826286D01*
X685729Y826274D01*
X685828Y826266D01*
X685927Y826262D01*
X686025Y826262D01*
X686124Y826266D01*
X686223Y826274D01*
X686321Y826286D01*
X686418Y826302D01*
X686515Y826321D01*
X686611Y826345D01*
X686706Y826372D01*
X686800Y826403D01*
X686892Y826437D01*
X686983Y826475D01*
X687073Y826517D01*
X687161Y826563D01*
X687246Y826611D01*
X687330Y826664D01*
X687412Y826719D01*
X687491Y826778D01*
X687568Y826840D01*
X687643Y826904D01*
X687715Y826972D01*
X687784Y827043D01*
X687850Y827116D01*
X687914Y827192D01*
X687974Y827270D01*
X688031Y827351D01*
X688085Y827433D01*
X688135Y827518D01*
X688182Y827605D01*
X688226Y827694D01*
X688266Y827784D01*
X688303Y827876D01*
X688335Y827969D01*
X688364Y828063D01*
X688390Y828159D01*
X688411Y828255D01*
X688429Y828353D01*
X688442Y828450D01*
X688452Y828549D01*
X688458Y828647D01*
X688460Y828746D01*
X678032Y829366D02*
X678032Y837438D01*
X678031Y829366D02*
X678029Y829255D01*
X678023Y829145D01*
X678013Y829034D01*
X677999Y828924D01*
X677982Y828815D01*
X677960Y828706D01*
X677935Y828598D01*
X677905Y828492D01*
X677872Y828386D01*
X677835Y828281D01*
X677795Y828178D01*
X677750Y828077D01*
X677703Y827977D01*
X677651Y827878D01*
X677596Y827782D01*
X677538Y827688D01*
X677477Y827596D01*
X677412Y827506D01*
X677344Y827418D01*
X677273Y827333D01*
X677199Y827251D01*
X677122Y827171D01*
X677042Y827094D01*
X676960Y827020D01*
X676875Y826949D01*
X676787Y826881D01*
X676697Y826816D01*
X676605Y826755D01*
X676511Y826697D01*
X676415Y826642D01*
X676316Y826590D01*
X676216Y826543D01*
X676115Y826498D01*
X676012Y826458D01*
X675907Y826421D01*
X675801Y826388D01*
X675695Y826358D01*
X675587Y826333D01*
X675478Y826311D01*
X675369Y826294D01*
X675259Y826280D01*
X675148Y826270D01*
X675038Y826264D01*
X674927Y826262D01*
X674816Y826264D01*
X674706Y826270D01*
X674595Y826280D01*
X674485Y826294D01*
X674376Y826311D01*
X674267Y826333D01*
X674159Y826358D01*
X674053Y826388D01*
X673947Y826421D01*
X673842Y826458D01*
X673739Y826498D01*
X673638Y826543D01*
X673538Y826590D01*
X673439Y826642D01*
X673343Y826697D01*
X673249Y826755D01*
X673157Y826816D01*
X673067Y826881D01*
X672979Y826949D01*
X672894Y827020D01*
X672812Y827094D01*
X672732Y827171D01*
X672655Y827251D01*
X672581Y827333D01*
X672510Y827418D01*
X672442Y827506D01*
X672377Y827596D01*
X672316Y827688D01*
X672258Y827782D01*
X672203Y827878D01*
X672151Y827977D01*
X672104Y828077D01*
X672059Y828178D01*
X672019Y828281D01*
X671982Y828386D01*
X671949Y828492D01*
X671919Y828598D01*
X671894Y828706D01*
X671872Y828815D01*
X671855Y828924D01*
X671841Y829034D01*
X671831Y829145D01*
X671825Y829255D01*
X671823Y829366D01*
X671823Y837438D01*
X662877Y826262D02*
X662779Y826264D01*
X662682Y826270D01*
X662585Y826279D01*
X662488Y826293D01*
X662392Y826310D01*
X662297Y826331D01*
X662203Y826355D01*
X662109Y826384D01*
X662017Y826416D01*
X661926Y826451D01*
X661837Y826490D01*
X661749Y826533D01*
X661663Y826579D01*
X661579Y826628D01*
X661497Y826681D01*
X661417Y826736D01*
X661339Y826795D01*
X661264Y826857D01*
X661191Y826922D01*
X661121Y826990D01*
X661053Y827060D01*
X660988Y827133D01*
X660926Y827208D01*
X660867Y827286D01*
X660812Y827366D01*
X660759Y827448D01*
X660710Y827532D01*
X660664Y827618D01*
X660621Y827706D01*
X660582Y827795D01*
X660547Y827886D01*
X660515Y827978D01*
X660486Y828072D01*
X660462Y828166D01*
X660441Y828261D01*
X660424Y828357D01*
X660410Y828454D01*
X660401Y828551D01*
X660395Y828648D01*
X660393Y828746D01*
X662877Y826262D02*
X663020Y826264D01*
X663163Y826270D01*
X663305Y826279D01*
X663447Y826293D01*
X663589Y826311D01*
X663730Y826332D01*
X663871Y826357D01*
X664011Y826386D01*
X664150Y826419D01*
X664288Y826455D01*
X664425Y826496D01*
X664561Y826540D01*
X664695Y826587D01*
X664829Y826639D01*
X664960Y826693D01*
X665091Y826752D01*
X665219Y826814D01*
X665346Y826879D01*
X665471Y826948D01*
X665595Y827021D01*
X665716Y827096D01*
X665835Y827175D01*
X665952Y827257D01*
X666066Y827343D01*
X666178Y827431D01*
X666288Y827522D01*
X666395Y827617D01*
X666500Y827714D01*
X666602Y827814D01*
X666292Y834954D02*
X666290Y835052D01*
X666284Y835149D01*
X666275Y835246D01*
X666261Y835343D01*
X666244Y835439D01*
X666223Y835534D01*
X666199Y835628D01*
X666170Y835722D01*
X666138Y835814D01*
X666103Y835905D01*
X666064Y835994D01*
X666021Y836082D01*
X665975Y836168D01*
X665926Y836252D01*
X665873Y836334D01*
X665818Y836414D01*
X665759Y836492D01*
X665697Y836567D01*
X665632Y836640D01*
X665564Y836710D01*
X665494Y836778D01*
X665421Y836843D01*
X665346Y836905D01*
X665268Y836964D01*
X665188Y837019D01*
X665106Y837072D01*
X665022Y837121D01*
X664936Y837167D01*
X664848Y837210D01*
X664759Y837249D01*
X664668Y837284D01*
X664576Y837316D01*
X664482Y837345D01*
X664388Y837369D01*
X664293Y837390D01*
X664197Y837407D01*
X664100Y837421D01*
X664003Y837430D01*
X663906Y837436D01*
X663808Y837438D01*
X663678Y837436D01*
X663548Y837431D01*
X663418Y837422D01*
X663288Y837409D01*
X663159Y837393D01*
X663030Y837373D01*
X662902Y837349D01*
X662774Y837322D01*
X662648Y837291D01*
X662522Y837257D01*
X662397Y837219D01*
X662274Y837178D01*
X662151Y837133D01*
X662030Y837085D01*
X661910Y837034D01*
X661792Y836979D01*
X661676Y836921D01*
X661561Y836860D01*
X661447Y836795D01*
X661336Y836728D01*
X661227Y836657D01*
X661119Y836583D01*
X661014Y836507D01*
X665049Y832781D02*
X665132Y832832D01*
X665213Y832886D01*
X665291Y832943D01*
X665367Y833003D01*
X665441Y833066D01*
X665512Y833132D01*
X665581Y833200D01*
X665647Y833271D01*
X665711Y833344D01*
X665771Y833420D01*
X665828Y833498D01*
X665883Y833579D01*
X665934Y833661D01*
X665982Y833745D01*
X666027Y833831D01*
X666069Y833919D01*
X666107Y834008D01*
X666141Y834098D01*
X666173Y834190D01*
X666200Y834283D01*
X666224Y834377D01*
X666245Y834472D01*
X666261Y834568D01*
X666274Y834664D01*
X666284Y834760D01*
X666289Y834857D01*
X666291Y834954D01*
X661635Y830919D02*
X661552Y830868D01*
X661471Y830814D01*
X661393Y830757D01*
X661317Y830697D01*
X661243Y830634D01*
X661172Y830568D01*
X661103Y830500D01*
X661037Y830429D01*
X660973Y830356D01*
X660913Y830280D01*
X660856Y830202D01*
X660801Y830121D01*
X660750Y830039D01*
X660702Y829955D01*
X660657Y829869D01*
X660615Y829781D01*
X660577Y829692D01*
X660543Y829602D01*
X660511Y829510D01*
X660484Y829417D01*
X660460Y829323D01*
X660439Y829228D01*
X660423Y829132D01*
X660410Y829036D01*
X660400Y828940D01*
X660395Y828843D01*
X660393Y828746D01*
X661635Y830919D02*
X665050Y832781D01*
X654960Y832471D02*
X651856Y832471D01*
X651856Y832470D02*
X651745Y832468D01*
X651635Y832462D01*
X651524Y832452D01*
X651414Y832438D01*
X651305Y832421D01*
X651196Y832399D01*
X651088Y832374D01*
X650982Y832344D01*
X650876Y832311D01*
X650771Y832274D01*
X650668Y832234D01*
X650567Y832189D01*
X650467Y832142D01*
X650368Y832090D01*
X650272Y832035D01*
X650178Y831977D01*
X650086Y831916D01*
X649996Y831851D01*
X649908Y831783D01*
X649823Y831712D01*
X649741Y831638D01*
X649661Y831561D01*
X649584Y831481D01*
X649510Y831399D01*
X649439Y831314D01*
X649371Y831226D01*
X649306Y831136D01*
X649245Y831044D01*
X649187Y830950D01*
X649132Y830854D01*
X649080Y830755D01*
X649033Y830655D01*
X648988Y830554D01*
X648948Y830451D01*
X648911Y830346D01*
X648878Y830240D01*
X648848Y830134D01*
X648823Y830026D01*
X648801Y829917D01*
X648784Y829808D01*
X648770Y829698D01*
X648760Y829587D01*
X648754Y829477D01*
X648752Y829366D01*
X648754Y829255D01*
X648760Y829145D01*
X648770Y829034D01*
X648784Y828924D01*
X648801Y828815D01*
X648823Y828706D01*
X648848Y828598D01*
X648878Y828492D01*
X648911Y828386D01*
X648948Y828281D01*
X648988Y828178D01*
X649033Y828077D01*
X649080Y827977D01*
X649132Y827878D01*
X649187Y827782D01*
X649245Y827688D01*
X649306Y827596D01*
X649371Y827506D01*
X649439Y827418D01*
X649510Y827333D01*
X649584Y827251D01*
X649661Y827171D01*
X649741Y827094D01*
X649823Y827020D01*
X649908Y826949D01*
X649996Y826881D01*
X650086Y826816D01*
X650178Y826755D01*
X650272Y826697D01*
X650368Y826642D01*
X650467Y826590D01*
X650567Y826543D01*
X650668Y826498D01*
X650771Y826458D01*
X650876Y826421D01*
X650982Y826388D01*
X651088Y826358D01*
X651196Y826333D01*
X651305Y826311D01*
X651414Y826294D01*
X651524Y826280D01*
X651635Y826270D01*
X651745Y826264D01*
X651856Y826262D01*
X654960Y826262D01*
X654960Y837438D01*
X651856Y837438D01*
X651757Y837436D01*
X651659Y837430D01*
X651560Y837420D01*
X651463Y837407D01*
X651365Y837389D01*
X651269Y837368D01*
X651173Y837342D01*
X651079Y837313D01*
X650986Y837281D01*
X650894Y837244D01*
X650804Y837204D01*
X650715Y837160D01*
X650628Y837113D01*
X650543Y837063D01*
X650461Y837009D01*
X650380Y836952D01*
X650302Y836892D01*
X650226Y836828D01*
X650153Y836762D01*
X650082Y836693D01*
X650014Y836621D01*
X649950Y836546D01*
X649888Y836469D01*
X649829Y836390D01*
X649774Y836308D01*
X649721Y836224D01*
X649673Y836139D01*
X649627Y836051D01*
X649585Y835961D01*
X649547Y835870D01*
X649513Y835778D01*
X649482Y835684D01*
X649455Y835589D01*
X649431Y835493D01*
X649412Y835396D01*
X649396Y835299D01*
X649384Y835201D01*
X649376Y835102D01*
X649372Y835003D01*
X649372Y834905D01*
X649376Y834806D01*
X649384Y834707D01*
X649396Y834609D01*
X649412Y834512D01*
X649431Y834415D01*
X649455Y834319D01*
X649482Y834224D01*
X649513Y834130D01*
X649547Y834038D01*
X649585Y833947D01*
X649627Y833857D01*
X649673Y833769D01*
X649721Y833684D01*
X649774Y833600D01*
X649829Y833518D01*
X649888Y833439D01*
X649950Y833362D01*
X650014Y833287D01*
X650082Y833215D01*
X650153Y833146D01*
X650226Y833080D01*
X650302Y833016D01*
X650380Y832956D01*
X650461Y832899D01*
X650543Y832845D01*
X650628Y832795D01*
X650715Y832748D01*
X650804Y832704D01*
X650894Y832664D01*
X650986Y832627D01*
X651079Y832595D01*
X651173Y832566D01*
X651269Y832540D01*
X651365Y832519D01*
X651463Y832501D01*
X651560Y832488D01*
X651659Y832478D01*
X651757Y832472D01*
X651856Y832470D01*
X710542Y320746D02*
X710544Y320648D01*
X710550Y320551D01*
X710559Y320454D01*
X710573Y320357D01*
X710590Y320261D01*
X710611Y320166D01*
X710635Y320072D01*
X710664Y319978D01*
X710696Y319886D01*
X710731Y319795D01*
X710770Y319706D01*
X710813Y319618D01*
X710859Y319532D01*
X710908Y319448D01*
X710961Y319366D01*
X711016Y319286D01*
X711075Y319208D01*
X711137Y319133D01*
X711202Y319060D01*
X711270Y318990D01*
X711340Y318922D01*
X711413Y318857D01*
X711488Y318795D01*
X711566Y318736D01*
X711646Y318681D01*
X711728Y318628D01*
X711812Y318579D01*
X711898Y318533D01*
X711986Y318490D01*
X712075Y318451D01*
X712166Y318416D01*
X712258Y318384D01*
X712352Y318355D01*
X712446Y318331D01*
X712541Y318310D01*
X712637Y318293D01*
X712734Y318279D01*
X712831Y318270D01*
X712928Y318264D01*
X713026Y318262D01*
X713169Y318264D01*
X713312Y318270D01*
X713454Y318279D01*
X713596Y318293D01*
X713738Y318311D01*
X713879Y318332D01*
X714020Y318357D01*
X714160Y318386D01*
X714299Y318419D01*
X714437Y318455D01*
X714574Y318496D01*
X714710Y318540D01*
X714844Y318587D01*
X714978Y318639D01*
X715109Y318693D01*
X715240Y318752D01*
X715368Y318814D01*
X715495Y318879D01*
X715620Y318948D01*
X715744Y319021D01*
X715865Y319096D01*
X715984Y319175D01*
X716101Y319257D01*
X716215Y319343D01*
X716327Y319431D01*
X716437Y319522D01*
X716544Y319617D01*
X716649Y319714D01*
X716751Y319814D01*
X716441Y326954D02*
X716439Y327052D01*
X716433Y327149D01*
X716424Y327246D01*
X716410Y327343D01*
X716393Y327439D01*
X716372Y327534D01*
X716348Y327628D01*
X716319Y327722D01*
X716287Y327814D01*
X716252Y327905D01*
X716213Y327994D01*
X716170Y328082D01*
X716124Y328168D01*
X716075Y328252D01*
X716022Y328334D01*
X715967Y328414D01*
X715908Y328492D01*
X715846Y328567D01*
X715781Y328640D01*
X715713Y328710D01*
X715643Y328778D01*
X715570Y328843D01*
X715495Y328905D01*
X715417Y328964D01*
X715337Y329019D01*
X715255Y329072D01*
X715171Y329121D01*
X715085Y329167D01*
X714997Y329210D01*
X714908Y329249D01*
X714817Y329284D01*
X714725Y329316D01*
X714631Y329345D01*
X714537Y329369D01*
X714442Y329390D01*
X714346Y329407D01*
X714249Y329421D01*
X714152Y329430D01*
X714055Y329436D01*
X713957Y329438D01*
X713827Y329436D01*
X713697Y329431D01*
X713567Y329422D01*
X713437Y329409D01*
X713308Y329393D01*
X713179Y329373D01*
X713051Y329349D01*
X712923Y329322D01*
X712797Y329291D01*
X712671Y329257D01*
X712546Y329219D01*
X712423Y329178D01*
X712300Y329133D01*
X712179Y329085D01*
X712059Y329034D01*
X711941Y328979D01*
X711825Y328921D01*
X711710Y328860D01*
X711596Y328795D01*
X711485Y328728D01*
X711376Y328657D01*
X711268Y328583D01*
X711163Y328507D01*
X715198Y324781D02*
X715281Y324832D01*
X715362Y324886D01*
X715440Y324943D01*
X715516Y325003D01*
X715590Y325066D01*
X715661Y325132D01*
X715730Y325200D01*
X715796Y325271D01*
X715860Y325344D01*
X715920Y325420D01*
X715977Y325498D01*
X716032Y325579D01*
X716083Y325661D01*
X716131Y325745D01*
X716176Y325831D01*
X716218Y325919D01*
X716256Y326008D01*
X716290Y326098D01*
X716322Y326190D01*
X716349Y326283D01*
X716373Y326377D01*
X716394Y326472D01*
X716410Y326568D01*
X716423Y326664D01*
X716433Y326760D01*
X716438Y326857D01*
X716440Y326954D01*
X711785Y322919D02*
X711702Y322868D01*
X711621Y322814D01*
X711543Y322757D01*
X711467Y322697D01*
X711393Y322634D01*
X711322Y322568D01*
X711253Y322500D01*
X711187Y322429D01*
X711123Y322356D01*
X711063Y322280D01*
X711006Y322202D01*
X710951Y322121D01*
X710900Y322039D01*
X710852Y321955D01*
X710807Y321869D01*
X710765Y321781D01*
X710727Y321692D01*
X710693Y321602D01*
X710661Y321510D01*
X710634Y321417D01*
X710610Y321323D01*
X710589Y321228D01*
X710573Y321132D01*
X710560Y321036D01*
X710550Y320940D01*
X710545Y320843D01*
X710543Y320746D01*
X711784Y322919D02*
X715199Y324781D01*
X705321Y329438D02*
X705321Y318262D01*
X705321Y329438D02*
X702217Y329438D01*
X702106Y329436D01*
X701996Y329430D01*
X701885Y329420D01*
X701775Y329406D01*
X701666Y329389D01*
X701557Y329367D01*
X701449Y329342D01*
X701343Y329312D01*
X701237Y329279D01*
X701132Y329242D01*
X701029Y329202D01*
X700928Y329157D01*
X700828Y329110D01*
X700729Y329058D01*
X700633Y329003D01*
X700539Y328945D01*
X700447Y328884D01*
X700357Y328819D01*
X700269Y328751D01*
X700184Y328680D01*
X700102Y328606D01*
X700022Y328529D01*
X699945Y328449D01*
X699871Y328367D01*
X699800Y328282D01*
X699732Y328194D01*
X699667Y328104D01*
X699606Y328012D01*
X699548Y327918D01*
X699493Y327822D01*
X699441Y327723D01*
X699394Y327623D01*
X699349Y327522D01*
X699309Y327419D01*
X699272Y327314D01*
X699239Y327208D01*
X699209Y327102D01*
X699184Y326994D01*
X699162Y326885D01*
X699145Y326776D01*
X699131Y326666D01*
X699121Y326555D01*
X699115Y326445D01*
X699113Y326334D01*
X699112Y326334D02*
X699112Y321366D01*
X699113Y321366D02*
X699115Y321255D01*
X699121Y321145D01*
X699131Y321034D01*
X699145Y320924D01*
X699162Y320815D01*
X699184Y320706D01*
X699209Y320598D01*
X699239Y320492D01*
X699272Y320386D01*
X699309Y320281D01*
X699349Y320178D01*
X699394Y320077D01*
X699441Y319977D01*
X699493Y319878D01*
X699548Y319782D01*
X699606Y319688D01*
X699667Y319596D01*
X699732Y319506D01*
X699800Y319418D01*
X699871Y319333D01*
X699945Y319251D01*
X700022Y319171D01*
X700102Y319094D01*
X700184Y319020D01*
X700269Y318949D01*
X700357Y318881D01*
X700447Y318816D01*
X700539Y318755D01*
X700633Y318697D01*
X700729Y318642D01*
X700828Y318590D01*
X700928Y318543D01*
X701029Y318498D01*
X701132Y318458D01*
X701237Y318421D01*
X701343Y318388D01*
X701449Y318358D01*
X701557Y318333D01*
X701666Y318311D01*
X701775Y318294D01*
X701885Y318280D01*
X701996Y318270D01*
X702106Y318264D01*
X702217Y318262D01*
X705321Y318262D01*
X684972Y318262D02*
X682489Y318262D01*
X684972Y318262D02*
X685070Y318264D01*
X685167Y318270D01*
X685264Y318279D01*
X685361Y318293D01*
X685457Y318310D01*
X685552Y318331D01*
X685646Y318355D01*
X685740Y318384D01*
X685832Y318416D01*
X685923Y318451D01*
X686012Y318490D01*
X686100Y318533D01*
X686186Y318579D01*
X686270Y318628D01*
X686352Y318681D01*
X686432Y318736D01*
X686510Y318795D01*
X686585Y318857D01*
X686658Y318922D01*
X686728Y318990D01*
X686796Y319060D01*
X686861Y319133D01*
X686923Y319208D01*
X686982Y319286D01*
X687037Y319366D01*
X687090Y319448D01*
X687139Y319532D01*
X687185Y319618D01*
X687228Y319706D01*
X687267Y319795D01*
X687302Y319886D01*
X687334Y319978D01*
X687363Y320072D01*
X687387Y320166D01*
X687408Y320261D01*
X687425Y320357D01*
X687439Y320454D01*
X687448Y320551D01*
X687454Y320649D01*
X687456Y320746D01*
X687456Y326954D01*
X687454Y327052D01*
X687448Y327149D01*
X687439Y327246D01*
X687425Y327343D01*
X687408Y327439D01*
X687387Y327534D01*
X687363Y327628D01*
X687334Y327722D01*
X687302Y327814D01*
X687267Y327905D01*
X687228Y327994D01*
X687185Y328082D01*
X687139Y328168D01*
X687090Y328252D01*
X687037Y328334D01*
X686982Y328414D01*
X686923Y328492D01*
X686861Y328567D01*
X686796Y328640D01*
X686728Y328710D01*
X686658Y328778D01*
X686585Y328843D01*
X686510Y328905D01*
X686432Y328964D01*
X686352Y329019D01*
X686270Y329072D01*
X686186Y329121D01*
X686100Y329167D01*
X686012Y329210D01*
X685923Y329249D01*
X685832Y329284D01*
X685740Y329316D01*
X685646Y329345D01*
X685552Y329369D01*
X685457Y329390D01*
X685361Y329407D01*
X685264Y329421D01*
X685167Y329430D01*
X685070Y329436D01*
X684972Y329438D01*
X682489Y329438D01*
X675931Y322608D02*
X673137Y322608D01*
X675931Y322608D02*
X676023Y322606D01*
X676115Y322600D01*
X676207Y322590D01*
X676298Y322577D01*
X676389Y322559D01*
X676479Y322538D01*
X676567Y322513D01*
X676655Y322484D01*
X676741Y322451D01*
X676826Y322415D01*
X676909Y322375D01*
X676991Y322332D01*
X677070Y322285D01*
X677148Y322235D01*
X677223Y322182D01*
X677296Y322126D01*
X677367Y322066D01*
X677435Y322004D01*
X677500Y321939D01*
X677562Y321871D01*
X677622Y321800D01*
X677678Y321727D01*
X677731Y321652D01*
X677781Y321574D01*
X677828Y321495D01*
X677871Y321413D01*
X677911Y321330D01*
X677947Y321245D01*
X677980Y321159D01*
X678009Y321071D01*
X678034Y320983D01*
X678055Y320893D01*
X678073Y320802D01*
X678086Y320711D01*
X678096Y320619D01*
X678102Y320527D01*
X678104Y320435D01*
X678102Y320343D01*
X678096Y320251D01*
X678086Y320159D01*
X678073Y320068D01*
X678055Y319977D01*
X678034Y319887D01*
X678009Y319799D01*
X677980Y319711D01*
X677947Y319625D01*
X677911Y319540D01*
X677871Y319457D01*
X677828Y319375D01*
X677781Y319296D01*
X677731Y319218D01*
X677678Y319143D01*
X677622Y319070D01*
X677562Y318999D01*
X677500Y318931D01*
X677435Y318866D01*
X677367Y318804D01*
X677296Y318744D01*
X677223Y318688D01*
X677148Y318635D01*
X677070Y318585D01*
X676991Y318538D01*
X676909Y318495D01*
X676826Y318455D01*
X676741Y318419D01*
X676655Y318386D01*
X676567Y318357D01*
X676479Y318332D01*
X676389Y318311D01*
X676298Y318293D01*
X676207Y318280D01*
X676115Y318270D01*
X676023Y318264D01*
X675931Y318262D01*
X673137Y318262D01*
X673137Y323850D01*
X673136Y323850D02*
X673138Y323934D01*
X673144Y324017D01*
X673153Y324100D01*
X673166Y324183D01*
X673183Y324265D01*
X673203Y324346D01*
X673227Y324426D01*
X673255Y324505D01*
X673286Y324582D01*
X673320Y324658D01*
X673358Y324733D01*
X673400Y324806D01*
X673444Y324876D01*
X673492Y324945D01*
X673542Y325012D01*
X673596Y325076D01*
X673652Y325137D01*
X673712Y325197D01*
X673773Y325253D01*
X673837Y325307D01*
X673904Y325357D01*
X673973Y325405D01*
X674043Y325449D01*
X674116Y325491D01*
X674191Y325529D01*
X674267Y325563D01*
X674344Y325594D01*
X674423Y325622D01*
X674503Y325646D01*
X674584Y325666D01*
X674666Y325683D01*
X674749Y325696D01*
X674832Y325706D01*
X674915Y325711D01*
X674999Y325713D01*
X677483Y325713D01*
X667279Y325713D02*
X667279Y318262D01*
X667279Y325713D02*
X663554Y325713D01*
X663554Y324471D01*
X654849Y329438D02*
X654849Y318262D01*
X657953Y318262D01*
X658037Y318264D01*
X658120Y318270D01*
X658203Y318279D01*
X658286Y318292D01*
X658368Y318309D01*
X658449Y318329D01*
X658529Y318353D01*
X658608Y318381D01*
X658685Y318412D01*
X658761Y318446D01*
X658836Y318484D01*
X658909Y318526D01*
X658979Y318570D01*
X659048Y318618D01*
X659115Y318668D01*
X659179Y318722D01*
X659240Y318778D01*
X659300Y318838D01*
X659356Y318899D01*
X659410Y318963D01*
X659460Y319030D01*
X659508Y319099D01*
X659552Y319169D01*
X659594Y319242D01*
X659632Y319317D01*
X659666Y319393D01*
X659697Y319470D01*
X659725Y319549D01*
X659749Y319629D01*
X659769Y319710D01*
X659786Y319792D01*
X659799Y319875D01*
X659809Y319958D01*
X659814Y320041D01*
X659816Y320125D01*
X659816Y323850D01*
X659814Y323934D01*
X659809Y324017D01*
X659799Y324100D01*
X659786Y324183D01*
X659769Y324265D01*
X659749Y324346D01*
X659725Y324426D01*
X659697Y324505D01*
X659666Y324582D01*
X659632Y324658D01*
X659594Y324733D01*
X659552Y324806D01*
X659508Y324876D01*
X659460Y324945D01*
X659410Y325012D01*
X659356Y325076D01*
X659300Y325137D01*
X659240Y325197D01*
X659179Y325253D01*
X659115Y325307D01*
X659048Y325357D01*
X658979Y325405D01*
X658909Y325449D01*
X658836Y325491D01*
X658761Y325529D01*
X658685Y325563D01*
X658608Y325594D01*
X658529Y325622D01*
X658449Y325646D01*
X658368Y325666D01*
X658286Y325683D01*
X658203Y325696D01*
X658120Y325706D01*
X658037Y325711D01*
X657953Y325713D01*
X654849Y325713D01*
D11*
X622300Y304800D02*
X622300Y292100D01*
X749300Y292100D01*
X749300Y304800D01*
D12*
X507238Y824237D02*
X499166Y824237D01*
X499166Y824238D02*
X499055Y824240D01*
X498945Y824246D01*
X498834Y824256D01*
X498724Y824270D01*
X498615Y824287D01*
X498506Y824309D01*
X498398Y824334D01*
X498292Y824364D01*
X498186Y824397D01*
X498081Y824434D01*
X497978Y824474D01*
X497877Y824519D01*
X497777Y824566D01*
X497678Y824618D01*
X497582Y824673D01*
X497488Y824731D01*
X497396Y824792D01*
X497306Y824857D01*
X497218Y824925D01*
X497133Y824996D01*
X497051Y825070D01*
X496971Y825147D01*
X496894Y825227D01*
X496820Y825309D01*
X496749Y825394D01*
X496681Y825482D01*
X496616Y825572D01*
X496555Y825664D01*
X496497Y825758D01*
X496442Y825854D01*
X496390Y825953D01*
X496343Y826053D01*
X496298Y826154D01*
X496258Y826257D01*
X496221Y826362D01*
X496188Y826468D01*
X496158Y826574D01*
X496133Y826682D01*
X496111Y826791D01*
X496094Y826900D01*
X496080Y827010D01*
X496070Y827121D01*
X496064Y827231D01*
X496062Y827342D01*
X496064Y827453D01*
X496070Y827563D01*
X496080Y827674D01*
X496094Y827784D01*
X496111Y827893D01*
X496133Y828002D01*
X496158Y828110D01*
X496188Y828216D01*
X496221Y828322D01*
X496258Y828427D01*
X496298Y828530D01*
X496343Y828631D01*
X496390Y828731D01*
X496442Y828830D01*
X496497Y828926D01*
X496555Y829020D01*
X496616Y829112D01*
X496681Y829202D01*
X496749Y829290D01*
X496820Y829375D01*
X496894Y829457D01*
X496971Y829537D01*
X497051Y829614D01*
X497133Y829688D01*
X497218Y829759D01*
X497306Y829827D01*
X497396Y829892D01*
X497488Y829953D01*
X497582Y830011D01*
X497678Y830066D01*
X497777Y830118D01*
X497877Y830165D01*
X497978Y830210D01*
X498081Y830250D01*
X498186Y830287D01*
X498292Y830320D01*
X498398Y830350D01*
X498506Y830375D01*
X498615Y830397D01*
X498724Y830414D01*
X498834Y830428D01*
X498945Y830438D01*
X499055Y830444D01*
X499166Y830446D01*
X507238Y830446D01*
X507238Y838390D02*
X496062Y838390D01*
X501650Y838390D02*
X502581Y836838D01*
X502627Y836766D01*
X502675Y836697D01*
X502727Y836629D01*
X502781Y836565D01*
X502839Y836502D01*
X502899Y836443D01*
X502962Y836386D01*
X503027Y836332D01*
X503095Y836282D01*
X503165Y836234D01*
X503237Y836190D01*
X503312Y836149D01*
X503387Y836111D01*
X503465Y836077D01*
X503544Y836047D01*
X503624Y836020D01*
X503706Y835997D01*
X503788Y835977D01*
X503872Y835961D01*
X503955Y835950D01*
X504040Y835942D01*
X504124Y835938D01*
X504209Y835937D01*
X504294Y835941D01*
X504378Y835948D01*
X504462Y835960D01*
X504545Y835975D01*
X504628Y835994D01*
X504710Y836017D01*
X504790Y836043D01*
X504869Y836073D01*
X504947Y836107D01*
X505023Y836144D01*
X505098Y836184D01*
X505170Y836228D01*
X505240Y836276D01*
X505308Y836326D01*
X505374Y836379D01*
X505437Y836436D01*
X505498Y836495D01*
X505556Y836557D01*
X505611Y836621D01*
X505663Y836688D01*
X505712Y836757D01*
X505757Y836829D01*
X505800Y836902D01*
X505839Y836977D01*
X505874Y837054D01*
X505906Y837133D01*
X505934Y837213D01*
X505959Y837294D01*
X505980Y837376D01*
X505997Y837459D01*
X505996Y837459D02*
X506019Y837594D01*
X506037Y837729D01*
X506053Y837864D01*
X506064Y838000D01*
X506072Y838136D01*
X506075Y838273D01*
X506076Y838409D01*
X506072Y838546D01*
X506064Y838682D01*
X506053Y838818D01*
X506038Y838953D01*
X506019Y839088D01*
X505997Y839223D01*
X505970Y839357D01*
X505940Y839490D01*
X505907Y839622D01*
X505869Y839753D01*
X505829Y839883D01*
X505784Y840012D01*
X505736Y840140D01*
X505684Y840266D01*
X505629Y840391D01*
X505571Y840514D01*
X505509Y840636D01*
X505444Y840756D01*
X505375Y840874D01*
X501650Y838390D02*
X500719Y839943D01*
X500719Y839942D02*
X500673Y840014D01*
X500625Y840083D01*
X500573Y840151D01*
X500519Y840215D01*
X500461Y840278D01*
X500401Y840337D01*
X500338Y840394D01*
X500273Y840448D01*
X500205Y840498D01*
X500135Y840546D01*
X500063Y840590D01*
X499988Y840631D01*
X499913Y840669D01*
X499835Y840703D01*
X499756Y840733D01*
X499676Y840760D01*
X499594Y840783D01*
X499512Y840803D01*
X499428Y840819D01*
X499345Y840830D01*
X499260Y840838D01*
X499176Y840842D01*
X499091Y840843D01*
X499006Y840839D01*
X498922Y840832D01*
X498838Y840820D01*
X498755Y840805D01*
X498672Y840786D01*
X498590Y840763D01*
X498510Y840737D01*
X498431Y840707D01*
X498353Y840673D01*
X498277Y840636D01*
X498202Y840596D01*
X498130Y840552D01*
X498060Y840505D01*
X497992Y840454D01*
X497926Y840401D01*
X497863Y840344D01*
X497802Y840285D01*
X497744Y840223D01*
X497689Y840159D01*
X497637Y840092D01*
X497588Y840023D01*
X497543Y839951D01*
X497500Y839878D01*
X497462Y839803D01*
X497426Y839726D01*
X497394Y839647D01*
X497366Y839568D01*
X497341Y839486D01*
X497320Y839404D01*
X497303Y839321D01*
X497303Y839322D02*
X497280Y839188D01*
X497262Y839053D01*
X497246Y838917D01*
X497235Y838781D01*
X497227Y838645D01*
X497224Y838508D01*
X497223Y838372D01*
X497227Y838236D01*
X497235Y838099D01*
X497246Y837963D01*
X497261Y837828D01*
X497280Y837693D01*
X497302Y837558D01*
X497329Y837424D01*
X497359Y837291D01*
X497392Y837159D01*
X497430Y837028D01*
X497470Y836897D01*
X497515Y836768D01*
X497563Y836641D01*
X497615Y836514D01*
X497670Y836390D01*
X497728Y836266D01*
X497790Y836145D01*
X497855Y836025D01*
X497924Y835907D01*
X504754Y845954D02*
X507238Y849058D01*
X496062Y849058D01*
X496062Y845954D02*
X496062Y852163D01*
M02*
