G04 EAGLE Gerber RS-274X export*
G75*
%MOMM*%
%FSLAX34Y34*%
%LPD*%
%INSoldermask Bottom*%
%IPPOS*%
%AMOC8*
5,1,8,0,0,1.08239X$1,22.5*%
G01*
%ADD10C,2.112400*%
%ADD11R,1.803400X1.803400*%
%ADD12C,1.803400*%
%ADD13R,1.676400X1.676400*%
%ADD14P,1.814519X8X292.500000*%
%ADD15C,1.828800*%
%ADD16C,4.168400*%
%ADD17C,0.609600*%
%ADD18C,1.168400*%
%ADD19C,4.597400*%


D10*
X430800Y177400D03*
X430800Y127400D03*
X305800Y127400D03*
X305800Y177400D03*
D11*
X977900Y165100D03*
D12*
X977900Y139700D03*
X977900Y114300D03*
D13*
X828300Y791800D03*
D14*
X802900Y791800D03*
X828300Y766400D03*
X802900Y766400D03*
X828300Y741000D03*
X802900Y741000D03*
X828300Y715600D03*
X802900Y715600D03*
X828300Y690200D03*
X802900Y690200D03*
X828300Y664800D03*
X802900Y664800D03*
X828300Y639400D03*
X802900Y639400D03*
X828300Y614000D03*
X802900Y614000D03*
X828300Y588600D03*
X802900Y588600D03*
X828300Y563200D03*
X802900Y563200D03*
X828300Y537800D03*
X802900Y537800D03*
X828300Y512400D03*
X802900Y512400D03*
X828300Y487000D03*
X802900Y487000D03*
X828300Y461600D03*
X802900Y461600D03*
X828300Y436200D03*
X802900Y436200D03*
X828300Y410800D03*
X802900Y410800D03*
X828300Y385400D03*
X802900Y385400D03*
X828300Y360000D03*
X802900Y360000D03*
D13*
X574300Y791800D03*
D14*
X548900Y791800D03*
X574300Y766400D03*
X548900Y766400D03*
X574300Y741000D03*
X548900Y741000D03*
X574300Y715600D03*
X548900Y715600D03*
X574300Y690200D03*
X548900Y690200D03*
X574300Y664800D03*
X548900Y664800D03*
X574300Y639400D03*
X548900Y639400D03*
X574300Y614000D03*
X548900Y614000D03*
X574300Y588600D03*
X548900Y588600D03*
X574300Y563200D03*
X548900Y563200D03*
X574300Y537800D03*
X548900Y537800D03*
X574300Y512400D03*
X548900Y512400D03*
X574300Y487000D03*
X548900Y487000D03*
X574300Y461600D03*
X548900Y461600D03*
X574300Y436200D03*
X548900Y436200D03*
X574300Y410800D03*
X548900Y410800D03*
X574300Y385400D03*
X548900Y385400D03*
X574300Y360000D03*
X548900Y360000D03*
D15*
X236220Y817880D03*
X236220Y792480D03*
X236220Y767080D03*
X236220Y741680D03*
X236220Y716280D03*
X236220Y690880D03*
X236220Y665480D03*
X236220Y640080D03*
X236220Y614680D03*
X236220Y589280D03*
X236220Y563880D03*
X236220Y538480D03*
X236220Y513080D03*
X236220Y487680D03*
X236220Y462280D03*
X236220Y436880D03*
X236220Y411480D03*
X236220Y386080D03*
X236220Y360680D03*
X236220Y335280D03*
X1068070Y817880D03*
X1068070Y792480D03*
X1068070Y767080D03*
X1068070Y741680D03*
X1068070Y716280D03*
X1068070Y690880D03*
X1068070Y665480D03*
X1068070Y640080D03*
X1068070Y614680D03*
X1068070Y589280D03*
X1068070Y563880D03*
X1068070Y538480D03*
X1068070Y513080D03*
X1068070Y487680D03*
X1068070Y462280D03*
X1068070Y436880D03*
X1068070Y411480D03*
X1068070Y386080D03*
X1068070Y360680D03*
X1068070Y335280D03*
D16*
X1068070Y290830D03*
X1068070Y862330D03*
X236220Y290830D03*
X236220Y862330D03*
D17*
X43180Y114300D02*
X43182Y114487D01*
X43189Y114674D01*
X43201Y114861D01*
X43217Y115047D01*
X43237Y115233D01*
X43262Y115418D01*
X43292Y115603D01*
X43326Y115787D01*
X43365Y115970D01*
X43408Y116152D01*
X43456Y116332D01*
X43508Y116512D01*
X43565Y116690D01*
X43625Y116867D01*
X43691Y117042D01*
X43760Y117216D01*
X43834Y117388D01*
X43912Y117558D01*
X43994Y117726D01*
X44080Y117892D01*
X44170Y118056D01*
X44264Y118217D01*
X44362Y118377D01*
X44464Y118533D01*
X44570Y118688D01*
X44680Y118839D01*
X44793Y118988D01*
X44910Y119134D01*
X45030Y119277D01*
X45154Y119417D01*
X45281Y119554D01*
X45412Y119688D01*
X45546Y119819D01*
X45683Y119946D01*
X45823Y120070D01*
X45966Y120190D01*
X46112Y120307D01*
X46261Y120420D01*
X46412Y120530D01*
X46567Y120636D01*
X46723Y120738D01*
X46883Y120836D01*
X47044Y120930D01*
X47208Y121020D01*
X47374Y121106D01*
X47542Y121188D01*
X47712Y121266D01*
X47884Y121340D01*
X48058Y121409D01*
X48233Y121475D01*
X48410Y121535D01*
X48588Y121592D01*
X48768Y121644D01*
X48948Y121692D01*
X49130Y121735D01*
X49313Y121774D01*
X49497Y121808D01*
X49682Y121838D01*
X49867Y121863D01*
X50053Y121883D01*
X50239Y121899D01*
X50426Y121911D01*
X50613Y121918D01*
X50800Y121920D01*
X50987Y121918D01*
X51174Y121911D01*
X51361Y121899D01*
X51547Y121883D01*
X51733Y121863D01*
X51918Y121838D01*
X52103Y121808D01*
X52287Y121774D01*
X52470Y121735D01*
X52652Y121692D01*
X52832Y121644D01*
X53012Y121592D01*
X53190Y121535D01*
X53367Y121475D01*
X53542Y121409D01*
X53716Y121340D01*
X53888Y121266D01*
X54058Y121188D01*
X54226Y121106D01*
X54392Y121020D01*
X54556Y120930D01*
X54717Y120836D01*
X54877Y120738D01*
X55033Y120636D01*
X55188Y120530D01*
X55339Y120420D01*
X55488Y120307D01*
X55634Y120190D01*
X55777Y120070D01*
X55917Y119946D01*
X56054Y119819D01*
X56188Y119688D01*
X56319Y119554D01*
X56446Y119417D01*
X56570Y119277D01*
X56690Y119134D01*
X56807Y118988D01*
X56920Y118839D01*
X57030Y118688D01*
X57136Y118533D01*
X57238Y118377D01*
X57336Y118217D01*
X57430Y118056D01*
X57520Y117892D01*
X57606Y117726D01*
X57688Y117558D01*
X57766Y117388D01*
X57840Y117216D01*
X57909Y117042D01*
X57975Y116867D01*
X58035Y116690D01*
X58092Y116512D01*
X58144Y116332D01*
X58192Y116152D01*
X58235Y115970D01*
X58274Y115787D01*
X58308Y115603D01*
X58338Y115418D01*
X58363Y115233D01*
X58383Y115047D01*
X58399Y114861D01*
X58411Y114674D01*
X58418Y114487D01*
X58420Y114300D01*
X58418Y114113D01*
X58411Y113926D01*
X58399Y113739D01*
X58383Y113553D01*
X58363Y113367D01*
X58338Y113182D01*
X58308Y112997D01*
X58274Y112813D01*
X58235Y112630D01*
X58192Y112448D01*
X58144Y112268D01*
X58092Y112088D01*
X58035Y111910D01*
X57975Y111733D01*
X57909Y111558D01*
X57840Y111384D01*
X57766Y111212D01*
X57688Y111042D01*
X57606Y110874D01*
X57520Y110708D01*
X57430Y110544D01*
X57336Y110383D01*
X57238Y110223D01*
X57136Y110067D01*
X57030Y109912D01*
X56920Y109761D01*
X56807Y109612D01*
X56690Y109466D01*
X56570Y109323D01*
X56446Y109183D01*
X56319Y109046D01*
X56188Y108912D01*
X56054Y108781D01*
X55917Y108654D01*
X55777Y108530D01*
X55634Y108410D01*
X55488Y108293D01*
X55339Y108180D01*
X55188Y108070D01*
X55033Y107964D01*
X54877Y107862D01*
X54717Y107764D01*
X54556Y107670D01*
X54392Y107580D01*
X54226Y107494D01*
X54058Y107412D01*
X53888Y107334D01*
X53716Y107260D01*
X53542Y107191D01*
X53367Y107125D01*
X53190Y107065D01*
X53012Y107008D01*
X52832Y106956D01*
X52652Y106908D01*
X52470Y106865D01*
X52287Y106826D01*
X52103Y106792D01*
X51918Y106762D01*
X51733Y106737D01*
X51547Y106717D01*
X51361Y106701D01*
X51174Y106689D01*
X50987Y106682D01*
X50800Y106680D01*
X50613Y106682D01*
X50426Y106689D01*
X50239Y106701D01*
X50053Y106717D01*
X49867Y106737D01*
X49682Y106762D01*
X49497Y106792D01*
X49313Y106826D01*
X49130Y106865D01*
X48948Y106908D01*
X48768Y106956D01*
X48588Y107008D01*
X48410Y107065D01*
X48233Y107125D01*
X48058Y107191D01*
X47884Y107260D01*
X47712Y107334D01*
X47542Y107412D01*
X47374Y107494D01*
X47208Y107580D01*
X47044Y107670D01*
X46883Y107764D01*
X46723Y107862D01*
X46567Y107964D01*
X46412Y108070D01*
X46261Y108180D01*
X46112Y108293D01*
X45966Y108410D01*
X45823Y108530D01*
X45683Y108654D01*
X45546Y108781D01*
X45412Y108912D01*
X45281Y109046D01*
X45154Y109183D01*
X45030Y109323D01*
X44910Y109466D01*
X44793Y109612D01*
X44680Y109761D01*
X44570Y109912D01*
X44464Y110067D01*
X44362Y110223D01*
X44264Y110383D01*
X44170Y110544D01*
X44080Y110708D01*
X43994Y110874D01*
X43912Y111042D01*
X43834Y111212D01*
X43760Y111384D01*
X43691Y111558D01*
X43625Y111733D01*
X43565Y111910D01*
X43508Y112088D01*
X43456Y112268D01*
X43408Y112448D01*
X43365Y112630D01*
X43326Y112813D01*
X43292Y112997D01*
X43262Y113182D01*
X43237Y113367D01*
X43217Y113553D01*
X43201Y113739D01*
X43189Y113926D01*
X43182Y114113D01*
X43180Y114300D01*
D18*
X50800Y114300D03*
D17*
X1211580Y114300D02*
X1211582Y114487D01*
X1211589Y114674D01*
X1211601Y114861D01*
X1211617Y115047D01*
X1211637Y115233D01*
X1211662Y115418D01*
X1211692Y115603D01*
X1211726Y115787D01*
X1211765Y115970D01*
X1211808Y116152D01*
X1211856Y116332D01*
X1211908Y116512D01*
X1211965Y116690D01*
X1212025Y116867D01*
X1212091Y117042D01*
X1212160Y117216D01*
X1212234Y117388D01*
X1212312Y117558D01*
X1212394Y117726D01*
X1212480Y117892D01*
X1212570Y118056D01*
X1212664Y118217D01*
X1212762Y118377D01*
X1212864Y118533D01*
X1212970Y118688D01*
X1213080Y118839D01*
X1213193Y118988D01*
X1213310Y119134D01*
X1213430Y119277D01*
X1213554Y119417D01*
X1213681Y119554D01*
X1213812Y119688D01*
X1213946Y119819D01*
X1214083Y119946D01*
X1214223Y120070D01*
X1214366Y120190D01*
X1214512Y120307D01*
X1214661Y120420D01*
X1214812Y120530D01*
X1214967Y120636D01*
X1215123Y120738D01*
X1215283Y120836D01*
X1215444Y120930D01*
X1215608Y121020D01*
X1215774Y121106D01*
X1215942Y121188D01*
X1216112Y121266D01*
X1216284Y121340D01*
X1216458Y121409D01*
X1216633Y121475D01*
X1216810Y121535D01*
X1216988Y121592D01*
X1217168Y121644D01*
X1217348Y121692D01*
X1217530Y121735D01*
X1217713Y121774D01*
X1217897Y121808D01*
X1218082Y121838D01*
X1218267Y121863D01*
X1218453Y121883D01*
X1218639Y121899D01*
X1218826Y121911D01*
X1219013Y121918D01*
X1219200Y121920D01*
X1219387Y121918D01*
X1219574Y121911D01*
X1219761Y121899D01*
X1219947Y121883D01*
X1220133Y121863D01*
X1220318Y121838D01*
X1220503Y121808D01*
X1220687Y121774D01*
X1220870Y121735D01*
X1221052Y121692D01*
X1221232Y121644D01*
X1221412Y121592D01*
X1221590Y121535D01*
X1221767Y121475D01*
X1221942Y121409D01*
X1222116Y121340D01*
X1222288Y121266D01*
X1222458Y121188D01*
X1222626Y121106D01*
X1222792Y121020D01*
X1222956Y120930D01*
X1223117Y120836D01*
X1223277Y120738D01*
X1223433Y120636D01*
X1223588Y120530D01*
X1223739Y120420D01*
X1223888Y120307D01*
X1224034Y120190D01*
X1224177Y120070D01*
X1224317Y119946D01*
X1224454Y119819D01*
X1224588Y119688D01*
X1224719Y119554D01*
X1224846Y119417D01*
X1224970Y119277D01*
X1225090Y119134D01*
X1225207Y118988D01*
X1225320Y118839D01*
X1225430Y118688D01*
X1225536Y118533D01*
X1225638Y118377D01*
X1225736Y118217D01*
X1225830Y118056D01*
X1225920Y117892D01*
X1226006Y117726D01*
X1226088Y117558D01*
X1226166Y117388D01*
X1226240Y117216D01*
X1226309Y117042D01*
X1226375Y116867D01*
X1226435Y116690D01*
X1226492Y116512D01*
X1226544Y116332D01*
X1226592Y116152D01*
X1226635Y115970D01*
X1226674Y115787D01*
X1226708Y115603D01*
X1226738Y115418D01*
X1226763Y115233D01*
X1226783Y115047D01*
X1226799Y114861D01*
X1226811Y114674D01*
X1226818Y114487D01*
X1226820Y114300D01*
X1226818Y114113D01*
X1226811Y113926D01*
X1226799Y113739D01*
X1226783Y113553D01*
X1226763Y113367D01*
X1226738Y113182D01*
X1226708Y112997D01*
X1226674Y112813D01*
X1226635Y112630D01*
X1226592Y112448D01*
X1226544Y112268D01*
X1226492Y112088D01*
X1226435Y111910D01*
X1226375Y111733D01*
X1226309Y111558D01*
X1226240Y111384D01*
X1226166Y111212D01*
X1226088Y111042D01*
X1226006Y110874D01*
X1225920Y110708D01*
X1225830Y110544D01*
X1225736Y110383D01*
X1225638Y110223D01*
X1225536Y110067D01*
X1225430Y109912D01*
X1225320Y109761D01*
X1225207Y109612D01*
X1225090Y109466D01*
X1224970Y109323D01*
X1224846Y109183D01*
X1224719Y109046D01*
X1224588Y108912D01*
X1224454Y108781D01*
X1224317Y108654D01*
X1224177Y108530D01*
X1224034Y108410D01*
X1223888Y108293D01*
X1223739Y108180D01*
X1223588Y108070D01*
X1223433Y107964D01*
X1223277Y107862D01*
X1223117Y107764D01*
X1222956Y107670D01*
X1222792Y107580D01*
X1222626Y107494D01*
X1222458Y107412D01*
X1222288Y107334D01*
X1222116Y107260D01*
X1221942Y107191D01*
X1221767Y107125D01*
X1221590Y107065D01*
X1221412Y107008D01*
X1221232Y106956D01*
X1221052Y106908D01*
X1220870Y106865D01*
X1220687Y106826D01*
X1220503Y106792D01*
X1220318Y106762D01*
X1220133Y106737D01*
X1219947Y106717D01*
X1219761Y106701D01*
X1219574Y106689D01*
X1219387Y106682D01*
X1219200Y106680D01*
X1219013Y106682D01*
X1218826Y106689D01*
X1218639Y106701D01*
X1218453Y106717D01*
X1218267Y106737D01*
X1218082Y106762D01*
X1217897Y106792D01*
X1217713Y106826D01*
X1217530Y106865D01*
X1217348Y106908D01*
X1217168Y106956D01*
X1216988Y107008D01*
X1216810Y107065D01*
X1216633Y107125D01*
X1216458Y107191D01*
X1216284Y107260D01*
X1216112Y107334D01*
X1215942Y107412D01*
X1215774Y107494D01*
X1215608Y107580D01*
X1215444Y107670D01*
X1215283Y107764D01*
X1215123Y107862D01*
X1214967Y107964D01*
X1214812Y108070D01*
X1214661Y108180D01*
X1214512Y108293D01*
X1214366Y108410D01*
X1214223Y108530D01*
X1214083Y108654D01*
X1213946Y108781D01*
X1213812Y108912D01*
X1213681Y109046D01*
X1213554Y109183D01*
X1213430Y109323D01*
X1213310Y109466D01*
X1213193Y109612D01*
X1213080Y109761D01*
X1212970Y109912D01*
X1212864Y110067D01*
X1212762Y110223D01*
X1212664Y110383D01*
X1212570Y110544D01*
X1212480Y110708D01*
X1212394Y110874D01*
X1212312Y111042D01*
X1212234Y111212D01*
X1212160Y111384D01*
X1212091Y111558D01*
X1212025Y111733D01*
X1211965Y111910D01*
X1211908Y112088D01*
X1211856Y112268D01*
X1211808Y112448D01*
X1211765Y112630D01*
X1211726Y112813D01*
X1211692Y112997D01*
X1211662Y113182D01*
X1211637Y113367D01*
X1211617Y113553D01*
X1211601Y113739D01*
X1211589Y113926D01*
X1211582Y114113D01*
X1211580Y114300D01*
D18*
X1219200Y114300D03*
D17*
X55880Y908050D02*
X55882Y908237D01*
X55889Y908424D01*
X55901Y908611D01*
X55917Y908797D01*
X55937Y908983D01*
X55962Y909168D01*
X55992Y909353D01*
X56026Y909537D01*
X56065Y909720D01*
X56108Y909902D01*
X56156Y910082D01*
X56208Y910262D01*
X56265Y910440D01*
X56325Y910617D01*
X56391Y910792D01*
X56460Y910966D01*
X56534Y911138D01*
X56612Y911308D01*
X56694Y911476D01*
X56780Y911642D01*
X56870Y911806D01*
X56964Y911967D01*
X57062Y912127D01*
X57164Y912283D01*
X57270Y912438D01*
X57380Y912589D01*
X57493Y912738D01*
X57610Y912884D01*
X57730Y913027D01*
X57854Y913167D01*
X57981Y913304D01*
X58112Y913438D01*
X58246Y913569D01*
X58383Y913696D01*
X58523Y913820D01*
X58666Y913940D01*
X58812Y914057D01*
X58961Y914170D01*
X59112Y914280D01*
X59267Y914386D01*
X59423Y914488D01*
X59583Y914586D01*
X59744Y914680D01*
X59908Y914770D01*
X60074Y914856D01*
X60242Y914938D01*
X60412Y915016D01*
X60584Y915090D01*
X60758Y915159D01*
X60933Y915225D01*
X61110Y915285D01*
X61288Y915342D01*
X61468Y915394D01*
X61648Y915442D01*
X61830Y915485D01*
X62013Y915524D01*
X62197Y915558D01*
X62382Y915588D01*
X62567Y915613D01*
X62753Y915633D01*
X62939Y915649D01*
X63126Y915661D01*
X63313Y915668D01*
X63500Y915670D01*
X63687Y915668D01*
X63874Y915661D01*
X64061Y915649D01*
X64247Y915633D01*
X64433Y915613D01*
X64618Y915588D01*
X64803Y915558D01*
X64987Y915524D01*
X65170Y915485D01*
X65352Y915442D01*
X65532Y915394D01*
X65712Y915342D01*
X65890Y915285D01*
X66067Y915225D01*
X66242Y915159D01*
X66416Y915090D01*
X66588Y915016D01*
X66758Y914938D01*
X66926Y914856D01*
X67092Y914770D01*
X67256Y914680D01*
X67417Y914586D01*
X67577Y914488D01*
X67733Y914386D01*
X67888Y914280D01*
X68039Y914170D01*
X68188Y914057D01*
X68334Y913940D01*
X68477Y913820D01*
X68617Y913696D01*
X68754Y913569D01*
X68888Y913438D01*
X69019Y913304D01*
X69146Y913167D01*
X69270Y913027D01*
X69390Y912884D01*
X69507Y912738D01*
X69620Y912589D01*
X69730Y912438D01*
X69836Y912283D01*
X69938Y912127D01*
X70036Y911967D01*
X70130Y911806D01*
X70220Y911642D01*
X70306Y911476D01*
X70388Y911308D01*
X70466Y911138D01*
X70540Y910966D01*
X70609Y910792D01*
X70675Y910617D01*
X70735Y910440D01*
X70792Y910262D01*
X70844Y910082D01*
X70892Y909902D01*
X70935Y909720D01*
X70974Y909537D01*
X71008Y909353D01*
X71038Y909168D01*
X71063Y908983D01*
X71083Y908797D01*
X71099Y908611D01*
X71111Y908424D01*
X71118Y908237D01*
X71120Y908050D01*
X71118Y907863D01*
X71111Y907676D01*
X71099Y907489D01*
X71083Y907303D01*
X71063Y907117D01*
X71038Y906932D01*
X71008Y906747D01*
X70974Y906563D01*
X70935Y906380D01*
X70892Y906198D01*
X70844Y906018D01*
X70792Y905838D01*
X70735Y905660D01*
X70675Y905483D01*
X70609Y905308D01*
X70540Y905134D01*
X70466Y904962D01*
X70388Y904792D01*
X70306Y904624D01*
X70220Y904458D01*
X70130Y904294D01*
X70036Y904133D01*
X69938Y903973D01*
X69836Y903817D01*
X69730Y903662D01*
X69620Y903511D01*
X69507Y903362D01*
X69390Y903216D01*
X69270Y903073D01*
X69146Y902933D01*
X69019Y902796D01*
X68888Y902662D01*
X68754Y902531D01*
X68617Y902404D01*
X68477Y902280D01*
X68334Y902160D01*
X68188Y902043D01*
X68039Y901930D01*
X67888Y901820D01*
X67733Y901714D01*
X67577Y901612D01*
X67417Y901514D01*
X67256Y901420D01*
X67092Y901330D01*
X66926Y901244D01*
X66758Y901162D01*
X66588Y901084D01*
X66416Y901010D01*
X66242Y900941D01*
X66067Y900875D01*
X65890Y900815D01*
X65712Y900758D01*
X65532Y900706D01*
X65352Y900658D01*
X65170Y900615D01*
X64987Y900576D01*
X64803Y900542D01*
X64618Y900512D01*
X64433Y900487D01*
X64247Y900467D01*
X64061Y900451D01*
X63874Y900439D01*
X63687Y900432D01*
X63500Y900430D01*
X63313Y900432D01*
X63126Y900439D01*
X62939Y900451D01*
X62753Y900467D01*
X62567Y900487D01*
X62382Y900512D01*
X62197Y900542D01*
X62013Y900576D01*
X61830Y900615D01*
X61648Y900658D01*
X61468Y900706D01*
X61288Y900758D01*
X61110Y900815D01*
X60933Y900875D01*
X60758Y900941D01*
X60584Y901010D01*
X60412Y901084D01*
X60242Y901162D01*
X60074Y901244D01*
X59908Y901330D01*
X59744Y901420D01*
X59583Y901514D01*
X59423Y901612D01*
X59267Y901714D01*
X59112Y901820D01*
X58961Y901930D01*
X58812Y902043D01*
X58666Y902160D01*
X58523Y902280D01*
X58383Y902404D01*
X58246Y902531D01*
X58112Y902662D01*
X57981Y902796D01*
X57854Y902933D01*
X57730Y903073D01*
X57610Y903216D01*
X57493Y903362D01*
X57380Y903511D01*
X57270Y903662D01*
X57164Y903817D01*
X57062Y903973D01*
X56964Y904133D01*
X56870Y904294D01*
X56780Y904458D01*
X56694Y904624D01*
X56612Y904792D01*
X56534Y904962D01*
X56460Y905134D01*
X56391Y905308D01*
X56325Y905483D01*
X56265Y905660D01*
X56208Y905838D01*
X56156Y906018D01*
X56108Y906198D01*
X56065Y906380D01*
X56026Y906563D01*
X55992Y906747D01*
X55962Y906932D01*
X55937Y907117D01*
X55917Y907303D01*
X55901Y907489D01*
X55889Y907676D01*
X55882Y907863D01*
X55880Y908050D01*
D18*
X63500Y908050D03*
D19*
X50800Y50800D03*
X1219200Y50800D03*
X1219200Y965200D03*
X63500Y965200D03*
M02*
