M48
;GenerationSoftware,Autodesk,EAGLE,9.6.2*%
;CreationDate,2023-12-16T15:34:11Z*%
FMAT,2
ICI,OFF
METRIC,TZ,000.000
T6C0.305
T5C0.889
T4C1.000
T3C1.400
T2C3.000
T1C3.175
%
G90
M71
T1
X6350Y96520
X5080Y5080
X121920Y5080
X121920Y96520
T2
X106807Y86233
X106807Y29083
X23622Y29083
X23622Y86233
T3
X43080Y12740
X43080Y17740
X30580Y12740
X30580Y17740
T4
X23622Y66548
X23622Y64008
X23622Y61468
X23622Y58928
X23622Y56388
X23622Y53848
X23622Y51308
X23622Y48768
X23622Y46228
X23622Y41148
X23622Y38608
X23622Y36068
X23622Y33528
X106807Y81788
X106807Y79248
X106807Y76708
X106807Y74168
X106807Y71628
X106807Y69088
X106807Y66548
X106807Y64008
X106807Y61468
X106807Y58928
X106807Y56388
X106807Y51308
X106807Y48768
X106807Y46228
X23622Y71628
X106807Y41148
X106807Y38608
X106807Y36068
X106807Y33528
X23622Y74168
X106807Y43688
X23622Y76708
X23622Y79248
X23622Y43688
X23622Y81788
X23622Y69088
X106807Y53848
T5
X57430Y74100
X54890Y74100
X57430Y71560
X54890Y71560
X57430Y69020
X54890Y69020
X57430Y66480
X54890Y66480
X57430Y63940
X54890Y63940
X57430Y61400
X54890Y61400
X57430Y58860
X54890Y58860
X82830Y53780
X54890Y56320
X57430Y53780
X54890Y53780
X57430Y51240
X54890Y51240
X57430Y48700
X54890Y48700
X57430Y46160
X54890Y46160
X57430Y43620
X54890Y43620
X57430Y41080
X54890Y41080
X57430Y38540
X54890Y38540
X57430Y36000
X54890Y36000
X82830Y74100
X97790Y16510
X97790Y13970
X97790Y11430
X82830Y79180
X80290Y79180
X82830Y76640
X80290Y76640
X80290Y74100
X82830Y71560
X80290Y71560
X82830Y69020
X80290Y69020
X82830Y66480
X80290Y66480
X82830Y63940
X80290Y63940
X82830Y61400
X80290Y61400
X82830Y58860
X80290Y58860
X82830Y56320
X80290Y56320
X80290Y53780
X82830Y51240
X80290Y51240
X57430Y56320
X82830Y48700
X80290Y48700
X82830Y46160
X80290Y46160
X82830Y43620
X80290Y43620
X82830Y41080
X80290Y41080
X82830Y38540
X80290Y38540
X82830Y36000
X80290Y36000
X57430Y79180
X54890Y79180
X57430Y76640
X54890Y76640
T6
X84455Y5080
X26670Y12700
X46990Y12700
X53975Y19685
X92075Y11430
M30